<?xml version="1.0" encoding="utf-8" standalone="no"?>
<!DOCTYPE svg PUBLIC "-//W3C//DTD SVG 1.1//EN"
  "http://www.w3.org/Graphics/SVG/1.1/DTD/svg11.dtd">
<svg xmlns:xlink="http://www.w3.org/1999/xlink" width="720pt" height="720pt" viewBox="0 0 720 720" xmlns="http://www.w3.org/2000/svg" version="1.1">
 <metadata>
  <rdf:RDF xmlns:dc="http://purl.org/dc/elements/1.1/" xmlns:cc="http://creativecommons.org/ns#" xmlns:rdf="http://www.w3.org/1999/02/22-rdf-syntax-ns#">
   <cc:Work>
    <dc:type rdf:resource="http://purl.org/dc/dcmitype/StillImage"/>
    <dc:date>2021-12-15T09:45:13.835294</dc:date>
    <dc:format>image/svg+xml</dc:format>
    <dc:creator>
     <cc:Agent>
      <dc:title>Matplotlib v3.5.1, https://matplotlib.org/</dc:title>
     </cc:Agent>
    </dc:creator>
   </cc:Work>
  </rdf:RDF>
 </metadata>
 <defs>
  <style type="text/css">*{stroke-linejoin: round; stroke-linecap: butt}</style>
 </defs>
 <g id="figure_1">
  <g id="patch_1">
   <path d="M 0 720 
L 720 720 
L 720 0 
L 0 0 
z
" style="fill: #ffffff"/>
  </g>
  <g id="axes_1">
   <g id="patch_2">
    <path d="M 90 640.8 
L 648 640.8 
L 648 86.4 
L 90 86.4 
z
" style="fill: #eaeaf2"/>
   </g>
   <g id="matplotlib.axis_1">
    <g id="xtick_1">
     <g id="line2d_1">
      <path d="M 131.727273 640.8 
L 131.727273 86.4 
" clip-path="url(#pe5363c684f)" style="fill: none; stroke: #ffffff; stroke-linecap: round"/>
     </g>
     <g id="text_1">
      <!-- 2020-02 -->
      <g style="fill: #262626" transform="translate(109.996257 659.093125)scale(0.11 -0.11)">
       <defs>
        <path id="MicrosoftYaHei-32" d="M 2666 3572 
Q 2666 3963 2419 4186 
Q 2172 4409 1747 4409 
Q 1447 4409 1140 4256 
Q 834 4103 569 3819 
L 569 4413 
Q 806 4659 1107 4790 
Q 1409 4922 1816 4922 
Q 2472 4922 2872 4570 
Q 3272 4219 3272 3619 
Q 3272 3084 3026 2693 
Q 2781 2303 2188 1894 
Q 1581 1475 1376 1294 
Q 1172 1113 1090 947 
Q 1009 781 1009 544 
L 3416 544 
L 3416 0 
L 372 0 
L 372 241 
Q 372 659 486 951 
Q 600 1244 862 1520 
Q 1125 1797 1681 2184 
Q 2250 2584 2458 2886 
Q 2666 3188 2666 3572 
z
" transform="scale(0.015625)"/>
        <path id="MicrosoftYaHei-30" d="M 284 2325 
Q 284 3606 709 4264 
Q 1134 4922 1941 4922 
Q 3478 4922 3478 2441 
Q 3478 1216 3045 567 
Q 2613 -81 1831 -81 
Q 1094 -81 689 534 
Q 284 1150 284 2325 
z
M 909 2353 
Q 909 425 1888 425 
Q 2850 425 2850 2384 
Q 2850 4413 1906 4413 
Q 909 4413 909 2353 
z
" transform="scale(0.015625)"/>
        <path id="MicrosoftYaHei-2d" d="M 2328 1681 
L 488 1681 
L 488 2153 
L 2328 2153 
L 2328 1681 
z
" transform="scale(0.015625)"/>
       </defs>
       <use xlink:href="#MicrosoftYaHei-32"/>
       <use xlink:href="#MicrosoftYaHei-30" x="58.642578"/>
       <use xlink:href="#MicrosoftYaHei-32" x="117.285156"/>
       <use xlink:href="#MicrosoftYaHei-30" x="175.927734"/>
       <use xlink:href="#MicrosoftYaHei-2d" x="234.570312"/>
       <use xlink:href="#MicrosoftYaHei-30" x="277.832031"/>
       <use xlink:href="#MicrosoftYaHei-32" x="336.474609"/>
      </g>
     </g>
    </g>
    <g id="xtick_2">
     <g id="line2d_2">
      <path d="M 226.636364 640.8 
L 226.636364 86.4 
" clip-path="url(#pe5363c684f)" style="fill: none; stroke: #ffffff; stroke-linecap: round"/>
     </g>
     <g id="text_2">
      <!-- 2020-03 -->
      <g style="fill: #262626" transform="translate(204.905348 659.093125)scale(0.11 -0.11)">
       <defs>
        <path id="MicrosoftYaHei-33" d="M 447 809 
Q 944 425 1569 425 
Q 2069 425 2361 670 
Q 2653 916 2653 1328 
Q 2653 2247 1338 2247 
L 934 2247 
L 934 2753 
L 1319 2753 
Q 2484 2753 2484 3616 
Q 2484 4413 1594 4413 
Q 1084 4413 634 4069 
L 634 4647 
Q 1109 4922 1744 4922 
Q 2363 4922 2738 4598 
Q 3113 4275 3113 3759 
Q 3113 2809 2144 2538 
L 2144 2525 
Q 2669 2469 2973 2155 
Q 3278 1841 3278 1372 
Q 3278 719 2808 319 
Q 2338 -81 1556 -81 
Q 869 -81 447 175 
L 447 809 
z
" transform="scale(0.015625)"/>
       </defs>
       <use xlink:href="#MicrosoftYaHei-32"/>
       <use xlink:href="#MicrosoftYaHei-30" x="58.642578"/>
       <use xlink:href="#MicrosoftYaHei-32" x="117.285156"/>
       <use xlink:href="#MicrosoftYaHei-30" x="175.927734"/>
       <use xlink:href="#MicrosoftYaHei-2d" x="234.570312"/>
       <use xlink:href="#MicrosoftYaHei-30" x="277.832031"/>
       <use xlink:href="#MicrosoftYaHei-33" x="336.474609"/>
      </g>
     </g>
    </g>
    <g id="xtick_3">
     <g id="line2d_3">
      <path d="M 328.090909 640.8 
L 328.090909 86.4 
" clip-path="url(#pe5363c684f)" style="fill: none; stroke: #ffffff; stroke-linecap: round"/>
     </g>
     <g id="text_3">
      <!-- 2020-04 -->
      <g style="fill: #262626" transform="translate(306.359893 659.093125)scale(0.11 -0.11)">
       <defs>
        <path id="MicrosoftYaHei-34" d="M 2906 4841 
L 2906 1644 
L 3631 1644 
L 3631 1138 
L 2906 1138 
L 2906 0 
L 2313 0 
L 2313 1138 
L 53 1138 
L 53 1616 
Q 656 2294 1265 3178 
Q 1875 4063 2272 4841 
L 2906 4841 
z
M 741 1644 
L 2313 1644 
L 2313 3950 
Q 1988 3366 1616 2817 
Q 1244 2269 741 1644 
z
" transform="scale(0.015625)"/>
       </defs>
       <use xlink:href="#MicrosoftYaHei-32"/>
       <use xlink:href="#MicrosoftYaHei-30" x="58.642578"/>
       <use xlink:href="#MicrosoftYaHei-32" x="117.285156"/>
       <use xlink:href="#MicrosoftYaHei-30" x="175.927734"/>
       <use xlink:href="#MicrosoftYaHei-2d" x="234.570312"/>
       <use xlink:href="#MicrosoftYaHei-30" x="277.832031"/>
       <use xlink:href="#MicrosoftYaHei-34" x="336.474609"/>
      </g>
     </g>
    </g>
    <g id="xtick_4">
     <g id="line2d_4">
      <path d="M 426.272727 640.8 
L 426.272727 86.4 
" clip-path="url(#pe5363c684f)" style="fill: none; stroke: #ffffff; stroke-linecap: round"/>
     </g>
     <g id="text_4">
      <!-- 2020-05 -->
      <g style="fill: #262626" transform="translate(404.541712 659.093125)scale(0.11 -0.11)">
       <defs>
        <path id="MicrosoftYaHei-35" d="M 3294 1494 
Q 3294 784 2823 350 
Q 2353 -84 1559 -84 
Q 878 -84 544 119 
L 544 744 
Q 1034 425 1544 425 
Q 2050 425 2361 704 
Q 2672 984 2672 1447 
Q 2672 1909 2348 2167 
Q 2025 2425 1434 2425 
Q 978 2425 613 2384 
L 791 4841 
L 3053 4841 
L 3053 4303 
L 1306 4303 
L 1206 2931 
L 1647 2950 
Q 2416 2950 2855 2567 
Q 3294 2184 3294 1494 
z
" transform="scale(0.015625)"/>
       </defs>
       <use xlink:href="#MicrosoftYaHei-32"/>
       <use xlink:href="#MicrosoftYaHei-30" x="58.642578"/>
       <use xlink:href="#MicrosoftYaHei-32" x="117.285156"/>
       <use xlink:href="#MicrosoftYaHei-30" x="175.927734"/>
       <use xlink:href="#MicrosoftYaHei-2d" x="234.570312"/>
       <use xlink:href="#MicrosoftYaHei-30" x="277.832031"/>
       <use xlink:href="#MicrosoftYaHei-35" x="336.474609"/>
      </g>
     </g>
    </g>
    <g id="xtick_5">
     <g id="line2d_5">
      <path d="M 527.727273 640.8 
L 527.727273 86.4 
" clip-path="url(#pe5363c684f)" style="fill: none; stroke: #ffffff; stroke-linecap: round"/>
     </g>
     <g id="text_5">
      <!-- 2020-06 -->
      <g style="fill: #262626" transform="translate(505.996257 659.093125)scale(0.11 -0.11)">
       <defs>
        <path id="MicrosoftYaHei-36" d="M 3181 4219 
Q 2803 4413 2391 4413 
Q 1763 4413 1381 3866 
Q 1000 3319 994 2372 
L 1009 2372 
Q 1353 3038 2106 3038 
Q 2734 3038 3109 2628 
Q 3484 2219 3484 1541 
Q 3484 831 3051 375 
Q 2619 -81 1947 -81 
Q 1209 -81 789 495 
Q 369 1072 369 2131 
Q 369 3413 920 4167 
Q 1472 4922 2372 4922 
Q 2888 4922 3181 4781 
L 3181 4219 
z
M 1031 1584 
Q 1031 1106 1286 765 
Q 1541 425 1963 425 
Q 2363 425 2613 719 
Q 2863 1013 2863 1475 
Q 2863 1975 2627 2253 
Q 2391 2531 1956 2531 
Q 1544 2531 1287 2250 
Q 1031 1969 1031 1584 
z
" transform="scale(0.015625)"/>
       </defs>
       <use xlink:href="#MicrosoftYaHei-32"/>
       <use xlink:href="#MicrosoftYaHei-30" x="58.642578"/>
       <use xlink:href="#MicrosoftYaHei-32" x="117.285156"/>
       <use xlink:href="#MicrosoftYaHei-30" x="175.927734"/>
       <use xlink:href="#MicrosoftYaHei-2d" x="234.570312"/>
       <use xlink:href="#MicrosoftYaHei-30" x="277.832031"/>
       <use xlink:href="#MicrosoftYaHei-36" x="336.474609"/>
      </g>
     </g>
    </g>
    <g id="xtick_6">
     <g id="line2d_6">
      <path d="M 625.909091 640.8 
L 625.909091 86.4 
" clip-path="url(#pe5363c684f)" style="fill: none; stroke: #ffffff; stroke-linecap: round"/>
     </g>
     <g id="text_6">
      <!-- 2020-07 -->
      <g style="fill: #262626" transform="translate(604.178075 659.093125)scale(0.11 -0.11)">
       <defs>
        <path id="MicrosoftYaHei-37" d="M 3422 4463 
Q 2659 3131 2223 1998 
Q 1788 866 1684 0 
L 1047 0 
Q 1163 853 1594 1947 
Q 2025 3041 2747 4300 
L 347 4300 
L 347 4841 
L 3422 4841 
L 3422 4463 
z
" transform="scale(0.015625)"/>
       </defs>
       <use xlink:href="#MicrosoftYaHei-32"/>
       <use xlink:href="#MicrosoftYaHei-30" x="58.642578"/>
       <use xlink:href="#MicrosoftYaHei-32" x="117.285156"/>
       <use xlink:href="#MicrosoftYaHei-30" x="175.927734"/>
       <use xlink:href="#MicrosoftYaHei-2d" x="234.570312"/>
       <use xlink:href="#MicrosoftYaHei-30" x="277.832031"/>
       <use xlink:href="#MicrosoftYaHei-37" x="336.474609"/>
      </g>
     </g>
    </g>
    <g id="text_7">
     <!-- 日期 -->
     <g style="fill: #262626" transform="translate(357 675.420156)scale(0.12 -0.12)">
      <defs>
       <path id="MicrosoftYaHei-65e5" d="M 975 4909 
L 5431 4909 
L 5431 -766 
L 4900 -766 
L 4900 -322 
L 1506 -322 
L 1506 -766 
L 975 -766 
L 975 4909 
z
M 1506 2103 
L 1506 134 
L 4900 134 
L 4900 2103 
L 1506 2103 
z
M 1506 4441 
L 1506 2572 
L 4900 2572 
L 4900 4441 
L 1506 4441 
z
" transform="scale(0.015625)"/>
       <path id="MicrosoftYaHei-671f" d="M 3769 5066 
L 5981 5066 
L 5981 -3 
Q 5981 -741 5281 -741 
Q 4931 -741 4594 -722 
Q 4569 -516 4519 -241 
Q 4975 -284 5175 -284 
Q 5519 -284 5519 59 
L 5519 1372 
L 4181 1372 
Q 4113 3 3350 -903 
Q 3181 -728 2975 -553 
Q 3481 28 3619 653 
Q 3769 1253 3769 2741 
L 3769 5066 
z
M 125 1141 
L 713 1141 
L 713 4028 
L 200 4028 
L 200 4453 
L 713 4453 
L 713 5216 
L 1175 5216 
L 1175 4453 
L 2475 4453 
L 2475 5241 
L 2938 5241 
L 2938 4453 
L 3444 4453 
L 3444 4028 
L 2938 4028 
L 2938 1141 
L 3438 1141 
L 3438 716 
L 125 716 
L 125 1141 
z
M 4209 1784 
L 5519 1784 
L 5519 3009 
L 4231 3009 
Q 4238 2203 4209 1784 
z
M 5519 4641 
L 4231 4641 
L 4231 3422 
L 5519 3422 
L 5519 4641 
z
M 1175 1141 
L 2475 1141 
L 2475 1841 
L 1175 1841 
L 1175 1141 
z
M 1175 2241 
L 2475 2241 
L 2475 2934 
L 1175 2934 
L 1175 2241 
z
M 1175 3334 
L 2475 3334 
L 2475 4028 
L 1175 4028 
L 1175 3334 
z
M 1175 597 
L 1556 297 
Q 925 -384 406 -847 
Q 275 -697 75 -516 
Q 669 -9 1175 597 
z
M 1994 303 
L 2294 609 
Q 2731 284 3119 -47 
L 2788 -403 
Q 2438 -53 1994 303 
z
" transform="scale(0.015625)"/>
      </defs>
      <use xlink:href="#MicrosoftYaHei-65e5"/>
      <use xlink:href="#MicrosoftYaHei-671f" x="100"/>
     </g>
    </g>
   </g>
   <g id="matplotlib.axis_2">
    <g id="ytick_1">
     <g id="line2d_7">
      <path d="M 90 615.6 
L 648 615.6 
" clip-path="url(#pe5363c684f)" style="fill: none; stroke: #ffffff; stroke-linecap: round"/>
     </g>
     <g id="text_8">
      <!-- 0 -->
      <g style="fill: #262626" transform="translate(74.049531 619.996562)scale(0.11 -0.11)">
       <use xlink:href="#MicrosoftYaHei-30"/>
      </g>
     </g>
    </g>
    <g id="ytick_2">
     <g id="line2d_8">
      <path d="M 90 518.146551 
L 648 518.146551 
" clip-path="url(#pe5363c684f)" style="fill: none; stroke: #ffffff; stroke-linecap: round"/>
     </g>
     <g id="text_9">
      <!-- 10000 -->
      <g style="fill: #262626" transform="translate(48.247656 522.543114)scale(0.11 -0.11)">
       <defs>
        <path id="MicrosoftYaHei-31" d="M 1781 0 
L 1781 4141 
Q 1638 3997 1295 3819 
Q 953 3641 663 3569 
L 663 4169 
Q 1047 4275 1484 4508 
Q 1922 4741 2156 4947 
L 2388 4947 
L 2388 0 
L 1781 0 
z
" transform="scale(0.015625)"/>
       </defs>
       <use xlink:href="#MicrosoftYaHei-31"/>
       <use xlink:href="#MicrosoftYaHei-30" x="58.642578"/>
       <use xlink:href="#MicrosoftYaHei-30" x="117.285156"/>
       <use xlink:href="#MicrosoftYaHei-30" x="175.927734"/>
       <use xlink:href="#MicrosoftYaHei-30" x="234.570312"/>
      </g>
     </g>
    </g>
    <g id="ytick_3">
     <g id="line2d_9">
      <path d="M 90 420.693103 
L 648 420.693103 
" clip-path="url(#pe5363c684f)" style="fill: none; stroke: #ffffff; stroke-linecap: round"/>
     </g>
     <g id="text_10">
      <!-- 20000 -->
      <g style="fill: #262626" transform="translate(48.247656 425.089665)scale(0.11 -0.11)">
       <use xlink:href="#MicrosoftYaHei-32"/>
       <use xlink:href="#MicrosoftYaHei-30" x="58.642578"/>
       <use xlink:href="#MicrosoftYaHei-30" x="117.285156"/>
       <use xlink:href="#MicrosoftYaHei-30" x="175.927734"/>
       <use xlink:href="#MicrosoftYaHei-30" x="234.570312"/>
      </g>
     </g>
    </g>
    <g id="ytick_4">
     <g id="line2d_10">
      <path d="M 90 323.239654 
L 648 323.239654 
" clip-path="url(#pe5363c684f)" style="fill: none; stroke: #ffffff; stroke-linecap: round"/>
     </g>
     <g id="text_11">
      <!-- 30000 -->
      <g style="fill: #262626" transform="translate(48.247656 327.636217)scale(0.11 -0.11)">
       <use xlink:href="#MicrosoftYaHei-33"/>
       <use xlink:href="#MicrosoftYaHei-30" x="58.642578"/>
       <use xlink:href="#MicrosoftYaHei-30" x="117.285156"/>
       <use xlink:href="#MicrosoftYaHei-30" x="175.927734"/>
       <use xlink:href="#MicrosoftYaHei-30" x="234.570312"/>
      </g>
     </g>
    </g>
    <g id="ytick_5">
     <g id="line2d_11">
      <path d="M 90 225.786206 
L 648 225.786206 
" clip-path="url(#pe5363c684f)" style="fill: none; stroke: #ffffff; stroke-linecap: round"/>
     </g>
     <g id="text_12">
      <!-- 40000 -->
      <g style="fill: #262626" transform="translate(48.247656 230.182768)scale(0.11 -0.11)">
       <use xlink:href="#MicrosoftYaHei-34"/>
       <use xlink:href="#MicrosoftYaHei-30" x="58.642578"/>
       <use xlink:href="#MicrosoftYaHei-30" x="117.285156"/>
       <use xlink:href="#MicrosoftYaHei-30" x="175.927734"/>
       <use xlink:href="#MicrosoftYaHei-30" x="234.570312"/>
      </g>
     </g>
    </g>
    <g id="ytick_6">
     <g id="line2d_12">
      <path d="M 90 128.332757 
L 648 128.332757 
" clip-path="url(#pe5363c684f)" style="fill: none; stroke: #ffffff; stroke-linecap: round"/>
     </g>
     <g id="text_13">
      <!-- 50000 -->
      <g style="fill: #262626" transform="translate(48.247656 132.72932)scale(0.11 -0.11)">
       <use xlink:href="#MicrosoftYaHei-35"/>
       <use xlink:href="#MicrosoftYaHei-30" x="58.642578"/>
       <use xlink:href="#MicrosoftYaHei-30" x="117.285156"/>
       <use xlink:href="#MicrosoftYaHei-30" x="175.927734"/>
       <use xlink:href="#MicrosoftYaHei-30" x="234.570312"/>
      </g>
     </g>
    </g>
    <g id="text_14">
     <!-- 新增治愈 -->
     <g style="fill: #262626" transform="translate(41.264531 387.6)rotate(-90)scale(0.12 -0.12)">
      <defs>
       <path id="MicrosoftYaHei-65b0" d="M 3594 4797 
Q 4888 4809 5981 5053 
L 6144 4572 
Q 4906 4409 4038 4359 
L 4038 2903 
L 6319 2903 
L 6319 2478 
L 5425 2478 
L 5425 -797 
L 4963 -797 
L 4963 2478 
L 4038 2478 
L 4038 2172 
Q 4038 253 3119 -816 
Q 2969 -622 2788 -416 
Q 3594 466 3594 2191 
L 3594 4797 
z
M 263 1991 
L 1538 1991 
L 1538 2584 
L 1988 2584 
L 1988 1991 
L 3213 1991 
L 3213 1591 
L 1988 1591 
L 1988 -41 
Q 1988 -703 1350 -703 
Q 1081 -703 744 -697 
Q 719 -491 675 -222 
Q 1038 -259 1244 -259 
Q 1538 -259 1538 59 
L 1538 1591 
L 263 1591 
L 263 1991 
z
M 88 3159 
L 1094 3159 
Q 828 3581 594 3884 
L 931 4122 
Q 1138 3872 1463 3416 
L 1109 3159 
L 1934 3159 
Q 2275 3650 2563 4128 
L 3006 3878 
Q 2703 3488 2428 3159 
L 3375 3159 
L 3375 2759 
L 88 2759 
L 88 3159 
z
M 288 4609 
L 1638 4609 
Q 1503 4866 1331 5166 
L 1731 5353 
Q 1925 5034 2094 4709 
L 1884 4609 
L 3213 4609 
L 3213 4209 
L 288 4209 
L 288 4609 
z
M 744 1309 
L 1169 1109 
Q 831 403 500 -166 
Q 319 -53 88 59 
Q 394 534 744 1309 
z
M 2544 1278 
Q 2894 803 3156 403 
L 2756 128 
Q 2481 609 2175 1034 
L 2544 1278 
z
" transform="scale(0.015625)"/>
       <path id="MicrosoftYaHei-589e" d="M 2188 4459 
L 3259 4459 
Q 3041 4781 2775 5116 
L 3131 5366 
Q 3456 4991 3694 4666 
L 3403 4459 
L 4453 4459 
Q 4759 4888 5050 5372 
L 5500 5116 
Q 5234 4772 4978 4459 
L 6038 4459 
L 6038 2122 
L 5600 2122 
L 5600 2309 
L 2625 2309 
L 2625 2122 
L 2188 2122 
L 2188 4459 
z
M 2438 1797 
L 5788 1797 
L 5788 -847 
L 5338 -847 
L 5338 -547 
L 2888 -547 
L 2888 -847 
L 2438 -847 
L 2438 1797 
z
M 81 428 
Q 466 538 894 672 
L 894 3253 
L 144 3253 
L 144 3697 
L 894 3697 
L 894 5259 
L 1356 5259 
L 1356 3697 
L 2000 3697 
L 2000 3253 
L 1356 3253 
L 1356 819 
Q 1709 931 2094 1059 
Q 2106 759 2125 553 
Q 1306 316 250 -53 
L 81 428 
z
M 5600 4084 
L 4325 4084 
L 4325 2684 
L 5600 2684 
L 5600 4084 
z
M 2625 2684 
L 3894 2684 
L 3894 4084 
L 2625 4084 
L 2625 2684 
z
M 5338 1409 
L 2888 1409 
L 2888 809 
L 5338 809 
L 5338 1409 
z
M 2888 -159 
L 5338 -159 
L 5338 434 
L 2888 434 
L 2888 -159 
z
M 5350 3609 
Q 5006 3066 4856 2884 
L 4519 3084 
Q 4744 3391 4981 3828 
L 5350 3609 
z
M 2863 3597 
L 3181 3803 
Q 3463 3441 3669 3122 
L 3319 2897 
Q 3119 3228 2863 3597 
z
" transform="scale(0.015625)"/>
       <path id="MicrosoftYaHei-6cbb" d="M 2231 1934 
L 5719 1934 
L 5719 -822 
L 5244 -822 
L 5244 -403 
L 2706 -403 
L 2706 -822 
L 2231 -822 
L 2231 1934 
z
M 5019 4484 
Q 5731 3522 6325 2534 
L 5875 2259 
Q 5706 2553 5538 2838 
Q 3694 2759 2594 2666 
Q 2344 2641 2081 2566 
L 1831 3053 
Q 2088 3147 2288 3372 
Q 2931 4141 3519 5334 
L 4019 5128 
Q 3388 4059 2713 3153 
Q 3853 3191 5281 3259 
Q 4956 3775 4625 4247 
L 5019 4484 
z
M 5244 1497 
L 2706 1497 
L 2706 34 
L 5244 34 
L 5244 1497 
z
M 1013 1903 
Q 1263 1784 1525 1684 
Q 1069 278 763 -766 
L 231 -566 
Q 656 509 1013 1903 
z
M 663 5209 
Q 1338 4747 1819 4359 
Q 1619 4128 1469 3953 
Q 994 4378 356 4853 
L 663 5209 
z
M 406 3647 
Q 981 3266 1525 2847 
Q 1431 2753 1188 2434 
Q 563 2953 100 3291 
L 406 3647 
z
" transform="scale(0.015625)"/>
       <path id="MicrosoftYaHei-6108" d="M 1231 1059 
L 800 1059 
L 800 3541 
L 3200 3541 
L 3200 1678 
Q 3200 1034 2575 1034 
Q 2369 1034 2006 1047 
Q 1969 1259 1919 1478 
Q 2263 1441 2506 1441 
Q 2769 1441 2769 1722 
L 2769 1803 
L 1231 1803 
L 1231 1059 
z
M 3631 5316 
L 3525 5228 
Q 4563 4397 6313 3991 
Q 6181 3828 6006 3559 
Q 5056 3853 4350 4209 
L 4350 3916 
L 2044 3916 
L 2044 4247 
Q 1319 3884 375 3534 
Q 244 3741 88 3916 
Q 1900 4478 3006 5316 
L 3631 5316 
z
M 1744 803 
L 2206 803 
L 2206 59 
Q 2206 -303 2563 -303 
L 3900 -303 
Q 4350 -303 4425 53 
Q 4475 297 4519 653 
Q 4744 566 4988 491 
Q 4925 122 4850 -153 
Q 4706 -703 3981 -703 
L 2506 -703 
Q 1744 -703 1744 3 
L 1744 803 
z
M 5019 3559 
L 5463 3559 
L 5463 1709 
Q 5463 1022 4819 1022 
Q 4594 1022 4169 1034 
Q 4125 1284 4056 1516 
Q 4438 1472 4731 1472 
Q 5019 1472 5019 1791 
L 5019 3559 
z
M 3213 4959 
Q 2669 4559 2069 4266 
L 4250 4266 
Q 3644 4584 3213 4959 
z
M 3875 3391 
L 4306 3391 
L 4306 1834 
L 3875 1834 
L 3875 3391 
z
M 813 784 
L 1238 628 
Q 956 -22 588 -566 
Q 400 -453 175 -347 
Q 569 178 813 784 
z
M 5113 578 
L 5456 822 
Q 5900 334 6275 -153 
L 5888 -428 
Q 5569 34 5113 578 
z
M 1231 2141 
L 2769 2141 
L 2769 2497 
L 1231 2497 
L 1231 2141 
z
M 2769 3191 
L 1231 3191 
L 1231 2834 
L 2769 2834 
L 2769 3191 
z
M 2800 734 
L 3088 1003 
Q 3531 678 3919 341 
L 3600 22 
Q 3219 384 2800 734 
z
" transform="scale(0.015625)"/>
      </defs>
      <use xlink:href="#MicrosoftYaHei-65b0"/>
      <use xlink:href="#MicrosoftYaHei-589e" x="100"/>
      <use xlink:href="#MicrosoftYaHei-6cbb" x="200"/>
      <use xlink:href="#MicrosoftYaHei-6108" x="300"/>
     </g>
    </g>
   </g>
   <g id="line2d_13">
    <path d="M 115.363636 615.6 
L 275.727273 615.6 
L 279 615.229677 
L 282.272727 615.346621 
L 285.545455 615.288149 
L 288.818182 615.45382 
L 295.363636 615.317385 
L 298.636364 615.580509 
L 301.909091 615.6 
L 305.181818 613.884819 
L 308.454545 613.017484 
L 311.727273 614.683938 
L 315 602.356076 
L 318.272727 610.337514 
L 321.545455 593.643738 
L 324.818182 605.552549 
L 328.090909 603.515772 
L 331.363636 600.63115 
L 334.636364 609.372725 
L 337.909091 609.665085 
L 341.181818 565.888996 
L 344.454545 590.642172 
L 347.727273 592.825129 
L 351 590.067196 
L 354.272727 599.286293 
L 357.545455 593.097999 
L 360.818182 589.579929 
L 364.090909 585.175033 
L 367.363636 521.031174 
L 370.636364 593.175961 
L 373.909091 560.568038 
L 377.181818 588.254562 
L 380.454545 581.842125 
L 383.727273 582.114995 
L 387 545.608933 
L 390.272727 575.088601 
L 393.545455 591.02224 
L 396.818182 594.657254 
L 400.090909 606.497848 
L 403.363636 573.490365 
L 406.636364 438.390649 
L 409.909091 550.286699 
L 413.181818 603.447555 
L 416.454545 571.580277 
L 419.727273 573.217495 
L 423 536.389837 
L 426.272727 324.37986 
L 429.545455 517.483868 
L 432.818182 504.824665 
L 436.090909 569.114705 
L 439.363636 547.109716 
L 442.636364 590.154905 
L 445.909091 614.440304 
L 449.181818 565.645362 
L 452.454545 577.03767 
L 455.727273 483.638285 
L 459 580.175671 
L 462.272727 454.178108 
L 465.545455 600.455734 
L 468.818182 526.498312 
L 472.090909 586.519891 
L 475.363636 573.373421 
L 478.636364 443.799316 
L 481.909091 577.700354 
L 485.181818 509.249052 
L 488.454545 555.042427 
L 491.727273 615.6 
L 495 527.638517 
L 498.272727 111.6 
L 501.545455 507.387691 
L 504.818182 562.029839 
L 508.090909 494.553072 
L 511.363636 559.612994 
L 514.636364 551.222252 
L 517.909091 532.93024 
L 521.181818 552.693799 
L 524.454545 518.000371 
L 527.727273 339.835977 
L 531 484.300969 
L 534.272727 560.665491 
L 537.545455 465.619143 
L 540.818182 559.622739 
L 544.090909 550.267208 
L 547.363636 526.498312 
L 550.636364 561.825187 
L 553.909091 497.145333 
L 557.181818 553.882731 
L 560.454545 531.312512 
L 563.727273 549.448599 
L 567 546.466524 
L 570.272727 525.74792 
L 573.545455 564.826753 
L 576.818182 474.117083 
L 580.090909 495.625059 
L 583.363636 581.043007 
L 586.636364 548.123232 
L 589.909091 541.535379 
L 593.181818 510.88627 
L 596.454545 570.060003 
L 599.727273 439.550345 
L 603 543.971715 
L 606.272727 531.663345 
L 609.545455 543.474703 
L 612.818182 544.975486 
L 616.090909 532.774314 
L 619.363636 558.531261 
L 622.636364 420.313034 
L 622.636364 420.313034 
" clip-path="url(#pe5363c684f)" style="fill: none; stroke: #4c72b0; stroke-width: 1.5; stroke-linecap: round"/>
   </g>
   <g id="line2d_14">
    <path d="M 128.454545 615.6 
L 301.909091 615.6 
L 305.181818 615.483056 
L 315 615.561019 
L 318.272727 615.45382 
L 321.545455 615.580509 
L 324.818182 615.064006 
L 328.090909 614.927571 
L 331.363636 615.161459 
L 337.909091 615.093242 
L 341.181818 615.385602 
L 347.727273 614.74241 
L 351 614.7619 
L 354.272727 614.450049 
L 357.545455 614.654702 
L 360.818182 613.163664 
L 364.090909 613.202645 
L 367.363636 613.855583 
L 370.636364 613.417043 
L 373.909091 612.754359 
L 377.181818 612.50098 
L 380.454545 612.812831 
L 383.727273 611.048924 
L 387 613.319589 
L 390.272727 614.089472 
L 393.545455 611.438738 
L 396.818182 610.269296 
L 400.090909 611.009943 
L 403.363636 609.002402 
L 406.636364 608.953675 
L 409.909091 610.561657 
L 413.181818 609.957445 
L 416.454545 604.782667 
L 419.727273 597.766019 
L 423 602.609455 
L 426.272727 599.997703 
L 429.545455 598.126597 
L 436.090909 601.410778 
L 439.363636 598.35074 
L 442.636364 601.352306 
L 445.909091 591.470526 
L 449.181818 588.264308 
L 452.454545 563.871709 
L 455.727273 592.308626 
L 459 562.04933 
L 462.272727 579.435025 
L 465.545455 571.833656 
L 468.818182 561.737479 
L 472.090909 569.835861 
L 475.363636 567.457996 
L 478.636364 574.601334 
L 481.909091 587.962202 
L 485.181818 557.897813 
L 488.454545 525.338616 
L 491.727273 615.6 
L 495 474.945438 
L 498.272727 536.555508 
L 501.545455 563.335716 
L 504.818182 562.010349 
L 508.090909 495.430153 
L 511.363636 507.631324 
L 514.636364 529.987145 
L 517.909091 535.06447 
L 521.181818 535.571228 
L 524.454545 572.584048 
L 527.727273 576.677093 
L 531 507.348709 
L 534.272727 528.164766 
L 537.545455 531.146841 
L 540.818182 537.081756 
L 544.090909 530.737537 
L 547.363636 563.530622 
L 550.636364 577.03767 
L 553.909091 501.491757 
L 557.181818 514.384848 
L 560.454545 534.0607 
L 563.727273 535.493265 
L 567 564.232287 
L 570.272727 562.88743 
L 573.545455 571.853147 
L 576.818182 520.417217 
L 580.090909 517.795719 
L 583.363636 521.840037 
L 586.636364 513.829364 
L 589.909091 516.333917 
L 593.181818 565.71358 
L 596.454545 569.748152 
L 599.727273 498.529172 
L 603 494.825941 
L 606.272727 553.795023 
L 609.545455 528.00884 
L 612.818182 525.942827 
L 616.090909 559.710447 
L 619.363636 573.275967 
L 622.636364 525.74792 
L 622.636364 525.74792 
" clip-path="url(#pe5363c684f)" style="fill: none; stroke: #dd8452; stroke-width: 1.5; stroke-linecap: round"/>
   </g>
   <g id="line2d_15">
    <path d="M 128.454545 615.6 
L 279 615.6 
L 282.272727 615.268658 
L 285.545455 615.473311 
L 288.818182 615.463565 
L 292.090909 615.6 
L 295.363636 615.463565 
L 298.636364 615.190696 
L 301.909091 615.6 
L 360.818182 615.6 
L 364.090909 613.563223 
L 367.363636 615.6 
L 449.181818 615.6 
L 452.454545 613.699658 
L 455.727273 615.6 
L 622.636364 615.6 
L 622.636364 615.6 
" clip-path="url(#pe5363c684f)" style="fill: none; stroke: #55a868; stroke-width: 1.5; stroke-linecap: round"/>
   </g>
   <g id="line2d_16"/>
   <g id="line2d_17"/>
   <g id="line2d_18"/>
   <g id="patch_3">
    <path d="M 90 640.8 
L 90 86.4 
" style="fill: none; stroke: #ffffff; stroke-width: 1.25; stroke-linejoin: miter; stroke-linecap: square"/>
   </g>
   <g id="patch_4">
    <path d="M 648 640.8 
L 648 86.4 
" style="fill: none; stroke: #ffffff; stroke-width: 1.25; stroke-linejoin: miter; stroke-linecap: square"/>
   </g>
   <g id="patch_5">
    <path d="M 90 640.8 
L 648 640.8 
" style="fill: none; stroke: #ffffff; stroke-width: 1.25; stroke-linejoin: miter; stroke-linecap: square"/>
   </g>
   <g id="patch_6">
    <path d="M 90 86.4 
L 648 86.4 
" style="fill: none; stroke: #ffffff; stroke-width: 1.25; stroke-linejoin: miter; stroke-linecap: square"/>
   </g>
   <g id="legend_1">
    <g id="patch_7">
     <path d="M 572.1 164.358594 
L 640.3 164.358594 
Q 642.5 164.358594 642.5 162.158594 
L 642.5 94.1 
Q 642.5 91.9 640.3 91.9 
L 572.1 91.9 
Q 569.9 91.9 569.9 94.1 
L 569.9 162.158594 
Q 569.9 164.358594 572.1 164.358594 
z
" style="fill: #eaeaf2; opacity: 0.8; stroke: #cccccc; stroke-linejoin: miter"/>
    </g>
    <g id="text_15">
     <!-- 国家 -->
     <g style="fill: #262626" transform="translate(594.2 105.8925)scale(0.12 -0.12)">
      <defs>
       <path id="MicrosoftYaHei-56fd" d="M 469 4997 
L 5938 4997 
L 5938 -834 
L 5456 -834 
L 5456 -522 
L 950 -522 
L 950 -841 
L 469 -841 
L 469 4997 
z
M 5456 4553 
L 950 4553 
L 950 -78 
L 5456 -78 
L 5456 4553 
z
M 1238 1009 
L 2963 1009 
L 2963 2247 
L 1456 2247 
L 1456 2672 
L 2963 2672 
L 2963 3509 
L 1338 3509 
L 1338 3934 
L 5063 3934 
L 5063 3509 
L 3425 3509 
L 3425 2672 
L 4938 2672 
L 4938 2247 
L 3425 2247 
L 3425 1009 
L 5163 1009 
L 5163 584 
L 1238 584 
L 1238 1009 
z
M 3750 1847 
L 4100 2109 
Q 4444 1753 4688 1441 
L 4319 1159 
Q 4019 1566 3750 1847 
z
" transform="scale(0.015625)"/>
       <path id="MicrosoftYaHei-5bb6" d="M 194 -209 
Q 2081 331 3200 1556 
Q 3113 1738 2997 1903 
Q 2066 941 425 422 
Q 331 634 200 847 
Q 1809 1291 2703 2256 
Q 2600 2359 2478 2459 
Q 1650 1872 444 1497 
Q 325 1703 163 1941 
Q 1653 2272 2550 3053 
L 975 3053 
L 975 3503 
L 5438 3503 
L 5438 3053 
L 3169 3053 
Q 3009 2884 2825 2728 
Q 3316 2331 3588 1841 
Q 4566 2319 5325 2822 
L 5619 2422 
Q 5109 2116 4534 1816 
Q 5088 616 6331 141 
Q 6125 -97 5944 -347 
Q 4722 278 4131 1609 
Q 3953 1522 3769 1431 
Q 4125 103 3656 -503 
Q 3431 -772 2794 -772 
Q 2544 -772 2006 -753 
Q 1969 -509 1913 -234 
Q 2400 -291 2781 -291 
Q 3456 -328 3438 522 
Q 3428 803 3369 1063 
Q 2263 -28 419 -641 
Q 325 -434 194 -209 
z
M 331 4528 
L 3156 4528 
Q 2972 4806 2725 5122 
L 3163 5403 
Q 3444 5059 3675 4722 
L 3356 4528 
L 6063 4528 
L 6063 3459 
L 5563 3459 
L 5563 4066 
L 831 4066 
L 831 3459 
L 331 3459 
L 331 4528 
z
" transform="scale(0.015625)"/>
      </defs>
      <use xlink:href="#MicrosoftYaHei-56fd"/>
      <use xlink:href="#MicrosoftYaHei-5bb6" x="100"/>
     </g>
    </g>
    <g id="line2d_19">
     <path d="M 574.3 119.31875 
L 585.3 119.31875 
L 596.3 119.31875 
" style="fill: none; stroke: #4c72b0; stroke-width: 1.5; stroke-linecap: round"/>
    </g>
    <g id="text_16">
     <!-- 美国 -->
     <g style="fill: #262626" transform="translate(605.1 123.16875)scale(0.11 -0.11)">
      <defs>
       <path id="MicrosoftYaHei-7f8e" d="M 150 2403 
L 2956 2403 
L 2956 2991 
L 663 2991 
L 663 3416 
L 2956 3416 
L 2956 3991 
L 288 3991 
L 288 4416 
L 2259 4416 
Q 1938 4694 1425 5084 
L 1713 5397 
Q 2256 5028 2619 4753 
L 2288 4416 
L 3950 4416 
L 3719 4678 
Q 4213 5022 4613 5372 
L 4981 5022 
Q 4581 4722 4116 4416 
L 6150 4416 
L 6150 3991 
L 3469 3991 
L 3469 3416 
L 5813 3416 
L 5813 2991 
L 3469 2991 
L 3469 2403 
L 6263 2403 
L 6263 1978 
L 150 1978 
L 150 2403 
z
M 6313 -303 
Q 6075 -622 5950 -822 
Q 3897 -419 3216 803 
Q 2606 -488 406 -872 
Q 281 -659 100 -397 
Q 2200 -106 2741 916 
L 238 916 
L 238 1341 
L 2913 1341 
Q 2975 1559 3013 1841 
L 3525 1841 
Q 3475 1566 3413 1341 
L 6200 1341 
L 6200 916 
L 3631 916 
Q 4363 -138 6313 -303 
z
" transform="scale(0.015625)"/>
      </defs>
      <use xlink:href="#MicrosoftYaHei-7f8e"/>
      <use xlink:href="#MicrosoftYaHei-56fd" x="100"/>
     </g>
    </g>
    <g id="line2d_20">
     <path d="M 574.3 136.346406 
L 585.3 136.346406 
L 596.3 136.346406 
" style="fill: none; stroke: #dd8452; stroke-width: 1.5; stroke-linecap: round"/>
    </g>
    <g id="text_17">
     <!-- 俄罗斯 -->
     <g style="fill: #262626" transform="translate(605.1 140.196406)scale(0.11 -0.11)">
      <defs>
       <path id="MicrosoftYaHei-4fc4" d="M 3281 141 
Q 3919 472 4431 909 
Q 4263 1734 4203 2941 
L 3056 2941 
L 3056 1903 
Q 3481 2003 3950 2116 
Q 3969 1853 3994 1653 
Q 3491 1528 3056 1422 
L 3056 84 
Q 3056 -384 2906 -541 
Q 2750 -709 2306 -716 
Q 2019 -722 1700 -703 
Q 1675 -428 1600 -191 
Q 1969 -247 2231 -247 
Q 2444 -247 2519 -178 
Q 2581 -122 2581 109 
L 2581 1303 
Q 2034 1166 1619 1059 
L 1475 1559 
Q 1981 1663 2581 1794 
L 2581 2941 
L 1513 2941 
L 1513 3391 
L 2581 3391 
L 2581 4269 
Q 2194 4209 1825 4166 
Q 1781 4378 1694 4616 
Q 2675 4709 3813 4972 
L 3956 4522 
Q 3494 4425 3056 4347 
L 3056 3391 
L 4184 3391 
Q 4159 4225 4150 5316 
L 4644 5316 
Q 4628 4313 4659 3391 
L 6313 3391 
L 6313 2941 
L 4675 2941 
Q 4725 1953 4831 1284 
Q 5372 1847 5738 2553 
L 6175 2316 
Q 5688 1422 4944 731 
Q 5138 -9 5450 -222 
Q 5681 -366 5756 -41 
Q 5825 334 5863 859 
Q 6113 741 6319 684 
Q 6263 184 6188 -172 
Q 6050 -803 5650 -803 
Q 5175 -803 4844 -247 
Q 4684 13 4563 400 
Q 4116 44 3588 -247 
Q 3463 -59 3281 141 
z
M 56 2391 
Q 956 3803 1300 5322 
L 1769 5228 
Q 1541 4400 1231 3666 
L 1231 -859 
L 800 -859 
L 800 2763 
Q 550 2300 263 1878 
Q 175 2122 56 2391 
z
M 4925 4691 
L 5219 4991 
Q 5663 4622 6119 4197 
L 5775 3847 
Q 5369 4291 4925 4691 
z
" transform="scale(0.015625)"/>
       <path id="MicrosoftYaHei-7f57" d="M 475 5003 
L 5956 5003 
L 5956 2678 
L 5481 2678 
L 5481 2922 
L 950 2922 
L 950 2678 
L 475 2678 
L 475 5003 
z
M 2213 2916 
L 2700 2716 
Q 2500 2459 2288 2216 
L 5619 2216 
L 5619 1772 
Q 4163 -453 431 -947 
Q 319 -728 181 -466 
Q 1831 -272 2794 141 
Q 2288 584 1550 1141 
L 1894 1459 
Q 2725 866 3319 384 
Q 4306 884 5013 1784 
L 1888 1784 
Q 1288 1191 456 584 
Q 281 816 131 991 
Q 1394 1766 2213 2916 
z
M 5481 4584 
L 4275 4584 
L 4275 3341 
L 5481 3341 
L 5481 4584 
z
M 2613 3341 
L 3813 3341 
L 3813 4584 
L 2613 4584 
L 2613 3341 
z
M 950 3341 
L 2150 3341 
L 2150 4584 
L 950 4584 
L 950 3341 
z
" transform="scale(0.015625)"/>
       <path id="MicrosoftYaHei-65af" d="M 131 1216 
L 613 1216 
L 613 4103 
L 175 4103 
L 175 4528 
L 613 4528 
L 613 5272 
L 1075 5272 
L 1075 4528 
L 2375 4528 
L 2375 5272 
L 2838 5272 
L 2838 4528 
L 3300 4528 
L 3300 4103 
L 2838 4103 
L 2838 1216 
L 3306 1216 
L 3306 791 
L 131 791 
L 131 1216 
z
M 3650 4753 
Q 4988 4884 5969 5122 
L 6163 4659 
Q 5175 4472 4113 4366 
L 4113 3016 
L 6275 3016 
L 6275 2578 
L 5563 2578 
L 5563 -816 
L 5100 -816 
L 5100 2578 
L 4113 2578 
Q 4103 428 3356 -778 
Q 3188 -603 2963 -428 
Q 3650 616 3650 2534 
L 3650 4753 
z
M 1075 1216 
L 2375 1216 
L 2375 1916 
L 1075 1916 
L 1075 1216 
z
M 1075 3409 
L 2375 3409 
L 2375 4103 
L 1075 4103 
L 1075 3409 
z
M 1075 2316 
L 2375 2316 
L 2375 3009 
L 1075 3009 
L 1075 2316 
z
M 1100 647 
L 1481 347 
Q 894 -378 419 -809 
Q 288 -659 75 -478 
Q 663 41 1100 647 
z
M 1931 391 
L 2256 678 
Q 2638 328 3006 -59 
L 2650 -384 
Q 2313 9 1931 391 
z
" transform="scale(0.015625)"/>
      </defs>
      <use xlink:href="#MicrosoftYaHei-4fc4"/>
      <use xlink:href="#MicrosoftYaHei-7f57" x="100"/>
      <use xlink:href="#MicrosoftYaHei-65af" x="200"/>
     </g>
    </g>
    <g id="line2d_21">
     <path d="M 574.3 153.374062 
L 585.3 153.374062 
L 596.3 153.374062 
" style="fill: none; stroke: #55a868; stroke-width: 1.5; stroke-linecap: round"/>
    </g>
    <g id="text_18">
     <!-- 英国 -->
     <g style="fill: #262626" transform="translate(605.1 157.224062)scale(0.11 -0.11)">
      <defs>
       <path id="MicrosoftYaHei-82f1" d="M 144 1572 
L 931 1572 
L 931 3222 
L 2966 3222 
Q 2966 3513 2963 3834 
L 3463 3834 
Q 3463 3513 3459 3222 
L 5469 3222 
L 5469 1572 
L 6281 1572 
L 6281 1134 
L 3572 1134 
Q 4300 -91 6319 -278 
Q 6106 -553 5956 -784 
Q 3847 -363 3209 963 
Q 2734 -159 444 -878 
Q 300 -672 88 -422 
Q 2288 150 2797 1134 
L 144 1134 
L 144 1572 
z
M 175 4591 
L 1813 4591 
L 1813 5328 
L 2300 5328 
L 2300 4591 
L 4113 4591 
L 4113 5328 
L 4600 5328 
L 4600 4591 
L 6250 4591 
L 6250 4153 
L 4600 4153 
L 4600 3584 
L 4113 3584 
L 4113 4153 
L 2300 4153 
L 2300 3584 
L 1813 3584 
L 1813 4153 
L 175 4153 
L 175 4591 
z
M 2963 2797 
L 1419 2797 
L 1419 1572 
L 2934 1572 
Q 2956 2069 2963 2797 
z
M 3431 1572 
L 4981 1572 
L 4981 2797 
L 3456 2797 
Q 3450 2072 3431 1572 
z
" transform="scale(0.015625)"/>
      </defs>
      <use xlink:href="#MicrosoftYaHei-82f1"/>
      <use xlink:href="#MicrosoftYaHei-56fd" x="100"/>
     </g>
    </g>
   </g>
  </g>
 </g>
 <defs>
  <clipPath id="pe5363c684f">
   <rect x="90" y="86.4" width="558" height="554.4"/>
  </clipPath>
 </defs>
</svg>
