<?xml version="1.0" encoding="utf-8" standalone="no"?>
<!DOCTYPE svg PUBLIC "-//W3C//DTD SVG 1.1//EN"
  "http://www.w3.org/Graphics/SVG/1.1/DTD/svg11.dtd">
<svg xmlns:xlink="http://www.w3.org/1999/xlink" width="720pt" height="720pt" viewBox="0 0 720 720" xmlns="http://www.w3.org/2000/svg" version="1.1">
 <metadata>
  <rdf:RDF xmlns:dc="http://purl.org/dc/elements/1.1/" xmlns:cc="http://creativecommons.org/ns#" xmlns:rdf="http://www.w3.org/1999/02/22-rdf-syntax-ns#">
   <cc:Work>
    <dc:type rdf:resource="http://purl.org/dc/dcmitype/StillImage"/>
    <dc:date>2021-12-15T09:45:21.399606</dc:date>
    <dc:format>image/svg+xml</dc:format>
    <dc:creator>
     <cc:Agent>
      <dc:title>Matplotlib v3.5.1, https://matplotlib.org/</dc:title>
     </cc:Agent>
    </dc:creator>
   </cc:Work>
  </rdf:RDF>
 </metadata>
 <defs>
  <style type="text/css">*{stroke-linejoin: round; stroke-linecap: butt}</style>
 </defs>
 <g id="figure_1">
  <g id="patch_1">
   <path d="M 0 720 
L 720 720 
L 720 0 
L 0 0 
z
" style="fill: #ffffff"/>
  </g>
  <g id="axes_1">
   <g id="patch_2">
    <path d="M 90 640.8 
L 648 640.8 
L 648 86.4 
L 90 86.4 
z
" style="fill: #eaeaf2"/>
   </g>
   <g id="matplotlib.axis_1">
    <g id="xtick_1">
     <g id="line2d_1">
      <path d="M 131.727273 640.8 
L 131.727273 86.4 
" clip-path="url(#p5229c8722e)" style="fill: none; stroke: #ffffff; stroke-linecap: round"/>
     </g>
     <g id="text_1">
      <!-- 2020-02 -->
      <g style="fill: #262626" transform="translate(109.996257 659.093125)scale(0.11 -0.11)">
       <defs>
        <path id="MicrosoftYaHei-32" d="M 2666 3572 
Q 2666 3963 2419 4186 
Q 2172 4409 1747 4409 
Q 1447 4409 1140 4256 
Q 834 4103 569 3819 
L 569 4413 
Q 806 4659 1107 4790 
Q 1409 4922 1816 4922 
Q 2472 4922 2872 4570 
Q 3272 4219 3272 3619 
Q 3272 3084 3026 2693 
Q 2781 2303 2188 1894 
Q 1581 1475 1376 1294 
Q 1172 1113 1090 947 
Q 1009 781 1009 544 
L 3416 544 
L 3416 0 
L 372 0 
L 372 241 
Q 372 659 486 951 
Q 600 1244 862 1520 
Q 1125 1797 1681 2184 
Q 2250 2584 2458 2886 
Q 2666 3188 2666 3572 
z
" transform="scale(0.015625)"/>
        <path id="MicrosoftYaHei-30" d="M 284 2325 
Q 284 3606 709 4264 
Q 1134 4922 1941 4922 
Q 3478 4922 3478 2441 
Q 3478 1216 3045 567 
Q 2613 -81 1831 -81 
Q 1094 -81 689 534 
Q 284 1150 284 2325 
z
M 909 2353 
Q 909 425 1888 425 
Q 2850 425 2850 2384 
Q 2850 4413 1906 4413 
Q 909 4413 909 2353 
z
" transform="scale(0.015625)"/>
        <path id="MicrosoftYaHei-2d" d="M 2328 1681 
L 488 1681 
L 488 2153 
L 2328 2153 
L 2328 1681 
z
" transform="scale(0.015625)"/>
       </defs>
       <use xlink:href="#MicrosoftYaHei-32"/>
       <use xlink:href="#MicrosoftYaHei-30" x="58.642578"/>
       <use xlink:href="#MicrosoftYaHei-32" x="117.285156"/>
       <use xlink:href="#MicrosoftYaHei-30" x="175.927734"/>
       <use xlink:href="#MicrosoftYaHei-2d" x="234.570312"/>
       <use xlink:href="#MicrosoftYaHei-30" x="277.832031"/>
       <use xlink:href="#MicrosoftYaHei-32" x="336.474609"/>
      </g>
     </g>
    </g>
    <g id="xtick_2">
     <g id="line2d_2">
      <path d="M 226.636364 640.8 
L 226.636364 86.4 
" clip-path="url(#p5229c8722e)" style="fill: none; stroke: #ffffff; stroke-linecap: round"/>
     </g>
     <g id="text_2">
      <!-- 2020-03 -->
      <g style="fill: #262626" transform="translate(204.905348 659.093125)scale(0.11 -0.11)">
       <defs>
        <path id="MicrosoftYaHei-33" d="M 447 809 
Q 944 425 1569 425 
Q 2069 425 2361 670 
Q 2653 916 2653 1328 
Q 2653 2247 1338 2247 
L 934 2247 
L 934 2753 
L 1319 2753 
Q 2484 2753 2484 3616 
Q 2484 4413 1594 4413 
Q 1084 4413 634 4069 
L 634 4647 
Q 1109 4922 1744 4922 
Q 2363 4922 2738 4598 
Q 3113 4275 3113 3759 
Q 3113 2809 2144 2538 
L 2144 2525 
Q 2669 2469 2973 2155 
Q 3278 1841 3278 1372 
Q 3278 719 2808 319 
Q 2338 -81 1556 -81 
Q 869 -81 447 175 
L 447 809 
z
" transform="scale(0.015625)"/>
       </defs>
       <use xlink:href="#MicrosoftYaHei-32"/>
       <use xlink:href="#MicrosoftYaHei-30" x="58.642578"/>
       <use xlink:href="#MicrosoftYaHei-32" x="117.285156"/>
       <use xlink:href="#MicrosoftYaHei-30" x="175.927734"/>
       <use xlink:href="#MicrosoftYaHei-2d" x="234.570312"/>
       <use xlink:href="#MicrosoftYaHei-30" x="277.832031"/>
       <use xlink:href="#MicrosoftYaHei-33" x="336.474609"/>
      </g>
     </g>
    </g>
    <g id="xtick_3">
     <g id="line2d_3">
      <path d="M 328.090909 640.8 
L 328.090909 86.4 
" clip-path="url(#p5229c8722e)" style="fill: none; stroke: #ffffff; stroke-linecap: round"/>
     </g>
     <g id="text_3">
      <!-- 2020-04 -->
      <g style="fill: #262626" transform="translate(306.359893 659.093125)scale(0.11 -0.11)">
       <defs>
        <path id="MicrosoftYaHei-34" d="M 2906 4841 
L 2906 1644 
L 3631 1644 
L 3631 1138 
L 2906 1138 
L 2906 0 
L 2313 0 
L 2313 1138 
L 53 1138 
L 53 1616 
Q 656 2294 1265 3178 
Q 1875 4063 2272 4841 
L 2906 4841 
z
M 741 1644 
L 2313 1644 
L 2313 3950 
Q 1988 3366 1616 2817 
Q 1244 2269 741 1644 
z
" transform="scale(0.015625)"/>
       </defs>
       <use xlink:href="#MicrosoftYaHei-32"/>
       <use xlink:href="#MicrosoftYaHei-30" x="58.642578"/>
       <use xlink:href="#MicrosoftYaHei-32" x="117.285156"/>
       <use xlink:href="#MicrosoftYaHei-30" x="175.927734"/>
       <use xlink:href="#MicrosoftYaHei-2d" x="234.570312"/>
       <use xlink:href="#MicrosoftYaHei-30" x="277.832031"/>
       <use xlink:href="#MicrosoftYaHei-34" x="336.474609"/>
      </g>
     </g>
    </g>
    <g id="xtick_4">
     <g id="line2d_4">
      <path d="M 426.272727 640.8 
L 426.272727 86.4 
" clip-path="url(#p5229c8722e)" style="fill: none; stroke: #ffffff; stroke-linecap: round"/>
     </g>
     <g id="text_4">
      <!-- 2020-05 -->
      <g style="fill: #262626" transform="translate(404.541712 659.093125)scale(0.11 -0.11)">
       <defs>
        <path id="MicrosoftYaHei-35" d="M 3294 1494 
Q 3294 784 2823 350 
Q 2353 -84 1559 -84 
Q 878 -84 544 119 
L 544 744 
Q 1034 425 1544 425 
Q 2050 425 2361 704 
Q 2672 984 2672 1447 
Q 2672 1909 2348 2167 
Q 2025 2425 1434 2425 
Q 978 2425 613 2384 
L 791 4841 
L 3053 4841 
L 3053 4303 
L 1306 4303 
L 1206 2931 
L 1647 2950 
Q 2416 2950 2855 2567 
Q 3294 2184 3294 1494 
z
" transform="scale(0.015625)"/>
       </defs>
       <use xlink:href="#MicrosoftYaHei-32"/>
       <use xlink:href="#MicrosoftYaHei-30" x="58.642578"/>
       <use xlink:href="#MicrosoftYaHei-32" x="117.285156"/>
       <use xlink:href="#MicrosoftYaHei-30" x="175.927734"/>
       <use xlink:href="#MicrosoftYaHei-2d" x="234.570312"/>
       <use xlink:href="#MicrosoftYaHei-30" x="277.832031"/>
       <use xlink:href="#MicrosoftYaHei-35" x="336.474609"/>
      </g>
     </g>
    </g>
    <g id="xtick_5">
     <g id="line2d_5">
      <path d="M 527.727273 640.8 
L 527.727273 86.4 
" clip-path="url(#p5229c8722e)" style="fill: none; stroke: #ffffff; stroke-linecap: round"/>
     </g>
     <g id="text_5">
      <!-- 2020-06 -->
      <g style="fill: #262626" transform="translate(505.996257 659.093125)scale(0.11 -0.11)">
       <defs>
        <path id="MicrosoftYaHei-36" d="M 3181 4219 
Q 2803 4413 2391 4413 
Q 1763 4413 1381 3866 
Q 1000 3319 994 2372 
L 1009 2372 
Q 1353 3038 2106 3038 
Q 2734 3038 3109 2628 
Q 3484 2219 3484 1541 
Q 3484 831 3051 375 
Q 2619 -81 1947 -81 
Q 1209 -81 789 495 
Q 369 1072 369 2131 
Q 369 3413 920 4167 
Q 1472 4922 2372 4922 
Q 2888 4922 3181 4781 
L 3181 4219 
z
M 1031 1584 
Q 1031 1106 1286 765 
Q 1541 425 1963 425 
Q 2363 425 2613 719 
Q 2863 1013 2863 1475 
Q 2863 1975 2627 2253 
Q 2391 2531 1956 2531 
Q 1544 2531 1287 2250 
Q 1031 1969 1031 1584 
z
" transform="scale(0.015625)"/>
       </defs>
       <use xlink:href="#MicrosoftYaHei-32"/>
       <use xlink:href="#MicrosoftYaHei-30" x="58.642578"/>
       <use xlink:href="#MicrosoftYaHei-32" x="117.285156"/>
       <use xlink:href="#MicrosoftYaHei-30" x="175.927734"/>
       <use xlink:href="#MicrosoftYaHei-2d" x="234.570312"/>
       <use xlink:href="#MicrosoftYaHei-30" x="277.832031"/>
       <use xlink:href="#MicrosoftYaHei-36" x="336.474609"/>
      </g>
     </g>
    </g>
    <g id="xtick_6">
     <g id="line2d_6">
      <path d="M 625.909091 640.8 
L 625.909091 86.4 
" clip-path="url(#p5229c8722e)" style="fill: none; stroke: #ffffff; stroke-linecap: round"/>
     </g>
     <g id="text_6">
      <!-- 2020-07 -->
      <g style="fill: #262626" transform="translate(604.178075 659.093125)scale(0.11 -0.11)">
       <defs>
        <path id="MicrosoftYaHei-37" d="M 3422 4463 
Q 2659 3131 2223 1998 
Q 1788 866 1684 0 
L 1047 0 
Q 1163 853 1594 1947 
Q 2025 3041 2747 4300 
L 347 4300 
L 347 4841 
L 3422 4841 
L 3422 4463 
z
" transform="scale(0.015625)"/>
       </defs>
       <use xlink:href="#MicrosoftYaHei-32"/>
       <use xlink:href="#MicrosoftYaHei-30" x="58.642578"/>
       <use xlink:href="#MicrosoftYaHei-32" x="117.285156"/>
       <use xlink:href="#MicrosoftYaHei-30" x="175.927734"/>
       <use xlink:href="#MicrosoftYaHei-2d" x="234.570312"/>
       <use xlink:href="#MicrosoftYaHei-30" x="277.832031"/>
       <use xlink:href="#MicrosoftYaHei-37" x="336.474609"/>
      </g>
     </g>
    </g>
    <g id="text_7">
     <!-- 日期 -->
     <g style="fill: #262626" transform="translate(357 675.420156)scale(0.12 -0.12)">
      <defs>
       <path id="MicrosoftYaHei-65e5" d="M 975 4909 
L 5431 4909 
L 5431 -766 
L 4900 -766 
L 4900 -322 
L 1506 -322 
L 1506 -766 
L 975 -766 
L 975 4909 
z
M 1506 2103 
L 1506 134 
L 4900 134 
L 4900 2103 
L 1506 2103 
z
M 1506 4441 
L 1506 2572 
L 4900 2572 
L 4900 4441 
L 1506 4441 
z
" transform="scale(0.015625)"/>
       <path id="MicrosoftYaHei-671f" d="M 3769 5066 
L 5981 5066 
L 5981 -3 
Q 5981 -741 5281 -741 
Q 4931 -741 4594 -722 
Q 4569 -516 4519 -241 
Q 4975 -284 5175 -284 
Q 5519 -284 5519 59 
L 5519 1372 
L 4181 1372 
Q 4113 3 3350 -903 
Q 3181 -728 2975 -553 
Q 3481 28 3619 653 
Q 3769 1253 3769 2741 
L 3769 5066 
z
M 125 1141 
L 713 1141 
L 713 4028 
L 200 4028 
L 200 4453 
L 713 4453 
L 713 5216 
L 1175 5216 
L 1175 4453 
L 2475 4453 
L 2475 5241 
L 2938 5241 
L 2938 4453 
L 3444 4453 
L 3444 4028 
L 2938 4028 
L 2938 1141 
L 3438 1141 
L 3438 716 
L 125 716 
L 125 1141 
z
M 4209 1784 
L 5519 1784 
L 5519 3009 
L 4231 3009 
Q 4238 2203 4209 1784 
z
M 5519 4641 
L 4231 4641 
L 4231 3422 
L 5519 3422 
L 5519 4641 
z
M 1175 1141 
L 2475 1141 
L 2475 1841 
L 1175 1841 
L 1175 1141 
z
M 1175 2241 
L 2475 2241 
L 2475 2934 
L 1175 2934 
L 1175 2241 
z
M 1175 3334 
L 2475 3334 
L 2475 4028 
L 1175 4028 
L 1175 3334 
z
M 1175 597 
L 1556 297 
Q 925 -384 406 -847 
Q 275 -697 75 -516 
Q 669 -9 1175 597 
z
M 1994 303 
L 2294 609 
Q 2731 284 3119 -47 
L 2788 -403 
Q 2438 -53 1994 303 
z
" transform="scale(0.015625)"/>
      </defs>
      <use xlink:href="#MicrosoftYaHei-65e5"/>
      <use xlink:href="#MicrosoftYaHei-671f" x="100"/>
     </g>
    </g>
   </g>
   <g id="matplotlib.axis_2">
    <g id="ytick_1">
     <g id="line2d_7">
      <path d="M 90 615.6 
L 648 615.6 
" clip-path="url(#p5229c8722e)" style="fill: none; stroke: #ffffff; stroke-linecap: round"/>
     </g>
     <g id="text_8">
      <!-- 0 -->
      <g style="fill: #262626" transform="translate(74.049531 619.996562)scale(0.11 -0.11)">
       <use xlink:href="#MicrosoftYaHei-30"/>
      </g>
     </g>
    </g>
    <g id="ytick_2">
     <g id="line2d_8">
      <path d="M 90 544.131217 
L 648 544.131217 
" clip-path="url(#p5229c8722e)" style="fill: none; stroke: #ffffff; stroke-linecap: round"/>
     </g>
     <g id="text_9">
      <!-- 100000 -->
      <g style="fill: #262626" transform="translate(41.797187 548.52778)scale(0.11 -0.11)">
       <defs>
        <path id="MicrosoftYaHei-31" d="M 1781 0 
L 1781 4141 
Q 1638 3997 1295 3819 
Q 953 3641 663 3569 
L 663 4169 
Q 1047 4275 1484 4508 
Q 1922 4741 2156 4947 
L 2388 4947 
L 2388 0 
L 1781 0 
z
" transform="scale(0.015625)"/>
       </defs>
       <use xlink:href="#MicrosoftYaHei-31"/>
       <use xlink:href="#MicrosoftYaHei-30" x="58.642578"/>
       <use xlink:href="#MicrosoftYaHei-30" x="117.285156"/>
       <use xlink:href="#MicrosoftYaHei-30" x="175.927734"/>
       <use xlink:href="#MicrosoftYaHei-30" x="234.570312"/>
       <use xlink:href="#MicrosoftYaHei-30" x="293.212891"/>
      </g>
     </g>
    </g>
    <g id="ytick_3">
     <g id="line2d_9">
      <path d="M 90 472.662435 
L 648 472.662435 
" clip-path="url(#p5229c8722e)" style="fill: none; stroke: #ffffff; stroke-linecap: round"/>
     </g>
     <g id="text_10">
      <!-- 200000 -->
      <g style="fill: #262626" transform="translate(41.797187 477.058997)scale(0.11 -0.11)">
       <use xlink:href="#MicrosoftYaHei-32"/>
       <use xlink:href="#MicrosoftYaHei-30" x="58.642578"/>
       <use xlink:href="#MicrosoftYaHei-30" x="117.285156"/>
       <use xlink:href="#MicrosoftYaHei-30" x="175.927734"/>
       <use xlink:href="#MicrosoftYaHei-30" x="234.570312"/>
       <use xlink:href="#MicrosoftYaHei-30" x="293.212891"/>
      </g>
     </g>
    </g>
    <g id="ytick_4">
     <g id="line2d_10">
      <path d="M 90 401.193652 
L 648 401.193652 
" clip-path="url(#p5229c8722e)" style="fill: none; stroke: #ffffff; stroke-linecap: round"/>
     </g>
     <g id="text_11">
      <!-- 300000 -->
      <g style="fill: #262626" transform="translate(41.797187 405.590214)scale(0.11 -0.11)">
       <use xlink:href="#MicrosoftYaHei-33"/>
       <use xlink:href="#MicrosoftYaHei-30" x="58.642578"/>
       <use xlink:href="#MicrosoftYaHei-30" x="117.285156"/>
       <use xlink:href="#MicrosoftYaHei-30" x="175.927734"/>
       <use xlink:href="#MicrosoftYaHei-30" x="234.570312"/>
       <use xlink:href="#MicrosoftYaHei-30" x="293.212891"/>
      </g>
     </g>
    </g>
    <g id="ytick_5">
     <g id="line2d_11">
      <path d="M 90 329.724869 
L 648 329.724869 
" clip-path="url(#p5229c8722e)" style="fill: none; stroke: #ffffff; stroke-linecap: round"/>
     </g>
     <g id="text_12">
      <!-- 400000 -->
      <g style="fill: #262626" transform="translate(41.797187 334.121432)scale(0.11 -0.11)">
       <use xlink:href="#MicrosoftYaHei-34"/>
       <use xlink:href="#MicrosoftYaHei-30" x="58.642578"/>
       <use xlink:href="#MicrosoftYaHei-30" x="117.285156"/>
       <use xlink:href="#MicrosoftYaHei-30" x="175.927734"/>
       <use xlink:href="#MicrosoftYaHei-30" x="234.570312"/>
       <use xlink:href="#MicrosoftYaHei-30" x="293.212891"/>
      </g>
     </g>
    </g>
    <g id="ytick_6">
     <g id="line2d_12">
      <path d="M 90 258.256086 
L 648 258.256086 
" clip-path="url(#p5229c8722e)" style="fill: none; stroke: #ffffff; stroke-linecap: round"/>
     </g>
     <g id="text_13">
      <!-- 500000 -->
      <g style="fill: #262626" transform="translate(41.797187 262.652649)scale(0.11 -0.11)">
       <use xlink:href="#MicrosoftYaHei-35"/>
       <use xlink:href="#MicrosoftYaHei-30" x="58.642578"/>
       <use xlink:href="#MicrosoftYaHei-30" x="117.285156"/>
       <use xlink:href="#MicrosoftYaHei-30" x="175.927734"/>
       <use xlink:href="#MicrosoftYaHei-30" x="234.570312"/>
       <use xlink:href="#MicrosoftYaHei-30" x="293.212891"/>
      </g>
     </g>
    </g>
    <g id="ytick_7">
     <g id="line2d_13">
      <path d="M 90 186.787304 
L 648 186.787304 
" clip-path="url(#p5229c8722e)" style="fill: none; stroke: #ffffff; stroke-linecap: round"/>
     </g>
     <g id="text_14">
      <!-- 600000 -->
      <g style="fill: #262626" transform="translate(41.797187 191.183866)scale(0.11 -0.11)">
       <use xlink:href="#MicrosoftYaHei-36"/>
       <use xlink:href="#MicrosoftYaHei-30" x="58.642578"/>
       <use xlink:href="#MicrosoftYaHei-30" x="117.285156"/>
       <use xlink:href="#MicrosoftYaHei-30" x="175.927734"/>
       <use xlink:href="#MicrosoftYaHei-30" x="234.570312"/>
       <use xlink:href="#MicrosoftYaHei-30" x="293.212891"/>
      </g>
     </g>
    </g>
    <g id="ytick_8">
     <g id="line2d_14">
      <path d="M 90 115.318521 
L 648 115.318521 
" clip-path="url(#p5229c8722e)" style="fill: none; stroke: #ffffff; stroke-linecap: round"/>
     </g>
     <g id="text_15">
      <!-- 700000 -->
      <g style="fill: #262626" transform="translate(41.797187 119.715083)scale(0.11 -0.11)">
       <use xlink:href="#MicrosoftYaHei-37"/>
       <use xlink:href="#MicrosoftYaHei-30" x="58.642578"/>
       <use xlink:href="#MicrosoftYaHei-30" x="117.285156"/>
       <use xlink:href="#MicrosoftYaHei-30" x="175.927734"/>
       <use xlink:href="#MicrosoftYaHei-30" x="234.570312"/>
       <use xlink:href="#MicrosoftYaHei-30" x="293.212891"/>
      </g>
     </g>
    </g>
    <g id="text_16">
     <!-- 累计治愈 -->
     <g style="fill: #262626" transform="translate(34.814062 387.6)rotate(-90)scale(0.12 -0.12)">
      <defs>
       <path id="MicrosoftYaHei-7d2f" d="M 4550 1991 
Q 5425 1278 5944 772 
L 5600 422 
Q 5356 675 5097 922 
Q 4334 891 3556 856 
L 3556 22 
Q 3556 -753 2775 -753 
Q 2375 -753 1881 -747 
Q 1844 -497 1788 -228 
Q 2269 -272 2650 -272 
Q 3069 -272 3069 184 
L 3069 834 
Q 2231 794 1375 753 
Q 1100 741 844 703 
L 675 1178 
Q 1056 1222 1531 1403 
Q 2172 1650 2916 1984 
Q 2138 1959 1531 1922 
Q 1231 1903 1081 1884 
L 919 2297 
Q 1231 2359 1550 2503 
Q 1969 2691 2378 2909 
L 1206 2909 
L 1206 2728 
L 731 2728 
L 731 5103 
L 5675 5103 
L 5675 2728 
L 5200 2728 
L 5200 2909 
L 3125 2909 
Q 2434 2559 1763 2272 
Q 2581 2294 3669 2334 
Q 4100 2538 4563 2772 
L 4888 2434 
Q 3394 1728 1825 1147 
Q 3403 1216 4684 1297 
Q 4456 1500 4219 1697 
L 4550 1991 
z
M 3431 3272 
L 5200 3272 
L 5200 3841 
L 3431 3841 
L 3431 3272 
z
M 1206 3272 
L 2969 3272 
L 2969 3841 
L 1206 3841 
L 1206 3272 
z
M 5200 4741 
L 3431 4741 
L 3431 4178 
L 5200 4178 
L 5200 4741 
z
M 1206 4178 
L 2969 4178 
L 2969 4741 
L 1206 4741 
L 1206 4178 
z
M 1894 572 
L 2175 184 
Q 1263 -272 381 -616 
Q 288 -422 163 -197 
Q 1094 166 1894 572 
z
M 4431 547 
Q 5363 234 6219 -147 
L 6025 -572 
Q 5188 -191 4219 134 
L 4431 547 
z
" transform="scale(0.015625)"/>
       <path id="MicrosoftYaHei-8ba1" d="M 2100 3153 
L 3919 3153 
L 3919 5303 
L 4456 5303 
L 4456 3153 
L 6288 3153 
L 6288 2703 
L 4456 2703 
L 4456 -822 
L 3919 -822 
L 3919 2703 
L 2100 2703 
L 2100 3153 
z
M 2675 903 
Q 2694 578 2719 359 
Q 1719 -266 1069 -728 
L 769 -303 
Q 988 -116 988 266 
L 988 2741 
L 100 2741 
L 100 3191 
L 1488 3191 
L 1488 153 
Q 2031 484 2675 903 
z
M 738 5222 
Q 1419 4522 1725 4184 
L 1288 3816 
Q 894 4334 356 4891 
L 738 5222 
z
" transform="scale(0.015625)"/>
       <path id="MicrosoftYaHei-6cbb" d="M 2231 1934 
L 5719 1934 
L 5719 -822 
L 5244 -822 
L 5244 -403 
L 2706 -403 
L 2706 -822 
L 2231 -822 
L 2231 1934 
z
M 5019 4484 
Q 5731 3522 6325 2534 
L 5875 2259 
Q 5706 2553 5538 2838 
Q 3694 2759 2594 2666 
Q 2344 2641 2081 2566 
L 1831 3053 
Q 2088 3147 2288 3372 
Q 2931 4141 3519 5334 
L 4019 5128 
Q 3388 4059 2713 3153 
Q 3853 3191 5281 3259 
Q 4956 3775 4625 4247 
L 5019 4484 
z
M 5244 1497 
L 2706 1497 
L 2706 34 
L 5244 34 
L 5244 1497 
z
M 1013 1903 
Q 1263 1784 1525 1684 
Q 1069 278 763 -766 
L 231 -566 
Q 656 509 1013 1903 
z
M 663 5209 
Q 1338 4747 1819 4359 
Q 1619 4128 1469 3953 
Q 994 4378 356 4853 
L 663 5209 
z
M 406 3647 
Q 981 3266 1525 2847 
Q 1431 2753 1188 2434 
Q 563 2953 100 3291 
L 406 3647 
z
" transform="scale(0.015625)"/>
       <path id="MicrosoftYaHei-6108" d="M 1231 1059 
L 800 1059 
L 800 3541 
L 3200 3541 
L 3200 1678 
Q 3200 1034 2575 1034 
Q 2369 1034 2006 1047 
Q 1969 1259 1919 1478 
Q 2263 1441 2506 1441 
Q 2769 1441 2769 1722 
L 2769 1803 
L 1231 1803 
L 1231 1059 
z
M 3631 5316 
L 3525 5228 
Q 4563 4397 6313 3991 
Q 6181 3828 6006 3559 
Q 5056 3853 4350 4209 
L 4350 3916 
L 2044 3916 
L 2044 4247 
Q 1319 3884 375 3534 
Q 244 3741 88 3916 
Q 1900 4478 3006 5316 
L 3631 5316 
z
M 1744 803 
L 2206 803 
L 2206 59 
Q 2206 -303 2563 -303 
L 3900 -303 
Q 4350 -303 4425 53 
Q 4475 297 4519 653 
Q 4744 566 4988 491 
Q 4925 122 4850 -153 
Q 4706 -703 3981 -703 
L 2506 -703 
Q 1744 -703 1744 3 
L 1744 803 
z
M 5019 3559 
L 5463 3559 
L 5463 1709 
Q 5463 1022 4819 1022 
Q 4594 1022 4169 1034 
Q 4125 1284 4056 1516 
Q 4438 1472 4731 1472 
Q 5019 1472 5019 1791 
L 5019 3559 
z
M 3213 4959 
Q 2669 4559 2069 4266 
L 4250 4266 
Q 3644 4584 3213 4959 
z
M 3875 3391 
L 4306 3391 
L 4306 1834 
L 3875 1834 
L 3875 3391 
z
M 813 784 
L 1238 628 
Q 956 -22 588 -566 
Q 400 -453 175 -347 
Q 569 178 813 784 
z
M 5113 578 
L 5456 822 
Q 5900 334 6275 -153 
L 5888 -428 
Q 5569 34 5113 578 
z
M 1231 2141 
L 2769 2141 
L 2769 2497 
L 1231 2497 
L 1231 2141 
z
M 2769 3191 
L 1231 3191 
L 1231 2834 
L 2769 2834 
L 2769 3191 
z
M 2800 734 
L 3088 1003 
Q 3531 678 3919 341 
L 3600 22 
Q 3219 384 2800 734 
z
" transform="scale(0.015625)"/>
      </defs>
      <use xlink:href="#MicrosoftYaHei-7d2f"/>
      <use xlink:href="#MicrosoftYaHei-8ba1" x="100"/>
      <use xlink:href="#MicrosoftYaHei-6cbb" x="200"/>
      <use xlink:href="#MicrosoftYaHei-6108" x="300"/>
     </g>
    </g>
   </g>
   <g id="line2d_15">
    <path d="M 115.363636 615.6 
L 292.090909 615.494941 
L 305.181818 615.347001 
L 308.454545 615.157608 
L 311.727273 615.090428 
L 315 614.119167 
L 318.272727 613.733235 
L 321.545455 612.123044 
L 324.818182 611.386201 
L 328.090909 610.499988 
L 331.363636 609.402227 
L 337.909091 608.510297 
L 341.181818 604.864674 
L 344.454545 603.034359 
L 347.727273 601.364133 
L 351 599.491651 
L 354.272727 598.295264 
L 357.545455 596.645049 
L 360.818182 594.736833 
L 364.090909 592.505578 
L 367.363636 585.570247 
L 370.636364 583.92575 
L 373.909091 579.889908 
L 377.181818 577.884494 
L 383.727273 572.953148 
L 387 567.82026 
L 390.272727 564.849303 
L 393.545455 563.04686 
L 396.818182 561.510996 
L 400.090909 560.843477 
L 403.363636 557.755311 
L 406.636364 544.759428 
L 409.909091 539.96959 
L 413.181818 539.078374 
L 419.727273 532.741952 
L 423 526.932969 
L 426.272727 505.575953 
L 429.545455 498.380476 
L 432.818182 490.256619 
L 436.090909 486.847559 
L 439.363636 481.824732 
L 442.636364 479.958683 
L 445.909091 479.873635 
L 449.181818 476.210145 
L 452.454545 473.382125 
L 455.727273 463.704537 
L 459 461.106647 
L 462.272727 449.268558 
L 465.545455 448.157933 
L 468.818182 441.623542 
L 472.090909 439.490914 
L 475.363636 436.394171 
L 478.636364 423.79494 
L 481.909091 421.015519 
L 485.181818 413.21613 
L 488.454545 408.77506 
L 491.727273 408.77506 
L 495 402.324288 
L 498.272727 365.362778 
L 501.545455 357.426884 
L 504.818182 353.498245 
L 508.090909 344.621107 
L 511.363636 340.515226 
L 514.636364 335.793998 
L 517.909091 329.731301 
L 521.181818 325.117991 
L 524.454545 317.960393 
L 527.727273 297.736871 
L 531 288.107882 
L 534.272727 284.079187 
L 537.545455 273.080141 
L 540.818182 268.974974 
L 544.090909 264.183707 
L 547.363636 257.649316 
L 550.636364 253.705669 
L 553.909091 245.018638 
L 557.181818 240.49252 
L 560.454545 234.311185 
L 563.727273 229.459884 
L 567 224.389889 
L 570.272727 217.800467 
L 573.545455 214.076944 
L 576.818182 203.701106 
L 580.090909 194.902584 
L 583.363636 192.368301 
L 586.636364 187.419802 
L 589.909091 181.988175 
L 593.181818 174.308854 
L 596.454545 170.969118 
L 599.727273 158.058282 
L 603 152.805327 
L 606.272727 146.64972 
L 612.818182 136.180973 
L 616.090909 130.106841 
L 619.363636 125.921629 
L 622.636364 111.6 
L 622.636364 111.6 
" clip-path="url(#p5229c8722e)" style="fill: none; stroke: #4c72b0; stroke-width: 1.5; stroke-linecap: round"/>
   </g>
   <g id="line2d_16">
    <path d="M 128.454545 615.6 
L 324.818182 615.513523 
L 357.545455 615.031823 
L 380.454545 613.748959 
L 383.727273 613.415199 
L 393.545455 612.832014 
L 403.363636 611.620618 
L 406.636364 611.133201 
L 413.181818 610.349903 
L 416.454545 609.5566 
L 419.727273 608.248721 
L 423 607.296042 
L 426.272727 606.151827 
L 429.545455 604.870392 
L 432.818182 603.708309 
L 436.090909 602.667724 
L 439.363636 601.402726 
L 442.636364 600.357853 
L 445.909091 598.588286 
L 449.181818 596.583586 
L 452.454545 592.790023 
L 455.727273 591.081919 
L 459 587.15471 
L 462.272727 584.502503 
L 465.545455 581.29284 
L 468.818182 577.342761 
L 472.090909 573.986587 
L 475.363636 570.456029 
L 478.636364 567.449337 
L 481.909091 565.422482 
L 485.181818 561.190816 
L 488.454545 554.571377 
L 491.727273 554.571377 
L 495 544.256288 
L 498.272727 538.459455 
L 504.818182 530.696515 
L 508.090909 521.8837 
L 511.363636 513.965673 
L 514.636364 507.687141 
L 521.181818 495.911944 
L 524.454545 492.757312 
L 527.727273 489.902849 
L 531 481.964097 
L 537.545455 469.358433 
L 540.818182 463.600193 
L 544.090909 457.376691 
L 547.363636 453.558114 
L 550.636364 450.730094 
L 553.909091 442.361815 
L 557.181818 434.939067 
L 563.727273 423.08454 
L 570.272727 415.451674 
L 573.545455 412.24344 
L 583.363636 391.214466 
L 589.909091 376.47117 
L 593.181818 372.812683 
L 596.454545 369.450077 
L 603 352.007406 
L 606.272727 347.474856 
L 612.818182 334.476114 
L 616.090909 330.377379 
L 619.363636 327.27349 
L 622.636364 320.684068 
L 622.636364 320.684068 
" clip-path="url(#p5229c8722e)" style="fill: none; stroke: #dd8452; stroke-width: 1.5; stroke-linecap: round"/>
   </g>
   <g id="line2d_17">
    <path d="M 128.454545 615.6 
L 360.818182 615.503517 
L 364.090909 615.354147 
L 449.181818 615.354147 
L 452.454545 615.214783 
L 622.636364 615.214783 
L 622.636364 615.214783 
" clip-path="url(#p5229c8722e)" style="fill: none; stroke: #55a868; stroke-width: 1.5; stroke-linecap: round"/>
   </g>
   <g id="line2d_18"/>
   <g id="line2d_19"/>
   <g id="line2d_20"/>
   <g id="patch_3">
    <path d="M 90 640.8 
L 90 86.4 
" style="fill: none; stroke: #ffffff; stroke-width: 1.25; stroke-linejoin: miter; stroke-linecap: square"/>
   </g>
   <g id="patch_4">
    <path d="M 648 640.8 
L 648 86.4 
" style="fill: none; stroke: #ffffff; stroke-width: 1.25; stroke-linejoin: miter; stroke-linecap: square"/>
   </g>
   <g id="patch_5">
    <path d="M 90 640.8 
L 648 640.8 
" style="fill: none; stroke: #ffffff; stroke-width: 1.25; stroke-linejoin: miter; stroke-linecap: square"/>
   </g>
   <g id="patch_6">
    <path d="M 90 86.4 
L 648 86.4 
" style="fill: none; stroke: #ffffff; stroke-width: 1.25; stroke-linejoin: miter; stroke-linecap: square"/>
   </g>
   <g id="legend_1">
    <g id="patch_7">
     <path d="M 97.7 164.358594 
L 165.9 164.358594 
Q 168.1 164.358594 168.1 162.158594 
L 168.1 94.1 
Q 168.1 91.9 165.9 91.9 
L 97.7 91.9 
Q 95.5 91.9 95.5 94.1 
L 95.5 162.158594 
Q 95.5 164.358594 97.7 164.358594 
z
" style="fill: #eaeaf2; opacity: 0.8; stroke: #cccccc; stroke-linejoin: miter"/>
    </g>
    <g id="text_17">
     <!-- 国家 -->
     <g style="fill: #262626" transform="translate(119.8 105.8925)scale(0.12 -0.12)">
      <defs>
       <path id="MicrosoftYaHei-56fd" d="M 469 4997 
L 5938 4997 
L 5938 -834 
L 5456 -834 
L 5456 -522 
L 950 -522 
L 950 -841 
L 469 -841 
L 469 4997 
z
M 5456 4553 
L 950 4553 
L 950 -78 
L 5456 -78 
L 5456 4553 
z
M 1238 1009 
L 2963 1009 
L 2963 2247 
L 1456 2247 
L 1456 2672 
L 2963 2672 
L 2963 3509 
L 1338 3509 
L 1338 3934 
L 5063 3934 
L 5063 3509 
L 3425 3509 
L 3425 2672 
L 4938 2672 
L 4938 2247 
L 3425 2247 
L 3425 1009 
L 5163 1009 
L 5163 584 
L 1238 584 
L 1238 1009 
z
M 3750 1847 
L 4100 2109 
Q 4444 1753 4688 1441 
L 4319 1159 
Q 4019 1566 3750 1847 
z
" transform="scale(0.015625)"/>
       <path id="MicrosoftYaHei-5bb6" d="M 194 -209 
Q 2081 331 3200 1556 
Q 3113 1738 2997 1903 
Q 2066 941 425 422 
Q 331 634 200 847 
Q 1809 1291 2703 2256 
Q 2600 2359 2478 2459 
Q 1650 1872 444 1497 
Q 325 1703 163 1941 
Q 1653 2272 2550 3053 
L 975 3053 
L 975 3503 
L 5438 3503 
L 5438 3053 
L 3169 3053 
Q 3009 2884 2825 2728 
Q 3316 2331 3588 1841 
Q 4566 2319 5325 2822 
L 5619 2422 
Q 5109 2116 4534 1816 
Q 5088 616 6331 141 
Q 6125 -97 5944 -347 
Q 4722 278 4131 1609 
Q 3953 1522 3769 1431 
Q 4125 103 3656 -503 
Q 3431 -772 2794 -772 
Q 2544 -772 2006 -753 
Q 1969 -509 1913 -234 
Q 2400 -291 2781 -291 
Q 3456 -328 3438 522 
Q 3428 803 3369 1063 
Q 2263 -28 419 -641 
Q 325 -434 194 -209 
z
M 331 4528 
L 3156 4528 
Q 2972 4806 2725 5122 
L 3163 5403 
Q 3444 5059 3675 4722 
L 3356 4528 
L 6063 4528 
L 6063 3459 
L 5563 3459 
L 5563 4066 
L 831 4066 
L 831 3459 
L 331 3459 
L 331 4528 
z
" transform="scale(0.015625)"/>
      </defs>
      <use xlink:href="#MicrosoftYaHei-56fd"/>
      <use xlink:href="#MicrosoftYaHei-5bb6" x="100"/>
     </g>
    </g>
    <g id="line2d_21">
     <path d="M 99.9 119.31875 
L 110.9 119.31875 
L 121.9 119.31875 
" style="fill: none; stroke: #4c72b0; stroke-width: 1.5; stroke-linecap: round"/>
    </g>
    <g id="text_18">
     <!-- 美国 -->
     <g style="fill: #262626" transform="translate(130.7 123.16875)scale(0.11 -0.11)">
      <defs>
       <path id="MicrosoftYaHei-7f8e" d="M 150 2403 
L 2956 2403 
L 2956 2991 
L 663 2991 
L 663 3416 
L 2956 3416 
L 2956 3991 
L 288 3991 
L 288 4416 
L 2259 4416 
Q 1938 4694 1425 5084 
L 1713 5397 
Q 2256 5028 2619 4753 
L 2288 4416 
L 3950 4416 
L 3719 4678 
Q 4213 5022 4613 5372 
L 4981 5022 
Q 4581 4722 4116 4416 
L 6150 4416 
L 6150 3991 
L 3469 3991 
L 3469 3416 
L 5813 3416 
L 5813 2991 
L 3469 2991 
L 3469 2403 
L 6263 2403 
L 6263 1978 
L 150 1978 
L 150 2403 
z
M 6313 -303 
Q 6075 -622 5950 -822 
Q 3897 -419 3216 803 
Q 2606 -488 406 -872 
Q 281 -659 100 -397 
Q 2200 -106 2741 916 
L 238 916 
L 238 1341 
L 2913 1341 
Q 2975 1559 3013 1841 
L 3525 1841 
Q 3475 1566 3413 1341 
L 6200 1341 
L 6200 916 
L 3631 916 
Q 4363 -138 6313 -303 
z
" transform="scale(0.015625)"/>
      </defs>
      <use xlink:href="#MicrosoftYaHei-7f8e"/>
      <use xlink:href="#MicrosoftYaHei-56fd" x="100"/>
     </g>
    </g>
    <g id="line2d_22">
     <path d="M 99.9 136.346406 
L 110.9 136.346406 
L 121.9 136.346406 
" style="fill: none; stroke: #dd8452; stroke-width: 1.5; stroke-linecap: round"/>
    </g>
    <g id="text_19">
     <!-- 俄罗斯 -->
     <g style="fill: #262626" transform="translate(130.7 140.196406)scale(0.11 -0.11)">
      <defs>
       <path id="MicrosoftYaHei-4fc4" d="M 3281 141 
Q 3919 472 4431 909 
Q 4263 1734 4203 2941 
L 3056 2941 
L 3056 1903 
Q 3481 2003 3950 2116 
Q 3969 1853 3994 1653 
Q 3491 1528 3056 1422 
L 3056 84 
Q 3056 -384 2906 -541 
Q 2750 -709 2306 -716 
Q 2019 -722 1700 -703 
Q 1675 -428 1600 -191 
Q 1969 -247 2231 -247 
Q 2444 -247 2519 -178 
Q 2581 -122 2581 109 
L 2581 1303 
Q 2034 1166 1619 1059 
L 1475 1559 
Q 1981 1663 2581 1794 
L 2581 2941 
L 1513 2941 
L 1513 3391 
L 2581 3391 
L 2581 4269 
Q 2194 4209 1825 4166 
Q 1781 4378 1694 4616 
Q 2675 4709 3813 4972 
L 3956 4522 
Q 3494 4425 3056 4347 
L 3056 3391 
L 4184 3391 
Q 4159 4225 4150 5316 
L 4644 5316 
Q 4628 4313 4659 3391 
L 6313 3391 
L 6313 2941 
L 4675 2941 
Q 4725 1953 4831 1284 
Q 5372 1847 5738 2553 
L 6175 2316 
Q 5688 1422 4944 731 
Q 5138 -9 5450 -222 
Q 5681 -366 5756 -41 
Q 5825 334 5863 859 
Q 6113 741 6319 684 
Q 6263 184 6188 -172 
Q 6050 -803 5650 -803 
Q 5175 -803 4844 -247 
Q 4684 13 4563 400 
Q 4116 44 3588 -247 
Q 3463 -59 3281 141 
z
M 56 2391 
Q 956 3803 1300 5322 
L 1769 5228 
Q 1541 4400 1231 3666 
L 1231 -859 
L 800 -859 
L 800 2763 
Q 550 2300 263 1878 
Q 175 2122 56 2391 
z
M 4925 4691 
L 5219 4991 
Q 5663 4622 6119 4197 
L 5775 3847 
Q 5369 4291 4925 4691 
z
" transform="scale(0.015625)"/>
       <path id="MicrosoftYaHei-7f57" d="M 475 5003 
L 5956 5003 
L 5956 2678 
L 5481 2678 
L 5481 2922 
L 950 2922 
L 950 2678 
L 475 2678 
L 475 5003 
z
M 2213 2916 
L 2700 2716 
Q 2500 2459 2288 2216 
L 5619 2216 
L 5619 1772 
Q 4163 -453 431 -947 
Q 319 -728 181 -466 
Q 1831 -272 2794 141 
Q 2288 584 1550 1141 
L 1894 1459 
Q 2725 866 3319 384 
Q 4306 884 5013 1784 
L 1888 1784 
Q 1288 1191 456 584 
Q 281 816 131 991 
Q 1394 1766 2213 2916 
z
M 5481 4584 
L 4275 4584 
L 4275 3341 
L 5481 3341 
L 5481 4584 
z
M 2613 3341 
L 3813 3341 
L 3813 4584 
L 2613 4584 
L 2613 3341 
z
M 950 3341 
L 2150 3341 
L 2150 4584 
L 950 4584 
L 950 3341 
z
" transform="scale(0.015625)"/>
       <path id="MicrosoftYaHei-65af" d="M 131 1216 
L 613 1216 
L 613 4103 
L 175 4103 
L 175 4528 
L 613 4528 
L 613 5272 
L 1075 5272 
L 1075 4528 
L 2375 4528 
L 2375 5272 
L 2838 5272 
L 2838 4528 
L 3300 4528 
L 3300 4103 
L 2838 4103 
L 2838 1216 
L 3306 1216 
L 3306 791 
L 131 791 
L 131 1216 
z
M 3650 4753 
Q 4988 4884 5969 5122 
L 6163 4659 
Q 5175 4472 4113 4366 
L 4113 3016 
L 6275 3016 
L 6275 2578 
L 5563 2578 
L 5563 -816 
L 5100 -816 
L 5100 2578 
L 4113 2578 
Q 4103 428 3356 -778 
Q 3188 -603 2963 -428 
Q 3650 616 3650 2534 
L 3650 4753 
z
M 1075 1216 
L 2375 1216 
L 2375 1916 
L 1075 1916 
L 1075 1216 
z
M 1075 3409 
L 2375 3409 
L 2375 4103 
L 1075 4103 
L 1075 3409 
z
M 1075 2316 
L 2375 2316 
L 2375 3009 
L 1075 3009 
L 1075 2316 
z
M 1100 647 
L 1481 347 
Q 894 -378 419 -809 
Q 288 -659 75 -478 
Q 663 41 1100 647 
z
M 1931 391 
L 2256 678 
Q 2638 328 3006 -59 
L 2650 -384 
Q 2313 9 1931 391 
z
" transform="scale(0.015625)"/>
      </defs>
      <use xlink:href="#MicrosoftYaHei-4fc4"/>
      <use xlink:href="#MicrosoftYaHei-7f57" x="100"/>
      <use xlink:href="#MicrosoftYaHei-65af" x="200"/>
     </g>
    </g>
    <g id="line2d_23">
     <path d="M 99.9 153.374062 
L 110.9 153.374062 
L 121.9 153.374062 
" style="fill: none; stroke: #55a868; stroke-width: 1.5; stroke-linecap: round"/>
    </g>
    <g id="text_20">
     <!-- 英国 -->
     <g style="fill: #262626" transform="translate(130.7 157.224062)scale(0.11 -0.11)">
      <defs>
       <path id="MicrosoftYaHei-82f1" d="M 144 1572 
L 931 1572 
L 931 3222 
L 2966 3222 
Q 2966 3513 2963 3834 
L 3463 3834 
Q 3463 3513 3459 3222 
L 5469 3222 
L 5469 1572 
L 6281 1572 
L 6281 1134 
L 3572 1134 
Q 4300 -91 6319 -278 
Q 6106 -553 5956 -784 
Q 3847 -363 3209 963 
Q 2734 -159 444 -878 
Q 300 -672 88 -422 
Q 2288 150 2797 1134 
L 144 1134 
L 144 1572 
z
M 175 4591 
L 1813 4591 
L 1813 5328 
L 2300 5328 
L 2300 4591 
L 4113 4591 
L 4113 5328 
L 4600 5328 
L 4600 4591 
L 6250 4591 
L 6250 4153 
L 4600 4153 
L 4600 3584 
L 4113 3584 
L 4113 4153 
L 2300 4153 
L 2300 3584 
L 1813 3584 
L 1813 4153 
L 175 4153 
L 175 4591 
z
M 2963 2797 
L 1419 2797 
L 1419 1572 
L 2934 1572 
Q 2956 2069 2963 2797 
z
M 3431 1572 
L 4981 1572 
L 4981 2797 
L 3456 2797 
Q 3450 2072 3431 1572 
z
" transform="scale(0.015625)"/>
      </defs>
      <use xlink:href="#MicrosoftYaHei-82f1"/>
      <use xlink:href="#MicrosoftYaHei-56fd" x="100"/>
     </g>
    </g>
   </g>
  </g>
 </g>
 <defs>
  <clipPath id="p5229c8722e">
   <rect x="90" y="86.4" width="558" height="554.4"/>
  </clipPath>
 </defs>
</svg>
