<?xml version="1.0" encoding="utf-8" standalone="no"?>
<!DOCTYPE svg PUBLIC "-//W3C//DTD SVG 1.1//EN"
        "http://www.w3.org/Graphics/SVG/1.1/DTD/svg11.dtd">
<svg xmlns:xlink="http://www.w3.org/1999/xlink" width="1080pt" height="1080pt" viewBox="0 0 1080 1080"
     xmlns="http://www.w3.org/2000/svg" version="1.1">
    <metadata>
        <rdf:RDF xmlns:dc="http://purl.org/dc/elements/1.1/" xmlns:cc="http://creativecommons.org/ns#"
                 xmlns:rdf="http://www.w3.org/1999/02/22-rdf-syntax-ns#">
            <cc:Work>
                <dc:type rdf:resource="http://purl.org/dc/dcmitype/StillImage"/>
                <dc:date>2021-12-15T09:45:10.226392</dc:date>
                <dc:format>image/svg+xml</dc:format>
                <dc:creator>
                    <cc:Agent>
                        <dc:title>Matplotlib v3.5.1, https://matplotlib.org/</dc:title>
                    </cc:Agent>
                </dc:creator>
            </cc:Work>
        </rdf:RDF>
    </metadata>
    <defs>
        <style type="text/css">*{stroke-linejoin: round; stroke-linecap: butt}</style>
    </defs>
    <g id="figure_1">
        <g id="patch_1">
            <path d="M 0 1080
L 1080 1080 
L 1080 0 
L 0 0 
z
" style="fill: #ffffff"/>
        </g>
        <g id="axes_1">
            <g id="patch_2">
                <path d="M 135 961.2
L 972 961.2 
L 972 129.6 
L 135 129.6 
z
" style="fill: #eaeaf2"/>
            </g>
            <g id="matplotlib.axis_1">
                <g id="xtick_1">
                    <g id="line2d_1">
                        <path d="M 197.590909 961.2
L 197.590909 129.6 
" clip-path="url(#pb49b5c972d)" style="fill: none; stroke: #ffffff; stroke-linecap: round"/>
                    </g>
                    <g id="text_1">
                        <!-- 2020-02 -->
                        <g style="fill: #262626" transform="translate(175.859893 979.493125)scale(0.11 -0.11)">
                            <defs>
                                <path id="MicrosoftYaHei-32" d="M 2666 3572
Q 2666 3963 2419 4186 
Q 2172 4409 1747 4409 
Q 1447 4409 1140 4256 
Q 834 4103 569 3819 
L 569 4413 
Q 806 4659 1107 4790 
Q 1409 4922 1816 4922 
Q 2472 4922 2872 4570 
Q 3272 4219 3272 3619 
Q 3272 3084 3026 2693 
Q 2781 2303 2188 1894 
Q 1581 1475 1376 1294 
Q 1172 1113 1090 947 
Q 1009 781 1009 544 
L 3416 544 
L 3416 0 
L 372 0 
L 372 241 
Q 372 659 486 951 
Q 600 1244 862 1520 
Q 1125 1797 1681 2184 
Q 2250 2584 2458 2886 
Q 2666 3188 2666 3572 
z
" transform="scale(0.015625)"/>
                                <path id="MicrosoftYaHei-30" d="M 284 2325
Q 284 3606 709 4264 
Q 1134 4922 1941 4922 
Q 3478 4922 3478 2441 
Q 3478 1216 3045 567 
Q 2613 -81 1831 -81 
Q 1094 -81 689 534 
Q 284 1150 284 2325 
z
M 909 2353 
Q 909 425 1888 425 
Q 2850 425 2850 2384 
Q 2850 4413 1906 4413 
Q 909 4413 909 2353 
z
" transform="scale(0.015625)"/>
                                <path id="MicrosoftYaHei-2d" d="M 2328 1681
L 488 1681 
L 488 2153 
L 2328 2153 
L 2328 1681 
z
" transform="scale(0.015625)"/>
                            </defs>
                            <use xlink:href="#MicrosoftYaHei-32"/>
                            <use xlink:href="#MicrosoftYaHei-30" x="58.642578"/>
                            <use xlink:href="#MicrosoftYaHei-32" x="117.285156"/>
                            <use xlink:href="#MicrosoftYaHei-30" x="175.927734"/>
                            <use xlink:href="#MicrosoftYaHei-2d" x="234.570312"/>
                            <use xlink:href="#MicrosoftYaHei-30" x="277.832031"/>
                            <use xlink:href="#MicrosoftYaHei-32" x="336.474609"/>
                        </g>
                    </g>
                </g>
                <g id="xtick_2">
                    <g id="line2d_2">
                        <path d="M 339.954545 961.2
L 339.954545 129.6 
" clip-path="url(#pb49b5c972d)" style="fill: none; stroke: #ffffff; stroke-linecap: round"/>
                    </g>
                    <g id="text_2">
                        <!-- 2020-03 -->
                        <g style="fill: #262626" transform="translate(318.22353 979.493125)scale(0.11 -0.11)">
                            <defs>
                                <path id="MicrosoftYaHei-33" d="M 447 809
Q 944 425 1569 425 
Q 2069 425 2361 670 
Q 2653 916 2653 1328 
Q 2653 2247 1338 2247 
L 934 2247 
L 934 2753 
L 1319 2753 
Q 2484 2753 2484 3616 
Q 2484 4413 1594 4413 
Q 1084 4413 634 4069 
L 634 4647 
Q 1109 4922 1744 4922 
Q 2363 4922 2738 4598 
Q 3113 4275 3113 3759 
Q 3113 2809 2144 2538 
L 2144 2525 
Q 2669 2469 2973 2155 
Q 3278 1841 3278 1372 
Q 3278 719 2808 319 
Q 2338 -81 1556 -81 
Q 869 -81 447 175 
L 447 809 
z
" transform="scale(0.015625)"/>
                            </defs>
                            <use xlink:href="#MicrosoftYaHei-32"/>
                            <use xlink:href="#MicrosoftYaHei-30" x="58.642578"/>
                            <use xlink:href="#MicrosoftYaHei-32" x="117.285156"/>
                            <use xlink:href="#MicrosoftYaHei-30" x="175.927734"/>
                            <use xlink:href="#MicrosoftYaHei-2d" x="234.570312"/>
                            <use xlink:href="#MicrosoftYaHei-30" x="277.832031"/>
                            <use xlink:href="#MicrosoftYaHei-33" x="336.474609"/>
                        </g>
                    </g>
                </g>
                <g id="xtick_3">
                    <g id="line2d_3">
                        <path d="M 492.136364 961.2
L 492.136364 129.6 
" clip-path="url(#pb49b5c972d)" style="fill: none; stroke: #ffffff; stroke-linecap: round"/>
                    </g>
                    <g id="text_3">
                        <!-- 2020-04 -->
                        <g style="fill: #262626" transform="translate(470.405348 979.493125)scale(0.11 -0.11)">
                            <defs>
                                <path id="MicrosoftYaHei-34" d="M 2906 4841
L 2906 1644 
L 3631 1644 
L 3631 1138 
L 2906 1138 
L 2906 0 
L 2313 0 
L 2313 1138 
L 53 1138 
L 53 1616 
Q 656 2294 1265 3178 
Q 1875 4063 2272 4841 
L 2906 4841 
z
M 741 1644 
L 2313 1644 
L 2313 3950 
Q 1988 3366 1616 2817 
Q 1244 2269 741 1644 
z
" transform="scale(0.015625)"/>
                            </defs>
                            <use xlink:href="#MicrosoftYaHei-32"/>
                            <use xlink:href="#MicrosoftYaHei-30" x="58.642578"/>
                            <use xlink:href="#MicrosoftYaHei-32" x="117.285156"/>
                            <use xlink:href="#MicrosoftYaHei-30" x="175.927734"/>
                            <use xlink:href="#MicrosoftYaHei-2d" x="234.570312"/>
                            <use xlink:href="#MicrosoftYaHei-30" x="277.832031"/>
                            <use xlink:href="#MicrosoftYaHei-34" x="336.474609"/>
                        </g>
                    </g>
                </g>
                <g id="xtick_4">
                    <g id="line2d_4">
                        <path d="M 639.409091 961.2
L 639.409091 129.6 
" clip-path="url(#pb49b5c972d)" style="fill: none; stroke: #ffffff; stroke-linecap: round"/>
                    </g>
                    <g id="text_4">
                        <!-- 2020-05 -->
                        <g style="fill: #262626" transform="translate(617.678075 979.493125)scale(0.11 -0.11)">
                            <defs>
                                <path id="MicrosoftYaHei-35" d="M 3294 1494
Q 3294 784 2823 350 
Q 2353 -84 1559 -84 
Q 878 -84 544 119 
L 544 744 
Q 1034 425 1544 425 
Q 2050 425 2361 704 
Q 2672 984 2672 1447 
Q 2672 1909 2348 2167 
Q 2025 2425 1434 2425 
Q 978 2425 613 2384 
L 791 4841 
L 3053 4841 
L 3053 4303 
L 1306 4303 
L 1206 2931 
L 1647 2950 
Q 2416 2950 2855 2567 
Q 3294 2184 3294 1494 
z
" transform="scale(0.015625)"/>
                            </defs>
                            <use xlink:href="#MicrosoftYaHei-32"/>
                            <use xlink:href="#MicrosoftYaHei-30" x="58.642578"/>
                            <use xlink:href="#MicrosoftYaHei-32" x="117.285156"/>
                            <use xlink:href="#MicrosoftYaHei-30" x="175.927734"/>
                            <use xlink:href="#MicrosoftYaHei-2d" x="234.570312"/>
                            <use xlink:href="#MicrosoftYaHei-30" x="277.832031"/>
                            <use xlink:href="#MicrosoftYaHei-35" x="336.474609"/>
                        </g>
                    </g>
                </g>
                <g id="xtick_5">
                    <g id="line2d_5">
                        <path d="M 791.590909 961.2
L 791.590909 129.6 
" clip-path="url(#pb49b5c972d)" style="fill: none; stroke: #ffffff; stroke-linecap: round"/>
                    </g>
                    <g id="text_5">
                        <!-- 2020-06 -->
                        <g style="fill: #262626" transform="translate(769.859893 979.493125)scale(0.11 -0.11)">
                            <defs>
                                <path id="MicrosoftYaHei-36" d="M 3181 4219
Q 2803 4413 2391 4413 
Q 1763 4413 1381 3866 
Q 1000 3319 994 2372 
L 1009 2372 
Q 1353 3038 2106 3038 
Q 2734 3038 3109 2628 
Q 3484 2219 3484 1541 
Q 3484 831 3051 375 
Q 2619 -81 1947 -81 
Q 1209 -81 789 495 
Q 369 1072 369 2131 
Q 369 3413 920 4167 
Q 1472 4922 2372 4922 
Q 2888 4922 3181 4781 
L 3181 4219 
z
M 1031 1584 
Q 1031 1106 1286 765 
Q 1541 425 1963 425 
Q 2363 425 2613 719 
Q 2863 1013 2863 1475 
Q 2863 1975 2627 2253 
Q 2391 2531 1956 2531 
Q 1544 2531 1287 2250 
Q 1031 1969 1031 1584 
z
" transform="scale(0.015625)"/>
                            </defs>
                            <use xlink:href="#MicrosoftYaHei-32"/>
                            <use xlink:href="#MicrosoftYaHei-30" x="58.642578"/>
                            <use xlink:href="#MicrosoftYaHei-32" x="117.285156"/>
                            <use xlink:href="#MicrosoftYaHei-30" x="175.927734"/>
                            <use xlink:href="#MicrosoftYaHei-2d" x="234.570312"/>
                            <use xlink:href="#MicrosoftYaHei-30" x="277.832031"/>
                            <use xlink:href="#MicrosoftYaHei-36" x="336.474609"/>
                        </g>
                    </g>
                </g>
                <g id="xtick_6">
                    <g id="line2d_6">
                        <path d="M 938.863636 961.2
L 938.863636 129.6 
" clip-path="url(#pb49b5c972d)" style="fill: none; stroke: #ffffff; stroke-linecap: round"/>
                    </g>
                    <g id="text_6">
                        <!-- 2020-07 -->
                        <g style="fill: #262626" transform="translate(917.132621 979.493125)scale(0.11 -0.11)">
                            <defs>
                                <path id="MicrosoftYaHei-37" d="M 3422 4463
Q 2659 3131 2223 1998 
Q 1788 866 1684 0 
L 1047 0 
Q 1163 853 1594 1947 
Q 2025 3041 2747 4300 
L 347 4300 
L 347 4841 
L 3422 4841 
L 3422 4463 
z
" transform="scale(0.015625)"/>
                            </defs>
                            <use xlink:href="#MicrosoftYaHei-32"/>
                            <use xlink:href="#MicrosoftYaHei-30" x="58.642578"/>
                            <use xlink:href="#MicrosoftYaHei-32" x="117.285156"/>
                            <use xlink:href="#MicrosoftYaHei-30" x="175.927734"/>
                            <use xlink:href="#MicrosoftYaHei-2d" x="234.570312"/>
                            <use xlink:href="#MicrosoftYaHei-30" x="277.832031"/>
                            <use xlink:href="#MicrosoftYaHei-37" x="336.474609"/>
                        </g>
                    </g>
                </g>
                <g id="text_7">
                    <!-- 日期 -->
                    <g style="fill: #262626" transform="translate(541.5 995.820156)scale(0.12 -0.12)">
                        <defs>
                            <path id="MicrosoftYaHei-65e5" d="M 975 4909
L 5431 4909 
L 5431 -766 
L 4900 -766 
L 4900 -322 
L 1506 -322 
L 1506 -766 
L 975 -766 
L 975 4909 
z
M 1506 2103 
L 1506 134 
L 4900 134 
L 4900 2103 
L 1506 2103 
z
M 1506 4441 
L 1506 2572 
L 4900 2572 
L 4900 4441 
L 1506 4441 
z
" transform="scale(0.015625)"/>
                            <path id="MicrosoftYaHei-671f" d="M 3769 5066
L 5981 5066 
L 5981 -3 
Q 5981 -741 5281 -741 
Q 4931 -741 4594 -722 
Q 4569 -516 4519 -241 
Q 4975 -284 5175 -284 
Q 5519 -284 5519 59 
L 5519 1372 
L 4181 1372 
Q 4113 3 3350 -903 
Q 3181 -728 2975 -553 
Q 3481 28 3619 653 
Q 3769 1253 3769 2741 
L 3769 5066 
z
M 125 1141 
L 713 1141 
L 713 4028 
L 200 4028 
L 200 4453 
L 713 4453 
L 713 5216 
L 1175 5216 
L 1175 4453 
L 2475 4453 
L 2475 5241 
L 2938 5241 
L 2938 4453 
L 3444 4453 
L 3444 4028 
L 2938 4028 
L 2938 1141 
L 3438 1141 
L 3438 716 
L 125 716 
L 125 1141 
z
M 4209 1784 
L 5519 1784 
L 5519 3009 
L 4231 3009 
Q 4238 2203 4209 1784 
z
M 5519 4641 
L 4231 4641 
L 4231 3422 
L 5519 3422 
L 5519 4641 
z
M 1175 1141 
L 2475 1141 
L 2475 1841 
L 1175 1841 
L 1175 1141 
z
M 1175 2241 
L 2475 2241 
L 2475 2934 
L 1175 2934 
L 1175 2241 
z
M 1175 3334 
L 2475 3334 
L 2475 4028 
L 1175 4028 
L 1175 3334 
z
M 1175 597 
L 1556 297 
Q 925 -384 406 -847 
Q 275 -697 75 -516 
Q 669 -9 1175 597 
z
M 1994 303 
L 2294 609 
Q 2731 284 3119 -47 
L 2788 -403 
Q 2438 -53 1994 303 
z
" transform="scale(0.015625)"/>
                        </defs>
                        <use xlink:href="#MicrosoftYaHei-65e5"/>
                        <use xlink:href="#MicrosoftYaHei-671f" x="100"/>
                    </g>
                </g>
            </g>
            <g id="matplotlib.axis_2">
                <g id="ytick_1">
                    <g id="line2d_7">
                        <path d="M 135 923.4
L 972 923.4 
" clip-path="url(#pb49b5c972d)" style="fill: none; stroke: #ffffff; stroke-linecap: round"/>
                    </g>
                    <g id="text_8">
                        <!-- 0 -->
                        <g style="fill: #262626" transform="translate(119.049531 927.796562)scale(0.11 -0.11)">
                            <use xlink:href="#MicrosoftYaHei-30"/>
                        </g>
                    </g>
                </g>
                <g id="ytick_2">
                    <g id="line2d_8">
                        <path d="M 135 814.604237
L 972 814.604237 
" clip-path="url(#pb49b5c972d)" style="fill: none; stroke: #ffffff; stroke-linecap: round"/>
                    </g>
                    <g id="text_9">
                        <!-- 5000 -->
                        <g style="fill: #262626" transform="translate(99.698125 819.000799)scale(0.11 -0.11)">
                            <use xlink:href="#MicrosoftYaHei-35"/>
                            <use xlink:href="#MicrosoftYaHei-30" x="58.642578"/>
                            <use xlink:href="#MicrosoftYaHei-30" x="117.285156"/>
                            <use xlink:href="#MicrosoftYaHei-30" x="175.927734"/>
                        </g>
                    </g>
                </g>
                <g id="ytick_3">
                    <g id="line2d_9">
                        <path d="M 135 705.808473
L 972 705.808473 
" clip-path="url(#pb49b5c972d)" style="fill: none; stroke: #ffffff; stroke-linecap: round"/>
                    </g>
                    <g id="text_10">
                        <!-- 10000 -->
                        <g style="fill: #262626" transform="translate(93.247656 710.205036)scale(0.11 -0.11)">
                            <defs>
                                <path id="MicrosoftYaHei-31" d="M 1781 0
L 1781 4141 
Q 1638 3997 1295 3819 
Q 953 3641 663 3569 
L 663 4169 
Q 1047 4275 1484 4508 
Q 1922 4741 2156 4947 
L 2388 4947 
L 2388 0 
L 1781 0 
z
" transform="scale(0.015625)"/>
                            </defs>
                            <use xlink:href="#MicrosoftYaHei-31"/>
                            <use xlink:href="#MicrosoftYaHei-30" x="58.642578"/>
                            <use xlink:href="#MicrosoftYaHei-30" x="117.285156"/>
                            <use xlink:href="#MicrosoftYaHei-30" x="175.927734"/>
                            <use xlink:href="#MicrosoftYaHei-30" x="234.570312"/>
                        </g>
                    </g>
                </g>
                <g id="ytick_4">
                    <g id="line2d_10">
                        <path d="M 135 597.01271
L 972 597.01271 
" clip-path="url(#pb49b5c972d)" style="fill: none; stroke: #ffffff; stroke-linecap: round"/>
                    </g>
                    <g id="text_11">
                        <!-- 15000 -->
                        <g style="fill: #262626" transform="translate(93.247656 601.409273)scale(0.11 -0.11)">
                            <use xlink:href="#MicrosoftYaHei-31"/>
                            <use xlink:href="#MicrosoftYaHei-35" x="58.642578"/>
                            <use xlink:href="#MicrosoftYaHei-30" x="117.285156"/>
                            <use xlink:href="#MicrosoftYaHei-30" x="175.927734"/>
                            <use xlink:href="#MicrosoftYaHei-30" x="234.570312"/>
                        </g>
                    </g>
                </g>
                <g id="ytick_5">
                    <g id="line2d_11">
                        <path d="M 135 488.216947
L 972 488.216947 
" clip-path="url(#pb49b5c972d)" style="fill: none; stroke: #ffffff; stroke-linecap: round"/>
                    </g>
                    <g id="text_12">
                        <!-- 20000 -->
                        <g style="fill: #262626" transform="translate(93.247656 492.613509)scale(0.11 -0.11)">
                            <use xlink:href="#MicrosoftYaHei-32"/>
                            <use xlink:href="#MicrosoftYaHei-30" x="58.642578"/>
                            <use xlink:href="#MicrosoftYaHei-30" x="117.285156"/>
                            <use xlink:href="#MicrosoftYaHei-30" x="175.927734"/>
                            <use xlink:href="#MicrosoftYaHei-30" x="234.570312"/>
                        </g>
                    </g>
                </g>
                <g id="ytick_6">
                    <g id="line2d_12">
                        <path d="M 135 379.421184
L 972 379.421184 
" clip-path="url(#pb49b5c972d)" style="fill: none; stroke: #ffffff; stroke-linecap: round"/>
                    </g>
                    <g id="text_13">
                        <!-- 25000 -->
                        <g style="fill: #262626" transform="translate(93.247656 383.817746)scale(0.11 -0.11)">
                            <use xlink:href="#MicrosoftYaHei-32"/>
                            <use xlink:href="#MicrosoftYaHei-35" x="58.642578"/>
                            <use xlink:href="#MicrosoftYaHei-30" x="117.285156"/>
                            <use xlink:href="#MicrosoftYaHei-30" x="175.927734"/>
                            <use xlink:href="#MicrosoftYaHei-30" x="234.570312"/>
                        </g>
                    </g>
                </g>
                <g id="ytick_7">
                    <g id="line2d_13">
                        <path d="M 135 270.62542
L 972 270.62542 
" clip-path="url(#pb49b5c972d)" style="fill: none; stroke: #ffffff; stroke-linecap: round"/>
                    </g>
                    <g id="text_14">
                        <!-- 30000 -->
                        <g style="fill: #262626" transform="translate(93.247656 275.021983)scale(0.11 -0.11)">
                            <use xlink:href="#MicrosoftYaHei-33"/>
                            <use xlink:href="#MicrosoftYaHei-30" x="58.642578"/>
                            <use xlink:href="#MicrosoftYaHei-30" x="117.285156"/>
                            <use xlink:href="#MicrosoftYaHei-30" x="175.927734"/>
                            <use xlink:href="#MicrosoftYaHei-30" x="234.570312"/>
                        </g>
                    </g>
                </g>
                <g id="ytick_8">
                    <g id="line2d_14">
                        <path d="M 135 161.829657
L 972 161.829657 
" clip-path="url(#pb49b5c972d)" style="fill: none; stroke: #ffffff; stroke-linecap: round"/>
                    </g>
                    <g id="text_15">
                        <!-- 35000 -->
                        <g style="fill: #262626" transform="translate(93.247656 166.226219)scale(0.11 -0.11)">
                            <use xlink:href="#MicrosoftYaHei-33"/>
                            <use xlink:href="#MicrosoftYaHei-35" x="58.642578"/>
                            <use xlink:href="#MicrosoftYaHei-30" x="117.285156"/>
                            <use xlink:href="#MicrosoftYaHei-30" x="175.927734"/>
                            <use xlink:href="#MicrosoftYaHei-30" x="234.570312"/>
                        </g>
                    </g>
                </g>
                <g id="text_16">
                    <!-- 累计死亡 -->
                    <g style="fill: #262626" transform="translate(86.264531 569.4)rotate(-90)scale(0.12 -0.12)">
                        <defs>
                            <path id="MicrosoftYaHei-7d2f" d="M 4550 1991
Q 5425 1278 5944 772 
L 5600 422 
Q 5356 675 5097 922 
Q 4334 891 3556 856 
L 3556 22 
Q 3556 -753 2775 -753 
Q 2375 -753 1881 -747 
Q 1844 -497 1788 -228 
Q 2269 -272 2650 -272 
Q 3069 -272 3069 184 
L 3069 834 
Q 2231 794 1375 753 
Q 1100 741 844 703 
L 675 1178 
Q 1056 1222 1531 1403 
Q 2172 1650 2916 1984 
Q 2138 1959 1531 1922 
Q 1231 1903 1081 1884 
L 919 2297 
Q 1231 2359 1550 2503 
Q 1969 2691 2378 2909 
L 1206 2909 
L 1206 2728 
L 731 2728 
L 731 5103 
L 5675 5103 
L 5675 2728 
L 5200 2728 
L 5200 2909 
L 3125 2909 
Q 2434 2559 1763 2272 
Q 2581 2294 3669 2334 
Q 4100 2538 4563 2772 
L 4888 2434 
Q 3394 1728 1825 1147 
Q 3403 1216 4684 1297 
Q 4456 1500 4219 1697 
L 4550 1991 
z
M 3431 3272 
L 5200 3272 
L 5200 3841 
L 3431 3841 
L 3431 3272 
z
M 1206 3272 
L 2969 3272 
L 2969 3841 
L 1206 3841 
L 1206 3272 
z
M 5200 4741 
L 3431 4741 
L 3431 4178 
L 5200 4178 
L 5200 4741 
z
M 1206 4178 
L 2969 4178 
L 2969 4741 
L 1206 4741 
L 1206 4178 
z
M 1894 572 
L 2175 184 
Q 1263 -272 381 -616 
Q 288 -422 163 -197 
Q 1094 166 1894 572 
z
M 4431 547 
Q 5363 234 6219 -147 
L 6025 -572 
Q 5188 -191 4219 134 
L 4431 547 
z
" transform="scale(0.015625)"/>
                            <path id="MicrosoftYaHei-8ba1" d="M 2100 3153
L 3919 3153 
L 3919 5303 
L 4456 5303 
L 4456 3153 
L 6288 3153 
L 6288 2703 
L 4456 2703 
L 4456 -822 
L 3919 -822 
L 3919 2703 
L 2100 2703 
L 2100 3153 
z
M 2675 903 
Q 2694 578 2719 359 
Q 1719 -266 1069 -728 
L 769 -303 
Q 988 -116 988 266 
L 988 2741 
L 100 2741 
L 100 3191 
L 1488 3191 
L 1488 153 
Q 2031 484 2675 903 
z
M 738 5222 
Q 1419 4522 1725 4184 
L 1288 3816 
Q 894 4334 356 4891 
L 738 5222 
z
" transform="scale(0.015625)"/>
                            <path id="MicrosoftYaHei-6b7b" d="M 250 4847
L 6150 4847 
L 6150 4397 
L 4269 4397 
L 4269 2109 
Q 5044 2697 5844 3522 
L 6213 3141 
Q 5206 2216 4269 1541 
L 4269 266 
Q 4269 -141 4606 -141 
L 5225 -141 
Q 5613 -141 5713 291 
Q 5794 716 5844 1316 
Q 6119 1184 6350 1116 
Q 6275 534 6181 103 
Q 6019 -616 5300 -616 
L 4506 -616 
Q 3781 -616 3781 247 
L 3781 4397 
L 1963 4397 
Q 1825 3903 1650 3453 
L 3275 3453 
L 3275 3022 
Q 2831 572 544 -828 
Q 363 -616 181 -447 
Q 1306 234 1931 1078 
Q 1475 1459 1038 1778 
L 1300 2159 
Q 1763 1822 2206 1484 
Q 2631 2191 2788 3016 
L 1469 3016 
Q 1069 2109 419 1328 
Q 244 1566 106 1722 
Q 1063 2903 1456 4397 
L 250 4397 
L 250 4847 
z
" transform="scale(0.015625)"/>
                            <path id="MicrosoftYaHei-4ea1" d="M 125 4059
L 6269 4059 
L 6269 3566 
L 1606 3566 
L 1606 28 
L 5975 28 
L 5975 -447 
L 1050 -447 
L 1050 3566 
L 125 3566 
L 125 4059 
z
M 2675 5047 
L 3088 5328 
Q 3550 4772 3806 4416 
L 3350 4084 
Q 2988 4647 2675 5047 
z
" transform="scale(0.015625)"/>
                        </defs>
                        <use xlink:href="#MicrosoftYaHei-7d2f"/>
                        <use xlink:href="#MicrosoftYaHei-8ba1" x="100"/>
                        <use xlink:href="#MicrosoftYaHei-6b7b" x="200"/>
                        <use xlink:href="#MicrosoftYaHei-4ea1" x="300"/>
                    </g>
                </g>
            </g>
            <g id="line2d_15">
                <path d="M 173.045455 923.4
L 418.5 923.312963 
L 433.227273 923.13889 
L 438.136364 923.13889 
L 447.954545 922.943058 
L 457.772727 922.790744 
L 487.227273 921.659268 
L 497.045455 920.636588 
L 501.954545 920.375478 
L 511.772727 918.308358 
L 521.590909 916.371794 
L 531.409091 913.934769 
L 536.318182 911.998204 
L 541.227273 911.019042 
L 546.136364 909.191273 
L 551.045455 907.798688 
L 555.954545 905.492217 
L 560.863636 903.751485 
L 570.681818 897.376053 
L 575.590909 894.13394 
L 580.5 890.630716 
L 585.409091 888.346005 
L 590.318182 885.800184 
L 595.227273 883.493714 
L 600.136364 879.272438 
L 605.045455 875.595142 
L 609.954545 872.265991 
L 614.863636 869.241469 
L 619.772727 866.456297 
L 624.681818 864.497974 
L 629.590909 860.211421 
L 634.5 858.209579 
L 644.318182 848.41796 
L 654.136364 843.2828 
L 659.045455 839.540226 
L 668.863636 831.315266 
L 673.772727 827.485655 
L 678.681818 822.698641 
L 683.590909 820.522726 
L 688.5 816.649597 
L 693.409091 813.49452 
L 698.318182 810.056574 
L 703.227273 807.271402 
L 708.136364 804.333917 
L 713.045455 801.657541 
L 717.954545 799.329312 
L 727.772727 795.956643 
L 732.681818 794.759889 
L 737.590909 794.759889 
L 742.5 789.537693 
L 747.409091 786.817799 
L 752.318182 784.576606 
L 757.227273 783.619203 
L 762.136364 780.529404 
L 767.045455 778.940985 
L 771.954545 776.199332 
L 776.863636 773.762307 
L 781.772727 771.172968 
L 786.681818 769.084089 
L 791.590909 764.44939 
L 796.5 763.600783 
L 801.409091 762.077642 
L 806.318182 759.270711 
L 811.227273 757.225351 
L 816.136364 754.461939 
L 821.045455 754.266106 
L 825.954545 753.678609 
L 830.863636 752.917039 
L 835.772727 751.567971 
L 840.681818 749.936035 
L 845.590909 749.457334 
L 855.409091 746.998549 
L 860.318182 746.149942 
L 865.227273 745.518927 
L 875.045455 743.799954 
L 884.863636 741.798112 
L 889.772727 740.405526 
L 894.681818 739.970343 
L 899.590909 739.839788 
L 904.5 739.448123 
L 909.409091 738.795349 
L 914.318182 738.360166 
L 924.136364 738.099056 
L 929.045455 737.968501 
L 933.954545 737.011098 
L 933.954545 737.011098 
" clip-path="url(#pb49b5c972d)" style="fill: none; stroke: #4c72b0; stroke-width: 1.5; stroke-linecap: round"/>
            </g>
            <g id="line2d_16">
                <path d="M 187.772727 923.4
L 438.136364 923.291204 
L 462.681818 923.117131 
L 492.136364 922.573152 
L 497.045455 922.246765 
L 511.772727 921.59399 
L 516.681818 920.984734 
L 521.590909 920.701865 
L 531.409091 919.722703 
L 541.227273 918.134285 
L 546.136364 917.459751 
L 551.045455 916.350035 
L 555.954545 915.719019 
L 560.863636 914.870412 
L 570.681818 913.564863 
L 585.409091 911.236634 
L 600.136364 908.473221 
L 605.045455 907.668133 
L 609.954545 906.44962 
L 614.863636 905.42694 
L 619.772727 904.121391 
L 624.681818 903.011674 
L 644.318182 896.788556 
L 649.227273 895.091342 
L 654.136364 893.524683 
L 659.045455 888.955261 
L 663.954545 886.539995 
L 668.863636 884.516394 
L 678.681818 880.295119 
L 683.590909 877.509947 
L 688.5 875.203477 
L 693.409091 873.506263 
L 698.318182 870.851646 
L 703.227273 867.93592 
L 713.045455 863.518812 
L 717.954545 860.907714 
L 722.863636 857.491527 
L 727.772727 854.5758 
L 732.681818 851.529519 
L 737.590909 851.529519 
L 742.5 845.436956 
L 747.409091 842.455952 
L 752.318182 839.257357 
L 757.227273 835.906447 
L 762.136364 832.729611 
L 767.045455 829.030555 
L 771.954545 824.809279 
L 776.863636 821.001428 
L 781.772727 815.235252 
L 786.681818 811.035736 
L 791.590909 806.031131 
L 796.5 801.592263 
L 801.409091 796.870527 
L 806.318182 791.213148 
L 811.227273 785.272899 
L 821.045455 772.630831 
L 835.772727 754.875363 
L 840.681818 747.107345 
L 850.5 730.091688 
L 855.409091 723.324591 
L 860.318182 716.252867 
L 865.227273 707.984389 
L 870.136364 664.400806 
L 879.954545 649.822174 
L 884.863636 641.662491 
L 889.772727 635.004191 
L 894.681818 625.321368 
L 899.590909 618.532512 
L 904.5 608.414506 
L 909.409091 599.31918 
L 914.318182 590.463205 
L 919.227273 582.107691 
L 924.136364 573.186438 
L 929.045455 564.91796 
L 933.954545 555.822634 
L 933.954545 555.822634 
" clip-path="url(#pb49b5c972d)" style="fill: none; stroke: #dd8452; stroke-width: 1.5; stroke-linecap: round"/>
            </g>
            <g id="line2d_17">
                <path d="M 192.681818 923.4
L 305.590909 923.356482 
L 344.863636 922.660189 
L 349.772727 922.268524 
L 359.590909 921.071771 
L 364.5 920.179645 
L 369.409091 919.113447 
L 374.318182 918.330117 
L 379.227273 915.43615 
L 384.136364 913.325512 
L 389.045455 909.669975 
L 393.954545 905.405181 
L 398.863636 901.292701 
L 403.772727 895.852913 
L 408.681818 892.045061 
L 413.590909 884.037693 
L 423.409091 868.936841 
L 428.318182 858.601243 
L 433.227273 849.310085 
L 438.136364 835.667096 
L 443.045455 818.412088 
L 447.954545 804.24688 
L 452.863636 791.169629 
L 457.772727 775.002579 
L 462.681818 760.141078 
L 467.590909 744.648561 
L 472.5 721.953765 
L 482.318182 688.858093 
L 487.227273 671.189662 
L 492.136364 652.977251 
L 497.045455 637.158347 
L 506.863636 603.95388 
L 511.772727 589.135897 
L 516.681818 577.712342 
L 521.590909 563.873521 
L 526.5 550.730992 
L 531.409091 538.937532 
L 536.318182 525.664449 
L 541.227273 513.261732 
L 546.136364 499.792816 
L 551.045455 490.414621 
L 555.954545 478.098941 
L 560.863636 464.999931 
L 565.772727 452.423141 
L 570.681818 440.999586 
L 575.590909 428.488073 
L 580.5 418.000161 
L 585.409091 408.578448 
L 590.318182 387.080405 
L 595.227273 387.080405 
L 600.136364 377.571656 
L 605.045455 358.336565 
L 609.954545 358.336565 
L 614.863636 349.306516 
L 619.772727 343.649137 
L 624.681818 336.403339 
L 629.590909 328.091342 
L 634.5 321.063136 
L 639.409091 314.861778 
L 644.318182 309.008566 
L 649.227273 298.694727 
L 654.136364 294.908635 
L 659.045455 290.6656 
L 663.954545 285.53044 
L 668.863636 277.501312 
L 673.772727 271.539305 
L 678.681818 266.251831 
L 683.590909 262.030555 
L 688.5 258.440295 
L 693.409091 254.545406 
L 698.318182 250.802832 
L 703.227273 246.559797 
L 708.136364 240.858899 
L 713.045455 235.593184 
L 717.954545 232.264034 
L 722.863636 229.108957 
L 727.772727 226.954801 
L 732.681818 223.429818 
L 737.590909 223.429818 
L 742.5 216.532167 
L 747.409091 213.703477 
L 752.318182 211.114138 
L 757.227273 210.02618 
L 762.136364 208.024338 
L 767.045455 206.327124 
L 771.954545 203.781303 
L 776.863636 202.258163 
L 781.772727 200.365116 
L 786.681818 197.94985 
L 791.590909 196.317914 
L 801.409091 193.815611 
L 806.318182 192.270711 
L 816.136364 188.506378 
L 821.045455 186.939719 
L 825.954545 185.786484 
L 830.863636 184.372139 
L 835.772727 182.653166 
L 840.681818 181.108266 
L 850.5 178.736519 
L 855.409091 177.039305 
L 860.318182 176.081902 
L 865.227273 175.516164 
L 870.136364 174.776353 
L 875.045455 173.840709 
L 879.954545 172.404605 
L 889.772727 170.315726 
L 894.681818 169.793507 
L 904.5 169.293046 
L 909.409091 168.901382 
L 914.318182 168.836104 
L 919.227273 168.183329 
L 924.136364 168.009256 
L 929.045455 167.530555 
L 933.954545 167.4 
L 933.954545 167.4 
" clip-path="url(#pb49b5c972d)" style="fill: none; stroke: #55a868; stroke-width: 1.5; stroke-linecap: round"/>
            </g>
            <g id="line2d_18">
                <path d="M 290.863636 923.356482
L 320.318182 922.986576 
L 325.227273 922.834262 
L 330.136364 922.834262 
L 335.045455 922.464356 
L 354.681818 921.398158 
L 359.590909 921.398158 
L 364.5 920.701865 
L 369.409091 920.244923 
L 374.318182 919.178724 
L 379.227273 918.243081 
L 384.136364 917.068087 
L 389.045455 915.69726 
L 393.954545 914.065324 
L 398.863636 912.215796 
L 403.772727 912.215796 
L 408.681818 907.646373 
L 413.590909 904.839443 
L 418.5 901.901957 
L 433.227273 892.219134 
L 438.136364 889.542758 
L 447.954545 883.972415 
L 452.863636 881.317799 
L 457.772727 878.20624 
L 462.681818 874.790053 
L 472.5 868.632213 
L 477.409091 865.955837 
L 482.318182 865.955837 
L 487.227273 860.341976 
L 492.136364 857.339213 
L 497.045455 854.641078 
L 501.954545 851.725351 
L 506.863636 848.287405 
L 511.772727 845.001773 
L 521.590909 839.148561 
L 526.5 836.298112 
L 531.409091 833.969883 
L 546.136364 826.049551 
L 551.045455 823.634285 
L 560.863636 819.456528 
L 570.681818 815.518121 
L 575.590909 813.929703 
L 590.318182 808.141768 
L 605.045455 802.114483 
L 609.954545 800.460787 
L 614.863636 799.155238 
L 619.772727 797.06636 
L 624.681818 795.52146 
L 629.590909 793.780728 
L 634.5 792.235828 
L 644.318182 789.450656 
L 649.227273 788.427976 
L 654.136364 786.817799 
L 659.045455 785.446972 
L 663.954545 783.749758 
L 668.863636 782.270136 
L 673.772727 781.073382 
L 698.318182 775.807668 
L 703.227273 774.262768 
L 708.136364 773.218328 
L 713.045455 772.456758 
L 717.954545 771.347041 
L 722.863636 769.84566 
L 727.772727 768.496592 
L 737.590909 768.496592 
L 742.5 764.558186 
L 752.318182 762.012365 
L 757.227273 761.272554 
L 786.681818 753.743887 
L 791.590909 751.981395 
L 796.5 750.58881 
L 801.409091 749.065669 
L 811.227273 746.411052 
L 816.136364 744.779116 
L 821.045455 742.994865 
L 825.954545 741.689316 
L 830.863636 740.079139 
L 840.681818 736.619434 
L 850.5 733.442597 
L 855.409091 731.114368 
L 865.227273 726.153281 
L 870.136364 723.542183 
L 875.045455 721.649137 
L 879.954545 721.649137 
L 884.863636 716.535736 
L 894.681818 711.422335 
L 899.590909 708.789477 
L 909.409091 702.979784 
L 914.318182 700.608036 
L 919.227273 697.888142 
L 924.136364 694.754824 
L 929.045455 691.229841 
L 933.954545 688.031246 
L 933.954545 688.031246 
" clip-path="url(#pb49b5c972d)" style="fill: none; stroke: #c44e52; stroke-width: 1.5; stroke-linecap: round"/>
            </g>
            <g id="line2d_19">
                <path d="M 364.5 923.4
L 369.409091 923.4 
L 374.318182 923.4 
L 379.227273 923.4 
L 384.136364 923.4 
L 389.045455 923.4 
L 393.954545 923.4 
L 398.863636 923.4 
L 403.772727 923.4 
L 408.681818 923.4 
L 413.590909 923.4 
L 418.5 923.4 
L 423.409091 923.4 
L 428.318182 923.4 
L 433.227273 923.378241 
L 438.136364 923.312963 
L 443.045455 923.291204 
L 447.954545 923.291204 
L 452.863636 923.291204 
L 457.772727 923.291204 
L 462.681818 923.291204 
L 467.590909 923.204168 
L 472.5 923.160649 
L 477.409091 923.051854 
L 482.318182 923.008335 
L 487.227273 922.87778 
L 492.136364 922.747225 
L 497.045455 922.747225 
L 501.954545 922.203247 
L 506.863636 922.203247 
L 511.772727 921.811582 
L 516.681818 921.59399 
L 521.590909 921.59399 
L 526.5 921.071771 
L 531.409091 920.767143 
L 536.318182 920.767143 
L 541.227273 919.722703 
L 546.136364 919.722703 
L 551.045455 919.200484 
L 555.954545 919.200484 
L 560.863636 919.200484 
L 565.772727 919.200484 
L 570.681818 918.395395 
L 575.590909 916.872254 
L 580.5 915.827815 
L 585.409091 914.696339 
L 590.318182 913.717177 
L 595.227273 912.86857 
L 600.136364 911.867649 
L 605.045455 910.953765 
L 609.954545 909.604697 
L 614.863636 908.168593 
L 619.772727 907.559337 
L 624.681818 906.384343 
L 629.590909 904.817684 
L 634.5 902.881119 
L 639.409091 900.531131 
L 644.318182 898.942712 
L 649.227273 897.289017 
L 654.136364 895.41773 
L 659.045455 894.155699 
L 663.954545 891.979784 
L 668.863636 890.043219 
L 673.772727 887.997859 
L 678.681818 886.104812 
L 683.590909 883.928897 
L 688.5 882.296961 
L 693.409091 880.730302 
L 698.318182 878.641423 
L 703.227273 876.204398 
L 708.136364 874.072001 
L 713.045455 871.352107 
L 717.954545 868.501658 
L 722.863636 865.781764 
L 727.772727 862.713723 
L 732.681818 859.993829 
L 737.590909 859.993829 
L 742.5 854.902187 
L 747.409091 852.813309 
L 752.318182 850.006378 
L 757.227273 848.200368 
L 762.136364 844.436035 
L 767.045455 840.97633 
L 771.954545 836.733295 
L 776.863636 834.209233 
L 781.772727 831.358784 
L 786.681818 828.290744 
L 791.590909 825.353258 
L 796.5 822.568087 
L 801.409091 819.674119 
L 806.318182 816.910707 
L 811.227273 813.929703 
L 816.136364 811.079254 
L 821.045455 808.054732 
L 825.954545 804.486231 
L 830.863636 802.179761 
L 835.772727 798.545982 
L 840.681818 794.955722 
L 845.590909 790.473336 
L 850.5 786.143265 
L 855.409091 782.009026 
L 860.318182 777.874787 
L 865.227273 774.132213 
L 870.136364 769.867419 
L 875.045455 765.493829 
L 879.954545 761.054962 
L 884.863636 756.724891 
L 889.772727 752.351301 
L 894.681818 748.347617 
L 899.590909 744.474488 
L 904.5 740.536081 
L 909.409091 736.575915 
L 914.318182 732.768064 
L 919.227273 728.894934 
L 924.136364 724.63014 
L 929.045455 720.669975 
L 933.954545 716.601013 
" clip-path="url(#pb49b5c972d)" style="fill: none; stroke: #8172b3; stroke-width: 1.5; stroke-linecap: round"/>
            </g>
            <g id="line2d_20">
                <path d="M 364.5 923.4
L 369.409091 923.4 
L 374.318182 923.4 
L 379.227273 923.4 
L 384.136364 923.4 
L 389.045455 923.4 
L 393.954545 923.4 
L 398.863636 923.4 
L 403.772727 923.4 
L 408.681818 923.4 
L 413.590909 923.4 
L 418.5 923.4 
L 423.409091 923.4 
L 428.318182 923.4 
L 433.227273 923.4 
L 438.136364 923.4 
L 443.045455 923.4 
L 447.954545 923.4 
L 452.863636 923.4 
L 457.772727 923.4 
L 462.681818 923.4 
L 467.590909 923.378241 
L 472.5 923.378241 
L 477.409091 923.356482 
L 482.318182 923.356482 
L 487.227273 923.334723 
L 492.136364 923.291204 
L 497.045455 923.291204 
L 501.954545 923.291204 
L 506.863636 923.291204 
L 511.772727 923.204168 
L 516.681818 923.160649 
L 521.590909 923.160649 
L 526.5 923.13889 
L 531.409091 923.008335 
L 536.318182 922.87778 
L 541.227273 922.87778 
L 546.136364 922.856021 
L 551.045455 922.856021 
L 555.954545 922.812503 
L 560.863636 922.812503 
L 565.772727 922.660189 
L 570.681818 922.355561 
L 575.590909 922.312042 
L 580.5 922.268524 
L 585.409091 922.225006 
L 590.318182 922.137969 
L 595.227273 922.137969 
L 600.136364 921.985655 
L 605.045455 921.768064 
L 609.954545 921.681027 
L 614.863636 921.528713 
L 619.772727 921.506954 
L 624.681818 921.441676 
L 629.590909 921.376399 
L 634.5 921.158807 
L 639.409091 921.158807 
L 644.318182 920.875938 
L 649.227273 920.723624 
L 654.136364 920.549551 
L 659.045455 920.397237 
L 663.954545 920.179645 
L 668.863636 920.07085 
L 673.772727 919.896776 
L 678.681818 919.352798 
L 683.590909 919.352798 
L 688.5 919.178724 
L 693.409091 918.917615 
L 698.318182 918.917615 
L 703.227273 918.634746 
L 708.136364 918.221322 
L 713.045455 918.025489 
L 717.954545 917.720861 
L 722.863636 917.655584 
L 727.772727 917.176882 
L 732.681818 916.611144 
L 737.590909 916.611144 
L 742.5 915.370873 
L 747.409091 914.761616 
L 752.318182 914.544025 
L 757.227273 914.065324 
L 762.136364 912.933848 
L 767.045455 911.998204 
L 771.954545 911.388948 
L 776.863636 910.844969 
L 781.772727 910.105158 
L 786.681818 909.408865 
L 791.590909 908.059797 
L 796.5 908.059797 
L 801.409091 906.97184 
L 806.318182 906.166751 
L 811.227273 904.948239 
L 816.136364 903.642689 
L 821.045455 902.685287 
L 825.954545 901.684366 
L 830.863636 899.900115 
L 835.772727 898.115865 
L 840.681818 897.071425 
L 845.590909 897.071425 
L 850.5 893.938107 
L 855.409091 892.436726 
L 860.318182 891.196454 
L 865.227273 889.281649 
L 870.136364 888.041377 
L 875.045455 886.975178 
L 879.954545 885.604352 
L 884.863636 883.558991 
L 889.772727 882.55807 
L 894.681818 881.404835 
L 899.590909 880.077527 
L 904.5 877.662261 
L 909.409091 875.421068 
L 914.318182 873.528022 
L 919.227273 872.483583 
L 924.136364 870.895165 
L 929.045455 869.959521 
L 933.954545 868.371103 
" clip-path="url(#pb49b5c972d)" style="fill: none; stroke: #937860; stroke-width: 1.5; stroke-linecap: round"/>
            </g>
            <g id="line2d_21"/>
            <g id="line2d_22"/>
            <g id="line2d_23"/>
            <g id="line2d_24"/>
            <g id="line2d_25"/>
            <g id="line2d_26"/>
            <g id="patch_3">
                <path d="M 135 961.2
L 135 129.6 
" style="fill: none; stroke: #ffffff; stroke-width: 1.25; stroke-linejoin: miter; stroke-linecap: square"/>
            </g>
            <g id="patch_4">
                <path d="M 972 961.2
L 972 129.6 
" style="fill: none; stroke: #ffffff; stroke-width: 1.25; stroke-linejoin: miter; stroke-linecap: square"/>
            </g>
            <g id="patch_5">
                <path d="M 135 961.2
L 972 961.2 
" style="fill: none; stroke: #ffffff; stroke-width: 1.25; stroke-linejoin: miter; stroke-linecap: square"/>
            </g>
            <g id="patch_6">
                <path d="M 135 129.6
L 972 129.6 
" style="fill: none; stroke: #ffffff; stroke-width: 1.25; stroke-linejoin: miter; stroke-linecap: square"/>
            </g>
            <g id="legend_1">
                <g id="patch_7">
                    <path d="M 142.7 258.641563
L 210.9 258.641563 
Q 213.1 258.641563 213.1 256.441563 
L 213.1 137.3 
Q 213.1 135.1 210.9 135.1 
L 142.7 135.1 
Q 140.5 135.1 140.5 137.3 
L 140.5 256.441563 
Q 140.5 258.641563 142.7 258.641563 
z
" style="fill: #eaeaf2; opacity: 0.8; stroke: #cccccc; stroke-linejoin: miter"/>
                </g>
                <g id="text_17">
                    <!-- 国家 -->
                    <g style="fill: #262626" transform="translate(164.8 149.0925)scale(0.12 -0.12)">
                        <defs>
                            <path id="MicrosoftYaHei-56fd" d="M 469 4997
L 5938 4997 
L 5938 -834 
L 5456 -834 
L 5456 -522 
L 950 -522 
L 950 -841 
L 469 -841 
L 469 4997 
z
M 5456 4553 
L 950 4553 
L 950 -78 
L 5456 -78 
L 5456 4553 
z
M 1238 1009 
L 2963 1009 
L 2963 2247 
L 1456 2247 
L 1456 2672 
L 2963 2672 
L 2963 3509 
L 1338 3509 
L 1338 3934 
L 5063 3934 
L 5063 3509 
L 3425 3509 
L 3425 2672 
L 4938 2672 
L 4938 2247 
L 3425 2247 
L 3425 1009 
L 5163 1009 
L 5163 584 
L 1238 584 
L 1238 1009 
z
M 3750 1847 
L 4100 2109 
Q 4444 1753 4688 1441 
L 4319 1159 
Q 4019 1566 3750 1847 
z
" transform="scale(0.015625)"/>
                            <path id="MicrosoftYaHei-5bb6" d="M 194 -209
Q 2081 331 3200 1556 
Q 3113 1738 2997 1903 
Q 2066 941 425 422 
Q 331 634 200 847 
Q 1809 1291 2703 2256 
Q 2600 2359 2478 2459 
Q 1650 1872 444 1497 
Q 325 1703 163 1941 
Q 1653 2272 2550 3053 
L 975 3053 
L 975 3503 
L 5438 3503 
L 5438 3053 
L 3169 3053 
Q 3009 2884 2825 2728 
Q 3316 2331 3588 1841 
Q 4566 2319 5325 2822 
L 5619 2422 
Q 5109 2116 4534 1816 
Q 5088 616 6331 141 
Q 6125 -97 5944 -347 
Q 4722 278 4131 1609 
Q 3953 1522 3769 1431 
Q 4125 103 3656 -503 
Q 3431 -772 2794 -772 
Q 2544 -772 2006 -753 
Q 1969 -509 1913 -234 
Q 2400 -291 2781 -291 
Q 3456 -328 3438 522 
Q 3428 803 3369 1063 
Q 2263 -28 419 -641 
Q 325 -434 194 -209 
z
M 331 4528 
L 3156 4528 
Q 2972 4806 2725 5122 
L 3163 5403 
Q 3444 5059 3675 4722 
L 3356 4528 
L 6063 4528 
L 6063 3459 
L 5563 3459 
L 5563 4066 
L 831 4066 
L 831 3459 
L 331 3459 
L 331 4528 
z
" transform="scale(0.015625)"/>
                        </defs>
                        <use xlink:href="#MicrosoftYaHei-56fd"/>
                        <use xlink:href="#MicrosoftYaHei-5bb6" x="100"/>
                    </g>
                </g>
                <g id="line2d_27">
                    <path d="M 144.9 162.51875
L 155.9 162.51875 
L 166.9 162.51875 
" style="fill: none; stroke: #4c72b0; stroke-width: 1.5; stroke-linecap: round"/>
                </g>
                <g id="text_18">
                    <!-- 加拿大 -->
                    <g style="fill: #262626" transform="translate(175.7 166.36875)scale(0.11 -0.11)">
                        <defs>
                            <path id="MicrosoftYaHei-52a0" d="M 3663 4484
L 6038 4484 
L 6038 -666 
L 5544 -666 
L 5544 -34 
L 4156 -34 
L 4156 -666 
L 3663 -666 
L 3663 4484 
z
M 231 4178 
L 1103 4178 
Q 1109 4681 1106 5297 
L 1600 5297 
Q 1600 4675 1594 4178 
L 3050 4178 
Q 3019 1778 2969 409 
Q 2944 -716 2119 -672 
Q 1875 -672 1400 -653 
Q 1356 -391 1300 -109 
Q 1738 -166 2013 -166 
Q 2431 -178 2469 428 
Q 2538 1909 2550 3703 
L 1588 3703 
Q 1581 3225 1569 2891 
Q 1544 447 394 -872 
Q 238 -678 25 -453 
Q 1063 684 1081 2941 
Q 1094 3269 1100 3703 
L 231 3703 
L 231 4178 
z
M 5544 4022 
L 4156 4022 
L 4156 416 
L 5544 416 
L 5544 4022 
z
" transform="scale(0.015625)"/>
                            <path id="MicrosoftYaHei-62ff" d="M 144 416
L 3063 416 
L 3063 791 
L 725 791 
L 725 1128 
L 3063 1128 
L 3063 1522 
Q 1769 1478 681 1459 
Q 631 1722 594 1853 
Q 3613 1878 5500 2009 
L 5575 1616 
Q 4494 1572 3525 1534 
L 3525 1128 
L 5613 1128 
L 5613 791 
L 3525 791 
L 3525 416 
L 6231 416 
L 6231 53 
L 3525 53 
L 3525 -116 
Q 3525 -772 2881 -784 
Q 2544 -791 1925 -791 
Q 1894 -591 1838 -309 
Q 2381 -353 2725 -353 
Q 3063 -353 3063 -28 
L 3063 53 
L 144 53 
L 144 416 
z
M 1200 3428 
L 5200 3428 
L 5200 2184 
L 4763 2184 
L 4763 2272 
L 1638 2272 
L 1638 2141 
L 1200 2141 
L 1200 3428 
z
M 3663 5309 
L 3563 5209 
Q 4575 4253 6313 3859 
Q 6119 3616 6006 3403 
Q 5138 3672 4450 4047 
L 4450 3809 
L 1906 3809 
L 1906 4047 
Q 1206 3659 375 3322 
Q 225 3553 88 3716 
Q 1881 4366 3000 5309 
L 3663 5309 
z
M 4763 3078 
L 1638 3078 
L 1638 2622 
L 4763 2622 
L 4763 3078 
z
M 3244 4922 
Q 2725 4522 2100 4159 
L 4256 4159 
Q 3688 4497 3244 4922 
z
" transform="scale(0.015625)"/>
                            <path id="MicrosoftYaHei-5927" d="M 88 -341
Q 2666 806 2869 3103 
L 200 3103 
L 200 3591 
L 2891 3591 
Q 2906 4431 2906 5284 
L 3450 5284 
Q 3450 4444 3434 3591 
L 6206 3591 
L 6206 3103 
L 3425 3103 
Q 3869 606 6338 -191 
Q 6019 -497 5863 -697 
Q 3828 122 3203 2219 
Q 2716 322 475 -822 
Q 350 -653 88 -341 
z
" transform="scale(0.015625)"/>
                        </defs>
                        <use xlink:href="#MicrosoftYaHei-52a0"/>
                        <use xlink:href="#MicrosoftYaHei-62ff" x="100"/>
                        <use xlink:href="#MicrosoftYaHei-5927" x="200"/>
                    </g>
                </g>
                <g id="line2d_28">
                    <path d="M 144.9 179.546406
L 155.9 179.546406 
L 166.9 179.546406 
" style="fill: none; stroke: #dd8452; stroke-width: 1.5; stroke-linecap: round"/>
                </g>
                <g id="text_19">
                    <!-- 印度 -->
                    <g style="fill: #262626" transform="translate(175.7 183.396406)scale(0.11 -0.11)">
                        <defs>
                            <path id="MicrosoftYaHei-5370" d="M 3281 4828
L 5950 4828 
L 5950 1053 
Q 5950 228 5156 222 
Q 4756 216 4200 228 
Q 4169 503 4119 803 
Q 4681 753 5000 753 
Q 5438 747 5438 1209 
L 5438 4341 
L 3794 4341 
L 3794 -834 
L 3281 -834 
L 3281 4828 
z
M 3038 4872 
Q 2213 4647 994 4397 
L 994 2959 
L 2888 2959 
L 2888 2491 
L 994 2491 
L 994 553 
Q 1969 866 2925 1209 
Q 2925 941 2975 678 
Q 1925 334 1006 -28 
Q 788 -134 631 -278 
L 294 159 
Q 494 384 481 728 
L 481 4766 
Q 1831 5028 2800 5328 
L 3038 4872 
z
" transform="scale(0.015625)"/>
                            <path id="MicrosoftYaHei-5ea6" d="M 1550 1216
L 1550 1628 
L 5469 1628 
L 5469 1222 
Q 4903 613 4147 163 
Q 5050 -200 6263 -309 
L 6019 -797 
Q 4625 -603 3644 -109 
Q 2600 -619 1250 -866 
Q 1150 -666 994 -416 
Q 2231 -222 3166 166 
Q 2497 600 2066 1216 
L 1550 1216 
z
M 1363 3541 
L 2294 3541 
L 2294 4066 
L 2769 4066 
L 2769 3541 
L 4538 3541 
L 4538 4072 
L 5013 4072 
L 5013 3541 
L 6150 3541 
L 6150 3128 
L 5013 3128 
L 5013 1928 
L 4538 1928 
L 4538 2147 
L 2769 2147 
L 2769 1922 
L 2294 1922 
L 2294 3128 
L 1363 3128 
L 1363 3541 
z
M 3025 5172 
L 3481 5391 
Q 3694 5056 3909 4634 
L 6213 4634 
L 6213 4197 
L 1225 4197 
L 1225 2316 
Q 1225 178 394 -872 
Q 238 -666 38 -447 
Q 725 397 738 2347 
L 738 4634 
L 3331 4634 
Q 3188 4909 3025 5172 
z
M 2769 2547 
L 4538 2547 
L 4538 3128 
L 2769 3128 
L 2769 2547 
z
M 4819 1216 
L 2588 1216 
Q 3031 728 3656 391 
Q 4334 741 4819 1216 
z
" transform="scale(0.015625)"/>
                        </defs>
                        <use xlink:href="#MicrosoftYaHei-5370"/>
                        <use xlink:href="#MicrosoftYaHei-5ea6" x="100"/>
                    </g>
                </g>
                <g id="line2d_29">
                    <path d="M 144.9 196.574063
L 155.9 196.574063 
L 166.9 196.574063 
" style="fill: none; stroke: #55a868; stroke-width: 1.5; stroke-linecap: round"/>
                </g>
                <g id="text_20">
                    <!-- 意大利 -->
                    <g style="fill: #262626" transform="translate(175.7 200.424063)scale(0.11 -0.11)">
                        <defs>
                            <path id="MicrosoftYaHei-610f" d="M 2706 759
L 3022 1028 
L 1419 1028 
L 1419 834 
L 956 834 
L 956 2997 
L 5406 2997 
L 5406 834 
L 4944 834 
L 4944 1028 
L 3038 1028 
Q 3447 681 3756 353 
L 3388 47 
Q 3125 353 2706 759 
z
M 150 3722 
L 1906 3722 
Q 1659 3956 1406 4172 
L 1594 4347 
L 538 4347 
L 538 4722 
L 3028 4722 
Q 2900 4984 2763 5216 
L 3188 5397 
Q 3391 5044 3538 4722 
L 5863 4722 
L 5863 4347 
L 4772 4347 
L 4988 4184 
Q 4738 3953 4472 3722 
L 6250 3722 
L 6250 3347 
L 150 3347 
L 150 3722 
z
M 1650 791 
L 2125 791 
L 2125 78 
Q 2125 -284 2538 -284 
L 3819 -284 
Q 4269 -284 4350 59 
Q 4413 297 4463 622 
Q 4681 528 4931 447 
Q 4856 91 4794 -128 
Q 4644 -709 3950 -709 
L 2438 -709 
Q 1650 -709 1650 34 
L 1650 791 
z
M 1419 1391 
L 4944 1391 
L 4944 1841 
L 1419 1841 
L 1419 1391 
z
M 4944 2634 
L 1419 2634 
L 1419 2191 
L 4944 2191 
L 4944 2634 
z
M 3925 3834 
Q 4178 4047 4481 4347 
L 1838 4347 
Q 2116 4141 2381 3909 
L 2191 3722 
L 4038 3722 
L 3925 3834 
z
M 656 759 
L 1094 591 
Q 869 22 569 -559 
Q 381 -472 131 -366 
Q 388 97 656 759 
z
M 5175 503 
L 5531 778 
Q 5975 303 6325 -116 
L 5931 -428 
Q 5550 72 5175 503 
z
" transform="scale(0.015625)"/>
                            <path id="MicrosoftYaHei-5229" d="M 75 741
Q 913 1653 1488 2997 
L 106 2997 
L 106 3453 
L 1606 3453 
L 1606 4391 
Q 963 4328 331 4272 
Q 288 4503 206 4747 
Q 1706 4866 3269 5066 
L 3394 4591 
Q 2731 4509 2081 4441 
L 2081 3453 
L 3500 3453 
L 3500 2997 
L 2081 2997 
L 2081 2159 
L 2356 2422 
Q 2944 1922 3525 1347 
L 3144 959 
Q 2763 1403 2081 2053 
L 2081 -828 
L 1606 -828 
L 1606 2297 
Q 1069 1084 325 178 
Q 156 584 75 741 
z
M 5444 5197 
L 5938 5197 
L 5938 -9 
Q 5938 -803 5138 -797 
Q 4881 -797 4306 -791 
Q 4269 -534 4213 -228 
Q 4719 -284 4981 -284 
Q 5444 -291 5444 184 
L 5444 5197 
z
M 3963 4572 
L 4438 4572 
L 4438 622 
L 3963 622 
L 3963 4572 
z
" transform="scale(0.015625)"/>
                        </defs>
                        <use xlink:href="#MicrosoftYaHei-610f"/>
                        <use xlink:href="#MicrosoftYaHei-5927" x="100"/>
                        <use xlink:href="#MicrosoftYaHei-5229" x="200"/>
                    </g>
                </g>
                <g id="line2d_30">
                    <path d="M 144.9 213.601719
L 155.9 213.601719 
L 166.9 213.601719 
" style="fill: none; stroke: #c44e52; stroke-width: 1.5; stroke-linecap: round"/>
                </g>
                <g id="text_21">
                    <!-- 伊朗 -->
                    <g style="fill: #262626" transform="translate(175.7 217.451719)scale(0.11 -0.11)">
                        <defs>
                            <path id="MicrosoftYaHei-4f0a" d="M 1938 1709
L 3109 1709 
Q 3169 2194 3175 2853 
L 1750 2853 
L 1750 3303 
L 3178 3303 
Q 3181 3706 3181 4434 
L 2163 4434 
L 2163 4872 
L 5675 4872 
L 5675 3303 
L 6306 3303 
L 6306 2853 
L 5675 2853 
L 5675 1003 
L 5200 1003 
L 5200 1272 
L 3525 1272 
Q 3325 -72 2138 -859 
Q 1994 -672 1794 -459 
Q 2850 228 3041 1272 
L 1938 1272 
L 1938 1709 
z
M 56 2391 
Q 1025 3697 1525 5347 
L 2031 5178 
Q 1722 4309 1356 3578 
L 1356 -816 
L 881 -816 
L 881 2722 
Q 584 2241 256 1834 
Q 169 2103 56 2391 
z
M 3584 1709 
L 5200 1709 
L 5200 2853 
L 3653 2853 
Q 3641 2206 3584 1709 
z
M 5200 4434 
L 3669 4434 
Q 3669 3744 3663 3303 
L 5200 3303 
L 5200 4434 
z
" transform="scale(0.015625)"/>
                            <path id="MicrosoftYaHei-6717" d="M 3469 4953
L 5894 4953 
L 5894 -34 
Q 5894 -697 5244 -697 
L 4425 -697 
Q 4419 -659 4350 -216 
Q 4838 -241 5175 -241 
Q 5419 -241 5419 -9 
L 5419 1366 
L 3891 1366 
Q 3700 -69 2813 -809 
Q 2638 -628 2425 -472 
Q 3469 341 3469 2247 
L 3469 4953 
z
M 1644 1147 
L 1950 1428 
Q 2525 903 2975 403 
L 2669 72 
Q 2525 238 2391 384 
Q 913 -356 656 -609 
L 369 -166 
Q 538 3 538 284 
L 538 4591 
L 1669 4591 
Q 1438 4859 1188 5072 
L 1538 5366 
Q 1825 5109 2063 4853 
L 1769 4591 
L 2844 4591 
L 2844 1503 
L 2381 1503 
L 2381 1759 
L 1000 1759 
L 1000 159 
Q 1572 444 2081 719 
Q 1841 972 1644 1147 
z
M 3931 1791 
L 5419 1791 
L 5419 2947 
L 3944 2947 
Q 3950 2203 3931 1791 
z
M 5419 4528 
L 3944 4528 
L 3944 3372 
L 5419 3372 
L 5419 4528 
z
M 1000 2172 
L 2381 2172 
L 2381 2978 
L 1000 2978 
L 1000 2172 
z
M 2381 4178 
L 1000 4178 
L 1000 3391 
L 2381 3391 
L 2381 4178 
z
" transform="scale(0.015625)"/>
                        </defs>
                        <use xlink:href="#MicrosoftYaHei-4f0a"/>
                        <use xlink:href="#MicrosoftYaHei-6717" x="100"/>
                    </g>
                </g>
                <g id="line2d_31">
                    <path d="M 144.9 230.629375
L 155.9 230.629375 
L 166.9 230.629375 
" style="fill: none; stroke: #8172b3; stroke-width: 1.5; stroke-linecap: round"/>
                </g>
                <g id="text_22">
                    <!-- 秘鲁 -->
                    <g style="fill: #262626" transform="translate(175.7 234.479375)scale(0.11 -0.11)">
                        <defs>
                            <path id="MicrosoftYaHei-79d8" d="M 2025 -72
Q 2772 416 3363 1044 
L 3363 4347 
L 3831 4347 
L 3831 1597 
Q 4759 2822 5263 4716 
L 5750 4603 
Q 5097 2219 3831 813 
L 3831 259 
Q 3831 -116 4200 -116 
L 4688 -116 
Q 5138 -116 5181 259 
Q 5244 641 5269 1272 
Q 5519 1159 5769 1084 
Q 5719 453 5669 109 
Q 5575 -591 4756 -591 
L 4063 -591 
Q 3363 -591 3363 197 
L 3363 341 
Q 2894 -91 2350 -447 
Q 2263 -316 2025 -72 
z
M 106 878 
Q 672 1869 1003 3097 
L 225 3097 
L 225 3541 
L 1069 3541 
L 1069 4397 
Q 706 4369 294 4341 
Q 263 4553 200 4797 
Q 1475 4866 2425 5003 
L 2538 4528 
Q 2122 4484 1531 4434 
L 1531 3541 
L 2388 3541 
L 2388 3097 
L 1531 3097 
L 1531 2616 
L 1794 2791 
Q 2056 2403 2369 1816 
L 1981 1566 
Q 1713 2109 1531 2434 
L 1531 -784 
L 1069 -784 
L 1069 2166 
Q 766 1097 325 341 
Q 225 603 106 878 
z
M 2625 3028 
L 3094 2959 
Q 2950 1953 2781 1147 
Q 2469 1234 2319 1241 
Q 2519 2009 2625 3028 
z
M 5438 2922 
L 5906 3053 
Q 6150 2216 6325 1397 
L 5844 1272 
Q 5669 2166 5438 2922 
z
M 3581 5103 
L 4000 5366 
Q 4381 4834 4800 4159 
L 4350 3878 
Q 3975 4566 3581 5103 
z
" transform="scale(0.015625)"/>
                            <path id="MicrosoftYaHei-9c81" d="M 119 3997
Q 1119 4547 1700 5334 
L 2238 5334 
Q 2094 5150 1944 4978 
L 4331 4978 
L 4331 4641 
L 3919 4184 
L 5563 4184 
L 5563 2266 
L 5138 2266 
L 5138 2397 
L 1263 2397 
L 1263 2266 
L 838 2266 
L 838 3941 
Q 619 3775 394 3634 
Q 269 3828 119 3997 
z
M 950 1284 
L 5450 1284 
L 5450 -834 
L 5013 -834 
L 5013 -578 
L 1388 -578 
L 1388 -834 
L 950 -834 
L 950 1284 
z
M 175 2009 
L 6225 2009 
L 6225 1659 
L 175 1659 
L 175 2009 
z
M 5013 941 
L 1388 941 
L 1388 516 
L 5013 516 
L 5013 941 
z
M 1388 -234 
L 5013 -234 
L 5013 191 
L 1388 191 
L 1388 -234 
z
M 1141 4184 
L 3356 4184 
L 3744 4628 
L 1619 4628 
Q 1388 4391 1141 4184 
z
M 5138 3853 
L 3413 3853 
L 3413 3447 
L 5138 3447 
L 5138 3853 
z
M 1263 2728 
L 2988 2728 
L 2988 3134 
L 1263 3134 
L 1263 2728 
z
M 1263 3447 
L 2988 3447 
L 2988 3853 
L 1263 3853 
L 1263 3447 
z
M 3413 2728 
L 5138 2728 
L 5138 3134 
L 3413 3134 
L 3413 2728 
z
" transform="scale(0.015625)"/>
                        </defs>
                        <use xlink:href="#MicrosoftYaHei-79d8"/>
                        <use xlink:href="#MicrosoftYaHei-9c81" x="100"/>
                    </g>
                </g>
                <g id="line2d_32">
                    <path d="M 144.9 247.657031
L 155.9 247.657031 
L 166.9 247.657031 
" style="fill: none; stroke: #937860; stroke-width: 1.5; stroke-linecap: round"/>
                </g>
                <g id="text_23">
                    <!-- 南非 -->
                    <g style="fill: #262626" transform="translate(175.7 251.507031)scale(0.11 -0.11)">
                        <defs>
                            <path id="MicrosoftYaHei-5357" d="M 163 4553
L 2969 4553 
L 2969 5259 
L 3481 5259 
L 3481 4553 
L 6219 4553 
L 6219 4109 
L 3481 4109 
L 3481 3472 
L 5875 3472 
L 5875 -72 
Q 5875 -803 5150 -809 
Q 4738 -816 4119 -791 
Q 4081 -559 4025 -278 
Q 4644 -316 4969 -316 
Q 5381 -316 5381 47 
L 5381 3034 
L 1056 3034 
L 1056 -834 
L 563 -834 
L 563 3472 
L 2969 3472 
L 2969 4109 
L 163 4109 
L 163 4553 
z
M 1300 909 
L 2975 909 
L 2975 1591 
L 1500 1591 
L 1500 2003 
L 3463 2003 
Q 3763 2453 4069 2991 
L 4531 2734 
Q 4225 2316 3975 2003 
L 4938 2003 
L 4938 1591 
L 3463 1591 
L 3463 909 
L 5138 909 
L 5138 497 
L 3463 497 
L 3463 -703 
L 2975 -703 
L 2975 497 
L 1300 497 
L 1300 909 
z
M 1913 2741 
L 2281 2991 
Q 2600 2622 2863 2272 
L 2450 2016 
Q 2200 2378 1913 2741 
z
" transform="scale(0.015625)"/>
                            <path id="MicrosoftYaHei-975e" d="M 3688 5284
L 4188 5284 
L 4188 4391 
L 6131 4391 
L 6131 3941 
L 4188 3941 
L 4188 2716 
L 6038 2716 
L 6038 2266 
L 4188 2266 
L 4188 1016 
L 6269 1016 
L 6269 566 
L 4188 566 
L 4188 -797 
L 3688 -797 
L 3688 5284 
z
M 150 1016 
L 2206 1016 
L 2206 2266 
L 375 2266 
L 375 2716 
L 2206 2716 
L 2206 3941 
L 275 3941 
L 275 4391 
L 2206 4391 
L 2206 5284 
L 2706 5284 
L 2706 -797 
L 2206 -797 
L 2206 566 
L 150 566 
L 150 1016 
z
" transform="scale(0.015625)"/>
                        </defs>
                        <use xlink:href="#MicrosoftYaHei-5357"/>
                        <use xlink:href="#MicrosoftYaHei-975e" x="100"/>
                    </g>
                </g>
            </g>
        </g>
    </g>
    <defs>
        <clipPath id="pb49b5c972d">
            <rect x="135" y="129.6" width="837" height="831.6"/>
        </clipPath>
    </defs>
</svg>
