<?xml version="1.0" encoding="utf-8" standalone="no"?>
<!DOCTYPE svg PUBLIC "-//W3C//DTD SVG 1.1//EN"
  "http://www.w3.org/Graphics/SVG/1.1/DTD/svg11.dtd">
<svg xmlns:xlink="http://www.w3.org/1999/xlink" width="1080pt" height="1080pt" viewBox="0 0 1080 1080" xmlns="http://www.w3.org/2000/svg" version="1.1">
 <metadata>
  <rdf:RDF xmlns:dc="http://purl.org/dc/elements/1.1/" xmlns:cc="http://creativecommons.org/ns#" xmlns:rdf="http://www.w3.org/1999/02/22-rdf-syntax-ns#">
   <cc:Work>
    <dc:type rdf:resource="http://purl.org/dc/dcmitype/StillImage"/>
    <dc:date>2021-12-15T09:45:12.740944</dc:date>
    <dc:format>image/svg+xml</dc:format>
    <dc:creator>
     <cc:Agent>
      <dc:title>Matplotlib v3.5.1, https://matplotlib.org/</dc:title>
     </cc:Agent>
    </dc:creator>
   </cc:Work>
  </rdf:RDF>
 </metadata>
 <defs>
  <style type="text/css">*{stroke-linejoin: round; stroke-linecap: butt}</style>
 </defs>
 <g id="figure_1">
  <g id="patch_1">
   <path d="M 0 1080 
L 1080 1080 
L 1080 0 
L 0 0 
z
" style="fill: #ffffff"/>
  </g>
  <g id="axes_1">
   <g id="patch_2">
    <path d="M 135 961.2 
L 972 961.2 
L 972 129.6 
L 135 129.6 
z
" style="fill: #eaeaf2"/>
   </g>
   <g id="matplotlib.axis_1">
    <g id="xtick_1">
     <g id="line2d_1">
      <path d="M 197.590909 961.2 
L 197.590909 129.6 
" clip-path="url(#p0a6a396a5c)" style="fill: none; stroke: #ffffff; stroke-linecap: round"/>
     </g>
     <g id="text_1">
      <!-- 2020-02 -->
      <g style="fill: #262626" transform="translate(175.859893 979.493125)scale(0.11 -0.11)">
       <defs>
        <path id="MicrosoftYaHei-32" d="M 2666 3572 
Q 2666 3963 2419 4186 
Q 2172 4409 1747 4409 
Q 1447 4409 1140 4256 
Q 834 4103 569 3819 
L 569 4413 
Q 806 4659 1107 4790 
Q 1409 4922 1816 4922 
Q 2472 4922 2872 4570 
Q 3272 4219 3272 3619 
Q 3272 3084 3026 2693 
Q 2781 2303 2188 1894 
Q 1581 1475 1376 1294 
Q 1172 1113 1090 947 
Q 1009 781 1009 544 
L 3416 544 
L 3416 0 
L 372 0 
L 372 241 
Q 372 659 486 951 
Q 600 1244 862 1520 
Q 1125 1797 1681 2184 
Q 2250 2584 2458 2886 
Q 2666 3188 2666 3572 
z
" transform="scale(0.015625)"/>
        <path id="MicrosoftYaHei-30" d="M 284 2325 
Q 284 3606 709 4264 
Q 1134 4922 1941 4922 
Q 3478 4922 3478 2441 
Q 3478 1216 3045 567 
Q 2613 -81 1831 -81 
Q 1094 -81 689 534 
Q 284 1150 284 2325 
z
M 909 2353 
Q 909 425 1888 425 
Q 2850 425 2850 2384 
Q 2850 4413 1906 4413 
Q 909 4413 909 2353 
z
" transform="scale(0.015625)"/>
        <path id="MicrosoftYaHei-2d" d="M 2328 1681 
L 488 1681 
L 488 2153 
L 2328 2153 
L 2328 1681 
z
" transform="scale(0.015625)"/>
       </defs>
       <use xlink:href="#MicrosoftYaHei-32"/>
       <use xlink:href="#MicrosoftYaHei-30" x="58.642578"/>
       <use xlink:href="#MicrosoftYaHei-32" x="117.285156"/>
       <use xlink:href="#MicrosoftYaHei-30" x="175.927734"/>
       <use xlink:href="#MicrosoftYaHei-2d" x="234.570312"/>
       <use xlink:href="#MicrosoftYaHei-30" x="277.832031"/>
       <use xlink:href="#MicrosoftYaHei-32" x="336.474609"/>
      </g>
     </g>
    </g>
    <g id="xtick_2">
     <g id="line2d_2">
      <path d="M 339.954545 961.2 
L 339.954545 129.6 
" clip-path="url(#p0a6a396a5c)" style="fill: none; stroke: #ffffff; stroke-linecap: round"/>
     </g>
     <g id="text_2">
      <!-- 2020-03 -->
      <g style="fill: #262626" transform="translate(318.22353 979.493125)scale(0.11 -0.11)">
       <defs>
        <path id="MicrosoftYaHei-33" d="M 447 809 
Q 944 425 1569 425 
Q 2069 425 2361 670 
Q 2653 916 2653 1328 
Q 2653 2247 1338 2247 
L 934 2247 
L 934 2753 
L 1319 2753 
Q 2484 2753 2484 3616 
Q 2484 4413 1594 4413 
Q 1084 4413 634 4069 
L 634 4647 
Q 1109 4922 1744 4922 
Q 2363 4922 2738 4598 
Q 3113 4275 3113 3759 
Q 3113 2809 2144 2538 
L 2144 2525 
Q 2669 2469 2973 2155 
Q 3278 1841 3278 1372 
Q 3278 719 2808 319 
Q 2338 -81 1556 -81 
Q 869 -81 447 175 
L 447 809 
z
" transform="scale(0.015625)"/>
       </defs>
       <use xlink:href="#MicrosoftYaHei-32"/>
       <use xlink:href="#MicrosoftYaHei-30" x="58.642578"/>
       <use xlink:href="#MicrosoftYaHei-32" x="117.285156"/>
       <use xlink:href="#MicrosoftYaHei-30" x="175.927734"/>
       <use xlink:href="#MicrosoftYaHei-2d" x="234.570312"/>
       <use xlink:href="#MicrosoftYaHei-30" x="277.832031"/>
       <use xlink:href="#MicrosoftYaHei-33" x="336.474609"/>
      </g>
     </g>
    </g>
    <g id="xtick_3">
     <g id="line2d_3">
      <path d="M 492.136364 961.2 
L 492.136364 129.6 
" clip-path="url(#p0a6a396a5c)" style="fill: none; stroke: #ffffff; stroke-linecap: round"/>
     </g>
     <g id="text_3">
      <!-- 2020-04 -->
      <g style="fill: #262626" transform="translate(470.405348 979.493125)scale(0.11 -0.11)">
       <defs>
        <path id="MicrosoftYaHei-34" d="M 2906 4841 
L 2906 1644 
L 3631 1644 
L 3631 1138 
L 2906 1138 
L 2906 0 
L 2313 0 
L 2313 1138 
L 53 1138 
L 53 1616 
Q 656 2294 1265 3178 
Q 1875 4063 2272 4841 
L 2906 4841 
z
M 741 1644 
L 2313 1644 
L 2313 3950 
Q 1988 3366 1616 2817 
Q 1244 2269 741 1644 
z
" transform="scale(0.015625)"/>
       </defs>
       <use xlink:href="#MicrosoftYaHei-32"/>
       <use xlink:href="#MicrosoftYaHei-30" x="58.642578"/>
       <use xlink:href="#MicrosoftYaHei-32" x="117.285156"/>
       <use xlink:href="#MicrosoftYaHei-30" x="175.927734"/>
       <use xlink:href="#MicrosoftYaHei-2d" x="234.570312"/>
       <use xlink:href="#MicrosoftYaHei-30" x="277.832031"/>
       <use xlink:href="#MicrosoftYaHei-34" x="336.474609"/>
      </g>
     </g>
    </g>
    <g id="xtick_4">
     <g id="line2d_4">
      <path d="M 639.409091 961.2 
L 639.409091 129.6 
" clip-path="url(#p0a6a396a5c)" style="fill: none; stroke: #ffffff; stroke-linecap: round"/>
     </g>
     <g id="text_4">
      <!-- 2020-05 -->
      <g style="fill: #262626" transform="translate(617.678075 979.493125)scale(0.11 -0.11)">
       <defs>
        <path id="MicrosoftYaHei-35" d="M 3294 1494 
Q 3294 784 2823 350 
Q 2353 -84 1559 -84 
Q 878 -84 544 119 
L 544 744 
Q 1034 425 1544 425 
Q 2050 425 2361 704 
Q 2672 984 2672 1447 
Q 2672 1909 2348 2167 
Q 2025 2425 1434 2425 
Q 978 2425 613 2384 
L 791 4841 
L 3053 4841 
L 3053 4303 
L 1306 4303 
L 1206 2931 
L 1647 2950 
Q 2416 2950 2855 2567 
Q 3294 2184 3294 1494 
z
" transform="scale(0.015625)"/>
       </defs>
       <use xlink:href="#MicrosoftYaHei-32"/>
       <use xlink:href="#MicrosoftYaHei-30" x="58.642578"/>
       <use xlink:href="#MicrosoftYaHei-32" x="117.285156"/>
       <use xlink:href="#MicrosoftYaHei-30" x="175.927734"/>
       <use xlink:href="#MicrosoftYaHei-2d" x="234.570312"/>
       <use xlink:href="#MicrosoftYaHei-30" x="277.832031"/>
       <use xlink:href="#MicrosoftYaHei-35" x="336.474609"/>
      </g>
     </g>
    </g>
    <g id="xtick_5">
     <g id="line2d_5">
      <path d="M 791.590909 961.2 
L 791.590909 129.6 
" clip-path="url(#p0a6a396a5c)" style="fill: none; stroke: #ffffff; stroke-linecap: round"/>
     </g>
     <g id="text_5">
      <!-- 2020-06 -->
      <g style="fill: #262626" transform="translate(769.859893 979.493125)scale(0.11 -0.11)">
       <defs>
        <path id="MicrosoftYaHei-36" d="M 3181 4219 
Q 2803 4413 2391 4413 
Q 1763 4413 1381 3866 
Q 1000 3319 994 2372 
L 1009 2372 
Q 1353 3038 2106 3038 
Q 2734 3038 3109 2628 
Q 3484 2219 3484 1541 
Q 3484 831 3051 375 
Q 2619 -81 1947 -81 
Q 1209 -81 789 495 
Q 369 1072 369 2131 
Q 369 3413 920 4167 
Q 1472 4922 2372 4922 
Q 2888 4922 3181 4781 
L 3181 4219 
z
M 1031 1584 
Q 1031 1106 1286 765 
Q 1541 425 1963 425 
Q 2363 425 2613 719 
Q 2863 1013 2863 1475 
Q 2863 1975 2627 2253 
Q 2391 2531 1956 2531 
Q 1544 2531 1287 2250 
Q 1031 1969 1031 1584 
z
" transform="scale(0.015625)"/>
       </defs>
       <use xlink:href="#MicrosoftYaHei-32"/>
       <use xlink:href="#MicrosoftYaHei-30" x="58.642578"/>
       <use xlink:href="#MicrosoftYaHei-32" x="117.285156"/>
       <use xlink:href="#MicrosoftYaHei-30" x="175.927734"/>
       <use xlink:href="#MicrosoftYaHei-2d" x="234.570312"/>
       <use xlink:href="#MicrosoftYaHei-30" x="277.832031"/>
       <use xlink:href="#MicrosoftYaHei-36" x="336.474609"/>
      </g>
     </g>
    </g>
    <g id="xtick_6">
     <g id="line2d_6">
      <path d="M 938.863636 961.2 
L 938.863636 129.6 
" clip-path="url(#p0a6a396a5c)" style="fill: none; stroke: #ffffff; stroke-linecap: round"/>
     </g>
     <g id="text_6">
      <!-- 2020-07 -->
      <g style="fill: #262626" transform="translate(917.132621 979.493125)scale(0.11 -0.11)">
       <defs>
        <path id="MicrosoftYaHei-37" d="M 3422 4463 
Q 2659 3131 2223 1998 
Q 1788 866 1684 0 
L 1047 0 
Q 1163 853 1594 1947 
Q 2025 3041 2747 4300 
L 347 4300 
L 347 4841 
L 3422 4841 
L 3422 4463 
z
" transform="scale(0.015625)"/>
       </defs>
       <use xlink:href="#MicrosoftYaHei-32"/>
       <use xlink:href="#MicrosoftYaHei-30" x="58.642578"/>
       <use xlink:href="#MicrosoftYaHei-32" x="117.285156"/>
       <use xlink:href="#MicrosoftYaHei-30" x="175.927734"/>
       <use xlink:href="#MicrosoftYaHei-2d" x="234.570312"/>
       <use xlink:href="#MicrosoftYaHei-30" x="277.832031"/>
       <use xlink:href="#MicrosoftYaHei-37" x="336.474609"/>
      </g>
     </g>
    </g>
    <g id="text_7">
     <!-- 日期 -->
     <g style="fill: #262626" transform="translate(541.5 995.820156)scale(0.12 -0.12)">
      <defs>
       <path id="MicrosoftYaHei-65e5" d="M 975 4909 
L 5431 4909 
L 5431 -766 
L 4900 -766 
L 4900 -322 
L 1506 -322 
L 1506 -766 
L 975 -766 
L 975 4909 
z
M 1506 2103 
L 1506 134 
L 4900 134 
L 4900 2103 
L 1506 2103 
z
M 1506 4441 
L 1506 2572 
L 4900 2572 
L 4900 4441 
L 1506 4441 
z
" transform="scale(0.015625)"/>
       <path id="MicrosoftYaHei-671f" d="M 3769 5066 
L 5981 5066 
L 5981 -3 
Q 5981 -741 5281 -741 
Q 4931 -741 4594 -722 
Q 4569 -516 4519 -241 
Q 4975 -284 5175 -284 
Q 5519 -284 5519 59 
L 5519 1372 
L 4181 1372 
Q 4113 3 3350 -903 
Q 3181 -728 2975 -553 
Q 3481 28 3619 653 
Q 3769 1253 3769 2741 
L 3769 5066 
z
M 125 1141 
L 713 1141 
L 713 4028 
L 200 4028 
L 200 4453 
L 713 4453 
L 713 5216 
L 1175 5216 
L 1175 4453 
L 2475 4453 
L 2475 5241 
L 2938 5241 
L 2938 4453 
L 3444 4453 
L 3444 4028 
L 2938 4028 
L 2938 1141 
L 3438 1141 
L 3438 716 
L 125 716 
L 125 1141 
z
M 4209 1784 
L 5519 1784 
L 5519 3009 
L 4231 3009 
Q 4238 2203 4209 1784 
z
M 5519 4641 
L 4231 4641 
L 4231 3422 
L 5519 3422 
L 5519 4641 
z
M 1175 1141 
L 2475 1141 
L 2475 1841 
L 1175 1841 
L 1175 1141 
z
M 1175 2241 
L 2475 2241 
L 2475 2934 
L 1175 2934 
L 1175 2241 
z
M 1175 3334 
L 2475 3334 
L 2475 4028 
L 1175 4028 
L 1175 3334 
z
M 1175 597 
L 1556 297 
Q 925 -384 406 -847 
Q 275 -697 75 -516 
Q 669 -9 1175 597 
z
M 1994 303 
L 2294 609 
Q 2731 284 3119 -47 
L 2788 -403 
Q 2438 -53 1994 303 
z
" transform="scale(0.015625)"/>
      </defs>
      <use xlink:href="#MicrosoftYaHei-65e5"/>
      <use xlink:href="#MicrosoftYaHei-671f" x="100"/>
     </g>
    </g>
   </g>
   <g id="matplotlib.axis_2">
    <g id="ytick_1">
     <g id="line2d_7">
      <path d="M 135 923.401334 
L 972 923.401334 
" clip-path="url(#p0a6a396a5c)" style="fill: none; stroke: #ffffff; stroke-linecap: round"/>
     </g>
     <g id="text_8">
      <!-- 0 -->
      <g style="fill: #262626" transform="translate(119.049531 927.797896)scale(0.11 -0.11)">
       <use xlink:href="#MicrosoftYaHei-30"/>
      </g>
     </g>
    </g>
    <g id="ytick_2">
     <g id="line2d_8">
      <path d="M 135 790.03013 
L 972 790.03013 
" clip-path="url(#p0a6a396a5c)" style="fill: none; stroke: #ffffff; stroke-linecap: round"/>
     </g>
     <g id="text_9">
      <!-- 100000 -->
      <g style="fill: #262626" transform="translate(86.797188 794.426692)scale(0.11 -0.11)">
       <defs>
        <path id="MicrosoftYaHei-31" d="M 1781 0 
L 1781 4141 
Q 1638 3997 1295 3819 
Q 953 3641 663 3569 
L 663 4169 
Q 1047 4275 1484 4508 
Q 1922 4741 2156 4947 
L 2388 4947 
L 2388 0 
L 1781 0 
z
" transform="scale(0.015625)"/>
       </defs>
       <use xlink:href="#MicrosoftYaHei-31"/>
       <use xlink:href="#MicrosoftYaHei-30" x="58.642578"/>
       <use xlink:href="#MicrosoftYaHei-30" x="117.285156"/>
       <use xlink:href="#MicrosoftYaHei-30" x="175.927734"/>
       <use xlink:href="#MicrosoftYaHei-30" x="234.570312"/>
       <use xlink:href="#MicrosoftYaHei-30" x="293.212891"/>
      </g>
     </g>
    </g>
    <g id="ytick_3">
     <g id="line2d_9">
      <path d="M 135 656.658925 
L 972 656.658925 
" clip-path="url(#p0a6a396a5c)" style="fill: none; stroke: #ffffff; stroke-linecap: round"/>
     </g>
     <g id="text_10">
      <!-- 200000 -->
      <g style="fill: #262626" transform="translate(86.797188 661.055488)scale(0.11 -0.11)">
       <use xlink:href="#MicrosoftYaHei-32"/>
       <use xlink:href="#MicrosoftYaHei-30" x="58.642578"/>
       <use xlink:href="#MicrosoftYaHei-30" x="117.285156"/>
       <use xlink:href="#MicrosoftYaHei-30" x="175.927734"/>
       <use xlink:href="#MicrosoftYaHei-30" x="234.570312"/>
       <use xlink:href="#MicrosoftYaHei-30" x="293.212891"/>
      </g>
     </g>
    </g>
    <g id="ytick_4">
     <g id="line2d_10">
      <path d="M 135 523.287721 
L 972 523.287721 
" clip-path="url(#p0a6a396a5c)" style="fill: none; stroke: #ffffff; stroke-linecap: round"/>
     </g>
     <g id="text_11">
      <!-- 300000 -->
      <g style="fill: #262626" transform="translate(86.797188 527.684284)scale(0.11 -0.11)">
       <use xlink:href="#MicrosoftYaHei-33"/>
       <use xlink:href="#MicrosoftYaHei-30" x="58.642578"/>
       <use xlink:href="#MicrosoftYaHei-30" x="117.285156"/>
       <use xlink:href="#MicrosoftYaHei-30" x="175.927734"/>
       <use xlink:href="#MicrosoftYaHei-30" x="234.570312"/>
       <use xlink:href="#MicrosoftYaHei-30" x="293.212891"/>
      </g>
     </g>
    </g>
    <g id="ytick_5">
     <g id="line2d_11">
      <path d="M 135 389.916517 
L 972 389.916517 
" clip-path="url(#p0a6a396a5c)" style="fill: none; stroke: #ffffff; stroke-linecap: round"/>
     </g>
     <g id="text_12">
      <!-- 400000 -->
      <g style="fill: #262626" transform="translate(86.797188 394.31308)scale(0.11 -0.11)">
       <use xlink:href="#MicrosoftYaHei-34"/>
       <use xlink:href="#MicrosoftYaHei-30" x="58.642578"/>
       <use xlink:href="#MicrosoftYaHei-30" x="117.285156"/>
       <use xlink:href="#MicrosoftYaHei-30" x="175.927734"/>
       <use xlink:href="#MicrosoftYaHei-30" x="234.570312"/>
       <use xlink:href="#MicrosoftYaHei-30" x="293.212891"/>
      </g>
     </g>
    </g>
    <g id="ytick_6">
     <g id="line2d_12">
      <path d="M 135 256.545313 
L 972 256.545313 
" clip-path="url(#p0a6a396a5c)" style="fill: none; stroke: #ffffff; stroke-linecap: round"/>
     </g>
     <g id="text_13">
      <!-- 500000 -->
      <g style="fill: #262626" transform="translate(86.797188 260.941875)scale(0.11 -0.11)">
       <use xlink:href="#MicrosoftYaHei-35"/>
       <use xlink:href="#MicrosoftYaHei-30" x="58.642578"/>
       <use xlink:href="#MicrosoftYaHei-30" x="117.285156"/>
       <use xlink:href="#MicrosoftYaHei-30" x="175.927734"/>
       <use xlink:href="#MicrosoftYaHei-30" x="234.570312"/>
       <use xlink:href="#MicrosoftYaHei-30" x="293.212891"/>
      </g>
     </g>
    </g>
    <g id="text_14">
     <!-- 累计确诊 -->
     <g style="fill: #262626" transform="translate(79.814063 569.4)rotate(-90)scale(0.12 -0.12)">
      <defs>
       <path id="MicrosoftYaHei-7d2f" d="M 4550 1991 
Q 5425 1278 5944 772 
L 5600 422 
Q 5356 675 5097 922 
Q 4334 891 3556 856 
L 3556 22 
Q 3556 -753 2775 -753 
Q 2375 -753 1881 -747 
Q 1844 -497 1788 -228 
Q 2269 -272 2650 -272 
Q 3069 -272 3069 184 
L 3069 834 
Q 2231 794 1375 753 
Q 1100 741 844 703 
L 675 1178 
Q 1056 1222 1531 1403 
Q 2172 1650 2916 1984 
Q 2138 1959 1531 1922 
Q 1231 1903 1081 1884 
L 919 2297 
Q 1231 2359 1550 2503 
Q 1969 2691 2378 2909 
L 1206 2909 
L 1206 2728 
L 731 2728 
L 731 5103 
L 5675 5103 
L 5675 2728 
L 5200 2728 
L 5200 2909 
L 3125 2909 
Q 2434 2559 1763 2272 
Q 2581 2294 3669 2334 
Q 4100 2538 4563 2772 
L 4888 2434 
Q 3394 1728 1825 1147 
Q 3403 1216 4684 1297 
Q 4456 1500 4219 1697 
L 4550 1991 
z
M 3431 3272 
L 5200 3272 
L 5200 3841 
L 3431 3841 
L 3431 3272 
z
M 1206 3272 
L 2969 3272 
L 2969 3841 
L 1206 3841 
L 1206 3272 
z
M 5200 4741 
L 3431 4741 
L 3431 4178 
L 5200 4178 
L 5200 4741 
z
M 1206 4178 
L 2969 4178 
L 2969 4741 
L 1206 4741 
L 1206 4178 
z
M 1894 572 
L 2175 184 
Q 1263 -272 381 -616 
Q 288 -422 163 -197 
Q 1094 166 1894 572 
z
M 4431 547 
Q 5363 234 6219 -147 
L 6025 -572 
Q 5188 -191 4219 134 
L 4431 547 
z
" transform="scale(0.015625)"/>
       <path id="MicrosoftYaHei-8ba1" d="M 2100 3153 
L 3919 3153 
L 3919 5303 
L 4456 5303 
L 4456 3153 
L 6288 3153 
L 6288 2703 
L 4456 2703 
L 4456 -822 
L 3919 -822 
L 3919 2703 
L 2100 2703 
L 2100 3153 
z
M 2675 903 
Q 2694 578 2719 359 
Q 1719 -266 1069 -728 
L 769 -303 
Q 988 -116 988 266 
L 988 2741 
L 100 2741 
L 100 3191 
L 1488 3191 
L 1488 153 
Q 2031 484 2675 903 
z
M 738 5222 
Q 1419 4522 1725 4184 
L 1288 3816 
Q 894 4334 356 4891 
L 738 5222 
z
" transform="scale(0.015625)"/>
       <path id="MicrosoftYaHei-786e" d="M 2075 3453 
Q 2956 4334 3456 5359 
L 3931 5272 
Q 3781 4991 3619 4722 
L 5438 4722 
L 5438 4328 
L 4909 3666 
L 6063 3666 
L 6063 -53 
Q 6063 -728 5475 -728 
Q 5144 -728 4906 -716 
Q 4869 -497 4813 -259 
Q 5156 -291 5331 -291 
Q 5619 -291 5619 16 
L 5619 734 
L 4588 734 
L 4588 -659 
L 4144 -659 
L 4144 734 
L 3113 734 
Q 2944 -263 2444 -884 
Q 2288 -703 2081 -509 
Q 2756 291 2756 1841 
L 2756 3506 
Q 2597 3316 2431 3134 
Q 2281 3278 2075 3453 
z
M 31 1691 
Q 741 2834 1066 4291 
L 231 4291 
L 231 4716 
L 2469 4716 
L 2469 4291 
L 1509 4291 
Q 1356 3613 1128 2991 
L 2200 2991 
L 2200 128 
L 1150 128 
L 1150 -347 
L 738 -347 
L 738 2059 
Q 559 1691 350 1347 
Q 225 1497 31 1691 
z
M 1788 541 
L 1788 2578 
L 1150 2578 
L 1150 541 
L 1788 541 
z
M 4875 4322 
L 3366 4322 
Q 3138 3981 2884 3666 
L 4384 3666 
L 4875 4322 
z
M 4588 1134 
L 5619 1134 
L 5619 1991 
L 4588 1991 
L 4588 1134 
z
M 5619 3241 
L 4588 3241 
L 4588 2391 
L 5619 2391 
L 5619 3241 
z
M 3166 1134 
L 4144 1134 
L 4144 1991 
L 3200 1991 
Q 3200 1841 3166 1134 
z
M 3200 2391 
L 4144 2391 
L 4144 3241 
L 3200 3241 
L 3200 2391 
z
" transform="scale(0.015625)"/>
       <path id="MicrosoftYaHei-8bca" d="M 2069 997 
Q 2094 678 2138 447 
Q 1569 16 1238 -259 
Q 1106 -378 956 -547 
L 600 -153 
Q 794 53 794 422 
L 794 2753 
L 88 2753 
L 88 3216 
L 1281 3216 
L 1281 353 
Q 1656 653 2069 997 
z
M 931 5172 
Q 1419 4691 1919 4134 
L 1481 3766 
Q 969 4428 556 4853 
L 931 5172 
z
M 4325 5278 
L 4238 5122 
Q 4894 3872 6319 3222 
Q 6113 2953 5981 2766 
Q 4569 3591 3963 4691 
Q 3400 3666 1925 2734 
Q 1731 2991 1575 3172 
Q 3144 3966 3750 5278 
L 4325 5278 
z
M 1963 -391 
Q 4413 328 5619 1622 
L 5988 1284 
Q 4719 -78 2219 -872 
Q 2094 -628 1963 -391 
z
M 2163 2253 
Q 3494 2803 4163 3597 
L 4556 3303 
Q 3794 2441 2438 1822 
Q 2294 2053 2163 2253 
z
M 2331 984 
Q 3969 1653 4931 2616 
L 5288 2284 
Q 4275 1241 2594 541 
Q 2500 709 2331 984 
z
" transform="scale(0.015625)"/>
      </defs>
      <use xlink:href="#MicrosoftYaHei-7d2f"/>
      <use xlink:href="#MicrosoftYaHei-8ba1" x="100"/>
      <use xlink:href="#MicrosoftYaHei-786e" x="200"/>
      <use xlink:href="#MicrosoftYaHei-8bca" x="300"/>
     </g>
    </g>
   </g>
   <g id="line2d_13">
    <path d="M 173.045455 923.4 
L 384.136364 923.298638 
L 403.772727 923.137259 
L 418.5 922.819835 
L 438.136364 921.8729 
L 443.045455 921.564812 
L 447.954545 921.43811 
L 452.863636 920.612542 
L 457.772727 919.544238 
L 462.681818 918.854709 
L 472.5 917.052864 
L 477.409091 915.576445 
L 487.227273 913.467846 
L 492.136364 911.375252 
L 501.954545 908.353061 
L 506.863636 906.669916 
L 516.681818 902.712793 
L 526.5 899.531889 
L 531.409091 897.688699 
L 536.318182 895.706803 
L 541.227273 893.862279 
L 546.136364 892.301836 
L 551.045455 890.880099 
L 555.954545 888.507426 
L 560.863636 887.305751 
L 570.681818 882.496385 
L 575.590909 880.173059 
L 585.409091 876.198597 
L 590.318182 873.54451 
L 595.227273 872.15745 
L 600.136364 868.953873 
L 605.045455 866.385144 
L 609.954545 864.232533 
L 614.863636 862.329326 
L 619.772727 860.280744 
L 624.681818 858.7163 
L 629.590909 856.218257 
L 634.5 854.585793 
L 639.409091 851.838347 
L 644.318182 849.284288 
L 649.227273 847.761189 
L 654.136364 844.080144 
L 663.954545 840.649836 
L 673.772727 836.814081 
L 678.681818 834.336044 
L 693.409091 829.585361 
L 698.318182 828.059595 
L 703.227273 826.659197 
L 708.136364 825.505536 
L 713.045455 823.367596 
L 717.954545 821.767141 
L 722.863636 820.702839 
L 727.772727 818.706272 
L 732.681818 817.888707 
L 737.590909 817.888707 
L 742.5 814.938536 
L 747.409091 812.847275 
L 752.318182 811.261492 
L 757.227273 810.437257 
L 762.136364 808.704766 
L 767.045455 807.839186 
L 771.954545 806.67619 
L 776.863636 805.351813 
L 781.772727 803.727352 
L 796.5 800.498435 
L 801.409091 799.702209 
L 806.318182 798.777947 
L 811.227273 798.397839 
L 816.136364 797.585608 
L 825.954545 795.766425 
L 830.863636 795.039552 
L 835.772727 794.494064 
L 840.681818 793.593808 
L 845.590909 793.324398 
L 865.227273 791.167786 
L 875.045455 790.226185 
L 899.590909 787.846843 
L 914.318182 786.533137 
L 924.136364 785.986315 
L 929.045455 785.695565 
L 933.954545 784.804646 
L 933.954545 784.804646 
" clip-path="url(#p0a6a396a5c)" style="fill: none; stroke: #4c72b0; stroke-width: 1.5; stroke-linecap: round"/>
   </g>
   <g id="line2d_14">
    <path d="M 187.772727 923.4 
L 403.772727 923.289302 
L 443.045455 922.946538 
L 467.590909 922.435726 
L 472.5 922.176986 
L 477.409091 922.035613 
L 492.136364 921.218047 
L 506.863636 919.530901 
L 516.681818 917.691712 
L 531.409091 915.579113 
L 536.318182 914.384107 
L 541.227273 913.359816 
L 551.045455 910.928459 
L 555.954545 908.977238 
L 560.863636 907.486148 
L 565.772727 906.384502 
L 570.681818 904.949428 
L 575.590909 903.671731 
L 580.5 901.90723 
L 585.409091 899.853314 
L 590.318182 898.080811 
L 595.227273 896.098915 
L 600.136364 894.459782 
L 605.045455 892.123119 
L 609.954545 890.135888 
L 614.863636 887.501807 
L 619.772727 885.550586 
L 624.681818 883.424649 
L 629.590909 881.006629 
L 634.5 879.175442 
L 639.409091 876.234607 
L 644.318182 873.019028 
L 649.227273 870.079526 
L 654.136364 866.674559 
L 659.045455 861.102311 
L 663.954545 857.527962 
L 668.863636 852.654578 
L 683.590909 839.458832 
L 688.5 833.109028 
L 693.409091 829.033204 
L 698.318182 824.33187 
L 703.227273 819.367793 
L 713.045455 808.782121 
L 717.954545 802.130899 
L 722.863636 795.13958 
L 727.772727 788.511032 
L 732.681818 788.511032 
L 737.590909 781.027573 
L 742.5 781.027573 
L 747.409091 756.552624 
L 752.318182 747.527394 
L 757.227273 738.222085 
L 771.954545 712.230705 
L 776.863636 702.273211 
L 781.772727 691.651528 
L 796.5 658.384749 
L 801.409091 646.502708 
L 806.318182 634.093851 
L 821.045455 594.4706 
L 840.681818 541.187471 
L 845.590909 526.575321 
L 850.5 511.293649 
L 855.409091 495.383798 
L 860.318182 480.043442 
L 865.227273 465.816736 
L 870.136364 451.18058 
L 875.045455 434.001035 
L 879.954545 415.881223 
L 884.863636 396.521059 
L 889.772727 375.964555 
L 899.590909 336.281287 
L 904.5 314.984573 
L 914.318182 269.347615 
L 919.227273 244.604589 
L 929.045455 192.103014 
L 933.954545 167.4 
L 933.954545 167.4 
" clip-path="url(#p0a6a396a5c)" style="fill: none; stroke: #dd8452; stroke-width: 1.5; stroke-linecap: round"/>
   </g>
   <g id="line2d_15">
    <path d="M 192.681818 923.398666 
L 300.681818 923.374659 
L 330.136364 922.53042 
L 339.954545 921.896907 
L 344.863636 921.142026 
L 349.772727 920.685896 
L 354.681818 920.064386 
L 359.590909 919.281497 
L 364.5 918.163847 
L 369.409091 917.218245 
L 374.318182 915.555106 
L 379.227273 913.565207 
L 384.136364 911.168527 
L 389.045455 909.686773 
L 393.954545 906.780614 
L 398.863636 903.244944 
L 403.772727 899.847979 
L 413.590909 890.141223 
L 418.5 884.694343 
L 423.409091 881.381402 
L 428.318182 873.816587 
L 433.227273 868.67246 
L 438.136364 860.68886 
L 443.045455 849.756422 
L 447.954545 844.026795 
L 452.863636 837.53962 
L 457.772727 829.314618 
L 462.681818 824.19183 
L 467.590909 815.198609 
L 472.5 807.001615 
L 477.409091 799.298095 
L 482.318182 793.112338 
L 487.227273 787.221332 
L 492.136364 782.305269 
L 497.045455 775.927458 
L 501.954545 768.830777 
L 506.863636 762.981116 
L 511.772727 756.665989 
L 516.681818 750.710965 
L 521.590909 746.271037 
L 526.5 742.159203 
L 531.409091 736.832357 
L 536.318182 731.845608 
L 546.136364 719.530111 
L 551.045455 714.444667 
L 555.954545 710.652924 
L 560.863636 706.689131 
L 565.772727 703.132121 
L 570.681818 698.082688 
L 580.5 688.768043 
L 585.409091 684.704222 
L 590.318182 678.055668 
L 595.227273 678.055668 
L 600.136364 673.561058 
L 605.045455 666.002912 
L 609.954545 666.002912 
L 619.772727 659.759806 
L 624.681818 657.440481 
L 634.5 651.869565 
L 644.318182 646.752112 
L 649.227273 644.218059 
L 654.136364 642.365533 
L 659.045455 640.737071 
L 663.954545 639.303331 
L 673.772727 635.50892 
L 678.681818 633.739084 
L 683.590909 632.294674 
L 693.409091 630.232755 
L 698.318182 628.362891 
L 703.227273 627.178554 
L 708.136364 625.855512 
L 713.045455 624.803213 
L 717.954545 623.636215 
L 722.863636 622.73596 
L 727.772727 622.134455 
L 732.681818 622.134455 
L 737.590909 621.050148 
L 742.5 621.050148 
L 747.409091 618.437406 
L 752.318182 617.545152 
L 757.227273 616.836951 
L 762.136364 616.436838 
L 767.045455 615.907354 
L 781.772727 613.649379 
L 791.590909 612.621087 
L 796.5 612.383687 
L 806.318182 611.531445 
L 811.227273 611.295378 
L 816.136364 610.604515 
L 835.772727 609.230791 
L 840.681818 608.961382 
L 845.590909 608.455905 
L 850.5 608.23851 
L 865.227273 606.924803 
L 870.136364 606.644724 
L 875.045455 605.963197 
L 889.772727 605.312345 
L 894.681818 605.017595 
L 899.590909 605.006925 
L 904.5 604.866886 
L 909.409091 604.097334 
L 919.227273 603.362458 
L 933.954545 602.728945 
L 933.954545 602.728945 
" clip-path="url(#p0a6a396a5c)" style="fill: none; stroke: #55a868; stroke-width: 1.5; stroke-linecap: round"/>
   </g>
   <g id="line2d_16">
    <path d="M 290.863636 923.398666 
L 320.318182 923.215948 
L 330.136364 923.041231 
L 339.954545 922.096963 
L 344.863636 921.399432 
L 349.772727 920.285782 
L 354.681818 919.504227 
L 359.590909 919.504227 
L 364.5 917.070203 
L 369.409091 915.635128 
L 374.318182 914.64418 
L 379.227273 913.850622 
L 389.045455 911.397925 
L 393.954545 909.964185 
L 408.681818 904.812055 
L 413.590909 903.407656 
L 423.409091 900.246759 
L 428.318182 898.851696 
L 433.227273 897.201894 
L 443.045455 894.542473 
L 447.954545 892.660605 
L 452.863636 890.310604 
L 457.772727 887.368435 
L 462.681818 884.182197 
L 467.590909 880.279756 
L 472.5 876.177258 
L 477.409091 872.308159 
L 487.227273 863.909774 
L 492.136364 859.925977 
L 497.045455 856.091554 
L 501.954545 852.470526 
L 511.772727 845.744616 
L 516.681818 842.711755 
L 521.590909 839.925631 
L 526.5 833.661185 
L 531.409091 833.661185 
L 536.318182 832.452842 
L 541.227273 830.002813 
L 551.045455 825.63624 
L 565.772727 819.378463 
L 570.681818 817.379229 
L 580.5 813.755533 
L 590.318182 810.299885 
L 595.227273 808.707433 
L 600.136364 807.33371 
L 614.863636 802.725734 
L 619.772727 801.404026 
L 629.590909 798.489865 
L 639.409091 795.837112 
L 644.318182 794.767475 
L 649.227273 793.465772 
L 654.136364 791.834642 
L 659.045455 790.070141 
L 663.954545 787.829505 
L 673.772727 783.773686 
L 678.681818 781.734441 
L 683.590909 779.889917 
L 688.5 777.64528 
L 693.409091 775.670052 
L 698.318182 773.058644 
L 703.227273 770.647292 
L 708.136364 767.84383 
L 717.954545 763.091814 
L 722.863636 760.032278 
L 727.772727 757.216812 
L 742.5 757.216812 
L 747.409091 745.322768 
L 752.318182 742.415276 
L 757.227273 739.717176 
L 762.136364 737.333833 
L 767.045455 734.559712 
L 771.954545 731.54819 
L 776.863636 727.788456 
L 781.772727 724.744925 
L 786.681818 721.389306 
L 791.590909 717.416177 
L 801.409091 709.079143 
L 806.318182 704.312457 
L 811.227273 700.463364 
L 821.045455 694.284276 
L 835.772727 686.08328 
L 840.681818 683.125107 
L 850.5 676.724623 
L 865.227273 666.743122 
L 875.045455 659.79715 
L 879.954545 659.76114 
L 884.863636 653.212613 
L 889.772727 650.054383 
L 894.681818 646.622742 
L 904.5 639.986191 
L 914.318182 633.020213 
L 924.136364 626.425007 
L 933.954545 619.765783 
L 933.954545 619.765783 
" clip-path="url(#p0a6a396a5c)" style="fill: none; stroke: #c44e52; stroke-width: 1.5; stroke-linecap: round"/>
   </g>
   <g id="line2d_17">
    <path d="M 364.5 923.4 
L 369.409091 923.4 
L 374.318182 923.393331 
L 379.227273 923.393331 
L 384.136364 923.393331 
L 389.045455 923.393331 
L 393.954545 923.393331 
L 398.863636 923.371992 
L 403.772727 923.36399 
L 408.681818 923.36399 
L 413.590909 923.30664 
L 418.5 923.30664 
L 423.409091 923.245289 
L 428.318182 923.207945 
L 433.227273 923.089245 
L 438.136364 923.050567 
L 443.045455 922.977213 
L 447.954545 922.917196 
L 452.863636 922.874517 
L 457.772727 922.874517 
L 462.681818 922.761152 
L 467.590909 922.627781 
L 472.5 922.554427 
L 477.409091 922.506413 
L 482.318182 922.265011 
L 487.227273 922.134307 
L 492.136364 921.98093 
L 497.045455 921.98093 
L 501.954545 921.515465 
L 506.863636 921.515465 
L 511.772727 921.072672 
L 516.681818 920.359137 
L 521.590909 920.359137 
L 526.5 919.461548 
L 531.409091 917.623693 
L 536.318182 917.623693 
L 541.227273 915.536434 
L 546.136364 915.536434 
L 551.045455 913.373153 
L 555.954545 913.373153 
L 560.863636 913.373153 
L 565.772727 913.373153 
L 570.681818 909.660099 
L 575.590909 905.410892 
L 580.5 904.169206 
L 585.409091 902.558082 
L 590.318182 901.628485 
L 595.227273 899.611912 
L 600.136364 897.727377 
L 605.045455 895.50808 
L 609.954545 894.529135 
L 614.863636 889.617074 
L 619.772727 886.701579 
L 624.681818 885.125132 
L 629.590909 881.802855 
L 634.5 878.14715 
L 639.409091 874.085997 
L 644.318182 869.440678 
L 649.227273 866.673226 
L 654.136364 862.146607 
L 659.045455 860.220727 
L 663.954545 855.129948 
L 668.863636 850.291241 
L 673.772727 845.344503 
L 678.681818 840.915245 
L 683.590909 836.690045 
L 688.5 833.633177 
L 693.409091 831.612604 
L 698.318182 827.295378 
L 703.227273 821.631103 
L 708.136364 815.898808 
L 713.045455 810.709335 
L 717.954545 805.313136 
L 722.863636 800.335722 
L 727.772727 796.788048 
L 732.681818 790.719659 
L 737.590909 790.719659 
L 742.5 778.334809 
L 747.409091 774.428366 
L 752.318182 769.01883 
L 757.227273 763.410571 
L 762.136364 758.049048 
L 767.045455 750.350863 
L 771.954545 742.143199 
L 776.863636 734.308974 
L 781.772727 725.631844 
L 786.681818 715.781046 
L 791.590909 704.037712 
L 796.5 696.618272 
L 801.409091 690.156437 
L 806.318182 684.781577 
L 811.227273 679.067955 
L 816.136364 673.463697 
L 821.045455 667.65138 
L 825.954545 661.306912 
L 830.863636 657.064374 
L 835.772727 651.676177 
L 840.681818 644.891584 
L 845.590909 636.935992 
L 850.5 628.985734 
L 855.409091 623.140074 
L 860.318182 616.999664 
L 865.227273 612.657098 
L 870.136364 607.103521 
L 875.045455 602.099433 
L 879.954545 597.458115 
L 884.863636 592.740776 
L 889.772727 588.188817 
L 894.681818 583.390121 
L 899.590909 580.04117 
L 904.5 575.555896 
L 909.409091 570.382427 
L 914.318182 565.163612 
L 919.227273 560.146187 
L 924.136364 555.311481 
L 929.045455 550.736849 
L 933.954545 546.807733 
" clip-path="url(#p0a6a396a5c)" style="fill: none; stroke: #8172b3; stroke-width: 1.5; stroke-linecap: round"/>
   </g>
   <g id="line2d_18">
    <path d="M 364.5 923.4 
L 369.409091 923.4 
L 374.318182 923.398666 
L 379.227273 923.398666 
L 384.136364 923.398666 
L 389.045455 923.391998 
L 393.954545 923.378661 
L 398.863636 923.369325 
L 403.772727 923.369325 
L 408.681818 923.333314 
L 413.590909 923.333314 
L 418.5 923.318644 
L 423.409091 923.246623 
L 428.318182 923.246623 
L 433.227273 923.131924 
L 438.136364 923.081243 
L 443.045455 923.081243 
L 447.954545 922.865181 
L 452.863636 922.865181 
L 457.772727 922.455732 
L 462.681818 922.455732 
L 467.590909 922.164983 
L 472.5 921.840891 
L 477.409091 921.818218 
L 482.318182 921.694182 
L 487.227273 921.632832 
L 492.136364 921.596821 
L 497.045455 921.560811 
L 501.954545 921.451447 
L 506.863636 921.394097 
L 511.772727 921.2874 
L 516.681818 921.19404 
L 521.590909 921.152695 
L 526.5 921.152695 
L 531.409091 920.940635 
L 536.318182 920.729908 
L 541.227273 920.729908 
L 546.136364 920.696566 
L 551.045455 920.503177 
L 555.954545 920.180419 
L 560.863636 920.180419 
L 565.772727 920.059051 
L 570.681818 919.927014 
L 575.590909 919.689613 
L 580.5 919.354851 
L 585.409091 919.189471 
L 590.318182 919.000084 
L 595.227273 918.780021 
L 600.136364 918.55329 
L 605.045455 918.12917 
L 609.954545 917.773069 
L 614.863636 917.585015 
L 619.772727 917.338279 
L 624.681818 917.008852 
L 629.590909 916.738108 
L 634.5 916.265974 
L 639.409091 915.869862 
L 644.318182 915.464413 
L 649.227273 914.950934 
L 654.136364 914.354765 
L 659.045455 913.771933 
L 663.954545 913.302466 
L 668.863636 912.98771 
L 673.772727 912.422216 
L 678.681818 910.837766 
L 683.590909 910.837766 
L 688.5 910.044208 
L 693.409091 908.263702 
L 698.318182 908.263702 
L 703.227273 907.298095 
L 708.136364 906.411176 
L 713.045455 905.364212 
L 717.954545 904.255897 
L 722.863636 902.708791 
L 727.772727 901.484444 
L 732.681818 900.461487 
L 737.590909 900.461487 
L 742.5 897.878086 
L 747.409091 896.560379 
L 752.318182 894.935918 
L 757.227273 893.282115 
L 762.136364 891.905724 
L 767.045455 891.040145 
L 771.954545 888.808844 
L 776.863636 886.853623 
L 781.772727 884.403594 
L 786.681818 882.100273 
L 791.590909 877.578989 
L 796.5 877.578989 
L 801.409091 875.638438 
L 806.318182 873.353789 
L 811.227273 868.996552 
L 816.136364 865.472885 
L 821.045455 862.08659 
L 825.954545 859.003048 
L 830.863636 855.543399 
L 835.772727 852.726599 
L 840.681818 849.485679 
L 845.590909 845.288487 
L 850.5 840.808548 
L 855.409091 835.728439 
L 860.318182 829.99081 
L 865.227273 825.329486 
L 870.136364 821.593759 
L 875.045455 816.154881 
L 879.954545 811.516231 
L 884.863636 806.414782 
L 889.772727 799.791568 
L 894.681818 793.628485 
L 899.590909 787.909527 
L 904.5 781.883816 
L 909.409091 774.297662 
L 914.318182 765.523171 
L 919.227273 757.23415 
L 924.136364 747.618087 
L 929.045455 739.170355 
L 933.954545 730.9947 
" clip-path="url(#p0a6a396a5c)" style="fill: none; stroke: #937860; stroke-width: 1.5; stroke-linecap: round"/>
   </g>
   <g id="line2d_19"/>
   <g id="line2d_20"/>
   <g id="line2d_21"/>
   <g id="line2d_22"/>
   <g id="line2d_23"/>
   <g id="line2d_24"/>
   <g id="patch_3">
    <path d="M 135 961.2 
L 135 129.6 
" style="fill: none; stroke: #ffffff; stroke-width: 1.25; stroke-linejoin: miter; stroke-linecap: square"/>
   </g>
   <g id="patch_4">
    <path d="M 972 961.2 
L 972 129.6 
" style="fill: none; stroke: #ffffff; stroke-width: 1.25; stroke-linejoin: miter; stroke-linecap: square"/>
   </g>
   <g id="patch_5">
    <path d="M 135 961.2 
L 972 961.2 
" style="fill: none; stroke: #ffffff; stroke-width: 1.25; stroke-linejoin: miter; stroke-linecap: square"/>
   </g>
   <g id="patch_6">
    <path d="M 135 129.6 
L 972 129.6 
" style="fill: none; stroke: #ffffff; stroke-width: 1.25; stroke-linejoin: miter; stroke-linecap: square"/>
   </g>
   <g id="legend_1">
    <g id="patch_7">
     <path d="M 142.7 258.641563 
L 210.9 258.641563 
Q 213.1 258.641563 213.1 256.441563 
L 213.1 137.3 
Q 213.1 135.1 210.9 135.1 
L 142.7 135.1 
Q 140.5 135.1 140.5 137.3 
L 140.5 256.441563 
Q 140.5 258.641563 142.7 258.641563 
z
" style="fill: #eaeaf2; opacity: 0.8; stroke: #cccccc; stroke-linejoin: miter"/>
    </g>
    <g id="text_15">
     <!-- 国家 -->
     <g style="fill: #262626" transform="translate(164.8 149.0925)scale(0.12 -0.12)">
      <defs>
       <path id="MicrosoftYaHei-56fd" d="M 469 4997 
L 5938 4997 
L 5938 -834 
L 5456 -834 
L 5456 -522 
L 950 -522 
L 950 -841 
L 469 -841 
L 469 4997 
z
M 5456 4553 
L 950 4553 
L 950 -78 
L 5456 -78 
L 5456 4553 
z
M 1238 1009 
L 2963 1009 
L 2963 2247 
L 1456 2247 
L 1456 2672 
L 2963 2672 
L 2963 3509 
L 1338 3509 
L 1338 3934 
L 5063 3934 
L 5063 3509 
L 3425 3509 
L 3425 2672 
L 4938 2672 
L 4938 2247 
L 3425 2247 
L 3425 1009 
L 5163 1009 
L 5163 584 
L 1238 584 
L 1238 1009 
z
M 3750 1847 
L 4100 2109 
Q 4444 1753 4688 1441 
L 4319 1159 
Q 4019 1566 3750 1847 
z
" transform="scale(0.015625)"/>
       <path id="MicrosoftYaHei-5bb6" d="M 194 -209 
Q 2081 331 3200 1556 
Q 3113 1738 2997 1903 
Q 2066 941 425 422 
Q 331 634 200 847 
Q 1809 1291 2703 2256 
Q 2600 2359 2478 2459 
Q 1650 1872 444 1497 
Q 325 1703 163 1941 
Q 1653 2272 2550 3053 
L 975 3053 
L 975 3503 
L 5438 3503 
L 5438 3053 
L 3169 3053 
Q 3009 2884 2825 2728 
Q 3316 2331 3588 1841 
Q 4566 2319 5325 2822 
L 5619 2422 
Q 5109 2116 4534 1816 
Q 5088 616 6331 141 
Q 6125 -97 5944 -347 
Q 4722 278 4131 1609 
Q 3953 1522 3769 1431 
Q 4125 103 3656 -503 
Q 3431 -772 2794 -772 
Q 2544 -772 2006 -753 
Q 1969 -509 1913 -234 
Q 2400 -291 2781 -291 
Q 3456 -328 3438 522 
Q 3428 803 3369 1063 
Q 2263 -28 419 -641 
Q 325 -434 194 -209 
z
M 331 4528 
L 3156 4528 
Q 2972 4806 2725 5122 
L 3163 5403 
Q 3444 5059 3675 4722 
L 3356 4528 
L 6063 4528 
L 6063 3459 
L 5563 3459 
L 5563 4066 
L 831 4066 
L 831 3459 
L 331 3459 
L 331 4528 
z
" transform="scale(0.015625)"/>
      </defs>
      <use xlink:href="#MicrosoftYaHei-56fd"/>
      <use xlink:href="#MicrosoftYaHei-5bb6" x="100"/>
     </g>
    </g>
    <g id="line2d_25">
     <path d="M 144.9 162.51875 
L 155.9 162.51875 
L 166.9 162.51875 
" style="fill: none; stroke: #4c72b0; stroke-width: 1.5; stroke-linecap: round"/>
    </g>
    <g id="text_16">
     <!-- 加拿大 -->
     <g style="fill: #262626" transform="translate(175.7 166.36875)scale(0.11 -0.11)">
      <defs>
       <path id="MicrosoftYaHei-52a0" d="M 3663 4484 
L 6038 4484 
L 6038 -666 
L 5544 -666 
L 5544 -34 
L 4156 -34 
L 4156 -666 
L 3663 -666 
L 3663 4484 
z
M 231 4178 
L 1103 4178 
Q 1109 4681 1106 5297 
L 1600 5297 
Q 1600 4675 1594 4178 
L 3050 4178 
Q 3019 1778 2969 409 
Q 2944 -716 2119 -672 
Q 1875 -672 1400 -653 
Q 1356 -391 1300 -109 
Q 1738 -166 2013 -166 
Q 2431 -178 2469 428 
Q 2538 1909 2550 3703 
L 1588 3703 
Q 1581 3225 1569 2891 
Q 1544 447 394 -872 
Q 238 -678 25 -453 
Q 1063 684 1081 2941 
Q 1094 3269 1100 3703 
L 231 3703 
L 231 4178 
z
M 5544 4022 
L 4156 4022 
L 4156 416 
L 5544 416 
L 5544 4022 
z
" transform="scale(0.015625)"/>
       <path id="MicrosoftYaHei-62ff" d="M 144 416 
L 3063 416 
L 3063 791 
L 725 791 
L 725 1128 
L 3063 1128 
L 3063 1522 
Q 1769 1478 681 1459 
Q 631 1722 594 1853 
Q 3613 1878 5500 2009 
L 5575 1616 
Q 4494 1572 3525 1534 
L 3525 1128 
L 5613 1128 
L 5613 791 
L 3525 791 
L 3525 416 
L 6231 416 
L 6231 53 
L 3525 53 
L 3525 -116 
Q 3525 -772 2881 -784 
Q 2544 -791 1925 -791 
Q 1894 -591 1838 -309 
Q 2381 -353 2725 -353 
Q 3063 -353 3063 -28 
L 3063 53 
L 144 53 
L 144 416 
z
M 1200 3428 
L 5200 3428 
L 5200 2184 
L 4763 2184 
L 4763 2272 
L 1638 2272 
L 1638 2141 
L 1200 2141 
L 1200 3428 
z
M 3663 5309 
L 3563 5209 
Q 4575 4253 6313 3859 
Q 6119 3616 6006 3403 
Q 5138 3672 4450 4047 
L 4450 3809 
L 1906 3809 
L 1906 4047 
Q 1206 3659 375 3322 
Q 225 3553 88 3716 
Q 1881 4366 3000 5309 
L 3663 5309 
z
M 4763 3078 
L 1638 3078 
L 1638 2622 
L 4763 2622 
L 4763 3078 
z
M 3244 4922 
Q 2725 4522 2100 4159 
L 4256 4159 
Q 3688 4497 3244 4922 
z
" transform="scale(0.015625)"/>
       <path id="MicrosoftYaHei-5927" d="M 88 -341 
Q 2666 806 2869 3103 
L 200 3103 
L 200 3591 
L 2891 3591 
Q 2906 4431 2906 5284 
L 3450 5284 
Q 3450 4444 3434 3591 
L 6206 3591 
L 6206 3103 
L 3425 3103 
Q 3869 606 6338 -191 
Q 6019 -497 5863 -697 
Q 3828 122 3203 2219 
Q 2716 322 475 -822 
Q 350 -653 88 -341 
z
" transform="scale(0.015625)"/>
      </defs>
      <use xlink:href="#MicrosoftYaHei-52a0"/>
      <use xlink:href="#MicrosoftYaHei-62ff" x="100"/>
      <use xlink:href="#MicrosoftYaHei-5927" x="200"/>
     </g>
    </g>
    <g id="line2d_26">
     <path d="M 144.9 179.546406 
L 155.9 179.546406 
L 166.9 179.546406 
" style="fill: none; stroke: #dd8452; stroke-width: 1.5; stroke-linecap: round"/>
    </g>
    <g id="text_17">
     <!-- 印度 -->
     <g style="fill: #262626" transform="translate(175.7 183.396406)scale(0.11 -0.11)">
      <defs>
       <path id="MicrosoftYaHei-5370" d="M 3281 4828 
L 5950 4828 
L 5950 1053 
Q 5950 228 5156 222 
Q 4756 216 4200 228 
Q 4169 503 4119 803 
Q 4681 753 5000 753 
Q 5438 747 5438 1209 
L 5438 4341 
L 3794 4341 
L 3794 -834 
L 3281 -834 
L 3281 4828 
z
M 3038 4872 
Q 2213 4647 994 4397 
L 994 2959 
L 2888 2959 
L 2888 2491 
L 994 2491 
L 994 553 
Q 1969 866 2925 1209 
Q 2925 941 2975 678 
Q 1925 334 1006 -28 
Q 788 -134 631 -278 
L 294 159 
Q 494 384 481 728 
L 481 4766 
Q 1831 5028 2800 5328 
L 3038 4872 
z
" transform="scale(0.015625)"/>
       <path id="MicrosoftYaHei-5ea6" d="M 1550 1216 
L 1550 1628 
L 5469 1628 
L 5469 1222 
Q 4903 613 4147 163 
Q 5050 -200 6263 -309 
L 6019 -797 
Q 4625 -603 3644 -109 
Q 2600 -619 1250 -866 
Q 1150 -666 994 -416 
Q 2231 -222 3166 166 
Q 2497 600 2066 1216 
L 1550 1216 
z
M 1363 3541 
L 2294 3541 
L 2294 4066 
L 2769 4066 
L 2769 3541 
L 4538 3541 
L 4538 4072 
L 5013 4072 
L 5013 3541 
L 6150 3541 
L 6150 3128 
L 5013 3128 
L 5013 1928 
L 4538 1928 
L 4538 2147 
L 2769 2147 
L 2769 1922 
L 2294 1922 
L 2294 3128 
L 1363 3128 
L 1363 3541 
z
M 3025 5172 
L 3481 5391 
Q 3694 5056 3909 4634 
L 6213 4634 
L 6213 4197 
L 1225 4197 
L 1225 2316 
Q 1225 178 394 -872 
Q 238 -666 38 -447 
Q 725 397 738 2347 
L 738 4634 
L 3331 4634 
Q 3188 4909 3025 5172 
z
M 2769 2547 
L 4538 2547 
L 4538 3128 
L 2769 3128 
L 2769 2547 
z
M 4819 1216 
L 2588 1216 
Q 3031 728 3656 391 
Q 4334 741 4819 1216 
z
" transform="scale(0.015625)"/>
      </defs>
      <use xlink:href="#MicrosoftYaHei-5370"/>
      <use xlink:href="#MicrosoftYaHei-5ea6" x="100"/>
     </g>
    </g>
    <g id="line2d_27">
     <path d="M 144.9 196.574063 
L 155.9 196.574063 
L 166.9 196.574063 
" style="fill: none; stroke: #55a868; stroke-width: 1.5; stroke-linecap: round"/>
    </g>
    <g id="text_18">
     <!-- 意大利 -->
     <g style="fill: #262626" transform="translate(175.7 200.424063)scale(0.11 -0.11)">
      <defs>
       <path id="MicrosoftYaHei-610f" d="M 2706 759 
L 3022 1028 
L 1419 1028 
L 1419 834 
L 956 834 
L 956 2997 
L 5406 2997 
L 5406 834 
L 4944 834 
L 4944 1028 
L 3038 1028 
Q 3447 681 3756 353 
L 3388 47 
Q 3125 353 2706 759 
z
M 150 3722 
L 1906 3722 
Q 1659 3956 1406 4172 
L 1594 4347 
L 538 4347 
L 538 4722 
L 3028 4722 
Q 2900 4984 2763 5216 
L 3188 5397 
Q 3391 5044 3538 4722 
L 5863 4722 
L 5863 4347 
L 4772 4347 
L 4988 4184 
Q 4738 3953 4472 3722 
L 6250 3722 
L 6250 3347 
L 150 3347 
L 150 3722 
z
M 1650 791 
L 2125 791 
L 2125 78 
Q 2125 -284 2538 -284 
L 3819 -284 
Q 4269 -284 4350 59 
Q 4413 297 4463 622 
Q 4681 528 4931 447 
Q 4856 91 4794 -128 
Q 4644 -709 3950 -709 
L 2438 -709 
Q 1650 -709 1650 34 
L 1650 791 
z
M 1419 1391 
L 4944 1391 
L 4944 1841 
L 1419 1841 
L 1419 1391 
z
M 4944 2634 
L 1419 2634 
L 1419 2191 
L 4944 2191 
L 4944 2634 
z
M 3925 3834 
Q 4178 4047 4481 4347 
L 1838 4347 
Q 2116 4141 2381 3909 
L 2191 3722 
L 4038 3722 
L 3925 3834 
z
M 656 759 
L 1094 591 
Q 869 22 569 -559 
Q 381 -472 131 -366 
Q 388 97 656 759 
z
M 5175 503 
L 5531 778 
Q 5975 303 6325 -116 
L 5931 -428 
Q 5550 72 5175 503 
z
" transform="scale(0.015625)"/>
       <path id="MicrosoftYaHei-5229" d="M 75 741 
Q 913 1653 1488 2997 
L 106 2997 
L 106 3453 
L 1606 3453 
L 1606 4391 
Q 963 4328 331 4272 
Q 288 4503 206 4747 
Q 1706 4866 3269 5066 
L 3394 4591 
Q 2731 4509 2081 4441 
L 2081 3453 
L 3500 3453 
L 3500 2997 
L 2081 2997 
L 2081 2159 
L 2356 2422 
Q 2944 1922 3525 1347 
L 3144 959 
Q 2763 1403 2081 2053 
L 2081 -828 
L 1606 -828 
L 1606 2297 
Q 1069 1084 325 178 
Q 156 584 75 741 
z
M 5444 5197 
L 5938 5197 
L 5938 -9 
Q 5938 -803 5138 -797 
Q 4881 -797 4306 -791 
Q 4269 -534 4213 -228 
Q 4719 -284 4981 -284 
Q 5444 -291 5444 184 
L 5444 5197 
z
M 3963 4572 
L 4438 4572 
L 4438 622 
L 3963 622 
L 3963 4572 
z
" transform="scale(0.015625)"/>
      </defs>
      <use xlink:href="#MicrosoftYaHei-610f"/>
      <use xlink:href="#MicrosoftYaHei-5927" x="100"/>
      <use xlink:href="#MicrosoftYaHei-5229" x="200"/>
     </g>
    </g>
    <g id="line2d_28">
     <path d="M 144.9 213.601719 
L 155.9 213.601719 
L 166.9 213.601719 
" style="fill: none; stroke: #c44e52; stroke-width: 1.5; stroke-linecap: round"/>
    </g>
    <g id="text_19">
     <!-- 伊朗 -->
     <g style="fill: #262626" transform="translate(175.7 217.451719)scale(0.11 -0.11)">
      <defs>
       <path id="MicrosoftYaHei-4f0a" d="M 1938 1709 
L 3109 1709 
Q 3169 2194 3175 2853 
L 1750 2853 
L 1750 3303 
L 3178 3303 
Q 3181 3706 3181 4434 
L 2163 4434 
L 2163 4872 
L 5675 4872 
L 5675 3303 
L 6306 3303 
L 6306 2853 
L 5675 2853 
L 5675 1003 
L 5200 1003 
L 5200 1272 
L 3525 1272 
Q 3325 -72 2138 -859 
Q 1994 -672 1794 -459 
Q 2850 228 3041 1272 
L 1938 1272 
L 1938 1709 
z
M 56 2391 
Q 1025 3697 1525 5347 
L 2031 5178 
Q 1722 4309 1356 3578 
L 1356 -816 
L 881 -816 
L 881 2722 
Q 584 2241 256 1834 
Q 169 2103 56 2391 
z
M 3584 1709 
L 5200 1709 
L 5200 2853 
L 3653 2853 
Q 3641 2206 3584 1709 
z
M 5200 4434 
L 3669 4434 
Q 3669 3744 3663 3303 
L 5200 3303 
L 5200 4434 
z
" transform="scale(0.015625)"/>
       <path id="MicrosoftYaHei-6717" d="M 3469 4953 
L 5894 4953 
L 5894 -34 
Q 5894 -697 5244 -697 
L 4425 -697 
Q 4419 -659 4350 -216 
Q 4838 -241 5175 -241 
Q 5419 -241 5419 -9 
L 5419 1366 
L 3891 1366 
Q 3700 -69 2813 -809 
Q 2638 -628 2425 -472 
Q 3469 341 3469 2247 
L 3469 4953 
z
M 1644 1147 
L 1950 1428 
Q 2525 903 2975 403 
L 2669 72 
Q 2525 238 2391 384 
Q 913 -356 656 -609 
L 369 -166 
Q 538 3 538 284 
L 538 4591 
L 1669 4591 
Q 1438 4859 1188 5072 
L 1538 5366 
Q 1825 5109 2063 4853 
L 1769 4591 
L 2844 4591 
L 2844 1503 
L 2381 1503 
L 2381 1759 
L 1000 1759 
L 1000 159 
Q 1572 444 2081 719 
Q 1841 972 1644 1147 
z
M 3931 1791 
L 5419 1791 
L 5419 2947 
L 3944 2947 
Q 3950 2203 3931 1791 
z
M 5419 4528 
L 3944 4528 
L 3944 3372 
L 5419 3372 
L 5419 4528 
z
M 1000 2172 
L 2381 2172 
L 2381 2978 
L 1000 2978 
L 1000 2172 
z
M 2381 4178 
L 1000 4178 
L 1000 3391 
L 2381 3391 
L 2381 4178 
z
" transform="scale(0.015625)"/>
      </defs>
      <use xlink:href="#MicrosoftYaHei-4f0a"/>
      <use xlink:href="#MicrosoftYaHei-6717" x="100"/>
     </g>
    </g>
    <g id="line2d_29">
     <path d="M 144.9 230.629375 
L 155.9 230.629375 
L 166.9 230.629375 
" style="fill: none; stroke: #8172b3; stroke-width: 1.5; stroke-linecap: round"/>
    </g>
    <g id="text_20">
     <!-- 秘鲁 -->
     <g style="fill: #262626" transform="translate(175.7 234.479375)scale(0.11 -0.11)">
      <defs>
       <path id="MicrosoftYaHei-79d8" d="M 2025 -72 
Q 2772 416 3363 1044 
L 3363 4347 
L 3831 4347 
L 3831 1597 
Q 4759 2822 5263 4716 
L 5750 4603 
Q 5097 2219 3831 813 
L 3831 259 
Q 3831 -116 4200 -116 
L 4688 -116 
Q 5138 -116 5181 259 
Q 5244 641 5269 1272 
Q 5519 1159 5769 1084 
Q 5719 453 5669 109 
Q 5575 -591 4756 -591 
L 4063 -591 
Q 3363 -591 3363 197 
L 3363 341 
Q 2894 -91 2350 -447 
Q 2263 -316 2025 -72 
z
M 106 878 
Q 672 1869 1003 3097 
L 225 3097 
L 225 3541 
L 1069 3541 
L 1069 4397 
Q 706 4369 294 4341 
Q 263 4553 200 4797 
Q 1475 4866 2425 5003 
L 2538 4528 
Q 2122 4484 1531 4434 
L 1531 3541 
L 2388 3541 
L 2388 3097 
L 1531 3097 
L 1531 2616 
L 1794 2791 
Q 2056 2403 2369 1816 
L 1981 1566 
Q 1713 2109 1531 2434 
L 1531 -784 
L 1069 -784 
L 1069 2166 
Q 766 1097 325 341 
Q 225 603 106 878 
z
M 2625 3028 
L 3094 2959 
Q 2950 1953 2781 1147 
Q 2469 1234 2319 1241 
Q 2519 2009 2625 3028 
z
M 5438 2922 
L 5906 3053 
Q 6150 2216 6325 1397 
L 5844 1272 
Q 5669 2166 5438 2922 
z
M 3581 5103 
L 4000 5366 
Q 4381 4834 4800 4159 
L 4350 3878 
Q 3975 4566 3581 5103 
z
" transform="scale(0.015625)"/>
       <path id="MicrosoftYaHei-9c81" d="M 119 3997 
Q 1119 4547 1700 5334 
L 2238 5334 
Q 2094 5150 1944 4978 
L 4331 4978 
L 4331 4641 
L 3919 4184 
L 5563 4184 
L 5563 2266 
L 5138 2266 
L 5138 2397 
L 1263 2397 
L 1263 2266 
L 838 2266 
L 838 3941 
Q 619 3775 394 3634 
Q 269 3828 119 3997 
z
M 950 1284 
L 5450 1284 
L 5450 -834 
L 5013 -834 
L 5013 -578 
L 1388 -578 
L 1388 -834 
L 950 -834 
L 950 1284 
z
M 175 2009 
L 6225 2009 
L 6225 1659 
L 175 1659 
L 175 2009 
z
M 5013 941 
L 1388 941 
L 1388 516 
L 5013 516 
L 5013 941 
z
M 1388 -234 
L 5013 -234 
L 5013 191 
L 1388 191 
L 1388 -234 
z
M 1141 4184 
L 3356 4184 
L 3744 4628 
L 1619 4628 
Q 1388 4391 1141 4184 
z
M 5138 3853 
L 3413 3853 
L 3413 3447 
L 5138 3447 
L 5138 3853 
z
M 1263 2728 
L 2988 2728 
L 2988 3134 
L 1263 3134 
L 1263 2728 
z
M 1263 3447 
L 2988 3447 
L 2988 3853 
L 1263 3853 
L 1263 3447 
z
M 3413 2728 
L 5138 2728 
L 5138 3134 
L 3413 3134 
L 3413 2728 
z
" transform="scale(0.015625)"/>
      </defs>
      <use xlink:href="#MicrosoftYaHei-79d8"/>
      <use xlink:href="#MicrosoftYaHei-9c81" x="100"/>
     </g>
    </g>
    <g id="line2d_30">
     <path d="M 144.9 247.657031 
L 155.9 247.657031 
L 166.9 247.657031 
" style="fill: none; stroke: #937860; stroke-width: 1.5; stroke-linecap: round"/>
    </g>
    <g id="text_21">
     <!-- 南非 -->
     <g style="fill: #262626" transform="translate(175.7 251.507031)scale(0.11 -0.11)">
      <defs>
       <path id="MicrosoftYaHei-5357" d="M 163 4553 
L 2969 4553 
L 2969 5259 
L 3481 5259 
L 3481 4553 
L 6219 4553 
L 6219 4109 
L 3481 4109 
L 3481 3472 
L 5875 3472 
L 5875 -72 
Q 5875 -803 5150 -809 
Q 4738 -816 4119 -791 
Q 4081 -559 4025 -278 
Q 4644 -316 4969 -316 
Q 5381 -316 5381 47 
L 5381 3034 
L 1056 3034 
L 1056 -834 
L 563 -834 
L 563 3472 
L 2969 3472 
L 2969 4109 
L 163 4109 
L 163 4553 
z
M 1300 909 
L 2975 909 
L 2975 1591 
L 1500 1591 
L 1500 2003 
L 3463 2003 
Q 3763 2453 4069 2991 
L 4531 2734 
Q 4225 2316 3975 2003 
L 4938 2003 
L 4938 1591 
L 3463 1591 
L 3463 909 
L 5138 909 
L 5138 497 
L 3463 497 
L 3463 -703 
L 2975 -703 
L 2975 497 
L 1300 497 
L 1300 909 
z
M 1913 2741 
L 2281 2991 
Q 2600 2622 2863 2272 
L 2450 2016 
Q 2200 2378 1913 2741 
z
" transform="scale(0.015625)"/>
       <path id="MicrosoftYaHei-975e" d="M 3688 5284 
L 4188 5284 
L 4188 4391 
L 6131 4391 
L 6131 3941 
L 4188 3941 
L 4188 2716 
L 6038 2716 
L 6038 2266 
L 4188 2266 
L 4188 1016 
L 6269 1016 
L 6269 566 
L 4188 566 
L 4188 -797 
L 3688 -797 
L 3688 5284 
z
M 150 1016 
L 2206 1016 
L 2206 2266 
L 375 2266 
L 375 2716 
L 2206 2716 
L 2206 3941 
L 275 3941 
L 275 4391 
L 2206 4391 
L 2206 5284 
L 2706 5284 
L 2706 -797 
L 2206 -797 
L 2206 566 
L 150 566 
L 150 1016 
z
" transform="scale(0.015625)"/>
      </defs>
      <use xlink:href="#MicrosoftYaHei-5357"/>
      <use xlink:href="#MicrosoftYaHei-975e" x="100"/>
     </g>
    </g>
   </g>
  </g>
 </g>
 <defs>
  <clipPath id="p0a6a396a5c">
   <rect x="135" y="129.6" width="837" height="831.6"/>
  </clipPath>
 </defs>
</svg>
