<?xml version="1.0" encoding="utf-8" standalone="no"?>
<!DOCTYPE svg PUBLIC "-//W3C//DTD SVG 1.1//EN"
        "http://www.w3.org/Graphics/SVG/1.1/DTD/svg11.dtd">
<svg xmlns:xlink="http://www.w3.org/1999/xlink" width="1080pt" height="1080pt" viewBox="0 0 1080 1080"
     xmlns="http://www.w3.org/2000/svg" version="1.1">
    <metadata>
        <rdf:RDF xmlns:dc="http://purl.org/dc/elements/1.1/" xmlns:cc="http://creativecommons.org/ns#"
                 xmlns:rdf="http://www.w3.org/1999/02/22-rdf-syntax-ns#">
            <cc:Work>
                <dc:type rdf:resource="http://purl.org/dc/dcmitype/StillImage"/>
                <dc:date>2021-12-15T09:45:02.464694</dc:date>
                <dc:format>image/svg+xml</dc:format>
                <dc:creator>
                    <cc:Agent>
                        <dc:title>Matplotlib v3.5.1, https://matplotlib.org/</dc:title>
                    </cc:Agent>
                </dc:creator>
            </cc:Work>
        </rdf:RDF>
    </metadata>
    <defs>
        <style type="text/css">*{stroke-linejoin: round; stroke-linecap: butt}</style>
    </defs>
    <g id="figure_1">
        <g id="patch_1">
            <path d="M 0 1080
L 1080 1080 
L 1080 0 
L 0 0 
z
" style="fill: #ffffff"/>
        </g>
        <g id="axes_1">
            <g id="patch_2">
                <path d="M 135 961.2
L 972 961.2 
L 972 129.6 
L 135 129.6 
z
" style="fill: #eaeaf2"/>
            </g>
            <g id="matplotlib.axis_1">
                <g id="xtick_1">
                    <g id="line2d_1">
                        <path d="M 197.590909 961.2
L 197.590909 129.6 
" clip-path="url(#pa08d84665c)" style="fill: none; stroke: #ffffff; stroke-linecap: round"/>
                    </g>
                    <g id="text_1">
                        <!-- 2020-02 -->
                        <g style="fill: #262626" transform="translate(175.859893 979.493125)scale(0.11 -0.11)">
                            <defs>
                                <path id="MicrosoftYaHei-32" d="M 2666 3572
Q 2666 3963 2419 4186 
Q 2172 4409 1747 4409 
Q 1447 4409 1140 4256 
Q 834 4103 569 3819 
L 569 4413 
Q 806 4659 1107 4790 
Q 1409 4922 1816 4922 
Q 2472 4922 2872 4570 
Q 3272 4219 3272 3619 
Q 3272 3084 3026 2693 
Q 2781 2303 2188 1894 
Q 1581 1475 1376 1294 
Q 1172 1113 1090 947 
Q 1009 781 1009 544 
L 3416 544 
L 3416 0 
L 372 0 
L 372 241 
Q 372 659 486 951 
Q 600 1244 862 1520 
Q 1125 1797 1681 2184 
Q 2250 2584 2458 2886 
Q 2666 3188 2666 3572 
z
" transform="scale(0.015625)"/>
                                <path id="MicrosoftYaHei-30" d="M 284 2325
Q 284 3606 709 4264 
Q 1134 4922 1941 4922 
Q 3478 4922 3478 2441 
Q 3478 1216 3045 567 
Q 2613 -81 1831 -81 
Q 1094 -81 689 534 
Q 284 1150 284 2325 
z
M 909 2353 
Q 909 425 1888 425 
Q 2850 425 2850 2384 
Q 2850 4413 1906 4413 
Q 909 4413 909 2353 
z
" transform="scale(0.015625)"/>
                                <path id="MicrosoftYaHei-2d" d="M 2328 1681
L 488 1681 
L 488 2153 
L 2328 2153 
L 2328 1681 
z
" transform="scale(0.015625)"/>
                            </defs>
                            <use xlink:href="#MicrosoftYaHei-32"/>
                            <use xlink:href="#MicrosoftYaHei-30" x="58.642578"/>
                            <use xlink:href="#MicrosoftYaHei-32" x="117.285156"/>
                            <use xlink:href="#MicrosoftYaHei-30" x="175.927734"/>
                            <use xlink:href="#MicrosoftYaHei-2d" x="234.570312"/>
                            <use xlink:href="#MicrosoftYaHei-30" x="277.832031"/>
                            <use xlink:href="#MicrosoftYaHei-32" x="336.474609"/>
                        </g>
                    </g>
                </g>
                <g id="xtick_2">
                    <g id="line2d_2">
                        <path d="M 339.954545 961.2
L 339.954545 129.6 
" clip-path="url(#pa08d84665c)" style="fill: none; stroke: #ffffff; stroke-linecap: round"/>
                    </g>
                    <g id="text_2">
                        <!-- 2020-03 -->
                        <g style="fill: #262626" transform="translate(318.22353 979.493125)scale(0.11 -0.11)">
                            <defs>
                                <path id="MicrosoftYaHei-33" d="M 447 809
Q 944 425 1569 425 
Q 2069 425 2361 670 
Q 2653 916 2653 1328 
Q 2653 2247 1338 2247 
L 934 2247 
L 934 2753 
L 1319 2753 
Q 2484 2753 2484 3616 
Q 2484 4413 1594 4413 
Q 1084 4413 634 4069 
L 634 4647 
Q 1109 4922 1744 4922 
Q 2363 4922 2738 4598 
Q 3113 4275 3113 3759 
Q 3113 2809 2144 2538 
L 2144 2525 
Q 2669 2469 2973 2155 
Q 3278 1841 3278 1372 
Q 3278 719 2808 319 
Q 2338 -81 1556 -81 
Q 869 -81 447 175 
L 447 809 
z
" transform="scale(0.015625)"/>
                            </defs>
                            <use xlink:href="#MicrosoftYaHei-32"/>
                            <use xlink:href="#MicrosoftYaHei-30" x="58.642578"/>
                            <use xlink:href="#MicrosoftYaHei-32" x="117.285156"/>
                            <use xlink:href="#MicrosoftYaHei-30" x="175.927734"/>
                            <use xlink:href="#MicrosoftYaHei-2d" x="234.570312"/>
                            <use xlink:href="#MicrosoftYaHei-30" x="277.832031"/>
                            <use xlink:href="#MicrosoftYaHei-33" x="336.474609"/>
                        </g>
                    </g>
                </g>
                <g id="xtick_3">
                    <g id="line2d_3">
                        <path d="M 492.136364 961.2
L 492.136364 129.6 
" clip-path="url(#pa08d84665c)" style="fill: none; stroke: #ffffff; stroke-linecap: round"/>
                    </g>
                    <g id="text_3">
                        <!-- 2020-04 -->
                        <g style="fill: #262626" transform="translate(470.405348 979.493125)scale(0.11 -0.11)">
                            <defs>
                                <path id="MicrosoftYaHei-34" d="M 2906 4841
L 2906 1644 
L 3631 1644 
L 3631 1138 
L 2906 1138 
L 2906 0 
L 2313 0 
L 2313 1138 
L 53 1138 
L 53 1616 
Q 656 2294 1265 3178 
Q 1875 4063 2272 4841 
L 2906 4841 
z
M 741 1644 
L 2313 1644 
L 2313 3950 
Q 1988 3366 1616 2817 
Q 1244 2269 741 1644 
z
" transform="scale(0.015625)"/>
                            </defs>
                            <use xlink:href="#MicrosoftYaHei-32"/>
                            <use xlink:href="#MicrosoftYaHei-30" x="58.642578"/>
                            <use xlink:href="#MicrosoftYaHei-32" x="117.285156"/>
                            <use xlink:href="#MicrosoftYaHei-30" x="175.927734"/>
                            <use xlink:href="#MicrosoftYaHei-2d" x="234.570312"/>
                            <use xlink:href="#MicrosoftYaHei-30" x="277.832031"/>
                            <use xlink:href="#MicrosoftYaHei-34" x="336.474609"/>
                        </g>
                    </g>
                </g>
                <g id="xtick_4">
                    <g id="line2d_4">
                        <path d="M 639.409091 961.2
L 639.409091 129.6 
" clip-path="url(#pa08d84665c)" style="fill: none; stroke: #ffffff; stroke-linecap: round"/>
                    </g>
                    <g id="text_4">
                        <!-- 2020-05 -->
                        <g style="fill: #262626" transform="translate(617.678075 979.493125)scale(0.11 -0.11)">
                            <defs>
                                <path id="MicrosoftYaHei-35" d="M 3294 1494
Q 3294 784 2823 350 
Q 2353 -84 1559 -84 
Q 878 -84 544 119 
L 544 744 
Q 1034 425 1544 425 
Q 2050 425 2361 704 
Q 2672 984 2672 1447 
Q 2672 1909 2348 2167 
Q 2025 2425 1434 2425 
Q 978 2425 613 2384 
L 791 4841 
L 3053 4841 
L 3053 4303 
L 1306 4303 
L 1206 2931 
L 1647 2950 
Q 2416 2950 2855 2567 
Q 3294 2184 3294 1494 
z
" transform="scale(0.015625)"/>
                            </defs>
                            <use xlink:href="#MicrosoftYaHei-32"/>
                            <use xlink:href="#MicrosoftYaHei-30" x="58.642578"/>
                            <use xlink:href="#MicrosoftYaHei-32" x="117.285156"/>
                            <use xlink:href="#MicrosoftYaHei-30" x="175.927734"/>
                            <use xlink:href="#MicrosoftYaHei-2d" x="234.570312"/>
                            <use xlink:href="#MicrosoftYaHei-30" x="277.832031"/>
                            <use xlink:href="#MicrosoftYaHei-35" x="336.474609"/>
                        </g>
                    </g>
                </g>
                <g id="xtick_5">
                    <g id="line2d_5">
                        <path d="M 791.590909 961.2
L 791.590909 129.6 
" clip-path="url(#pa08d84665c)" style="fill: none; stroke: #ffffff; stroke-linecap: round"/>
                    </g>
                    <g id="text_5">
                        <!-- 2020-06 -->
                        <g style="fill: #262626" transform="translate(769.859893 979.493125)scale(0.11 -0.11)">
                            <defs>
                                <path id="MicrosoftYaHei-36" d="M 3181 4219
Q 2803 4413 2391 4413 
Q 1763 4413 1381 3866 
Q 1000 3319 994 2372 
L 1009 2372 
Q 1353 3038 2106 3038 
Q 2734 3038 3109 2628 
Q 3484 2219 3484 1541 
Q 3484 831 3051 375 
Q 2619 -81 1947 -81 
Q 1209 -81 789 495 
Q 369 1072 369 2131 
Q 369 3413 920 4167 
Q 1472 4922 2372 4922 
Q 2888 4922 3181 4781 
L 3181 4219 
z
M 1031 1584 
Q 1031 1106 1286 765 
Q 1541 425 1963 425 
Q 2363 425 2613 719 
Q 2863 1013 2863 1475 
Q 2863 1975 2627 2253 
Q 2391 2531 1956 2531 
Q 1544 2531 1287 2250 
Q 1031 1969 1031 1584 
z
" transform="scale(0.015625)"/>
                            </defs>
                            <use xlink:href="#MicrosoftYaHei-32"/>
                            <use xlink:href="#MicrosoftYaHei-30" x="58.642578"/>
                            <use xlink:href="#MicrosoftYaHei-32" x="117.285156"/>
                            <use xlink:href="#MicrosoftYaHei-30" x="175.927734"/>
                            <use xlink:href="#MicrosoftYaHei-2d" x="234.570312"/>
                            <use xlink:href="#MicrosoftYaHei-30" x="277.832031"/>
                            <use xlink:href="#MicrosoftYaHei-36" x="336.474609"/>
                        </g>
                    </g>
                </g>
                <g id="xtick_6">
                    <g id="line2d_6">
                        <path d="M 938.863636 961.2
L 938.863636 129.6 
" clip-path="url(#pa08d84665c)" style="fill: none; stroke: #ffffff; stroke-linecap: round"/>
                    </g>
                    <g id="text_6">
                        <!-- 2020-07 -->
                        <g style="fill: #262626" transform="translate(917.132621 979.493125)scale(0.11 -0.11)">
                            <defs>
                                <path id="MicrosoftYaHei-37" d="M 3422 4463
Q 2659 3131 2223 1998 
Q 1788 866 1684 0 
L 1047 0 
Q 1163 853 1594 1947 
Q 2025 3041 2747 4300 
L 347 4300 
L 347 4841 
L 3422 4841 
L 3422 4463 
z
" transform="scale(0.015625)"/>
                            </defs>
                            <use xlink:href="#MicrosoftYaHei-32"/>
                            <use xlink:href="#MicrosoftYaHei-30" x="58.642578"/>
                            <use xlink:href="#MicrosoftYaHei-32" x="117.285156"/>
                            <use xlink:href="#MicrosoftYaHei-30" x="175.927734"/>
                            <use xlink:href="#MicrosoftYaHei-2d" x="234.570312"/>
                            <use xlink:href="#MicrosoftYaHei-30" x="277.832031"/>
                            <use xlink:href="#MicrosoftYaHei-37" x="336.474609"/>
                        </g>
                    </g>
                </g>
                <g id="text_7">
                    <!-- 日期 -->
                    <g style="fill: #262626" transform="translate(541.5 995.820156)scale(0.12 -0.12)">
                        <defs>
                            <path id="MicrosoftYaHei-65e5" d="M 975 4909
L 5431 4909 
L 5431 -766 
L 4900 -766 
L 4900 -322 
L 1506 -322 
L 1506 -766 
L 975 -766 
L 975 4909 
z
M 1506 2103 
L 1506 134 
L 4900 134 
L 4900 2103 
L 1506 2103 
z
M 1506 4441 
L 1506 2572 
L 4900 2572 
L 4900 4441 
L 1506 4441 
z
" transform="scale(0.015625)"/>
                            <path id="MicrosoftYaHei-671f" d="M 3769 5066
L 5981 5066 
L 5981 -3 
Q 5981 -741 5281 -741 
Q 4931 -741 4594 -722 
Q 4569 -516 4519 -241 
Q 4975 -284 5175 -284 
Q 5519 -284 5519 59 
L 5519 1372 
L 4181 1372 
Q 4113 3 3350 -903 
Q 3181 -728 2975 -553 
Q 3481 28 3619 653 
Q 3769 1253 3769 2741 
L 3769 5066 
z
M 125 1141 
L 713 1141 
L 713 4028 
L 200 4028 
L 200 4453 
L 713 4453 
L 713 5216 
L 1175 5216 
L 1175 4453 
L 2475 4453 
L 2475 5241 
L 2938 5241 
L 2938 4453 
L 3444 4453 
L 3444 4028 
L 2938 4028 
L 2938 1141 
L 3438 1141 
L 3438 716 
L 125 716 
L 125 1141 
z
M 4209 1784 
L 5519 1784 
L 5519 3009 
L 4231 3009 
Q 4238 2203 4209 1784 
z
M 5519 4641 
L 4231 4641 
L 4231 3422 
L 5519 3422 
L 5519 4641 
z
M 1175 1141 
L 2475 1141 
L 2475 1841 
L 1175 1841 
L 1175 1141 
z
M 1175 2241 
L 2475 2241 
L 2475 2934 
L 1175 2934 
L 1175 2241 
z
M 1175 3334 
L 2475 3334 
L 2475 4028 
L 1175 4028 
L 1175 3334 
z
M 1175 597 
L 1556 297 
Q 925 -384 406 -847 
Q 275 -697 75 -516 
Q 669 -9 1175 597 
z
M 1994 303 
L 2294 609 
Q 2731 284 3119 -47 
L 2788 -403 
Q 2438 -53 1994 303 
z
" transform="scale(0.015625)"/>
                        </defs>
                        <use xlink:href="#MicrosoftYaHei-65e5"/>
                        <use xlink:href="#MicrosoftYaHei-671f" x="100"/>
                    </g>
                </g>
            </g>
            <g id="matplotlib.axis_2">
                <g id="ytick_1">
                    <g id="line2d_7">
                        <path d="M 135 923.4
L 972 923.4 
" clip-path="url(#pa08d84665c)" style="fill: none; stroke: #ffffff; stroke-linecap: round"/>
                    </g>
                    <g id="text_8">
                        <!-- 0 -->
                        <g style="fill: #262626" transform="translate(119.049531 927.796562)scale(0.11 -0.11)">
                            <use xlink:href="#MicrosoftYaHei-30"/>
                        </g>
                    </g>
                </g>
                <g id="ytick_2">
                    <g id="line2d_8">
                        <path d="M 135 828.453753
L 972 828.453753 
" clip-path="url(#pa08d84665c)" style="fill: none; stroke: #ffffff; stroke-linecap: round"/>
                    </g>
                    <g id="text_9">
                        <!-- 2500 -->
                        <g style="fill: #262626" transform="translate(99.698125 832.850315)scale(0.11 -0.11)">
                            <use xlink:href="#MicrosoftYaHei-32"/>
                            <use xlink:href="#MicrosoftYaHei-35" x="58.642578"/>
                            <use xlink:href="#MicrosoftYaHei-30" x="117.285156"/>
                            <use xlink:href="#MicrosoftYaHei-30" x="175.927734"/>
                        </g>
                    </g>
                </g>
                <g id="ytick_3">
                    <g id="line2d_9">
                        <path d="M 135 733.507505
L 972 733.507505 
" clip-path="url(#pa08d84665c)" style="fill: none; stroke: #ffffff; stroke-linecap: round"/>
                    </g>
                    <g id="text_10">
                        <!-- 5000 -->
                        <g style="fill: #262626" transform="translate(99.698125 737.904068)scale(0.11 -0.11)">
                            <use xlink:href="#MicrosoftYaHei-35"/>
                            <use xlink:href="#MicrosoftYaHei-30" x="58.642578"/>
                            <use xlink:href="#MicrosoftYaHei-30" x="117.285156"/>
                            <use xlink:href="#MicrosoftYaHei-30" x="175.927734"/>
                        </g>
                    </g>
                </g>
                <g id="ytick_4">
                    <g id="line2d_10">
                        <path d="M 135 638.561258
L 972 638.561258 
" clip-path="url(#pa08d84665c)" style="fill: none; stroke: #ffffff; stroke-linecap: round"/>
                    </g>
                    <g id="text_11">
                        <!-- 7500 -->
                        <g style="fill: #262626" transform="translate(99.698125 642.95782)scale(0.11 -0.11)">
                            <use xlink:href="#MicrosoftYaHei-37"/>
                            <use xlink:href="#MicrosoftYaHei-35" x="58.642578"/>
                            <use xlink:href="#MicrosoftYaHei-30" x="117.285156"/>
                            <use xlink:href="#MicrosoftYaHei-30" x="175.927734"/>
                        </g>
                    </g>
                </g>
                <g id="ytick_5">
                    <g id="line2d_11">
                        <path d="M 135 543.615011
L 972 543.615011 
" clip-path="url(#pa08d84665c)" style="fill: none; stroke: #ffffff; stroke-linecap: round"/>
                    </g>
                    <g id="text_12">
                        <!-- 10000 -->
                        <g style="fill: #262626" transform="translate(93.247656 548.011573)scale(0.11 -0.11)">
                            <defs>
                                <path id="MicrosoftYaHei-31" d="M 1781 0
L 1781 4141 
Q 1638 3997 1295 3819 
Q 953 3641 663 3569 
L 663 4169 
Q 1047 4275 1484 4508 
Q 1922 4741 2156 4947 
L 2388 4947 
L 2388 0 
L 1781 0 
z
" transform="scale(0.015625)"/>
                            </defs>
                            <use xlink:href="#MicrosoftYaHei-31"/>
                            <use xlink:href="#MicrosoftYaHei-30" x="58.642578"/>
                            <use xlink:href="#MicrosoftYaHei-30" x="117.285156"/>
                            <use xlink:href="#MicrosoftYaHei-30" x="175.927734"/>
                            <use xlink:href="#MicrosoftYaHei-30" x="234.570312"/>
                        </g>
                    </g>
                </g>
                <g id="ytick_6">
                    <g id="line2d_12">
                        <path d="M 135 448.668763
L 972 448.668763 
" clip-path="url(#pa08d84665c)" style="fill: none; stroke: #ffffff; stroke-linecap: round"/>
                    </g>
                    <g id="text_13">
                        <!-- 12500 -->
                        <g style="fill: #262626" transform="translate(93.247656 453.065326)scale(0.11 -0.11)">
                            <use xlink:href="#MicrosoftYaHei-31"/>
                            <use xlink:href="#MicrosoftYaHei-32" x="58.642578"/>
                            <use xlink:href="#MicrosoftYaHei-35" x="117.285156"/>
                            <use xlink:href="#MicrosoftYaHei-30" x="175.927734"/>
                            <use xlink:href="#MicrosoftYaHei-30" x="234.570312"/>
                        </g>
                    </g>
                </g>
                <g id="ytick_7">
                    <g id="line2d_13">
                        <path d="M 135 353.722516
L 972 353.722516 
" clip-path="url(#pa08d84665c)" style="fill: none; stroke: #ffffff; stroke-linecap: round"/>
                    </g>
                    <g id="text_14">
                        <!-- 15000 -->
                        <g style="fill: #262626" transform="translate(93.247656 358.119078)scale(0.11 -0.11)">
                            <use xlink:href="#MicrosoftYaHei-31"/>
                            <use xlink:href="#MicrosoftYaHei-35" x="58.642578"/>
                            <use xlink:href="#MicrosoftYaHei-30" x="117.285156"/>
                            <use xlink:href="#MicrosoftYaHei-30" x="175.927734"/>
                            <use xlink:href="#MicrosoftYaHei-30" x="234.570312"/>
                        </g>
                    </g>
                </g>
                <g id="ytick_8">
                    <g id="line2d_14">
                        <path d="M 135 258.776268
L 972 258.776268 
" clip-path="url(#pa08d84665c)" style="fill: none; stroke: #ffffff; stroke-linecap: round"/>
                    </g>
                    <g id="text_15">
                        <!-- 17500 -->
                        <g style="fill: #262626" transform="translate(93.247656 263.172831)scale(0.11 -0.11)">
                            <use xlink:href="#MicrosoftYaHei-31"/>
                            <use xlink:href="#MicrosoftYaHei-37" x="58.642578"/>
                            <use xlink:href="#MicrosoftYaHei-35" x="117.285156"/>
                            <use xlink:href="#MicrosoftYaHei-30" x="175.927734"/>
                            <use xlink:href="#MicrosoftYaHei-30" x="234.570312"/>
                        </g>
                    </g>
                </g>
                <g id="ytick_9">
                    <g id="line2d_15">
                        <path d="M 135 163.830021
L 972 163.830021 
" clip-path="url(#pa08d84665c)" style="fill: none; stroke: #ffffff; stroke-linecap: round"/>
                    </g>
                    <g id="text_16">
                        <!-- 20000 -->
                        <g style="fill: #262626" transform="translate(93.247656 168.226584)scale(0.11 -0.11)">
                            <use xlink:href="#MicrosoftYaHei-32"/>
                            <use xlink:href="#MicrosoftYaHei-30" x="58.642578"/>
                            <use xlink:href="#MicrosoftYaHei-30" x="117.285156"/>
                            <use xlink:href="#MicrosoftYaHei-30" x="175.927734"/>
                            <use xlink:href="#MicrosoftYaHei-30" x="234.570312"/>
                        </g>
                    </g>
                </g>
                <g id="text_17">
                    <!-- 新增确诊 -->
                    <g style="fill: #262626" transform="translate(86.264531 569.4)rotate(-90)scale(0.12 -0.12)">
                        <defs>
                            <path id="MicrosoftYaHei-65b0" d="M 3594 4797
Q 4888 4809 5981 5053 
L 6144 4572 
Q 4906 4409 4038 4359 
L 4038 2903 
L 6319 2903 
L 6319 2478 
L 5425 2478 
L 5425 -797 
L 4963 -797 
L 4963 2478 
L 4038 2478 
L 4038 2172 
Q 4038 253 3119 -816 
Q 2969 -622 2788 -416 
Q 3594 466 3594 2191 
L 3594 4797 
z
M 263 1991 
L 1538 1991 
L 1538 2584 
L 1988 2584 
L 1988 1991 
L 3213 1991 
L 3213 1591 
L 1988 1591 
L 1988 -41 
Q 1988 -703 1350 -703 
Q 1081 -703 744 -697 
Q 719 -491 675 -222 
Q 1038 -259 1244 -259 
Q 1538 -259 1538 59 
L 1538 1591 
L 263 1591 
L 263 1991 
z
M 88 3159 
L 1094 3159 
Q 828 3581 594 3884 
L 931 4122 
Q 1138 3872 1463 3416 
L 1109 3159 
L 1934 3159 
Q 2275 3650 2563 4128 
L 3006 3878 
Q 2703 3488 2428 3159 
L 3375 3159 
L 3375 2759 
L 88 2759 
L 88 3159 
z
M 288 4609 
L 1638 4609 
Q 1503 4866 1331 5166 
L 1731 5353 
Q 1925 5034 2094 4709 
L 1884 4609 
L 3213 4609 
L 3213 4209 
L 288 4209 
L 288 4609 
z
M 744 1309 
L 1169 1109 
Q 831 403 500 -166 
Q 319 -53 88 59 
Q 394 534 744 1309 
z
M 2544 1278 
Q 2894 803 3156 403 
L 2756 128 
Q 2481 609 2175 1034 
L 2544 1278 
z
" transform="scale(0.015625)"/>
                            <path id="MicrosoftYaHei-589e" d="M 2188 4459
L 3259 4459 
Q 3041 4781 2775 5116 
L 3131 5366 
Q 3456 4991 3694 4666 
L 3403 4459 
L 4453 4459 
Q 4759 4888 5050 5372 
L 5500 5116 
Q 5234 4772 4978 4459 
L 6038 4459 
L 6038 2122 
L 5600 2122 
L 5600 2309 
L 2625 2309 
L 2625 2122 
L 2188 2122 
L 2188 4459 
z
M 2438 1797 
L 5788 1797 
L 5788 -847 
L 5338 -847 
L 5338 -547 
L 2888 -547 
L 2888 -847 
L 2438 -847 
L 2438 1797 
z
M 81 428 
Q 466 538 894 672 
L 894 3253 
L 144 3253 
L 144 3697 
L 894 3697 
L 894 5259 
L 1356 5259 
L 1356 3697 
L 2000 3697 
L 2000 3253 
L 1356 3253 
L 1356 819 
Q 1709 931 2094 1059 
Q 2106 759 2125 553 
Q 1306 316 250 -53 
L 81 428 
z
M 5600 4084 
L 4325 4084 
L 4325 2684 
L 5600 2684 
L 5600 4084 
z
M 2625 2684 
L 3894 2684 
L 3894 4084 
L 2625 4084 
L 2625 2684 
z
M 5338 1409 
L 2888 1409 
L 2888 809 
L 5338 809 
L 5338 1409 
z
M 2888 -159 
L 5338 -159 
L 5338 434 
L 2888 434 
L 2888 -159 
z
M 5350 3609 
Q 5006 3066 4856 2884 
L 4519 3084 
Q 4744 3391 4981 3828 
L 5350 3609 
z
M 2863 3597 
L 3181 3803 
Q 3463 3441 3669 3122 
L 3319 2897 
Q 3119 3228 2863 3597 
z
" transform="scale(0.015625)"/>
                            <path id="MicrosoftYaHei-786e" d="M 2075 3453
Q 2956 4334 3456 5359 
L 3931 5272 
Q 3781 4991 3619 4722 
L 5438 4722 
L 5438 4328 
L 4909 3666 
L 6063 3666 
L 6063 -53 
Q 6063 -728 5475 -728 
Q 5144 -728 4906 -716 
Q 4869 -497 4813 -259 
Q 5156 -291 5331 -291 
Q 5619 -291 5619 16 
L 5619 734 
L 4588 734 
L 4588 -659 
L 4144 -659 
L 4144 734 
L 3113 734 
Q 2944 -263 2444 -884 
Q 2288 -703 2081 -509 
Q 2756 291 2756 1841 
L 2756 3506 
Q 2597 3316 2431 3134 
Q 2281 3278 2075 3453 
z
M 31 1691 
Q 741 2834 1066 4291 
L 231 4291 
L 231 4716 
L 2469 4716 
L 2469 4291 
L 1509 4291 
Q 1356 3613 1128 2991 
L 2200 2991 
L 2200 128 
L 1150 128 
L 1150 -347 
L 738 -347 
L 738 2059 
Q 559 1691 350 1347 
Q 225 1497 31 1691 
z
M 1788 541 
L 1788 2578 
L 1150 2578 
L 1150 541 
L 1788 541 
z
M 4875 4322 
L 3366 4322 
Q 3138 3981 2884 3666 
L 4384 3666 
L 4875 4322 
z
M 4588 1134 
L 5619 1134 
L 5619 1991 
L 4588 1991 
L 4588 1134 
z
M 5619 3241 
L 4588 3241 
L 4588 2391 
L 5619 2391 
L 5619 3241 
z
M 3166 1134 
L 4144 1134 
L 4144 1991 
L 3200 1991 
Q 3200 1841 3166 1134 
z
M 3200 2391 
L 4144 2391 
L 4144 3241 
L 3200 3241 
L 3200 2391 
z
" transform="scale(0.015625)"/>
                            <path id="MicrosoftYaHei-8bca" d="M 2069 997
Q 2094 678 2138 447 
Q 1569 16 1238 -259 
Q 1106 -378 956 -547 
L 600 -153 
Q 794 53 794 422 
L 794 2753 
L 88 2753 
L 88 3216 
L 1281 3216 
L 1281 353 
Q 1656 653 2069 997 
z
M 931 5172 
Q 1419 4691 1919 4134 
L 1481 3766 
Q 969 4428 556 4853 
L 931 5172 
z
M 4325 5278 
L 4238 5122 
Q 4894 3872 6319 3222 
Q 6113 2953 5981 2766 
Q 4569 3591 3963 4691 
Q 3400 3666 1925 2734 
Q 1731 2991 1575 3172 
Q 3144 3966 3750 5278 
L 4325 5278 
z
M 1963 -391 
Q 4413 328 5619 1622 
L 5988 1284 
Q 4719 -78 2219 -872 
Q 2094 -628 1963 -391 
z
M 2163 2253 
Q 3494 2803 4163 3597 
L 4556 3303 
Q 3794 2441 2438 1822 
Q 2294 2053 2163 2253 
z
M 2331 984 
Q 3969 1653 4931 2616 
L 5288 2284 
Q 4275 1241 2594 541 
Q 2500 709 2331 984 
z
" transform="scale(0.015625)"/>
                        </defs>
                        <use xlink:href="#MicrosoftYaHei-65b0"/>
                        <use xlink:href="#MicrosoftYaHei-589e" x="100"/>
                        <use xlink:href="#MicrosoftYaHei-786e" x="200"/>
                        <use xlink:href="#MicrosoftYaHei-8bca" x="300"/>
                    </g>
                </g>
            </g>
            <g id="line2d_16">
                <path d="M 173.045455 923.4
L 335.045455 923.324043 
L 344.863636 923.248086 
L 349.772727 923.4 
L 354.681818 923.172129 
L 359.590909 923.286065 
L 364.5 922.830323 
L 369.409091 923.210108 
L 374.318182 923.134151 
L 379.227273 923.172129 
L 389.045455 922.792344 
L 393.954545 922.868301 
L 398.863636 921.804903 
L 408.681818 921.311183 
L 413.590909 919.981935 
L 418.5 919.868 
L 423.409091 917.361419 
L 428.318182 918.386838 
L 433.227273 915.956214 
L 438.136364 914.930795 
L 443.045455 914.626967 
L 447.954545 919.792043 
L 452.863636 899.891309 
L 457.772727 892.979222 
L 462.681818 903.765116 
L 467.590909 899.321632 
L 472.5 896.169416 
L 477.409091 881.357802 
L 482.318182 892.865287 
L 487.227273 893.890706 
L 492.136364 863.811735 
L 497.045455 881.471737 
L 501.954545 879.268984 
L 506.863636 875.471134 
L 511.772727 867.305757 
L 516.681818 866.812037 
L 521.590909 879.572812 
L 526.5 876.648468 
L 531.409091 870.913714 
L 536.318182 866.963951 
L 541.227273 870.875736 
L 546.136364 878.965156 
L 551.045455 882.91492 
L 555.954545 855.83625 
L 560.863636 889.181372 
L 565.772727 853.937325 
L 570.681818 855.912207 
L 575.590909 857.241455 
L 580.5 866.052467 
L 585.409091 867.571607 
L 590.318182 847.822787 
L 595.227273 883.902361 
L 600.136364 832.175646 
L 605.045455 850.253411 
L 609.954545 862.102703 
L 614.863636 869.204682 
L 619.772727 865.065026 
L 624.681818 878.851221 
L 629.590909 852.266271 
L 634.5 876.914317 
L 639.409091 845.164292 
L 644.318182 850.671175 
L 649.227273 880.028554 
L 654.136364 818.579343 
L 659.045455 874.103908 
L 663.954545 875.015392 
L 668.863636 868.331177 
L 673.772727 869.242661 
L 678.681818 852.835949 
L 683.590909 877.218145 
L 688.5 879.344941 
L 693.409091 878.3575 
L 698.318182 879.952597 
L 703.227273 883.522576 
L 708.136364 890.548598 
L 713.045455 862.520466 
L 722.863636 893.093158 
L 727.772727 866.546187 
L 732.681818 900.11918 
L 737.590909 923.4 
L 742.5 839.39156 
L 747.409091 863.849714 
L 752.318182 878.243565 
L 757.227273 899.929288 
L 762.136364 874.06593 
L 767.045455 898.751954 
L 771.954545 890.282749 
L 776.863636 885.687351 
L 781.772727 877.142188 
L 786.681818 893.5489 
L 791.590909 891.687953 
L 796.5 893.017201 
L 801.409091 900.726836 
L 806.318182 897.0809 
L 811.227273 912.576128 
L 816.136364 900.271094 
L 821.045455 895.979524 
L 825.954545 899.017804 
L 830.863636 902.701718 
L 835.772727 907.866794 
L 840.681818 897.764513 
L 845.590909 915.728343 
L 850.5 907.71488 
L 855.409091 905.664041 
L 860.318182 909.082106 
L 865.227273 909.72774 
L 870.136364 911.24688 
L 875.045455 908.740299 
L 879.954545 909.461891 
L 884.863636 907.866794 
L 889.772727 908.588385 
L 894.681818 911.322837 
L 899.590909 912.00645 
L 904.5 911.019009 
L 909.409091 912.803999 
L 914.318182 908.96817 
L 919.227273 916.867698 
L 924.136364 914.361117 
L 929.045455 915.120687 
L 933.954545 898.030363 
L 933.954545 898.030363 
" clip-path="url(#pa08d84665c)" style="fill: none; stroke: #4c72b0; stroke-width: 1.5; stroke-linecap: round"/>
            </g>
            <g id="line2d_17">
                <path d="M 187.772727 923.4
L 344.863636 923.4 
L 349.772727 923.286065 
L 359.590909 922.868301 
L 364.5 923.324043 
L 369.409091 923.324043 
L 374.318182 923.172129 
L 379.227273 923.4 
L 384.136364 922.678409 
L 389.045455 923.286065 
L 393.954545 922.944258 
L 403.772727 923.286065 
L 408.681818 922.526495 
L 413.590909 923.286065 
L 418.5 922.374581 
L 423.409091 922.868301 
L 428.318182 922.564473 
L 433.227273 921.501075 
L 438.136364 921.12129 
L 443.045455 921.197247 
L 447.954545 920.589591 
L 452.863636 919.450236 
L 457.772727 920.095871 
L 462.681818 921.766925 
L 467.590909 920.551613 
L 472.5 916.032171 
L 477.409091 919.374279 
L 482.318182 914.778881 
L 487.227273 917.209505 
L 492.136364 914.930795 
L 497.045455 906.993288 
L 501.954545 905.246278 
L 506.863636 909.917633 
L 511.772727 897.764513 
L 516.681818 896.663137 
L 521.590909 904.106923 
L 526.5 904.980428 
L 531.409091 900.954707 
L 536.318182 889.371265 
L 541.227273 894.232513 
L 546.136364 888.535738 
L 551.045455 889.029458 
L 555.954545 867.837456 
L 560.863636 880.940038 
L 565.772727 892.02976 
L 570.681818 882.535135 
L 575.590909 887.016598 
L 580.5 873.154446 
L 585.409091 864.913112 
L 590.318182 872.926575 
L 595.227273 866.963951 
L 600.136364 876.724425 
L 605.045455 856.86167 
L 609.954545 866.812037 
L 614.863636 848.392465 
L 619.772727 867.837456 
L 624.681818 862.862273 
L 629.590909 854.544981 
L 634.5 871.255521 
L 639.409091 839.65741 
L 644.318182 831.833839 
L 649.227273 839.695388 
L 654.136364 826.440892 
L 659.045455 764.725831 
L 663.954545 821.617623 
L 668.863636 784.626565 
L 673.772727 798.184889 
L 678.681818 797.311384 
L 683.590909 798.944459 
L 688.5 742.584367 
L 693.409091 807.337707 
L 698.318182 789.525791 
L 703.227273 782.044027 
L 708.136364 772.739295 
L 713.045455 772.625359 
L 717.954545 734.001226 
L 722.863636 724.316709 
L 727.772727 734.64686 
L 732.681818 923.4 
L 737.590909 710.302642 
L 742.5 923.4 
L 747.409091 226.456566 
L 752.318182 666.399498 
L 757.227273 658.424013 
L 762.136364 675.210509 
L 767.045455 680.831327 
L 771.954545 674.033176 
L 776.863636 639.852527 
L 781.772727 620.939234 
L 786.681818 605.140179 
L 791.590909 604.684437 
L 796.5 613.077685 
L 801.409091 585.049553 
L 806.318182 570.048046 
L 811.227273 549.273807 
L 816.136364 547.906581 
L 821.045455 544.716387 
L 825.954545 544.260645 
L 830.863636 544.108731 
L 835.772727 544.184688 
L 840.681818 543.766925 
L 845.590909 507.307566 
L 850.5 488.242359 
L 855.409091 470.354486 
L 860.318182 486.571305 
L 865.227273 518.283352 
L 870.136364 506.623953 
L 875.045455 434.198955 
L 879.954545 407.424113 
L 884.863636 372.104109 
L 889.772727 338.037396 
L 894.681818 360.520667 
L 899.590909 356.267075 
L 904.5 316.959329 
L 909.409091 280.727841 
L 914.318182 266.523882 
L 919.227273 218.822888 
L 924.136364 167.4 
L 929.045455 184.376389 
L 933.954545 219.962243 
L 933.954545 219.962243 
" clip-path="url(#pa08d84665c)" style="fill: none; stroke: #dd8452; stroke-width: 1.5; stroke-linecap: round"/>
            </g>
            <g id="line2d_18">
                <path d="M 192.681818 923.4
L 295.772727 923.4 
L 300.681818 922.754366 
L 305.590909 919.716086 
L 310.5 919.10843 
L 315.409091 921.38714 
L 320.318182 919.943957 
L 325.227273 917.551311 
L 330.136364 918.652688 
L 335.045455 914.475053 
L 339.954545 914.28516 
L 344.863636 901.90417 
L 349.772727 910.411353 
L 359.590909 901.106621 
L 364.5 891.574018 
L 369.409091 896.473244 
L 374.318182 876.040812 
L 379.227273 866.73608 
L 384.136364 855.152637 
L 389.045455 881.205888 
L 393.954545 840.644851 
L 398.863636 822.718999 
L 403.772727 826.668763 
L 408.681818 786.297619 
L 413.590909 784.094866 
L 418.5 768.29581 
L 423.409091 829.061409 
L 428.318182 707.985954 
L 433.227273 776.91693 
L 438.136364 696.060705 
L 443.045455 612.090244 
L 447.954545 760.244369 
L 452.863636 738.672581 
L 457.772727 689.186597 
L 462.681818 777.524586 
L 467.590909 667.310982 
L 472.5 689.984145 
L 477.409091 704.03619 
L 482.318182 747.255722 
L 487.227273 755.64897 
L 492.136364 783.411253 
L 497.045455 741.786818 
L 501.954545 721.316407 
L 506.863636 756.826304 
L 511.772727 743.571807 
L 516.681818 753.826002 
L 521.590909 796.969577 
L 526.5 806.312288 
L 531.409091 771.713875 
L 536.318182 781.398392 
L 541.227273 749.040711 
L 546.136364 747.065829 
L 551.045455 778.587984 
L 555.954545 815.427127 
L 560.863636 810.527901 
L 565.772727 822.111343 
L 570.681818 779.613403 
L 575.590909 790.741103 
L 580.5 790.81706 
L 585.409091 807.679514 
L 590.318182 734.077183 
L 595.227273 923.4 
L 600.136364 795.412459 
L 605.045455 708.175846 
L 609.954545 923.4 
L 614.863636 833.884678 
L 619.772727 835.137968 
L 624.681818 857.35539 
L 629.590909 843.986959 
L 634.5 844.176851 
L 639.409091 852.30425 
L 644.318182 848.77225 
L 649.227273 851.240852 
L 654.136364 870.647865 
L 659.045455 877.028253 
L 663.954545 882.573114 
L 668.863636 868.559048 
L 673.772727 870.192123 
L 678.681818 873.002532 
L 683.590909 882.269286 
L 688.5 892.941244 
L 693.409091 895.143997 
L 698.318182 870.154144 
L 703.227273 889.675093 
L 708.136364 885.725329 
L 713.045455 893.434964 
L 717.954545 890.168813 
L 722.863636 897.764513 
L 727.772727 906.271697 
L 732.681818 923.4 
L 737.590909 892.52348 
L 742.5 923.4 
L 747.409091 849.000121 
L 752.318182 897.992384 
L 757.227273 903.233417 
L 762.136364 912.00645 
L 767.045455 908.322536 
L 771.954545 901.220557 
L 776.863636 900.87875 
L 781.772727 903.803095 
L 786.681818 907.600944 
L 791.590909 909.917633 
L 796.5 916.639827 
L 801.409091 911.322837 
L 806.318182 911.208902 
L 811.227273 916.677806 
L 816.136364 903.727138 
L 821.045455 913.145805 
L 825.954545 915.918236 
L 830.863636 912.76602 
L 835.772727 912.652085 
L 840.681818 915.728343 
L 845.590909 909.006149 
L 850.5 917.209505 
L 855.409091 910.259439 
L 860.318182 910.563267 
L 865.227273 911.968472 
L 870.136364 915.424515 
L 875.045455 903.992987 
L 879.954545 917.779182 
L 884.863636 918.994494 
L 889.772727 914.892816 
L 894.681818 915.006752 
L 899.590909 923.096172 
L 904.5 919.412258 
L 909.409091 901.486406 
L 914.318182 912.158364 
L 919.227273 913.715483 
L 924.136364 916.753763 
L 929.045455 916.791741 
L 933.954545 918.614709 
L 933.954545 918.614709 
" clip-path="url(#pa08d84665c)" style="fill: none; stroke: #55a868; stroke-width: 1.5; stroke-linecap: round"/>
            </g>
            <g id="line2d_19">
                <path d="M 290.863636 923.4
L 295.772727 922.792344 
L 300.681818 923.020215 
L 310.5 922.716387 
L 315.409091 922.108731 
L 320.318182 921.728946 
L 325.227273 919.374279 
L 330.136364 922.450538 
L 335.045455 911.132945 
L 339.954545 908.778278 
L 344.863636 903.537245 
L 349.772727 891.687953 
L 354.681818 901.1446 
L 359.590909 923.4 
L 364.5 854.089239 
L 369.409091 882.535135 
L 374.318182 895.181975 
L 379.227273 900.802793 
L 384.136364 889.940942 
L 389.045455 887.016598 
L 393.954545 882.573114 
L 398.863636 874.445715 
L 403.772727 871.559349 
L 413.590909 883.408641 
L 418.5 878.661328 
L 423.409091 878.129629 
L 428.318182 883.67449 
L 433.227273 876.420597 
L 438.136364 886.71277 
L 443.045455 884.358103 
L 447.954545 869.812338 
L 452.863636 856.481885 
L 457.772727 839.619431 
L 462.681818 832.669366 
L 467.590909 812.274912 
L 472.5 806.578137 
L 477.409091 813.224375 
L 482.318182 802.400502 
L 487.227273 805.24889 
L 492.136364 809.958224 
L 497.045455 814.211816 
L 501.954545 820.288375 
L 506.863636 826.175043 
L 511.772727 829.099387 
L 516.681818 837.036893 
L 521.590909 844.062916 
L 526.5 745.01499 
L 531.409091 923.4 
L 536.318182 888.99148 
L 541.227273 853.633497 
L 546.136364 860.469627 
L 555.954545 863.621843 
L 560.863636 865.97651 
L 565.772727 862.406531 
L 570.681818 866.47023 
L 575.590909 871.217542 
L 580.5 872.394876 
L 585.409091 874.255822 
L 590.318182 874.141887 
L 595.227273 878.053672 
L 600.136364 884.282146 
L 605.045455 879.041113 
L 609.954545 880.332382 
L 614.863636 879.610791 
L 619.772727 885.763308 
L 624.681818 881.167909 
L 629.590909 882.649071 
L 634.5 886.067136 
L 639.409091 885.19363 
L 644.318182 892.941244 
L 649.227273 886.332985 
L 654.136364 876.952296 
L 659.045455 873.154446 
L 663.954545 859.596122 
L 668.863636 867.001929 
L 673.772727 864.305456 
L 678.681818 865.330875 
L 683.590909 870.875736 
L 688.5 859.482186 
L 693.409091 867.153843 
L 698.318182 849.038099 
L 703.227273 854.734874 
L 708.136364 843.569195 
L 713.045455 856.671777 
L 717.954545 854.810831 
L 722.863636 836.277323 
L 727.772727 843.227389 
L 732.681818 923.4 
L 742.5 923.4 
L 747.409091 584.707746 
L 752.318182 840.606872 
L 757.227273 846.569497 
L 762.136364 855.532422 
L 767.045455 844.404722 
L 771.954545 837.644549 
L 776.863636 816.338611 
L 781.772727 836.733065 
L 786.681818 827.846097 
L 791.590909 810.262052 
L 796.5 805.021019 
L 801.409091 804.375384 
L 806.318182 787.664845 
L 811.227273 813.794052 
L 816.136364 837.226786 
L 821.045455 833.618828 
L 825.954545 845.809927 
L 830.863636 843.835045 
L 835.772727 847.025239 
L 840.681818 839.163689 
L 845.590909 832.669366 
L 850.5 831.871818 
L 855.409091 829.517151 
L 860.318182 830.390656 
L 865.227273 826.061107 
L 870.136364 824.200161 
L 875.045455 824.807817 
L 879.954545 922.374581 
L 884.863636 736.92557 
L 889.772727 833.466914 
L 894.681818 825.681322 
L 899.590909 830.54257 
L 904.5 827.276419 
L 909.409091 824.845795 
L 914.318182 823.592505 
L 919.227273 830.124807 
L 924.136364 828.871516 
L 929.045455 827.086527 
L 933.954545 830.086828 
L 933.954545 830.086828 
" clip-path="url(#pa08d84665c)" style="fill: none; stroke: #c44e52; stroke-width: 1.5; stroke-linecap: round"/>
            </g>
            <g id="line2d_20">
                <path d="M 364.5 923.4
L 369.409091 923.4 
L 374.318182 923.210108 
L 379.227273 923.4 
L 384.136364 923.4 
L 389.045455 923.4 
L 393.954545 923.4 
L 398.863636 922.792344 
L 403.772727 923.172129 
L 408.681818 923.4 
L 413.590909 921.766925 
L 418.5 923.4 
L 423.409091 921.652989 
L 428.318182 922.336602 
L 433.227273 920.019914 
L 438.136364 922.298624 
L 443.045455 921.311183 
L 447.954545 921.690968 
L 452.863636 922.184688 
L 457.772727 923.4 
L 462.681818 920.171828 
L 467.590909 919.60215 
L 472.5 921.311183 
L 477.409091 922.032774 
L 482.318182 916.525892 
L 487.227273 919.678107 
L 492.136364 919.032473 
L 497.045455 923.4 
L 501.954545 910.145504 
L 506.863636 923.4 
L 511.772727 910.791138 
L 516.681818 903.081503 
L 521.590909 923.4 
L 526.5 897.84047 
L 531.409091 871.065628 
L 536.318182 923.4 
L 541.227273 863.963649 
L 546.136364 923.4 
L 551.045455 861.798875 
L 555.954545 923.4 
L 560.863636 923.4 
L 565.772727 923.4 
L 570.681818 817.667859 
L 575.590909 802.400502 
L 580.5 888.042017 
L 585.409091 877.521973 
L 590.318182 896.928986 
L 595.227273 865.97651 
L 600.136364 869.736381 
L 605.045455 860.203778 
L 609.954545 895.523782 
L 614.863636 783.525188 
L 619.772727 840.379001 
L 624.681818 878.509414 
L 629.590909 828.795559 
L 634.5 819.300934 
L 639.409091 807.755471 
L 644.318182 791.120888 
L 649.227273 844.594615 
L 654.136364 794.500975 
L 659.045455 868.559048 
L 663.954545 778.43607 
L 668.863636 785.614006 
L 673.772727 782.537747 
L 678.681818 797.273405 
L 683.590909 803.084115 
L 688.5 836.35328 
L 693.409091 865.862574 
L 698.318182 800.463599 
L 703.227273 762.105315 
L 708.136364 760.168412 
L 713.045455 775.625661 
L 717.954545 769.738993 
L 722.863636 781.664242 
L 727.772727 822.377193 
L 732.681818 750.59783 
L 737.590909 923.4 
L 742.5 570.731659 
L 747.409091 812.160977 
L 752.318182 769.359208 
L 757.227273 763.700412 
L 762.136364 770.726434 
L 767.045455 704.188104 
L 771.954545 689.680317 
L 776.863636 700.314297 
L 781.772727 676.311886 
L 786.681818 642.890807 
L 791.590909 588.999317 
L 796.5 712.12561 
L 801.409091 739.394173 
L 806.318182 770.346649 
L 811.227273 760.700111 
L 816.136364 763.814347 
L 821.045455 757.889702 
L 825.954545 742.736281 
L 830.863636 802.590395 
L 835.772727 769.966864 
L 840.681818 730.203376 
L 845.590909 696.858254 
L 850.5 697.010168 
L 855.409091 756.940239 
L 860.318182 748.546991 
L 865.227273 799.742007 
L 870.136364 765.25753 
L 875.045455 780.904672 
L 879.954545 791.234824 
L 884.863636 789.070049 
L 889.772727 793.779383 
L 894.681818 786.753361 
L 899.590909 828.035989 
L 904.5 795.678308 
L 909.409091 776.081403 
L 914.318182 774.790134 
L 919.227273 780.524887 
L 924.136364 785.727941 
L 929.045455 793.133749 
L 933.954545 811.515342 
" clip-path="url(#pa08d84665c)" style="fill: none; stroke: #8172b3; stroke-width: 1.5; stroke-linecap: round"/>
            </g>
            <g id="line2d_21">
                <path d="M 364.5 923.4
L 369.409091 923.4 
L 374.318182 923.362022 
L 379.227273 923.4 
L 384.136364 923.4 
L 389.045455 923.210108 
L 393.954545 923.020215 
L 398.863636 923.134151 
L 403.772727 923.4 
L 408.681818 922.374581 
L 413.590909 923.4 
L 418.5 922.982237 
L 423.409091 921.349161 
L 428.318182 923.4 
L 433.227273 920.133849 
L 438.136364 921.956817 
L 443.045455 923.4 
L 447.954545 917.247483 
L 452.863636 923.4 
L 457.772727 911.740601 
L 462.681818 923.4 
L 467.590909 915.120687 
L 472.5 914.171225 
L 477.409091 922.754366 
L 482.318182 919.868 
L 487.227273 921.652989 
L 492.136364 922.374581 
L 497.045455 922.374581 
L 501.954545 920.285763 
L 506.863636 921.766925 
L 511.772727 920.36172 
L 516.681818 920.741505 
L 521.590909 922.222667 
L 526.5 923.4 
L 531.409091 917.361419 
L 536.318182 917.399397 
L 541.227273 923.4 
L 546.136364 922.450538 
L 551.045455 917.893118 
L 555.954545 914.209203 
L 560.863636 923.4 
L 565.772727 919.943957 
L 570.681818 919.640129 
L 575.590909 916.639827 
L 580.5 913.867397 
L 585.409091 918.690666 
L 590.318182 918.007053 
L 595.227273 917.133548 
L 600.136364 916.943655 
L 605.045455 911.322837 
L 609.954545 913.259741 
L 614.863636 918.045032 
L 619.772727 916.373978 
L 624.681818 914.019311 
L 629.590909 915.690365 
L 634.5 909.955611 
L 639.409091 912.120386 
L 644.318182 911.854536 
L 649.227273 908.778278 
L 654.136364 906.423611 
L 659.045455 906.803396 
L 663.954545 910.031568 
L 668.863636 914.437074 
L 673.772727 907.297116 
L 678.681818 878.281543 
L 683.590909 923.4 
L 688.5 900.802793 
L 693.409091 872.698704 
L 698.318182 923.4 
L 703.227273 895.903567 
L 708.136364 898.144298 
L 713.045455 893.586878 
L 717.954545 891.839867 
L 722.863636 879.344941 
L 727.772727 888.535738 
L 732.681818 894.270491 
L 737.590909 923.4 
L 742.5 849.835648 
L 747.409091 885.877243 
L 752.318182 877.142188 
L 757.227273 876.306661 
L 762.136364 884.206189 
L 767.045455 898.751954 
L 771.954545 859.861971 
L 776.863636 867.723521 
L 781.772727 853.633497 
L 786.681818 857.811132 
L 791.590909 794.652889 
L 796.5 923.4 
L 801.409091 868.141284 
L 806.318182 858.342831 
L 811.227273 799.324244 
L 816.136364 823.060806 
L 821.045455 826.972591 
L 825.954545 835.59371 
L 830.863636 824.883774 
L 835.772727 843.18941 
L 840.681818 831.112248 
L 845.590909 803.881664 
L 850.5 795.830222 
L 855.409091 778.739898 
L 860.318182 760.016498 
L 865.227273 790.665146 
L 870.136364 817.022224 
L 875.045455 768.523681 
L 879.954545 791.310781 
L 884.863636 778.132242 
L 889.772727 734.798774 
L 894.681818 747.901356 
L 899.590909 760.548197 
L 904.5 751.813142 
L 909.409091 707.378298 
L 914.318182 673.539455 
L 919.227273 687.363629 
L 924.136364 649.575023 
L 929.045455 682.844188 
L 933.954545 690.591801 
" clip-path="url(#pa08d84665c)" style="fill: none; stroke: #937860; stroke-width: 1.5; stroke-linecap: round"/>
            </g>
            <g id="line2d_22"/>
            <g id="line2d_23"/>
            <g id="line2d_24"/>
            <g id="line2d_25"/>
            <g id="line2d_26"/>
            <g id="line2d_27"/>
            <g id="patch_3">
                <path d="M 135 961.2
L 135 129.6 
" style="fill: none; stroke: #ffffff; stroke-width: 1.25; stroke-linejoin: miter; stroke-linecap: square"/>
            </g>
            <g id="patch_4">
                <path d="M 972 961.2
L 972 129.6 
" style="fill: none; stroke: #ffffff; stroke-width: 1.25; stroke-linejoin: miter; stroke-linecap: square"/>
            </g>
            <g id="patch_5">
                <path d="M 135 961.2
L 972 961.2 
" style="fill: none; stroke: #ffffff; stroke-width: 1.25; stroke-linejoin: miter; stroke-linecap: square"/>
            </g>
            <g id="patch_6">
                <path d="M 135 129.6
L 972 129.6 
" style="fill: none; stroke: #ffffff; stroke-width: 1.25; stroke-linejoin: miter; stroke-linecap: square"/>
            </g>
            <g id="legend_1">
                <g id="patch_7">
                    <path d="M 142.7 258.641563
L 210.9 258.641563 
Q 213.1 258.641563 213.1 256.441563 
L 213.1 137.3 
Q 213.1 135.1 210.9 135.1 
L 142.7 135.1 
Q 140.5 135.1 140.5 137.3 
L 140.5 256.441563 
Q 140.5 258.641563 142.7 258.641563 
z
" style="fill: #eaeaf2; opacity: 0.8; stroke: #cccccc; stroke-linejoin: miter"/>
                </g>
                <g id="text_18">
                    <!-- 国家 -->
                    <g style="fill: #262626" transform="translate(164.8 149.0925)scale(0.12 -0.12)">
                        <defs>
                            <path id="MicrosoftYaHei-56fd" d="M 469 4997
L 5938 4997 
L 5938 -834 
L 5456 -834 
L 5456 -522 
L 950 -522 
L 950 -841 
L 469 -841 
L 469 4997 
z
M 5456 4553 
L 950 4553 
L 950 -78 
L 5456 -78 
L 5456 4553 
z
M 1238 1009 
L 2963 1009 
L 2963 2247 
L 1456 2247 
L 1456 2672 
L 2963 2672 
L 2963 3509 
L 1338 3509 
L 1338 3934 
L 5063 3934 
L 5063 3509 
L 3425 3509 
L 3425 2672 
L 4938 2672 
L 4938 2247 
L 3425 2247 
L 3425 1009 
L 5163 1009 
L 5163 584 
L 1238 584 
L 1238 1009 
z
M 3750 1847 
L 4100 2109 
Q 4444 1753 4688 1441 
L 4319 1159 
Q 4019 1566 3750 1847 
z
" transform="scale(0.015625)"/>
                            <path id="MicrosoftYaHei-5bb6" d="M 194 -209
Q 2081 331 3200 1556 
Q 3113 1738 2997 1903 
Q 2066 941 425 422 
Q 331 634 200 847 
Q 1809 1291 2703 2256 
Q 2600 2359 2478 2459 
Q 1650 1872 444 1497 
Q 325 1703 163 1941 
Q 1653 2272 2550 3053 
L 975 3053 
L 975 3503 
L 5438 3503 
L 5438 3053 
L 3169 3053 
Q 3009 2884 2825 2728 
Q 3316 2331 3588 1841 
Q 4566 2319 5325 2822 
L 5619 2422 
Q 5109 2116 4534 1816 
Q 5088 616 6331 141 
Q 6125 -97 5944 -347 
Q 4722 278 4131 1609 
Q 3953 1522 3769 1431 
Q 4125 103 3656 -503 
Q 3431 -772 2794 -772 
Q 2544 -772 2006 -753 
Q 1969 -509 1913 -234 
Q 2400 -291 2781 -291 
Q 3456 -328 3438 522 
Q 3428 803 3369 1063 
Q 2263 -28 419 -641 
Q 325 -434 194 -209 
z
M 331 4528 
L 3156 4528 
Q 2972 4806 2725 5122 
L 3163 5403 
Q 3444 5059 3675 4722 
L 3356 4528 
L 6063 4528 
L 6063 3459 
L 5563 3459 
L 5563 4066 
L 831 4066 
L 831 3459 
L 331 3459 
L 331 4528 
z
" transform="scale(0.015625)"/>
                        </defs>
                        <use xlink:href="#MicrosoftYaHei-56fd"/>
                        <use xlink:href="#MicrosoftYaHei-5bb6" x="100"/>
                    </g>
                </g>
                <g id="line2d_28">
                    <path d="M 144.9 162.51875
L 155.9 162.51875 
L 166.9 162.51875 
" style="fill: none; stroke: #4c72b0; stroke-width: 1.5; stroke-linecap: round"/>
                </g>
                <g id="text_19">
                    <!-- 加拿大 -->
                    <g style="fill: #262626" transform="translate(175.7 166.36875)scale(0.11 -0.11)">
                        <defs>
                            <path id="MicrosoftYaHei-52a0" d="M 3663 4484
L 6038 4484 
L 6038 -666 
L 5544 -666 
L 5544 -34 
L 4156 -34 
L 4156 -666 
L 3663 -666 
L 3663 4484 
z
M 231 4178 
L 1103 4178 
Q 1109 4681 1106 5297 
L 1600 5297 
Q 1600 4675 1594 4178 
L 3050 4178 
Q 3019 1778 2969 409 
Q 2944 -716 2119 -672 
Q 1875 -672 1400 -653 
Q 1356 -391 1300 -109 
Q 1738 -166 2013 -166 
Q 2431 -178 2469 428 
Q 2538 1909 2550 3703 
L 1588 3703 
Q 1581 3225 1569 2891 
Q 1544 447 394 -872 
Q 238 -678 25 -453 
Q 1063 684 1081 2941 
Q 1094 3269 1100 3703 
L 231 3703 
L 231 4178 
z
M 5544 4022 
L 4156 4022 
L 4156 416 
L 5544 416 
L 5544 4022 
z
" transform="scale(0.015625)"/>
                            <path id="MicrosoftYaHei-62ff" d="M 144 416
L 3063 416 
L 3063 791 
L 725 791 
L 725 1128 
L 3063 1128 
L 3063 1522 
Q 1769 1478 681 1459 
Q 631 1722 594 1853 
Q 3613 1878 5500 2009 
L 5575 1616 
Q 4494 1572 3525 1534 
L 3525 1128 
L 5613 1128 
L 5613 791 
L 3525 791 
L 3525 416 
L 6231 416 
L 6231 53 
L 3525 53 
L 3525 -116 
Q 3525 -772 2881 -784 
Q 2544 -791 1925 -791 
Q 1894 -591 1838 -309 
Q 2381 -353 2725 -353 
Q 3063 -353 3063 -28 
L 3063 53 
L 144 53 
L 144 416 
z
M 1200 3428 
L 5200 3428 
L 5200 2184 
L 4763 2184 
L 4763 2272 
L 1638 2272 
L 1638 2141 
L 1200 2141 
L 1200 3428 
z
M 3663 5309 
L 3563 5209 
Q 4575 4253 6313 3859 
Q 6119 3616 6006 3403 
Q 5138 3672 4450 4047 
L 4450 3809 
L 1906 3809 
L 1906 4047 
Q 1206 3659 375 3322 
Q 225 3553 88 3716 
Q 1881 4366 3000 5309 
L 3663 5309 
z
M 4763 3078 
L 1638 3078 
L 1638 2622 
L 4763 2622 
L 4763 3078 
z
M 3244 4922 
Q 2725 4522 2100 4159 
L 4256 4159 
Q 3688 4497 3244 4922 
z
" transform="scale(0.015625)"/>
                            <path id="MicrosoftYaHei-5927" d="M 88 -341
Q 2666 806 2869 3103 
L 200 3103 
L 200 3591 
L 2891 3591 
Q 2906 4431 2906 5284 
L 3450 5284 
Q 3450 4444 3434 3591 
L 6206 3591 
L 6206 3103 
L 3425 3103 
Q 3869 606 6338 -191 
Q 6019 -497 5863 -697 
Q 3828 122 3203 2219 
Q 2716 322 475 -822 
Q 350 -653 88 -341 
z
" transform="scale(0.015625)"/>
                        </defs>
                        <use xlink:href="#MicrosoftYaHei-52a0"/>
                        <use xlink:href="#MicrosoftYaHei-62ff" x="100"/>
                        <use xlink:href="#MicrosoftYaHei-5927" x="200"/>
                    </g>
                </g>
                <g id="line2d_29">
                    <path d="M 144.9 179.546406
L 155.9 179.546406 
L 166.9 179.546406 
" style="fill: none; stroke: #dd8452; stroke-width: 1.5; stroke-linecap: round"/>
                </g>
                <g id="text_20">
                    <!-- 印度 -->
                    <g style="fill: #262626" transform="translate(175.7 183.396406)scale(0.11 -0.11)">
                        <defs>
                            <path id="MicrosoftYaHei-5370" d="M 3281 4828
L 5950 4828 
L 5950 1053 
Q 5950 228 5156 222 
Q 4756 216 4200 228 
Q 4169 503 4119 803 
Q 4681 753 5000 753 
Q 5438 747 5438 1209 
L 5438 4341 
L 3794 4341 
L 3794 -834 
L 3281 -834 
L 3281 4828 
z
M 3038 4872 
Q 2213 4647 994 4397 
L 994 2959 
L 2888 2959 
L 2888 2491 
L 994 2491 
L 994 553 
Q 1969 866 2925 1209 
Q 2925 941 2975 678 
Q 1925 334 1006 -28 
Q 788 -134 631 -278 
L 294 159 
Q 494 384 481 728 
L 481 4766 
Q 1831 5028 2800 5328 
L 3038 4872 
z
" transform="scale(0.015625)"/>
                            <path id="MicrosoftYaHei-5ea6" d="M 1550 1216
L 1550 1628 
L 5469 1628 
L 5469 1222 
Q 4903 613 4147 163 
Q 5050 -200 6263 -309 
L 6019 -797 
Q 4625 -603 3644 -109 
Q 2600 -619 1250 -866 
Q 1150 -666 994 -416 
Q 2231 -222 3166 166 
Q 2497 600 2066 1216 
L 1550 1216 
z
M 1363 3541 
L 2294 3541 
L 2294 4066 
L 2769 4066 
L 2769 3541 
L 4538 3541 
L 4538 4072 
L 5013 4072 
L 5013 3541 
L 6150 3541 
L 6150 3128 
L 5013 3128 
L 5013 1928 
L 4538 1928 
L 4538 2147 
L 2769 2147 
L 2769 1922 
L 2294 1922 
L 2294 3128 
L 1363 3128 
L 1363 3541 
z
M 3025 5172 
L 3481 5391 
Q 3694 5056 3909 4634 
L 6213 4634 
L 6213 4197 
L 1225 4197 
L 1225 2316 
Q 1225 178 394 -872 
Q 238 -666 38 -447 
Q 725 397 738 2347 
L 738 4634 
L 3331 4634 
Q 3188 4909 3025 5172 
z
M 2769 2547 
L 4538 2547 
L 4538 3128 
L 2769 3128 
L 2769 2547 
z
M 4819 1216 
L 2588 1216 
Q 3031 728 3656 391 
Q 4334 741 4819 1216 
z
" transform="scale(0.015625)"/>
                        </defs>
                        <use xlink:href="#MicrosoftYaHei-5370"/>
                        <use xlink:href="#MicrosoftYaHei-5ea6" x="100"/>
                    </g>
                </g>
                <g id="line2d_30">
                    <path d="M 144.9 196.574063
L 155.9 196.574063 
L 166.9 196.574063 
" style="fill: none; stroke: #55a868; stroke-width: 1.5; stroke-linecap: round"/>
                </g>
                <g id="text_21">
                    <!-- 意大利 -->
                    <g style="fill: #262626" transform="translate(175.7 200.424063)scale(0.11 -0.11)">
                        <defs>
                            <path id="MicrosoftYaHei-610f" d="M 2706 759
L 3022 1028 
L 1419 1028 
L 1419 834 
L 956 834 
L 956 2997 
L 5406 2997 
L 5406 834 
L 4944 834 
L 4944 1028 
L 3038 1028 
Q 3447 681 3756 353 
L 3388 47 
Q 3125 353 2706 759 
z
M 150 3722 
L 1906 3722 
Q 1659 3956 1406 4172 
L 1594 4347 
L 538 4347 
L 538 4722 
L 3028 4722 
Q 2900 4984 2763 5216 
L 3188 5397 
Q 3391 5044 3538 4722 
L 5863 4722 
L 5863 4347 
L 4772 4347 
L 4988 4184 
Q 4738 3953 4472 3722 
L 6250 3722 
L 6250 3347 
L 150 3347 
L 150 3722 
z
M 1650 791 
L 2125 791 
L 2125 78 
Q 2125 -284 2538 -284 
L 3819 -284 
Q 4269 -284 4350 59 
Q 4413 297 4463 622 
Q 4681 528 4931 447 
Q 4856 91 4794 -128 
Q 4644 -709 3950 -709 
L 2438 -709 
Q 1650 -709 1650 34 
L 1650 791 
z
M 1419 1391 
L 4944 1391 
L 4944 1841 
L 1419 1841 
L 1419 1391 
z
M 4944 2634 
L 1419 2634 
L 1419 2191 
L 4944 2191 
L 4944 2634 
z
M 3925 3834 
Q 4178 4047 4481 4347 
L 1838 4347 
Q 2116 4141 2381 3909 
L 2191 3722 
L 4038 3722 
L 3925 3834 
z
M 656 759 
L 1094 591 
Q 869 22 569 -559 
Q 381 -472 131 -366 
Q 388 97 656 759 
z
M 5175 503 
L 5531 778 
Q 5975 303 6325 -116 
L 5931 -428 
Q 5550 72 5175 503 
z
" transform="scale(0.015625)"/>
                            <path id="MicrosoftYaHei-5229" d="M 75 741
Q 913 1653 1488 2997 
L 106 2997 
L 106 3453 
L 1606 3453 
L 1606 4391 
Q 963 4328 331 4272 
Q 288 4503 206 4747 
Q 1706 4866 3269 5066 
L 3394 4591 
Q 2731 4509 2081 4441 
L 2081 3453 
L 3500 3453 
L 3500 2997 
L 2081 2997 
L 2081 2159 
L 2356 2422 
Q 2944 1922 3525 1347 
L 3144 959 
Q 2763 1403 2081 2053 
L 2081 -828 
L 1606 -828 
L 1606 2297 
Q 1069 1084 325 178 
Q 156 584 75 741 
z
M 5444 5197 
L 5938 5197 
L 5938 -9 
Q 5938 -803 5138 -797 
Q 4881 -797 4306 -791 
Q 4269 -534 4213 -228 
Q 4719 -284 4981 -284 
Q 5444 -291 5444 184 
L 5444 5197 
z
M 3963 4572 
L 4438 4572 
L 4438 622 
L 3963 622 
L 3963 4572 
z
" transform="scale(0.015625)"/>
                        </defs>
                        <use xlink:href="#MicrosoftYaHei-610f"/>
                        <use xlink:href="#MicrosoftYaHei-5927" x="100"/>
                        <use xlink:href="#MicrosoftYaHei-5229" x="200"/>
                    </g>
                </g>
                <g id="line2d_31">
                    <path d="M 144.9 213.601719
L 155.9 213.601719 
L 166.9 213.601719 
" style="fill: none; stroke: #c44e52; stroke-width: 1.5; stroke-linecap: round"/>
                </g>
                <g id="text_22">
                    <!-- 伊朗 -->
                    <g style="fill: #262626" transform="translate(175.7 217.451719)scale(0.11 -0.11)">
                        <defs>
                            <path id="MicrosoftYaHei-4f0a" d="M 1938 1709
L 3109 1709 
Q 3169 2194 3175 2853 
L 1750 2853 
L 1750 3303 
L 3178 3303 
Q 3181 3706 3181 4434 
L 2163 4434 
L 2163 4872 
L 5675 4872 
L 5675 3303 
L 6306 3303 
L 6306 2853 
L 5675 2853 
L 5675 1003 
L 5200 1003 
L 5200 1272 
L 3525 1272 
Q 3325 -72 2138 -859 
Q 1994 -672 1794 -459 
Q 2850 228 3041 1272 
L 1938 1272 
L 1938 1709 
z
M 56 2391 
Q 1025 3697 1525 5347 
L 2031 5178 
Q 1722 4309 1356 3578 
L 1356 -816 
L 881 -816 
L 881 2722 
Q 584 2241 256 1834 
Q 169 2103 56 2391 
z
M 3584 1709 
L 5200 1709 
L 5200 2853 
L 3653 2853 
Q 3641 2206 3584 1709 
z
M 5200 4434 
L 3669 4434 
Q 3669 3744 3663 3303 
L 5200 3303 
L 5200 4434 
z
" transform="scale(0.015625)"/>
                            <path id="MicrosoftYaHei-6717" d="M 3469 4953
L 5894 4953 
L 5894 -34 
Q 5894 -697 5244 -697 
L 4425 -697 
Q 4419 -659 4350 -216 
Q 4838 -241 5175 -241 
Q 5419 -241 5419 -9 
L 5419 1366 
L 3891 1366 
Q 3700 -69 2813 -809 
Q 2638 -628 2425 -472 
Q 3469 341 3469 2247 
L 3469 4953 
z
M 1644 1147 
L 1950 1428 
Q 2525 903 2975 403 
L 2669 72 
Q 2525 238 2391 384 
Q 913 -356 656 -609 
L 369 -166 
Q 538 3 538 284 
L 538 4591 
L 1669 4591 
Q 1438 4859 1188 5072 
L 1538 5366 
Q 1825 5109 2063 4853 
L 1769 4591 
L 2844 4591 
L 2844 1503 
L 2381 1503 
L 2381 1759 
L 1000 1759 
L 1000 159 
Q 1572 444 2081 719 
Q 1841 972 1644 1147 
z
M 3931 1791 
L 5419 1791 
L 5419 2947 
L 3944 2947 
Q 3950 2203 3931 1791 
z
M 5419 4528 
L 3944 4528 
L 3944 3372 
L 5419 3372 
L 5419 4528 
z
M 1000 2172 
L 2381 2172 
L 2381 2978 
L 1000 2978 
L 1000 2172 
z
M 2381 4178 
L 1000 4178 
L 1000 3391 
L 2381 3391 
L 2381 4178 
z
" transform="scale(0.015625)"/>
                        </defs>
                        <use xlink:href="#MicrosoftYaHei-4f0a"/>
                        <use xlink:href="#MicrosoftYaHei-6717" x="100"/>
                    </g>
                </g>
                <g id="line2d_32">
                    <path d="M 144.9 230.629375
L 155.9 230.629375 
L 166.9 230.629375 
" style="fill: none; stroke: #8172b3; stroke-width: 1.5; stroke-linecap: round"/>
                </g>
                <g id="text_23">
                    <!-- 秘鲁 -->
                    <g style="fill: #262626" transform="translate(175.7 234.479375)scale(0.11 -0.11)">
                        <defs>
                            <path id="MicrosoftYaHei-79d8" d="M 2025 -72
Q 2772 416 3363 1044 
L 3363 4347 
L 3831 4347 
L 3831 1597 
Q 4759 2822 5263 4716 
L 5750 4603 
Q 5097 2219 3831 813 
L 3831 259 
Q 3831 -116 4200 -116 
L 4688 -116 
Q 5138 -116 5181 259 
Q 5244 641 5269 1272 
Q 5519 1159 5769 1084 
Q 5719 453 5669 109 
Q 5575 -591 4756 -591 
L 4063 -591 
Q 3363 -591 3363 197 
L 3363 341 
Q 2894 -91 2350 -447 
Q 2263 -316 2025 -72 
z
M 106 878 
Q 672 1869 1003 3097 
L 225 3097 
L 225 3541 
L 1069 3541 
L 1069 4397 
Q 706 4369 294 4341 
Q 263 4553 200 4797 
Q 1475 4866 2425 5003 
L 2538 4528 
Q 2122 4484 1531 4434 
L 1531 3541 
L 2388 3541 
L 2388 3097 
L 1531 3097 
L 1531 2616 
L 1794 2791 
Q 2056 2403 2369 1816 
L 1981 1566 
Q 1713 2109 1531 2434 
L 1531 -784 
L 1069 -784 
L 1069 2166 
Q 766 1097 325 341 
Q 225 603 106 878 
z
M 2625 3028 
L 3094 2959 
Q 2950 1953 2781 1147 
Q 2469 1234 2319 1241 
Q 2519 2009 2625 3028 
z
M 5438 2922 
L 5906 3053 
Q 6150 2216 6325 1397 
L 5844 1272 
Q 5669 2166 5438 2922 
z
M 3581 5103 
L 4000 5366 
Q 4381 4834 4800 4159 
L 4350 3878 
Q 3975 4566 3581 5103 
z
" transform="scale(0.015625)"/>
                            <path id="MicrosoftYaHei-9c81" d="M 119 3997
Q 1119 4547 1700 5334 
L 2238 5334 
Q 2094 5150 1944 4978 
L 4331 4978 
L 4331 4641 
L 3919 4184 
L 5563 4184 
L 5563 2266 
L 5138 2266 
L 5138 2397 
L 1263 2397 
L 1263 2266 
L 838 2266 
L 838 3941 
Q 619 3775 394 3634 
Q 269 3828 119 3997 
z
M 950 1284 
L 5450 1284 
L 5450 -834 
L 5013 -834 
L 5013 -578 
L 1388 -578 
L 1388 -834 
L 950 -834 
L 950 1284 
z
M 175 2009 
L 6225 2009 
L 6225 1659 
L 175 1659 
L 175 2009 
z
M 5013 941 
L 1388 941 
L 1388 516 
L 5013 516 
L 5013 941 
z
M 1388 -234 
L 5013 -234 
L 5013 191 
L 1388 191 
L 1388 -234 
z
M 1141 4184 
L 3356 4184 
L 3744 4628 
L 1619 4628 
Q 1388 4391 1141 4184 
z
M 5138 3853 
L 3413 3853 
L 3413 3447 
L 5138 3447 
L 5138 3853 
z
M 1263 2728 
L 2988 2728 
L 2988 3134 
L 1263 3134 
L 1263 2728 
z
M 1263 3447 
L 2988 3447 
L 2988 3853 
L 1263 3853 
L 1263 3447 
z
M 3413 2728 
L 5138 2728 
L 5138 3134 
L 3413 3134 
L 3413 2728 
z
" transform="scale(0.015625)"/>
                        </defs>
                        <use xlink:href="#MicrosoftYaHei-79d8"/>
                        <use xlink:href="#MicrosoftYaHei-9c81" x="100"/>
                    </g>
                </g>
                <g id="line2d_33">
                    <path d="M 144.9 247.657031
L 155.9 247.657031 
L 166.9 247.657031 
" style="fill: none; stroke: #937860; stroke-width: 1.5; stroke-linecap: round"/>
                </g>
                <g id="text_24">
                    <!-- 南非 -->
                    <g style="fill: #262626" transform="translate(175.7 251.507031)scale(0.11 -0.11)">
                        <defs>
                            <path id="MicrosoftYaHei-5357" d="M 163 4553
L 2969 4553 
L 2969 5259 
L 3481 5259 
L 3481 4553 
L 6219 4553 
L 6219 4109 
L 3481 4109 
L 3481 3472 
L 5875 3472 
L 5875 -72 
Q 5875 -803 5150 -809 
Q 4738 -816 4119 -791 
Q 4081 -559 4025 -278 
Q 4644 -316 4969 -316 
Q 5381 -316 5381 47 
L 5381 3034 
L 1056 3034 
L 1056 -834 
L 563 -834 
L 563 3472 
L 2969 3472 
L 2969 4109 
L 163 4109 
L 163 4553 
z
M 1300 909 
L 2975 909 
L 2975 1591 
L 1500 1591 
L 1500 2003 
L 3463 2003 
Q 3763 2453 4069 2991 
L 4531 2734 
Q 4225 2316 3975 2003 
L 4938 2003 
L 4938 1591 
L 3463 1591 
L 3463 909 
L 5138 909 
L 5138 497 
L 3463 497 
L 3463 -703 
L 2975 -703 
L 2975 497 
L 1300 497 
L 1300 909 
z
M 1913 2741 
L 2281 2991 
Q 2600 2622 2863 2272 
L 2450 2016 
Q 2200 2378 1913 2741 
z
" transform="scale(0.015625)"/>
                            <path id="MicrosoftYaHei-975e" d="M 3688 5284
L 4188 5284 
L 4188 4391 
L 6131 4391 
L 6131 3941 
L 4188 3941 
L 4188 2716 
L 6038 2716 
L 6038 2266 
L 4188 2266 
L 4188 1016 
L 6269 1016 
L 6269 566 
L 4188 566 
L 4188 -797 
L 3688 -797 
L 3688 5284 
z
M 150 1016 
L 2206 1016 
L 2206 2266 
L 375 2266 
L 375 2716 
L 2206 2716 
L 2206 3941 
L 275 3941 
L 275 4391 
L 2206 4391 
L 2206 5284 
L 2706 5284 
L 2706 -797 
L 2206 -797 
L 2206 566 
L 150 566 
L 150 1016 
z
" transform="scale(0.015625)"/>
                        </defs>
                        <use xlink:href="#MicrosoftYaHei-5357"/>
                        <use xlink:href="#MicrosoftYaHei-975e" x="100"/>
                    </g>
                </g>
            </g>
        </g>
    </g>
    <defs>
        <clipPath id="pa08d84665c">
            <rect x="135" y="129.6" width="837" height="831.6"/>
        </clipPath>
    </defs>
</svg>
