<?xml version="1.0" encoding="utf-8" standalone="no"?>
<!DOCTYPE svg PUBLIC "-//W3C//DTD SVG 1.1//EN"
        "http://www.w3.org/Graphics/SVG/1.1/DTD/svg11.dtd">
<svg xmlns:xlink="http://www.w3.org/1999/xlink" width="460.8pt" height="345.6pt" viewBox="0 0 460.8 345.6"
     xmlns="http://www.w3.org/2000/svg" version="1.1">
    <metadata>
        <rdf:RDF xmlns:dc="http://purl.org/dc/elements/1.1/" xmlns:cc="http://creativecommons.org/ns#"
                 xmlns:rdf="http://www.w3.org/1999/02/22-rdf-syntax-ns#">
            <cc:Work>
                <dc:type rdf:resource="http://purl.org/dc/dcmitype/StillImage"/>
                <dc:date>2021-12-15T09:45:15.117565</dc:date>
                <dc:format>image/svg+xml</dc:format>
                <dc:creator>
                    <cc:Agent>
                        <dc:title>Matplotlib v3.5.1, https://matplotlib.org/</dc:title>
                    </cc:Agent>
                </dc:creator>
            </cc:Work>
        </rdf:RDF>
    </metadata>
    <defs>
        <style type="text/css">*{stroke-linejoin: round; stroke-linecap: butt}</style>
    </defs>
    <g id="figure_1">
        <g id="patch_1">
            <path d="M 0 345.6
L 460.8 345.6 
L 460.8 0 
L 0 0 
z
" style="fill: #ffffff"/>
        </g>
        <g id="axes_1">
            <g id="patch_2">
                <path d="M 57.6 307.584
L 414.72 307.584 
L 414.72 41.472 
L 57.6 41.472 
z
" style="fill: #eaeaf2"/>
            </g>
            <g id="matplotlib.axis_1">
                <g id="xtick_1">
                    <g id="line2d_1">
                        <path d="M 84.305455 307.584
L 84.305455 41.472 
" clip-path="url(#p0c738af1b0)" style="fill: none; stroke: #ffffff; stroke-linecap: round"/>
                    </g>
                    <g id="text_1">
                        <!-- 2020-02 -->
                        <g style="fill: #262626" transform="translate(62.574439 325.877125)scale(0.11 -0.11)">
                            <defs>
                                <path id="MicrosoftYaHei-32" d="M 2666 3572
Q 2666 3963 2419 4186 
Q 2172 4409 1747 4409 
Q 1447 4409 1140 4256 
Q 834 4103 569 3819 
L 569 4413 
Q 806 4659 1107 4790 
Q 1409 4922 1816 4922 
Q 2472 4922 2872 4570 
Q 3272 4219 3272 3619 
Q 3272 3084 3026 2693 
Q 2781 2303 2188 1894 
Q 1581 1475 1376 1294 
Q 1172 1113 1090 947 
Q 1009 781 1009 544 
L 3416 544 
L 3416 0 
L 372 0 
L 372 241 
Q 372 659 486 951 
Q 600 1244 862 1520 
Q 1125 1797 1681 2184 
Q 2250 2584 2458 2886 
Q 2666 3188 2666 3572 
z
" transform="scale(0.015625)"/>
                                <path id="MicrosoftYaHei-30" d="M 284 2325
Q 284 3606 709 4264 
Q 1134 4922 1941 4922 
Q 3478 4922 3478 2441 
Q 3478 1216 3045 567 
Q 2613 -81 1831 -81 
Q 1094 -81 689 534 
Q 284 1150 284 2325 
z
M 909 2353 
Q 909 425 1888 425 
Q 2850 425 2850 2384 
Q 2850 4413 1906 4413 
Q 909 4413 909 2353 
z
" transform="scale(0.015625)"/>
                                <path id="MicrosoftYaHei-2d" d="M 2328 1681
L 488 1681 
L 488 2153 
L 2328 2153 
L 2328 1681 
z
" transform="scale(0.015625)"/>
                            </defs>
                            <use xlink:href="#MicrosoftYaHei-32"/>
                            <use xlink:href="#MicrosoftYaHei-30" x="58.642578"/>
                            <use xlink:href="#MicrosoftYaHei-32" x="117.285156"/>
                            <use xlink:href="#MicrosoftYaHei-30" x="175.927734"/>
                            <use xlink:href="#MicrosoftYaHei-2d" x="234.570312"/>
                            <use xlink:href="#MicrosoftYaHei-30" x="277.832031"/>
                            <use xlink:href="#MicrosoftYaHei-32" x="336.474609"/>
                        </g>
                    </g>
                </g>
                <g id="xtick_2">
                    <g id="line2d_2">
                        <path d="M 145.047273 307.584
L 145.047273 41.472 
" clip-path="url(#p0c738af1b0)" style="fill: none; stroke: #ffffff; stroke-linecap: round"/>
                    </g>
                    <g id="text_2">
                        <!-- 2020-03 -->
                        <g style="fill: #262626" transform="translate(123.316257 325.877125)scale(0.11 -0.11)">
                            <defs>
                                <path id="MicrosoftYaHei-33" d="M 447 809
Q 944 425 1569 425 
Q 2069 425 2361 670 
Q 2653 916 2653 1328 
Q 2653 2247 1338 2247 
L 934 2247 
L 934 2753 
L 1319 2753 
Q 2484 2753 2484 3616 
Q 2484 4413 1594 4413 
Q 1084 4413 634 4069 
L 634 4647 
Q 1109 4922 1744 4922 
Q 2363 4922 2738 4598 
Q 3113 4275 3113 3759 
Q 3113 2809 2144 2538 
L 2144 2525 
Q 2669 2469 2973 2155 
Q 3278 1841 3278 1372 
Q 3278 719 2808 319 
Q 2338 -81 1556 -81 
Q 869 -81 447 175 
L 447 809 
z
" transform="scale(0.015625)"/>
                            </defs>
                            <use xlink:href="#MicrosoftYaHei-32"/>
                            <use xlink:href="#MicrosoftYaHei-30" x="58.642578"/>
                            <use xlink:href="#MicrosoftYaHei-32" x="117.285156"/>
                            <use xlink:href="#MicrosoftYaHei-30" x="175.927734"/>
                            <use xlink:href="#MicrosoftYaHei-2d" x="234.570312"/>
                            <use xlink:href="#MicrosoftYaHei-30" x="277.832031"/>
                            <use xlink:href="#MicrosoftYaHei-33" x="336.474609"/>
                        </g>
                    </g>
                </g>
                <g id="xtick_3">
                    <g id="line2d_3">
                        <path d="M 209.978182 307.584
L 209.978182 41.472 
" clip-path="url(#p0c738af1b0)" style="fill: none; stroke: #ffffff; stroke-linecap: round"/>
                    </g>
                    <g id="text_3">
                        <!-- 2020-04 -->
                        <g style="fill: #262626" transform="translate(188.247166 325.877125)scale(0.11 -0.11)">
                            <defs>
                                <path id="MicrosoftYaHei-34" d="M 2906 4841
L 2906 1644 
L 3631 1644 
L 3631 1138 
L 2906 1138 
L 2906 0 
L 2313 0 
L 2313 1138 
L 53 1138 
L 53 1616 
Q 656 2294 1265 3178 
Q 1875 4063 2272 4841 
L 2906 4841 
z
M 741 1644 
L 2313 1644 
L 2313 3950 
Q 1988 3366 1616 2817 
Q 1244 2269 741 1644 
z
" transform="scale(0.015625)"/>
                            </defs>
                            <use xlink:href="#MicrosoftYaHei-32"/>
                            <use xlink:href="#MicrosoftYaHei-30" x="58.642578"/>
                            <use xlink:href="#MicrosoftYaHei-32" x="117.285156"/>
                            <use xlink:href="#MicrosoftYaHei-30" x="175.927734"/>
                            <use xlink:href="#MicrosoftYaHei-2d" x="234.570312"/>
                            <use xlink:href="#MicrosoftYaHei-30" x="277.832031"/>
                            <use xlink:href="#MicrosoftYaHei-34" x="336.474609"/>
                        </g>
                    </g>
                </g>
                <g id="xtick_4">
                    <g id="line2d_4">
                        <path d="M 272.814545 307.584
L 272.814545 41.472 
" clip-path="url(#p0c738af1b0)" style="fill: none; stroke: #ffffff; stroke-linecap: round"/>
                    </g>
                    <g id="text_4">
                        <!-- 2020-05 -->
                        <g style="fill: #262626" transform="translate(251.08353 325.877125)scale(0.11 -0.11)">
                            <defs>
                                <path id="MicrosoftYaHei-35" d="M 3294 1494
Q 3294 784 2823 350 
Q 2353 -84 1559 -84 
Q 878 -84 544 119 
L 544 744 
Q 1034 425 1544 425 
Q 2050 425 2361 704 
Q 2672 984 2672 1447 
Q 2672 1909 2348 2167 
Q 2025 2425 1434 2425 
Q 978 2425 613 2384 
L 791 4841 
L 3053 4841 
L 3053 4303 
L 1306 4303 
L 1206 2931 
L 1647 2950 
Q 2416 2950 2855 2567 
Q 3294 2184 3294 1494 
z
" transform="scale(0.015625)"/>
                            </defs>
                            <use xlink:href="#MicrosoftYaHei-32"/>
                            <use xlink:href="#MicrosoftYaHei-30" x="58.642578"/>
                            <use xlink:href="#MicrosoftYaHei-32" x="117.285156"/>
                            <use xlink:href="#MicrosoftYaHei-30" x="175.927734"/>
                            <use xlink:href="#MicrosoftYaHei-2d" x="234.570312"/>
                            <use xlink:href="#MicrosoftYaHei-30" x="277.832031"/>
                            <use xlink:href="#MicrosoftYaHei-35" x="336.474609"/>
                        </g>
                    </g>
                </g>
                <g id="xtick_5">
                    <g id="line2d_5">
                        <path d="M 337.745455 307.584
L 337.745455 41.472 
" clip-path="url(#p0c738af1b0)" style="fill: none; stroke: #ffffff; stroke-linecap: round"/>
                    </g>
                    <g id="text_5">
                        <!-- 2020-06 -->
                        <g style="fill: #262626" transform="translate(316.014439 325.877125)scale(0.11 -0.11)">
                            <defs>
                                <path id="MicrosoftYaHei-36" d="M 3181 4219
Q 2803 4413 2391 4413 
Q 1763 4413 1381 3866 
Q 1000 3319 994 2372 
L 1009 2372 
Q 1353 3038 2106 3038 
Q 2734 3038 3109 2628 
Q 3484 2219 3484 1541 
Q 3484 831 3051 375 
Q 2619 -81 1947 -81 
Q 1209 -81 789 495 
Q 369 1072 369 2131 
Q 369 3413 920 4167 
Q 1472 4922 2372 4922 
Q 2888 4922 3181 4781 
L 3181 4219 
z
M 1031 1584 
Q 1031 1106 1286 765 
Q 1541 425 1963 425 
Q 2363 425 2613 719 
Q 2863 1013 2863 1475 
Q 2863 1975 2627 2253 
Q 2391 2531 1956 2531 
Q 1544 2531 1287 2250 
Q 1031 1969 1031 1584 
z
" transform="scale(0.015625)"/>
                            </defs>
                            <use xlink:href="#MicrosoftYaHei-32"/>
                            <use xlink:href="#MicrosoftYaHei-30" x="58.642578"/>
                            <use xlink:href="#MicrosoftYaHei-32" x="117.285156"/>
                            <use xlink:href="#MicrosoftYaHei-30" x="175.927734"/>
                            <use xlink:href="#MicrosoftYaHei-2d" x="234.570312"/>
                            <use xlink:href="#MicrosoftYaHei-30" x="277.832031"/>
                            <use xlink:href="#MicrosoftYaHei-36" x="336.474609"/>
                        </g>
                    </g>
                </g>
                <g id="xtick_6">
                    <g id="line2d_6">
                        <path d="M 400.581818 307.584
L 400.581818 41.472 
" clip-path="url(#p0c738af1b0)" style="fill: none; stroke: #ffffff; stroke-linecap: round"/>
                    </g>
                    <g id="text_6">
                        <!-- 2020-07 -->
                        <g style="fill: #262626" transform="translate(378.850803 325.877125)scale(0.11 -0.11)">
                            <defs>
                                <path id="MicrosoftYaHei-37" d="M 3422 4463
Q 2659 3131 2223 1998 
Q 1788 866 1684 0 
L 1047 0 
Q 1163 853 1594 1947 
Q 2025 3041 2747 4300 
L 347 4300 
L 347 4841 
L 3422 4841 
L 3422 4463 
z
" transform="scale(0.015625)"/>
                            </defs>
                            <use xlink:href="#MicrosoftYaHei-32"/>
                            <use xlink:href="#MicrosoftYaHei-30" x="58.642578"/>
                            <use xlink:href="#MicrosoftYaHei-32" x="117.285156"/>
                            <use xlink:href="#MicrosoftYaHei-30" x="175.927734"/>
                            <use xlink:href="#MicrosoftYaHei-2d" x="234.570312"/>
                            <use xlink:href="#MicrosoftYaHei-30" x="277.832031"/>
                            <use xlink:href="#MicrosoftYaHei-37" x="336.474609"/>
                        </g>
                    </g>
                </g>
                <g id="text_7">
                    <!-- 日期 -->
                    <g style="fill: #262626" transform="translate(224.16 342.204156)scale(0.12 -0.12)">
                        <defs>
                            <path id="MicrosoftYaHei-65e5" d="M 975 4909
L 5431 4909 
L 5431 -766 
L 4900 -766 
L 4900 -322 
L 1506 -322 
L 1506 -766 
L 975 -766 
L 975 4909 
z
M 1506 2103 
L 1506 134 
L 4900 134 
L 4900 2103 
L 1506 2103 
z
M 1506 4441 
L 1506 2572 
L 4900 2572 
L 4900 4441 
L 1506 4441 
z
" transform="scale(0.015625)"/>
                            <path id="MicrosoftYaHei-671f" d="M 3769 5066
L 5981 5066 
L 5981 -3 
Q 5981 -741 5281 -741 
Q 4931 -741 4594 -722 
Q 4569 -516 4519 -241 
Q 4975 -284 5175 -284 
Q 5519 -284 5519 59 
L 5519 1372 
L 4181 1372 
Q 4113 3 3350 -903 
Q 3181 -728 2975 -553 
Q 3481 28 3619 653 
Q 3769 1253 3769 2741 
L 3769 5066 
z
M 125 1141 
L 713 1141 
L 713 4028 
L 200 4028 
L 200 4453 
L 713 4453 
L 713 5216 
L 1175 5216 
L 1175 4453 
L 2475 4453 
L 2475 5241 
L 2938 5241 
L 2938 4453 
L 3444 4453 
L 3444 4028 
L 2938 4028 
L 2938 1141 
L 3438 1141 
L 3438 716 
L 125 716 
L 125 1141 
z
M 4209 1784 
L 5519 1784 
L 5519 3009 
L 4231 3009 
Q 4238 2203 4209 1784 
z
M 5519 4641 
L 4231 4641 
L 4231 3422 
L 5519 3422 
L 5519 4641 
z
M 1175 1141 
L 2475 1141 
L 2475 1841 
L 1175 1841 
L 1175 1141 
z
M 1175 2241 
L 2475 2241 
L 2475 2934 
L 1175 2934 
L 1175 2241 
z
M 1175 3334 
L 2475 3334 
L 2475 4028 
L 1175 4028 
L 1175 3334 
z
M 1175 597 
L 1556 297 
Q 925 -384 406 -847 
Q 275 -697 75 -516 
Q 669 -9 1175 597 
z
M 1994 303 
L 2294 609 
Q 2731 284 3119 -47 
L 2788 -403 
Q 2438 -53 1994 303 
z
" transform="scale(0.015625)"/>
                        </defs>
                        <use xlink:href="#MicrosoftYaHei-65e5"/>
                        <use xlink:href="#MicrosoftYaHei-671f" x="100"/>
                    </g>
                </g>
            </g>
            <g id="matplotlib.axis_2">
                <g id="ytick_1">
                    <g id="line2d_7">
                        <path d="M 57.6 295.488
L 414.72 295.488 
" clip-path="url(#p0c738af1b0)" style="fill: none; stroke: #ffffff; stroke-linecap: round"/>
                    </g>
                    <g id="text_8">
                        <!-- 0 -->
                        <g style="fill: #262626" transform="translate(41.649531 299.884562)scale(0.11 -0.11)">
                            <use xlink:href="#MicrosoftYaHei-30"/>
                        </g>
                    </g>
                </g>
                <g id="ytick_2">
                    <g id="line2d_8">
                        <path d="M 57.6 259.361935
L 414.72 259.361935 
" clip-path="url(#p0c738af1b0)" style="fill: none; stroke: #ffffff; stroke-linecap: round"/>
                    </g>
                    <g id="text_9">
                        <!-- 20000 -->
                        <g style="fill: #262626" transform="translate(15.847656 263.758498)scale(0.11 -0.11)">
                            <use xlink:href="#MicrosoftYaHei-32"/>
                            <use xlink:href="#MicrosoftYaHei-30" x="58.642578"/>
                            <use xlink:href="#MicrosoftYaHei-30" x="117.285156"/>
                            <use xlink:href="#MicrosoftYaHei-30" x="175.927734"/>
                            <use xlink:href="#MicrosoftYaHei-30" x="234.570312"/>
                        </g>
                    </g>
                </g>
                <g id="ytick_3">
                    <g id="line2d_9">
                        <path d="M 57.6 223.23587
L 414.72 223.23587 
" clip-path="url(#p0c738af1b0)" style="fill: none; stroke: #ffffff; stroke-linecap: round"/>
                    </g>
                    <g id="text_10">
                        <!-- 40000 -->
                        <g style="fill: #262626" transform="translate(15.847656 227.632433)scale(0.11 -0.11)">
                            <use xlink:href="#MicrosoftYaHei-34"/>
                            <use xlink:href="#MicrosoftYaHei-30" x="58.642578"/>
                            <use xlink:href="#MicrosoftYaHei-30" x="117.285156"/>
                            <use xlink:href="#MicrosoftYaHei-30" x="175.927734"/>
                            <use xlink:href="#MicrosoftYaHei-30" x="234.570312"/>
                        </g>
                    </g>
                </g>
                <g id="ytick_4">
                    <g id="line2d_10">
                        <path d="M 57.6 187.109805
L 414.72 187.109805 
" clip-path="url(#p0c738af1b0)" style="fill: none; stroke: #ffffff; stroke-linecap: round"/>
                    </g>
                    <g id="text_11">
                        <!-- 60000 -->
                        <g style="fill: #262626" transform="translate(15.847656 191.506368)scale(0.11 -0.11)">
                            <use xlink:href="#MicrosoftYaHei-36"/>
                            <use xlink:href="#MicrosoftYaHei-30" x="58.642578"/>
                            <use xlink:href="#MicrosoftYaHei-30" x="117.285156"/>
                            <use xlink:href="#MicrosoftYaHei-30" x="175.927734"/>
                            <use xlink:href="#MicrosoftYaHei-30" x="234.570312"/>
                        </g>
                    </g>
                </g>
                <g id="ytick_5">
                    <g id="line2d_11">
                        <path d="M 57.6 150.98374
L 414.72 150.98374 
" clip-path="url(#p0c738af1b0)" style="fill: none; stroke: #ffffff; stroke-linecap: round"/>
                    </g>
                    <g id="text_12">
                        <!-- 80000 -->
                        <g style="fill: #262626" transform="translate(15.847656 155.380303)scale(0.11 -0.11)">
                            <defs>
                                <path id="MicrosoftYaHei-38" d="M 306 1350
Q 306 1769 556 2122 
Q 806 2475 1200 2625 
Q 884 2803 700 3081 
Q 516 3359 516 3684 
Q 516 4028 692 4312 
Q 869 4597 1183 4759 
Q 1497 4922 1875 4922 
Q 2256 4922 2572 4761 
Q 2888 4600 3063 4315 
Q 3238 4031 3238 3684 
Q 3238 3366 3058 3086 
Q 2878 2806 2559 2625 
Q 2953 2472 3200 2119 
Q 3447 1766 3447 1350 
Q 3447 938 3250 611 
Q 3053 284 2690 103 
Q 2328 -78 1875 -78 
Q 1425 -78 1065 103 
Q 706 284 506 612 
Q 306 941 306 1350 
z
M 906 1378 
Q 906 947 1172 687 
Q 1438 428 1878 428 
Q 2309 428 2582 692 
Q 2856 956 2856 1378 
Q 2856 1778 2579 2051 
Q 2303 2325 1878 2325 
Q 1456 2325 1181 2058 
Q 906 1791 906 1378 
z
M 1081 3634 
Q 1081 3309 1312 3076 
Q 1544 2844 1878 2844 
Q 2206 2844 2445 3078 
Q 2684 3313 2684 3634 
Q 2684 3963 2454 4191 
Q 2225 4419 1878 4419 
Q 1534 4419 1307 4195 
Q 1081 3972 1081 3634 
z
" transform="scale(0.015625)"/>
                            </defs>
                            <use xlink:href="#MicrosoftYaHei-38"/>
                            <use xlink:href="#MicrosoftYaHei-30" x="58.642578"/>
                            <use xlink:href="#MicrosoftYaHei-30" x="117.285156"/>
                            <use xlink:href="#MicrosoftYaHei-30" x="175.927734"/>
                            <use xlink:href="#MicrosoftYaHei-30" x="234.570312"/>
                        </g>
                    </g>
                </g>
                <g id="ytick_6">
                    <g id="line2d_12">
                        <path d="M 57.6 114.857675
L 414.72 114.857675 
" clip-path="url(#p0c738af1b0)" style="fill: none; stroke: #ffffff; stroke-linecap: round"/>
                    </g>
                    <g id="text_13">
                        <!-- 100000 -->
                        <g style="fill: #262626" transform="translate(9.397188 119.254238)scale(0.11 -0.11)">
                            <defs>
                                <path id="MicrosoftYaHei-31" d="M 1781 0
L 1781 4141 
Q 1638 3997 1295 3819 
Q 953 3641 663 3569 
L 663 4169 
Q 1047 4275 1484 4508 
Q 1922 4741 2156 4947 
L 2388 4947 
L 2388 0 
L 1781 0 
z
" transform="scale(0.015625)"/>
                            </defs>
                            <use xlink:href="#MicrosoftYaHei-31"/>
                            <use xlink:href="#MicrosoftYaHei-30" x="58.642578"/>
                            <use xlink:href="#MicrosoftYaHei-30" x="117.285156"/>
                            <use xlink:href="#MicrosoftYaHei-30" x="175.927734"/>
                            <use xlink:href="#MicrosoftYaHei-30" x="234.570312"/>
                            <use xlink:href="#MicrosoftYaHei-30" x="293.212891"/>
                        </g>
                    </g>
                </g>
                <g id="ytick_7">
                    <g id="line2d_13">
                        <path d="M 57.6 78.731611
L 414.72 78.731611 
" clip-path="url(#p0c738af1b0)" style="fill: none; stroke: #ffffff; stroke-linecap: round"/>
                    </g>
                    <g id="text_14">
                        <!-- 120000 -->
                        <g style="fill: #262626" transform="translate(9.397188 83.128173)scale(0.11 -0.11)">
                            <use xlink:href="#MicrosoftYaHei-31"/>
                            <use xlink:href="#MicrosoftYaHei-32" x="58.642578"/>
                            <use xlink:href="#MicrosoftYaHei-30" x="117.285156"/>
                            <use xlink:href="#MicrosoftYaHei-30" x="175.927734"/>
                            <use xlink:href="#MicrosoftYaHei-30" x="234.570312"/>
                            <use xlink:href="#MicrosoftYaHei-30" x="293.212891"/>
                        </g>
                    </g>
                </g>
                <g id="ytick_8">
                    <g id="line2d_14">
                        <path d="M 57.6 42.605546
L 414.72 42.605546 
" clip-path="url(#p0c738af1b0)" style="fill: none; stroke: #ffffff; stroke-linecap: round"/>
                    </g>
                    <g id="text_15">
                        <!-- 140000 -->
                        <g style="fill: #262626" transform="translate(9.397188 47.002108)scale(0.11 -0.11)">
                            <use xlink:href="#MicrosoftYaHei-31"/>
                            <use xlink:href="#MicrosoftYaHei-34" x="58.642578"/>
                            <use xlink:href="#MicrosoftYaHei-30" x="117.285156"/>
                            <use xlink:href="#MicrosoftYaHei-30" x="175.927734"/>
                            <use xlink:href="#MicrosoftYaHei-30" x="234.570312"/>
                            <use xlink:href="#MicrosoftYaHei-30" x="293.212891"/>
                        </g>
                    </g>
                </g>
                <g id="text_16">
                    <!-- 新增确诊 -->
                    <g style="fill: #262626" transform="translate(2.414062 198.528)rotate(-90)scale(0.12 -0.12)">
                        <defs>
                            <path id="MicrosoftYaHei-65b0" d="M 3594 4797
Q 4888 4809 5981 5053 
L 6144 4572 
Q 4906 4409 4038 4359 
L 4038 2903 
L 6319 2903 
L 6319 2478 
L 5425 2478 
L 5425 -797 
L 4963 -797 
L 4963 2478 
L 4038 2478 
L 4038 2172 
Q 4038 253 3119 -816 
Q 2969 -622 2788 -416 
Q 3594 466 3594 2191 
L 3594 4797 
z
M 263 1991 
L 1538 1991 
L 1538 2584 
L 1988 2584 
L 1988 1991 
L 3213 1991 
L 3213 1591 
L 1988 1591 
L 1988 -41 
Q 1988 -703 1350 -703 
Q 1081 -703 744 -697 
Q 719 -491 675 -222 
Q 1038 -259 1244 -259 
Q 1538 -259 1538 59 
L 1538 1591 
L 263 1591 
L 263 1991 
z
M 88 3159 
L 1094 3159 
Q 828 3581 594 3884 
L 931 4122 
Q 1138 3872 1463 3416 
L 1109 3159 
L 1934 3159 
Q 2275 3650 2563 4128 
L 3006 3878 
Q 2703 3488 2428 3159 
L 3375 3159 
L 3375 2759 
L 88 2759 
L 88 3159 
z
M 288 4609 
L 1638 4609 
Q 1503 4866 1331 5166 
L 1731 5353 
Q 1925 5034 2094 4709 
L 1884 4609 
L 3213 4609 
L 3213 4209 
L 288 4209 
L 288 4609 
z
M 744 1309 
L 1169 1109 
Q 831 403 500 -166 
Q 319 -53 88 59 
Q 394 534 744 1309 
z
M 2544 1278 
Q 2894 803 3156 403 
L 2756 128 
Q 2481 609 2175 1034 
L 2544 1278 
z
" transform="scale(0.015625)"/>
                            <path id="MicrosoftYaHei-589e" d="M 2188 4459
L 3259 4459 
Q 3041 4781 2775 5116 
L 3131 5366 
Q 3456 4991 3694 4666 
L 3403 4459 
L 4453 4459 
Q 4759 4888 5050 5372 
L 5500 5116 
Q 5234 4772 4978 4459 
L 6038 4459 
L 6038 2122 
L 5600 2122 
L 5600 2309 
L 2625 2309 
L 2625 2122 
L 2188 2122 
L 2188 4459 
z
M 2438 1797 
L 5788 1797 
L 5788 -847 
L 5338 -847 
L 5338 -547 
L 2888 -547 
L 2888 -847 
L 2438 -847 
L 2438 1797 
z
M 81 428 
Q 466 538 894 672 
L 894 3253 
L 144 3253 
L 144 3697 
L 894 3697 
L 894 5259 
L 1356 5259 
L 1356 3697 
L 2000 3697 
L 2000 3253 
L 1356 3253 
L 1356 819 
Q 1709 931 2094 1059 
Q 2106 759 2125 553 
Q 1306 316 250 -53 
L 81 428 
z
M 5600 4084 
L 4325 4084 
L 4325 2684 
L 5600 2684 
L 5600 4084 
z
M 2625 2684 
L 3894 2684 
L 3894 4084 
L 2625 4084 
L 2625 2684 
z
M 5338 1409 
L 2888 1409 
L 2888 809 
L 5338 809 
L 5338 1409 
z
M 2888 -159 
L 5338 -159 
L 5338 434 
L 2888 434 
L 2888 -159 
z
M 5350 3609 
Q 5006 3066 4856 2884 
L 4519 3084 
Q 4744 3391 4981 3828 
L 5350 3609 
z
M 2863 3597 
L 3181 3803 
Q 3463 3441 3669 3122 
L 3319 2897 
Q 3119 3228 2863 3597 
z
" transform="scale(0.015625)"/>
                            <path id="MicrosoftYaHei-786e" d="M 2075 3453
Q 2956 4334 3456 5359 
L 3931 5272 
Q 3781 4991 3619 4722 
L 5438 4722 
L 5438 4328 
L 4909 3666 
L 6063 3666 
L 6063 -53 
Q 6063 -728 5475 -728 
Q 5144 -728 4906 -716 
Q 4869 -497 4813 -259 
Q 5156 -291 5331 -291 
Q 5619 -291 5619 16 
L 5619 734 
L 4588 734 
L 4588 -659 
L 4144 -659 
L 4144 734 
L 3113 734 
Q 2944 -263 2444 -884 
Q 2288 -703 2081 -509 
Q 2756 291 2756 1841 
L 2756 3506 
Q 2597 3316 2431 3134 
Q 2281 3278 2075 3453 
z
M 31 1691 
Q 741 2834 1066 4291 
L 231 4291 
L 231 4716 
L 2469 4716 
L 2469 4291 
L 1509 4291 
Q 1356 3613 1128 2991 
L 2200 2991 
L 2200 128 
L 1150 128 
L 1150 -347 
L 738 -347 
L 738 2059 
Q 559 1691 350 1347 
Q 225 1497 31 1691 
z
M 1788 541 
L 1788 2578 
L 1150 2578 
L 1150 541 
L 1788 541 
z
M 4875 4322 
L 3366 4322 
Q 3138 3981 2884 3666 
L 4384 3666 
L 4875 4322 
z
M 4588 1134 
L 5619 1134 
L 5619 1991 
L 4588 1991 
L 4588 1134 
z
M 5619 3241 
L 4588 3241 
L 4588 2391 
L 5619 2391 
L 5619 3241 
z
M 3166 1134 
L 4144 1134 
L 4144 1991 
L 3200 1991 
Q 3200 1841 3166 1134 
z
M 3200 2391 
L 4144 2391 
L 4144 3241 
L 3200 3241 
L 3200 2391 
z
" transform="scale(0.015625)"/>
                            <path id="MicrosoftYaHei-8bca" d="M 2069 997
Q 2094 678 2138 447 
Q 1569 16 1238 -259 
Q 1106 -378 956 -547 
L 600 -153 
Q 794 53 794 422 
L 794 2753 
L 88 2753 
L 88 3216 
L 1281 3216 
L 1281 353 
Q 1656 653 2069 997 
z
M 931 5172 
Q 1419 4691 1919 4134 
L 1481 3766 
Q 969 4428 556 4853 
L 931 5172 
z
M 4325 5278 
L 4238 5122 
Q 4894 3872 6319 3222 
Q 6113 2953 5981 2766 
Q 4569 3591 3963 4691 
Q 3400 3666 1925 2734 
Q 1731 2991 1575 3172 
Q 3144 3966 3750 5278 
L 4325 5278 
z
M 1963 -391 
Q 4413 328 5619 1622 
L 5988 1284 
Q 4719 -78 2219 -872 
Q 2094 -628 1963 -391 
z
M 2163 2253 
Q 3494 2803 4163 3597 
L 4556 3303 
Q 3794 2441 2438 1822 
Q 2294 2053 2163 2253 
z
M 2331 984 
Q 3969 1653 4931 2616 
L 5288 2284 
Q 4275 1241 2594 541 
Q 2500 709 2331 984 
z
" transform="scale(0.015625)"/>
                        </defs>
                        <use xlink:href="#MicrosoftYaHei-65b0"/>
                        <use xlink:href="#MicrosoftYaHei-589e" x="100"/>
                        <use xlink:href="#MicrosoftYaHei-786e" x="200"/>
                        <use xlink:href="#MicrosoftYaHei-8bca" x="300"/>
                    </g>
                </g>
            </g>
            <g id="line2d_15">
                <path d="M 73.832727 295.488
L 153.425455 295.432005 
L 159.709091 295.269437 
L 163.898182 295.249568 
L 165.992727 294.946109 
L 168.087273 295.488 
L 170.181818 294.348223 
L 172.276364 294.67697 
L 174.370909 294.041151 
L 176.465455 294.015863 
L 178.56 293.752143 
L 180.654545 292.310713 
L 182.749091 288.553602 
L 184.843636 288.279044 
L 186.938182 285.780926 
L 189.032727 282.170126 
L 191.127273 280.381886 
L 193.221818 275.456097 
L 195.316364 279.605176 
L 197.410909 270.288263 
L 199.505455 265.420276 
L 201.6 260.030267 
L 203.694545 260.778077 
L 205.789091 262.224926 
L 207.883636 256.648868 
L 209.978182 250.27623 
L 212.072727 246.557051 
L 214.167273 243.220809 
L 216.261818 236.098556 
L 218.356364 234.60113 
L 220.450909 249.019043 
L 222.545455 240.43549 
L 226.734545 236.602514 
L 228.829091 232.980876 
L 230.923636 233.295173 
L 233.018182 242.716851 
L 235.112727 245.460625 
L 237.207273 250.883148 
L 239.301818 247.664315 
L 241.396364 240.724498 
L 243.490909 237.267234 
L 245.585455 233.015196 
L 247.68 243.946943 
L 249.774545 249.961933 
L 251.869091 244.279303 
L 253.963636 228.177916 
L 256.058182 263.420698 
L 258.152727 247.564969 
L 260.247273 229.326725 
L 262.341818 234.613774 
L 264.436364 247.100749 
L 266.530909 256.161166 
L 268.625455 249.949289 
L 270.72 248.451863 
L 272.814545 242.339333 
L 274.909091 227.240444 
L 277.003636 249.871618 
L 279.098182 249.839104 
L 281.192727 252.960396 
L 283.287273 251.345561 
L 285.381818 249.210511 
L 287.476364 250.278036 
L 289.570909 241.549979 
L 291.665455 249.849942 
L 293.76 258.798368 
L 295.854545 261.549368 
L 297.949091 259.009706 
L 300.043636 252.371542 
L 302.138182 250.812702 
L 304.232727 246.939988 
L 306.327273 253.357783 
L 308.421818 259.36916 
L 310.516364 257.929537 
L 312.610909 263.733189 
L 314.705455 295.488 
L 316.8 206.635943 
L 318.894545 247.745599 
L 320.989091 255.624694 
L 323.083636 258.933841 
L 325.178182 260.469199 
L 327.272727 262.448907 
L 329.367273 261.64149 
L 333.556364 249.734339 
L 335.650909 254.273579 
L 337.745455 260.279537 
L 339.84 260.060974 
L 341.934545 258.843526 
L 344.029091 255.633725 
L 346.123636 262.642182 
L 348.218182 243.591101 
L 350.312727 260.877424 
L 352.407273 249.261087 
L 354.501818 263.545333 
L 356.596364 264.663435 
L 358.690909 253.876192 
L 360.785455 260.41501 
L 362.88 240.83107 
L 364.974545 255.326654 
L 367.069091 260.801559 
L 369.163636 260.920775 
L 371.258182 246.544407 
L 373.352727 254.313318 
L 377.541818 238.770078 
L 379.636364 234.819693 
L 381.730909 249.037106 
L 383.825455 238.513583 
L 385.92 231.344365 
L 388.014545 234.532491 
L 390.109091 223.501397 
L 392.203636 213.694976 
L 394.298182 199.488401 
L 396.392727 244.757973 
L 398.487273 53.568 
L 398.487273 53.568 
" clip-path="url(#p0c738af1b0)" style="fill: none; stroke: #4c72b0; stroke-width: 1.5; stroke-linecap: round"/>
            </g>
            <g id="line2d_16">
                <path d="M 82.210909 295.488
L 189.032727 295.488 
L 191.127273 295.249568 
L 193.221818 295.385041 
L 195.316364 295.193573 
L 205.789091 294.942496 
L 207.883636 294.583042 
L 209.978182 294.693227 
L 212.072727 294.09534 
L 214.167273 294.402412 
L 216.261818 294.436732 
L 218.356364 294.299452 
L 220.450909 293.764787 
L 222.545455 293.403526 
L 224.64 293.365594 
L 228.829091 292.261942 
L 230.923636 292.476892 
L 233.018182 291.539421 
L 235.112727 290.867476 
L 237.207273 290.477315 
L 239.301818 289.368245 
L 241.396364 289.259866 
L 243.490909 288.136346 
L 245.585455 286.844839 
L 247.68 284.541802 
L 249.774545 287.778698 
L 251.869091 285.296837 
L 256.058182 286.864708 
L 258.152727 284.922932 
L 260.247273 284.711595 
L 262.341818 283.998105 
L 264.436364 284.292532 
L 266.530909 283.90779 
L 268.625455 284.937383 
L 270.72 282.665053 
L 272.814545 281.158596 
L 274.909091 278.105944 
L 277.003636 276.281578 
L 279.098182 276.375505 
L 281.192727 277.240725 
L 283.287273 276.415244 
L 285.381818 275.201408 
L 287.476364 276.162362 
L 289.570909 275.949218 
L 291.665455 275.596989 
L 293.76 274.433729 
L 295.854545 275.801101 
L 297.949091 277.374391 
L 300.043636 277.471931 
L 302.138182 276.344798 
L 304.232727 278.87001 
L 306.327273 277.950602 
L 308.421818 279.364937 
L 310.516364 278.756213 
L 312.610909 279.657558 
L 314.705455 295.488 
L 316.8 263.438762 
L 318.894545 278.447335 
L 320.989091 279.955598 
L 323.083636 279.328811 
L 325.178182 279.384807 
L 327.272727 280.427044 
L 329.367273 280.367436 
L 331.461818 280.004369 
L 335.650909 278.747182 
L 341.934545 280.069395 
L 344.029091 279.536536 
L 346.123636 279.726198 
L 350.312727 279.260172 
L 352.407273 279.258365 
L 354.501818 279.995337 
L 356.596364 280.275314 
L 358.690909 279.630464 
L 360.785455 279.254753 
L 362.88 279.762324 
L 364.974545 279.529311 
L 367.069091 280.593223 
L 369.163636 280.589611 
L 371.258182 281.321164 
L 373.352727 281.416898 
L 375.447273 281.088151 
L 377.541818 281.238074 
L 383.825455 282.076198 
L 385.92 282.525968 
L 388.014545 282.639765 
L 390.109091 283.205138 
L 392.203636 283.11121 
L 398.487273 283.398412 
L 398.487273 283.398412 
" clip-path="url(#p0c738af1b0)" style="fill: none; stroke: #dd8452; stroke-width: 1.5; stroke-linecap: round"/>
            </g>
            <g id="line2d_17">
                <path d="M 82.210909 295.488
L 161.803636 295.488 
L 163.898182 295.283888 
L 165.992727 295.39046 
L 172.276364 295.112289 
L 174.370909 294.870244 
L 178.56 294.752835 
L 180.654545 294.266939 
L 182.749091 295.488 
L 184.843636 294.326547 
L 186.938182 294.198299 
L 189.032727 293.618476 
L 191.127273 294.286808 
L 193.221818 293.741305 
L 195.316364 292.910405 
L 197.410909 292.865248 
L 199.505455 286.366169 
L 201.6 290.954179 
L 203.694545 291.093264 
L 205.789091 290.757292 
L 207.883636 290.052834 
L 209.978182 287.677545 
L 212.072727 287.822049 
L 214.167273 287.449951 
L 216.261818 288.741457 
L 218.356364 284.825392 
L 220.450909 295.488 
L 222.545455 282.056329 
L 224.64 295.488 
L 226.734545 285.569589 
L 228.829091 287.641419 
L 230.923636 270.355097 
L 233.018182 285.936268 
L 235.112727 287.645031 
L 237.207273 286.001295 
L 239.301818 287.173586 
L 241.396364 287.148298 
L 243.490909 285.374508 
L 245.585455 285.508175 
L 247.68 284.921126 
L 249.774545 287.041726 
L 251.869091 287.71909 
L 256.058182 287.209712 
L 258.152727 285.759251 
L 262.341818 287.426469 
L 264.436364 295.488 
L 266.530909 287.704639 
L 268.625455 288.270012 
L 270.72 288.125508 
L 272.814545 284.592379 
L 274.909091 284.287114 
L 277.003636 286.806907 
L 279.098182 287.65045 
L 281.192727 288.289882 
L 283.287273 287.529428 
L 285.381818 284.449681 
L 287.476364 285.347414 
L 289.570909 287.090496 
L 291.665455 281.364515 
L 293.76 288.484962 
L 295.854545 289.34115 
L 297.949091 289.631965 
L 300.043636 289.263479 
L 302.138182 289.05756 
L 304.232727 289.256254 
L 306.327273 295.488 
L 308.421818 289.104524 
L 310.516364 290.591112 
L 312.610909 295.488 
L 314.705455 291.131197 
L 316.8 295.488 
L 318.894545 280.430656 
L 320.989091 295.488 
L 323.083636 291.143841 
L 325.178182 285.249873 
L 327.272727 291.851912 
L 329.367273 295.488 
L 333.556364 288.806484 
L 335.650909 291.990997 
L 337.745455 295.488 
L 339.84 289.666285 
L 341.934545 292.108407 
L 344.029091 295.488 
L 346.123636 289.247222 
L 348.218182 292.675586 
L 350.312727 295.488 
L 352.407273 290.916246 
L 354.501818 295.488 
L 356.596364 290.531504 
L 358.690909 293.20122 
L 360.785455 295.488 
L 362.88 290.130505 
L 367.069091 295.488 
L 369.163636 293.739498 
L 371.258182 291.16371 
L 373.352727 295.488 
L 375.447273 293.287923 
L 377.541818 290.717553 
L 379.636364 293.282504 
L 381.730909 295.488 
L 383.825455 293.757561 
L 385.92 293.824395 
L 388.014545 294.31029 
L 390.109091 290.975854 
L 392.203636 295.488 
L 394.298182 292.252911 
L 396.392727 295.488 
L 398.487273 292.773126 
L 398.487273 292.773126 
" clip-path="url(#p0c738af1b0)" style="fill: none; stroke: #55a868; stroke-width: 1.5; stroke-linecap: round"/>
            </g>
            <g id="line2d_18"/>
            <g id="line2d_19"/>
            <g id="line2d_20"/>
            <g id="patch_3">
                <path d="M 57.6 307.584
L 57.6 41.472 
" style="fill: none; stroke: #ffffff; stroke-width: 1.25; stroke-linejoin: miter; stroke-linecap: square"/>
            </g>
            <g id="patch_4">
                <path d="M 414.72 307.584
L 414.72 41.472 
" style="fill: none; stroke: #ffffff; stroke-width: 1.25; stroke-linejoin: miter; stroke-linecap: square"/>
            </g>
            <g id="patch_5">
                <path d="M 57.6 307.584
L 414.72 307.584 
" style="fill: none; stroke: #ffffff; stroke-width: 1.25; stroke-linejoin: miter; stroke-linecap: square"/>
            </g>
            <g id="patch_6">
                <path d="M 57.6 41.472
L 414.72 41.472 
" style="fill: none; stroke: #ffffff; stroke-width: 1.25; stroke-linejoin: miter; stroke-linecap: square"/>
            </g>
            <g id="legend_1">
                <g id="patch_7">
                    <path d="M 65.3 119.430594
L 133.5 119.430594 
Q 135.7 119.430594 135.7 117.230594 
L 135.7 49.172 
Q 135.7 46.972 133.5 46.972 
L 65.3 46.972 
Q 63.1 46.972 63.1 49.172 
L 63.1 117.230594 
Q 63.1 119.430594 65.3 119.430594 
z
" style="fill: #eaeaf2; opacity: 0.8; stroke: #cccccc; stroke-linejoin: miter"/>
                </g>
                <g id="text_17">
                    <!-- 国家 -->
                    <g style="fill: #262626" transform="translate(87.4 60.9645)scale(0.12 -0.12)">
                        <defs>
                            <path id="MicrosoftYaHei-56fd" d="M 469 4997
L 5938 4997 
L 5938 -834 
L 5456 -834 
L 5456 -522 
L 950 -522 
L 950 -841 
L 469 -841 
L 469 4997 
z
M 5456 4553 
L 950 4553 
L 950 -78 
L 5456 -78 
L 5456 4553 
z
M 1238 1009 
L 2963 1009 
L 2963 2247 
L 1456 2247 
L 1456 2672 
L 2963 2672 
L 2963 3509 
L 1338 3509 
L 1338 3934 
L 5063 3934 
L 5063 3509 
L 3425 3509 
L 3425 2672 
L 4938 2672 
L 4938 2247 
L 3425 2247 
L 3425 1009 
L 5163 1009 
L 5163 584 
L 1238 584 
L 1238 1009 
z
M 3750 1847 
L 4100 2109 
Q 4444 1753 4688 1441 
L 4319 1159 
Q 4019 1566 3750 1847 
z
" transform="scale(0.015625)"/>
                            <path id="MicrosoftYaHei-5bb6" d="M 194 -209
Q 2081 331 3200 1556 
Q 3113 1738 2997 1903 
Q 2066 941 425 422 
Q 331 634 200 847 
Q 1809 1291 2703 2256 
Q 2600 2359 2478 2459 
Q 1650 1872 444 1497 
Q 325 1703 163 1941 
Q 1653 2272 2550 3053 
L 975 3053 
L 975 3503 
L 5438 3503 
L 5438 3053 
L 3169 3053 
Q 3009 2884 2825 2728 
Q 3316 2331 3588 1841 
Q 4566 2319 5325 2822 
L 5619 2422 
Q 5109 2116 4534 1816 
Q 5088 616 6331 141 
Q 6125 -97 5944 -347 
Q 4722 278 4131 1609 
Q 3953 1522 3769 1431 
Q 4125 103 3656 -503 
Q 3431 -772 2794 -772 
Q 2544 -772 2006 -753 
Q 1969 -509 1913 -234 
Q 2400 -291 2781 -291 
Q 3456 -328 3438 522 
Q 3428 803 3369 1063 
Q 2263 -28 419 -641 
Q 325 -434 194 -209 
z
M 331 4528 
L 3156 4528 
Q 2972 4806 2725 5122 
L 3163 5403 
Q 3444 5059 3675 4722 
L 3356 4528 
L 6063 4528 
L 6063 3459 
L 5563 3459 
L 5563 4066 
L 831 4066 
L 831 3459 
L 331 3459 
L 331 4528 
z
" transform="scale(0.015625)"/>
                        </defs>
                        <use xlink:href="#MicrosoftYaHei-56fd"/>
                        <use xlink:href="#MicrosoftYaHei-5bb6" x="100"/>
                    </g>
                </g>
                <g id="line2d_21">
                    <path d="M 67.5 74.39075
L 78.5 74.39075 
L 89.5 74.39075 
" style="fill: none; stroke: #4c72b0; stroke-width: 1.5; stroke-linecap: round"/>
                </g>
                <g id="text_18">
                    <!-- 美国 -->
                    <g style="fill: #262626" transform="translate(98.3 78.24075)scale(0.11 -0.11)">
                        <defs>
                            <path id="MicrosoftYaHei-7f8e" d="M 150 2403
L 2956 2403 
L 2956 2991 
L 663 2991 
L 663 3416 
L 2956 3416 
L 2956 3991 
L 288 3991 
L 288 4416 
L 2259 4416 
Q 1938 4694 1425 5084 
L 1713 5397 
Q 2256 5028 2619 4753 
L 2288 4416 
L 3950 4416 
L 3719 4678 
Q 4213 5022 4613 5372 
L 4981 5022 
Q 4581 4722 4116 4416 
L 6150 4416 
L 6150 3991 
L 3469 3991 
L 3469 3416 
L 5813 3416 
L 5813 2991 
L 3469 2991 
L 3469 2403 
L 6263 2403 
L 6263 1978 
L 150 1978 
L 150 2403 
z
M 6313 -303 
Q 6075 -622 5950 -822 
Q 3897 -419 3216 803 
Q 2606 -488 406 -872 
Q 281 -659 100 -397 
Q 2200 -106 2741 916 
L 238 916 
L 238 1341 
L 2913 1341 
Q 2975 1559 3013 1841 
L 3525 1841 
Q 3475 1566 3413 1341 
L 6200 1341 
L 6200 916 
L 3631 916 
Q 4363 -138 6313 -303 
z
" transform="scale(0.015625)"/>
                        </defs>
                        <use xlink:href="#MicrosoftYaHei-7f8e"/>
                        <use xlink:href="#MicrosoftYaHei-56fd" x="100"/>
                    </g>
                </g>
                <g id="line2d_22">
                    <path d="M 67.5 91.418406
L 78.5 91.418406 
L 89.5 91.418406 
" style="fill: none; stroke: #dd8452; stroke-width: 1.5; stroke-linecap: round"/>
                </g>
                <g id="text_19">
                    <!-- 俄罗斯 -->
                    <g style="fill: #262626" transform="translate(98.3 95.268406)scale(0.11 -0.11)">
                        <defs>
                            <path id="MicrosoftYaHei-4fc4" d="M 3281 141
Q 3919 472 4431 909 
Q 4263 1734 4203 2941 
L 3056 2941 
L 3056 1903 
Q 3481 2003 3950 2116 
Q 3969 1853 3994 1653 
Q 3491 1528 3056 1422 
L 3056 84 
Q 3056 -384 2906 -541 
Q 2750 -709 2306 -716 
Q 2019 -722 1700 -703 
Q 1675 -428 1600 -191 
Q 1969 -247 2231 -247 
Q 2444 -247 2519 -178 
Q 2581 -122 2581 109 
L 2581 1303 
Q 2034 1166 1619 1059 
L 1475 1559 
Q 1981 1663 2581 1794 
L 2581 2941 
L 1513 2941 
L 1513 3391 
L 2581 3391 
L 2581 4269 
Q 2194 4209 1825 4166 
Q 1781 4378 1694 4616 
Q 2675 4709 3813 4972 
L 3956 4522 
Q 3494 4425 3056 4347 
L 3056 3391 
L 4184 3391 
Q 4159 4225 4150 5316 
L 4644 5316 
Q 4628 4313 4659 3391 
L 6313 3391 
L 6313 2941 
L 4675 2941 
Q 4725 1953 4831 1284 
Q 5372 1847 5738 2553 
L 6175 2316 
Q 5688 1422 4944 731 
Q 5138 -9 5450 -222 
Q 5681 -366 5756 -41 
Q 5825 334 5863 859 
Q 6113 741 6319 684 
Q 6263 184 6188 -172 
Q 6050 -803 5650 -803 
Q 5175 -803 4844 -247 
Q 4684 13 4563 400 
Q 4116 44 3588 -247 
Q 3463 -59 3281 141 
z
M 56 2391 
Q 956 3803 1300 5322 
L 1769 5228 
Q 1541 4400 1231 3666 
L 1231 -859 
L 800 -859 
L 800 2763 
Q 550 2300 263 1878 
Q 175 2122 56 2391 
z
M 4925 4691 
L 5219 4991 
Q 5663 4622 6119 4197 
L 5775 3847 
Q 5369 4291 4925 4691 
z
" transform="scale(0.015625)"/>
                            <path id="MicrosoftYaHei-7f57" d="M 475 5003
L 5956 5003 
L 5956 2678 
L 5481 2678 
L 5481 2922 
L 950 2922 
L 950 2678 
L 475 2678 
L 475 5003 
z
M 2213 2916 
L 2700 2716 
Q 2500 2459 2288 2216 
L 5619 2216 
L 5619 1772 
Q 4163 -453 431 -947 
Q 319 -728 181 -466 
Q 1831 -272 2794 141 
Q 2288 584 1550 1141 
L 1894 1459 
Q 2725 866 3319 384 
Q 4306 884 5013 1784 
L 1888 1784 
Q 1288 1191 456 584 
Q 281 816 131 991 
Q 1394 1766 2213 2916 
z
M 5481 4584 
L 4275 4584 
L 4275 3341 
L 5481 3341 
L 5481 4584 
z
M 2613 3341 
L 3813 3341 
L 3813 4584 
L 2613 4584 
L 2613 3341 
z
M 950 3341 
L 2150 3341 
L 2150 4584 
L 950 4584 
L 950 3341 
z
" transform="scale(0.015625)"/>
                            <path id="MicrosoftYaHei-65af" d="M 131 1216
L 613 1216 
L 613 4103 
L 175 4103 
L 175 4528 
L 613 4528 
L 613 5272 
L 1075 5272 
L 1075 4528 
L 2375 4528 
L 2375 5272 
L 2838 5272 
L 2838 4528 
L 3300 4528 
L 3300 4103 
L 2838 4103 
L 2838 1216 
L 3306 1216 
L 3306 791 
L 131 791 
L 131 1216 
z
M 3650 4753 
Q 4988 4884 5969 5122 
L 6163 4659 
Q 5175 4472 4113 4366 
L 4113 3016 
L 6275 3016 
L 6275 2578 
L 5563 2578 
L 5563 -816 
L 5100 -816 
L 5100 2578 
L 4113 2578 
Q 4103 428 3356 -778 
Q 3188 -603 2963 -428 
Q 3650 616 3650 2534 
L 3650 4753 
z
M 1075 1216 
L 2375 1216 
L 2375 1916 
L 1075 1916 
L 1075 1216 
z
M 1075 3409 
L 2375 3409 
L 2375 4103 
L 1075 4103 
L 1075 3409 
z
M 1075 2316 
L 2375 2316 
L 2375 3009 
L 1075 3009 
L 1075 2316 
z
M 1100 647 
L 1481 347 
Q 894 -378 419 -809 
Q 288 -659 75 -478 
Q 663 41 1100 647 
z
M 1931 391 
L 2256 678 
Q 2638 328 3006 -59 
L 2650 -384 
Q 2313 9 1931 391 
z
" transform="scale(0.015625)"/>
                        </defs>
                        <use xlink:href="#MicrosoftYaHei-4fc4"/>
                        <use xlink:href="#MicrosoftYaHei-7f57" x="100"/>
                        <use xlink:href="#MicrosoftYaHei-65af" x="200"/>
                    </g>
                </g>
                <g id="line2d_23">
                    <path d="M 67.5 108.446063
L 78.5 108.446063 
L 89.5 108.446063 
" style="fill: none; stroke: #55a868; stroke-width: 1.5; stroke-linecap: round"/>
                </g>
                <g id="text_20">
                    <!-- 英国 -->
                    <g style="fill: #262626" transform="translate(98.3 112.296063)scale(0.11 -0.11)">
                        <defs>
                            <path id="MicrosoftYaHei-82f1" d="M 144 1572
L 931 1572 
L 931 3222 
L 2966 3222 
Q 2966 3513 2963 3834 
L 3463 3834 
Q 3463 3513 3459 3222 
L 5469 3222 
L 5469 1572 
L 6281 1572 
L 6281 1134 
L 3572 1134 
Q 4300 -91 6319 -278 
Q 6106 -553 5956 -784 
Q 3847 -363 3209 963 
Q 2734 -159 444 -878 
Q 300 -672 88 -422 
Q 2288 150 2797 1134 
L 144 1134 
L 144 1572 
z
M 175 4591 
L 1813 4591 
L 1813 5328 
L 2300 5328 
L 2300 4591 
L 4113 4591 
L 4113 5328 
L 4600 5328 
L 4600 4591 
L 6250 4591 
L 6250 4153 
L 4600 4153 
L 4600 3584 
L 4113 3584 
L 4113 4153 
L 2300 4153 
L 2300 3584 
L 1813 3584 
L 1813 4153 
L 175 4153 
L 175 4591 
z
M 2963 2797 
L 1419 2797 
L 1419 1572 
L 2934 1572 
Q 2956 2069 2963 2797 
z
M 3431 1572 
L 4981 1572 
L 4981 2797 
L 3456 2797 
Q 3450 2072 3431 1572 
z
" transform="scale(0.015625)"/>
                        </defs>
                        <use xlink:href="#MicrosoftYaHei-82f1"/>
                        <use xlink:href="#MicrosoftYaHei-56fd" x="100"/>
                    </g>
                </g>
            </g>
        </g>
    </g>
    <defs>
        <clipPath id="p0c738af1b0">
            <rect x="57.6" y="41.472" width="357.12" height="266.112"/>
        </clipPath>
    </defs>
</svg>
