<?xml version="1.0" encoding="utf-8" standalone="no"?>
<!DOCTYPE svg PUBLIC "-//W3C//DTD SVG 1.1//EN"
        "http://www.w3.org/Graphics/SVG/1.1/DTD/svg11.dtd">
<svg xmlns:xlink="http://www.w3.org/1999/xlink" width="720pt" height="720pt" viewBox="0 0 720 720"
     xmlns="http://www.w3.org/2000/svg" version="1.1">
    <metadata>
        <rdf:RDF xmlns:dc="http://purl.org/dc/elements/1.1/" xmlns:cc="http://creativecommons.org/ns#"
                 xmlns:rdf="http://www.w3.org/1999/02/22-rdf-syntax-ns#">
            <cc:Work>
                <dc:type rdf:resource="http://purl.org/dc/dcmitype/StillImage"/>
                <dc:date>2021-12-15T09:45:16.276802</dc:date>
                <dc:format>image/svg+xml</dc:format>
                <dc:creator>
                    <cc:Agent>
                        <dc:title>Matplotlib v3.5.1, https://matplotlib.org/</dc:title>
                    </cc:Agent>
                </dc:creator>
            </cc:Work>
        </rdf:RDF>
    </metadata>
    <defs>
        <style type="text/css">*{stroke-linejoin: round; stroke-linecap: butt}</style>
    </defs>
    <g id="figure_1">
        <g id="patch_1">
            <path d="M 0 720
L 720 720 
L 720 0 
L 0 0 
z
" style="fill: #ffffff"/>
        </g>
        <g id="axes_1">
            <g id="patch_2">
                <path d="M 90 640.8
L 648 640.8 
L 648 86.4 
L 90 86.4 
z
" style="fill: #eaeaf2"/>
            </g>
            <g id="matplotlib.axis_1">
                <g id="xtick_1">
                    <g id="line2d_1">
                        <path d="M 131.727273 640.8
L 131.727273 86.4 
" clip-path="url(#p3a9fea0ff4)" style="fill: none; stroke: #ffffff; stroke-linecap: round"/>
                    </g>
                    <g id="text_1">
                        <!-- 2020-02 -->
                        <g style="fill: #262626" transform="translate(109.996257 659.093125)scale(0.11 -0.11)">
                            <defs>
                                <path id="MicrosoftYaHei-32" d="M 2666 3572
Q 2666 3963 2419 4186 
Q 2172 4409 1747 4409 
Q 1447 4409 1140 4256 
Q 834 4103 569 3819 
L 569 4413 
Q 806 4659 1107 4790 
Q 1409 4922 1816 4922 
Q 2472 4922 2872 4570 
Q 3272 4219 3272 3619 
Q 3272 3084 3026 2693 
Q 2781 2303 2188 1894 
Q 1581 1475 1376 1294 
Q 1172 1113 1090 947 
Q 1009 781 1009 544 
L 3416 544 
L 3416 0 
L 372 0 
L 372 241 
Q 372 659 486 951 
Q 600 1244 862 1520 
Q 1125 1797 1681 2184 
Q 2250 2584 2458 2886 
Q 2666 3188 2666 3572 
z
" transform="scale(0.015625)"/>
                                <path id="MicrosoftYaHei-30" d="M 284 2325
Q 284 3606 709 4264 
Q 1134 4922 1941 4922 
Q 3478 4922 3478 2441 
Q 3478 1216 3045 567 
Q 2613 -81 1831 -81 
Q 1094 -81 689 534 
Q 284 1150 284 2325 
z
M 909 2353 
Q 909 425 1888 425 
Q 2850 425 2850 2384 
Q 2850 4413 1906 4413 
Q 909 4413 909 2353 
z
" transform="scale(0.015625)"/>
                                <path id="MicrosoftYaHei-2d" d="M 2328 1681
L 488 1681 
L 488 2153 
L 2328 2153 
L 2328 1681 
z
" transform="scale(0.015625)"/>
                            </defs>
                            <use xlink:href="#MicrosoftYaHei-32"/>
                            <use xlink:href="#MicrosoftYaHei-30" x="58.642578"/>
                            <use xlink:href="#MicrosoftYaHei-32" x="117.285156"/>
                            <use xlink:href="#MicrosoftYaHei-30" x="175.927734"/>
                            <use xlink:href="#MicrosoftYaHei-2d" x="234.570312"/>
                            <use xlink:href="#MicrosoftYaHei-30" x="277.832031"/>
                            <use xlink:href="#MicrosoftYaHei-32" x="336.474609"/>
                        </g>
                    </g>
                </g>
                <g id="xtick_2">
                    <g id="line2d_2">
                        <path d="M 226.636364 640.8
L 226.636364 86.4 
" clip-path="url(#p3a9fea0ff4)" style="fill: none; stroke: #ffffff; stroke-linecap: round"/>
                    </g>
                    <g id="text_2">
                        <!-- 2020-03 -->
                        <g style="fill: #262626" transform="translate(204.905348 659.093125)scale(0.11 -0.11)">
                            <defs>
                                <path id="MicrosoftYaHei-33" d="M 447 809
Q 944 425 1569 425 
Q 2069 425 2361 670 
Q 2653 916 2653 1328 
Q 2653 2247 1338 2247 
L 934 2247 
L 934 2753 
L 1319 2753 
Q 2484 2753 2484 3616 
Q 2484 4413 1594 4413 
Q 1084 4413 634 4069 
L 634 4647 
Q 1109 4922 1744 4922 
Q 2363 4922 2738 4598 
Q 3113 4275 3113 3759 
Q 3113 2809 2144 2538 
L 2144 2525 
Q 2669 2469 2973 2155 
Q 3278 1841 3278 1372 
Q 3278 719 2808 319 
Q 2338 -81 1556 -81 
Q 869 -81 447 175 
L 447 809 
z
" transform="scale(0.015625)"/>
                            </defs>
                            <use xlink:href="#MicrosoftYaHei-32"/>
                            <use xlink:href="#MicrosoftYaHei-30" x="58.642578"/>
                            <use xlink:href="#MicrosoftYaHei-32" x="117.285156"/>
                            <use xlink:href="#MicrosoftYaHei-30" x="175.927734"/>
                            <use xlink:href="#MicrosoftYaHei-2d" x="234.570312"/>
                            <use xlink:href="#MicrosoftYaHei-30" x="277.832031"/>
                            <use xlink:href="#MicrosoftYaHei-33" x="336.474609"/>
                        </g>
                    </g>
                </g>
                <g id="xtick_3">
                    <g id="line2d_3">
                        <path d="M 328.090909 640.8
L 328.090909 86.4 
" clip-path="url(#p3a9fea0ff4)" style="fill: none; stroke: #ffffff; stroke-linecap: round"/>
                    </g>
                    <g id="text_3">
                        <!-- 2020-04 -->
                        <g style="fill: #262626" transform="translate(306.359893 659.093125)scale(0.11 -0.11)">
                            <defs>
                                <path id="MicrosoftYaHei-34" d="M 2906 4841
L 2906 1644 
L 3631 1644 
L 3631 1138 
L 2906 1138 
L 2906 0 
L 2313 0 
L 2313 1138 
L 53 1138 
L 53 1616 
Q 656 2294 1265 3178 
Q 1875 4063 2272 4841 
L 2906 4841 
z
M 741 1644 
L 2313 1644 
L 2313 3950 
Q 1988 3366 1616 2817 
Q 1244 2269 741 1644 
z
" transform="scale(0.015625)"/>
                            </defs>
                            <use xlink:href="#MicrosoftYaHei-32"/>
                            <use xlink:href="#MicrosoftYaHei-30" x="58.642578"/>
                            <use xlink:href="#MicrosoftYaHei-32" x="117.285156"/>
                            <use xlink:href="#MicrosoftYaHei-30" x="175.927734"/>
                            <use xlink:href="#MicrosoftYaHei-2d" x="234.570312"/>
                            <use xlink:href="#MicrosoftYaHei-30" x="277.832031"/>
                            <use xlink:href="#MicrosoftYaHei-34" x="336.474609"/>
                        </g>
                    </g>
                </g>
                <g id="xtick_4">
                    <g id="line2d_4">
                        <path d="M 426.272727 640.8
L 426.272727 86.4 
" clip-path="url(#p3a9fea0ff4)" style="fill: none; stroke: #ffffff; stroke-linecap: round"/>
                    </g>
                    <g id="text_4">
                        <!-- 2020-05 -->
                        <g style="fill: #262626" transform="translate(404.541712 659.093125)scale(0.11 -0.11)">
                            <defs>
                                <path id="MicrosoftYaHei-35" d="M 3294 1494
Q 3294 784 2823 350 
Q 2353 -84 1559 -84 
Q 878 -84 544 119 
L 544 744 
Q 1034 425 1544 425 
Q 2050 425 2361 704 
Q 2672 984 2672 1447 
Q 2672 1909 2348 2167 
Q 2025 2425 1434 2425 
Q 978 2425 613 2384 
L 791 4841 
L 3053 4841 
L 3053 4303 
L 1306 4303 
L 1206 2931 
L 1647 2950 
Q 2416 2950 2855 2567 
Q 3294 2184 3294 1494 
z
" transform="scale(0.015625)"/>
                            </defs>
                            <use xlink:href="#MicrosoftYaHei-32"/>
                            <use xlink:href="#MicrosoftYaHei-30" x="58.642578"/>
                            <use xlink:href="#MicrosoftYaHei-32" x="117.285156"/>
                            <use xlink:href="#MicrosoftYaHei-30" x="175.927734"/>
                            <use xlink:href="#MicrosoftYaHei-2d" x="234.570312"/>
                            <use xlink:href="#MicrosoftYaHei-30" x="277.832031"/>
                            <use xlink:href="#MicrosoftYaHei-35" x="336.474609"/>
                        </g>
                    </g>
                </g>
                <g id="xtick_5">
                    <g id="line2d_5">
                        <path d="M 527.727273 640.8
L 527.727273 86.4 
" clip-path="url(#p3a9fea0ff4)" style="fill: none; stroke: #ffffff; stroke-linecap: round"/>
                    </g>
                    <g id="text_5">
                        <!-- 2020-06 -->
                        <g style="fill: #262626" transform="translate(505.996257 659.093125)scale(0.11 -0.11)">
                            <defs>
                                <path id="MicrosoftYaHei-36" d="M 3181 4219
Q 2803 4413 2391 4413 
Q 1763 4413 1381 3866 
Q 1000 3319 994 2372 
L 1009 2372 
Q 1353 3038 2106 3038 
Q 2734 3038 3109 2628 
Q 3484 2219 3484 1541 
Q 3484 831 3051 375 
Q 2619 -81 1947 -81 
Q 1209 -81 789 495 
Q 369 1072 369 2131 
Q 369 3413 920 4167 
Q 1472 4922 2372 4922 
Q 2888 4922 3181 4781 
L 3181 4219 
z
M 1031 1584 
Q 1031 1106 1286 765 
Q 1541 425 1963 425 
Q 2363 425 2613 719 
Q 2863 1013 2863 1475 
Q 2863 1975 2627 2253 
Q 2391 2531 1956 2531 
Q 1544 2531 1287 2250 
Q 1031 1969 1031 1584 
z
" transform="scale(0.015625)"/>
                            </defs>
                            <use xlink:href="#MicrosoftYaHei-32"/>
                            <use xlink:href="#MicrosoftYaHei-30" x="58.642578"/>
                            <use xlink:href="#MicrosoftYaHei-32" x="117.285156"/>
                            <use xlink:href="#MicrosoftYaHei-30" x="175.927734"/>
                            <use xlink:href="#MicrosoftYaHei-2d" x="234.570312"/>
                            <use xlink:href="#MicrosoftYaHei-30" x="277.832031"/>
                            <use xlink:href="#MicrosoftYaHei-36" x="336.474609"/>
                        </g>
                    </g>
                </g>
                <g id="xtick_6">
                    <g id="line2d_6">
                        <path d="M 625.909091 640.8
L 625.909091 86.4 
" clip-path="url(#p3a9fea0ff4)" style="fill: none; stroke: #ffffff; stroke-linecap: round"/>
                    </g>
                    <g id="text_6">
                        <!-- 2020-07 -->
                        <g style="fill: #262626" transform="translate(604.178075 659.093125)scale(0.11 -0.11)">
                            <defs>
                                <path id="MicrosoftYaHei-37" d="M 3422 4463
Q 2659 3131 2223 1998 
Q 1788 866 1684 0 
L 1047 0 
Q 1163 853 1594 1947 
Q 2025 3041 2747 4300 
L 347 4300 
L 347 4841 
L 3422 4841 
L 3422 4463 
z
" transform="scale(0.015625)"/>
                            </defs>
                            <use xlink:href="#MicrosoftYaHei-32"/>
                            <use xlink:href="#MicrosoftYaHei-30" x="58.642578"/>
                            <use xlink:href="#MicrosoftYaHei-32" x="117.285156"/>
                            <use xlink:href="#MicrosoftYaHei-30" x="175.927734"/>
                            <use xlink:href="#MicrosoftYaHei-2d" x="234.570312"/>
                            <use xlink:href="#MicrosoftYaHei-30" x="277.832031"/>
                            <use xlink:href="#MicrosoftYaHei-37" x="336.474609"/>
                        </g>
                    </g>
                </g>
                <g id="text_7">
                    <!-- 日期 -->
                    <g style="fill: #262626" transform="translate(357 675.420156)scale(0.12 -0.12)">
                        <defs>
                            <path id="MicrosoftYaHei-65e5" d="M 975 4909
L 5431 4909 
L 5431 -766 
L 4900 -766 
L 4900 -322 
L 1506 -322 
L 1506 -766 
L 975 -766 
L 975 4909 
z
M 1506 2103 
L 1506 134 
L 4900 134 
L 4900 2103 
L 1506 2103 
z
M 1506 4441 
L 1506 2572 
L 4900 2572 
L 4900 4441 
L 1506 4441 
z
" transform="scale(0.015625)"/>
                            <path id="MicrosoftYaHei-671f" d="M 3769 5066
L 5981 5066 
L 5981 -3 
Q 5981 -741 5281 -741 
Q 4931 -741 4594 -722 
Q 4569 -516 4519 -241 
Q 4975 -284 5175 -284 
Q 5519 -284 5519 59 
L 5519 1372 
L 4181 1372 
Q 4113 3 3350 -903 
Q 3181 -728 2975 -553 
Q 3481 28 3619 653 
Q 3769 1253 3769 2741 
L 3769 5066 
z
M 125 1141 
L 713 1141 
L 713 4028 
L 200 4028 
L 200 4453 
L 713 4453 
L 713 5216 
L 1175 5216 
L 1175 4453 
L 2475 4453 
L 2475 5241 
L 2938 5241 
L 2938 4453 
L 3444 4453 
L 3444 4028 
L 2938 4028 
L 2938 1141 
L 3438 1141 
L 3438 716 
L 125 716 
L 125 1141 
z
M 4209 1784 
L 5519 1784 
L 5519 3009 
L 4231 3009 
Q 4238 2203 4209 1784 
z
M 5519 4641 
L 4231 4641 
L 4231 3422 
L 5519 3422 
L 5519 4641 
z
M 1175 1141 
L 2475 1141 
L 2475 1841 
L 1175 1841 
L 1175 1141 
z
M 1175 2241 
L 2475 2241 
L 2475 2934 
L 1175 2934 
L 1175 2241 
z
M 1175 3334 
L 2475 3334 
L 2475 4028 
L 1175 4028 
L 1175 3334 
z
M 1175 597 
L 1556 297 
Q 925 -384 406 -847 
Q 275 -697 75 -516 
Q 669 -9 1175 597 
z
M 1994 303 
L 2294 609 
Q 2731 284 3119 -47 
L 2788 -403 
Q 2438 -53 1994 303 
z
" transform="scale(0.015625)"/>
                        </defs>
                        <use xlink:href="#MicrosoftYaHei-65e5"/>
                        <use xlink:href="#MicrosoftYaHei-671f" x="100"/>
                    </g>
                </g>
            </g>
            <g id="matplotlib.axis_2">
                <g id="ytick_1">
                    <g id="line2d_7">
                        <path d="M 90 615.6
L 648 615.6 
" clip-path="url(#p3a9fea0ff4)" style="fill: none; stroke: #ffffff; stroke-linecap: round"/>
                    </g>
                    <g id="text_8">
                        <!-- 0 -->
                        <g style="fill: #262626" transform="translate(74.049531 619.996562)scale(0.11 -0.11)">
                            <use xlink:href="#MicrosoftYaHei-30"/>
                        </g>
                    </g>
                </g>
                <g id="ytick_2">
                    <g id="line2d_8">
                        <path d="M 90 513.637629
L 648 513.637629 
" clip-path="url(#p3a9fea0ff4)" style="fill: none; stroke: #ffffff; stroke-linecap: round"/>
                    </g>
                    <g id="text_9">
                        <!-- 1000 -->
                        <g style="fill: #262626" transform="translate(54.698125 518.034191)scale(0.11 -0.11)">
                            <defs>
                                <path id="MicrosoftYaHei-31" d="M 1781 0
L 1781 4141 
Q 1638 3997 1295 3819 
Q 953 3641 663 3569 
L 663 4169 
Q 1047 4275 1484 4508 
Q 1922 4741 2156 4947 
L 2388 4947 
L 2388 0 
L 1781 0 
z
" transform="scale(0.015625)"/>
                            </defs>
                            <use xlink:href="#MicrosoftYaHei-31"/>
                            <use xlink:href="#MicrosoftYaHei-30" x="58.642578"/>
                            <use xlink:href="#MicrosoftYaHei-30" x="117.285156"/>
                            <use xlink:href="#MicrosoftYaHei-30" x="175.927734"/>
                        </g>
                    </g>
                </g>
                <g id="ytick_3">
                    <g id="line2d_9">
                        <path d="M 90 411.675258
L 648 411.675258 
" clip-path="url(#p3a9fea0ff4)" style="fill: none; stroke: #ffffff; stroke-linecap: round"/>
                    </g>
                    <g id="text_10">
                        <!-- 2000 -->
                        <g style="fill: #262626" transform="translate(54.698125 416.07182)scale(0.11 -0.11)">
                            <use xlink:href="#MicrosoftYaHei-32"/>
                            <use xlink:href="#MicrosoftYaHei-30" x="58.642578"/>
                            <use xlink:href="#MicrosoftYaHei-30" x="117.285156"/>
                            <use xlink:href="#MicrosoftYaHei-30" x="175.927734"/>
                        </g>
                    </g>
                </g>
                <g id="ytick_4">
                    <g id="line2d_10">
                        <path d="M 90 309.712887
L 648 309.712887 
" clip-path="url(#p3a9fea0ff4)" style="fill: none; stroke: #ffffff; stroke-linecap: round"/>
                    </g>
                    <g id="text_11">
                        <!-- 3000 -->
                        <g style="fill: #262626" transform="translate(54.698125 314.109449)scale(0.11 -0.11)">
                            <use xlink:href="#MicrosoftYaHei-33"/>
                            <use xlink:href="#MicrosoftYaHei-30" x="58.642578"/>
                            <use xlink:href="#MicrosoftYaHei-30" x="117.285156"/>
                            <use xlink:href="#MicrosoftYaHei-30" x="175.927734"/>
                        </g>
                    </g>
                </g>
                <g id="ytick_5">
                    <g id="line2d_11">
                        <path d="M 90 207.750516
L 648 207.750516 
" clip-path="url(#p3a9fea0ff4)" style="fill: none; stroke: #ffffff; stroke-linecap: round"/>
                    </g>
                    <g id="text_12">
                        <!-- 4000 -->
                        <g style="fill: #262626" transform="translate(54.698125 212.147078)scale(0.11 -0.11)">
                            <use xlink:href="#MicrosoftYaHei-34"/>
                            <use xlink:href="#MicrosoftYaHei-30" x="58.642578"/>
                            <use xlink:href="#MicrosoftYaHei-30" x="117.285156"/>
                            <use xlink:href="#MicrosoftYaHei-30" x="175.927734"/>
                        </g>
                    </g>
                </g>
                <g id="ytick_6">
                    <g id="line2d_12">
                        <path d="M 90 105.788145
L 648 105.788145 
" clip-path="url(#p3a9fea0ff4)" style="fill: none; stroke: #ffffff; stroke-linecap: round"/>
                    </g>
                    <g id="text_13">
                        <!-- 5000 -->
                        <g style="fill: #262626" transform="translate(54.698125 110.184707)scale(0.11 -0.11)">
                            <use xlink:href="#MicrosoftYaHei-35"/>
                            <use xlink:href="#MicrosoftYaHei-30" x="58.642578"/>
                            <use xlink:href="#MicrosoftYaHei-30" x="117.285156"/>
                            <use xlink:href="#MicrosoftYaHei-30" x="175.927734"/>
                        </g>
                    </g>
                </g>
                <g id="text_14">
                    <!-- 新增死亡 -->
                    <g style="fill: #262626" transform="translate(47.715 387.6)rotate(-90)scale(0.12 -0.12)">
                        <defs>
                            <path id="MicrosoftYaHei-65b0" d="M 3594 4797
Q 4888 4809 5981 5053 
L 6144 4572 
Q 4906 4409 4038 4359 
L 4038 2903 
L 6319 2903 
L 6319 2478 
L 5425 2478 
L 5425 -797 
L 4963 -797 
L 4963 2478 
L 4038 2478 
L 4038 2172 
Q 4038 253 3119 -816 
Q 2969 -622 2788 -416 
Q 3594 466 3594 2191 
L 3594 4797 
z
M 263 1991 
L 1538 1991 
L 1538 2584 
L 1988 2584 
L 1988 1991 
L 3213 1991 
L 3213 1591 
L 1988 1591 
L 1988 -41 
Q 1988 -703 1350 -703 
Q 1081 -703 744 -697 
Q 719 -491 675 -222 
Q 1038 -259 1244 -259 
Q 1538 -259 1538 59 
L 1538 1591 
L 263 1591 
L 263 1991 
z
M 88 3159 
L 1094 3159 
Q 828 3581 594 3884 
L 931 4122 
Q 1138 3872 1463 3416 
L 1109 3159 
L 1934 3159 
Q 2275 3650 2563 4128 
L 3006 3878 
Q 2703 3488 2428 3159 
L 3375 3159 
L 3375 2759 
L 88 2759 
L 88 3159 
z
M 288 4609 
L 1638 4609 
Q 1503 4866 1331 5166 
L 1731 5353 
Q 1925 5034 2094 4709 
L 1884 4609 
L 3213 4609 
L 3213 4209 
L 288 4209 
L 288 4609 
z
M 744 1309 
L 1169 1109 
Q 831 403 500 -166 
Q 319 -53 88 59 
Q 394 534 744 1309 
z
M 2544 1278 
Q 2894 803 3156 403 
L 2756 128 
Q 2481 609 2175 1034 
L 2544 1278 
z
" transform="scale(0.015625)"/>
                            <path id="MicrosoftYaHei-589e" d="M 2188 4459
L 3259 4459 
Q 3041 4781 2775 5116 
L 3131 5366 
Q 3456 4991 3694 4666 
L 3403 4459 
L 4453 4459 
Q 4759 4888 5050 5372 
L 5500 5116 
Q 5234 4772 4978 4459 
L 6038 4459 
L 6038 2122 
L 5600 2122 
L 5600 2309 
L 2625 2309 
L 2625 2122 
L 2188 2122 
L 2188 4459 
z
M 2438 1797 
L 5788 1797 
L 5788 -847 
L 5338 -847 
L 5338 -547 
L 2888 -547 
L 2888 -847 
L 2438 -847 
L 2438 1797 
z
M 81 428 
Q 466 538 894 672 
L 894 3253 
L 144 3253 
L 144 3697 
L 894 3697 
L 894 5259 
L 1356 5259 
L 1356 3697 
L 2000 3697 
L 2000 3253 
L 1356 3253 
L 1356 819 
Q 1709 931 2094 1059 
Q 2106 759 2125 553 
Q 1306 316 250 -53 
L 81 428 
z
M 5600 4084 
L 4325 4084 
L 4325 2684 
L 5600 2684 
L 5600 4084 
z
M 2625 2684 
L 3894 2684 
L 3894 4084 
L 2625 4084 
L 2625 2684 
z
M 5338 1409 
L 2888 1409 
L 2888 809 
L 5338 809 
L 5338 1409 
z
M 2888 -159 
L 5338 -159 
L 5338 434 
L 2888 434 
L 2888 -159 
z
M 5350 3609 
Q 5006 3066 4856 2884 
L 4519 3084 
Q 4744 3391 4981 3828 
L 5350 3609 
z
M 2863 3597 
L 3181 3803 
Q 3463 3441 3669 3122 
L 3319 2897 
Q 3119 3228 2863 3597 
z
" transform="scale(0.015625)"/>
                            <path id="MicrosoftYaHei-6b7b" d="M 250 4847
L 6150 4847 
L 6150 4397 
L 4269 4397 
L 4269 2109 
Q 5044 2697 5844 3522 
L 6213 3141 
Q 5206 2216 4269 1541 
L 4269 266 
Q 4269 -141 4606 -141 
L 5225 -141 
Q 5613 -141 5713 291 
Q 5794 716 5844 1316 
Q 6119 1184 6350 1116 
Q 6275 534 6181 103 
Q 6019 -616 5300 -616 
L 4506 -616 
Q 3781 -616 3781 247 
L 3781 4397 
L 1963 4397 
Q 1825 3903 1650 3453 
L 3275 3453 
L 3275 3022 
Q 2831 572 544 -828 
Q 363 -616 181 -447 
Q 1306 234 1931 1078 
Q 1475 1459 1038 1778 
L 1300 2159 
Q 1763 1822 2206 1484 
Q 2631 2191 2788 3016 
L 1469 3016 
Q 1069 2109 419 1328 
Q 244 1566 106 1722 
Q 1063 2903 1456 4397 
L 250 4397 
L 250 4847 
z
" transform="scale(0.015625)"/>
                            <path id="MicrosoftYaHei-4ea1" d="M 125 4059
L 6269 4059 
L 6269 3566 
L 1606 3566 
L 1606 28 
L 5975 28 
L 5975 -447 
L 1050 -447 
L 1050 3566 
L 125 3566 
L 125 4059 
z
M 2675 5047 
L 3088 5328 
Q 3550 4772 3806 4416 
L 3350 4084 
Q 2988 4647 2675 5047 
z
" transform="scale(0.015625)"/>
                        </defs>
                        <use xlink:href="#MicrosoftYaHei-65b0"/>
                        <use xlink:href="#MicrosoftYaHei-589e" x="100"/>
                        <use xlink:href="#MicrosoftYaHei-6b7b" x="200"/>
                        <use xlink:href="#MicrosoftYaHei-4ea1" x="300"/>
                    </g>
                </g>
            </g>
            <g id="line2d_13">
                <path d="M 115.363636 615.6
L 229.909091 615.6 
L 233.181818 615.090188 
L 239.727273 615.396075 
L 243 615.294113 
L 246.272727 615.6 
L 249.545455 615.090188 
L 252.818182 615.396075 
L 256.090909 615.090188 
L 259.363636 615.090188 
L 262.636364 615.6 
L 265.909091 614.784301 
L 269.181818 615.396075 
L 272.454545 613.662715 
L 275.727273 614.988226 
L 279 613.152903 
L 282.272727 613.764677 
L 285.545455 611.011693 
L 288.818182 609.99207 
L 292.090909 610.297957 
L 295.363636 607.44301 
L 298.636364 602.039005 
L 301.909091 603.364515 
L 305.181818 594.289864 
L 308.454545 590.313332 
L 311.727273 590.517257 
L 315 573.387578 
L 318.272727 566.5561 
L 321.545455 582.360267 
L 324.818182 549.018572 
L 328.090909 522.71228 
L 331.363636 507.927736 
L 334.636364 520.673033 
L 337.909091 503.951204 
L 341.181818 478.970423 
L 344.454545 498.241311 
L 347.727273 479.072385 
L 351 419.93421 
L 354.272727 420.036172 
L 357.545455 421.259721 
L 360.818182 407.086951 
L 364.090909 425.440178 
L 367.363636 462.656443 
L 370.636364 461.840744 
L 373.909091 370.380498 
L 377.181818 111.6 
L 380.454545 379.455149 
L 383.727273 231.609711 
L 387 410.553672 
L 390.272727 451.74647 
L 393.545455 436.554076 
L 396.818182 341.117297 
L 400.090909 443.487518 
L 403.363636 290.034149 
L 406.636364 408.412462 
L 409.909091 417.996925 
L 413.181818 520.774995 
L 416.454545 467.24475 
L 419.727273 403.008456 
L 423 345.195792 
L 426.272727 422.279345 
L 429.545455 388.733724 
L 432.818182 499.260935 
L 436.090909 482.946955 
L 439.363636 473.566417 
L 442.636364 404.232005 
L 445.909091 369.462836 
L 449.181818 401.071171 
L 452.454545 451.440583 
L 455.727273 454.295529 
L 459 539.739996 
L 462.272727 483.966579 
L 465.545455 456.130852 
L 468.818182 426.765689 
L 472.090909 446.240502 
L 475.363636 439.918835 
L 478.636364 502.013919 
L 481.909091 531.481044 
L 485.181818 534.437953 
L 488.454545 463.77803 
L 491.727273 615.6 
L 495 329.289662 
L 498.272727 477.644912 
L 501.545455 506.80615 
L 504.818182 549.834271 
L 508.090909 564.618814 
L 511.363636 531.073194 
L 514.636364 467.448675 
L 517.909091 500.382521 
L 521.181818 493.245155 
L 524.454545 519.041635 
L 527.727273 556.2579 
L 531 538.414485 
L 534.272727 513.025855 
L 537.545455 509.865021 
L 540.818182 516.084726 
L 544.090909 513.229779 
L 547.363636 554.830427 
L 550.636364 543.920453 
L 553.909091 556.155938 
L 557.181818 514.045478 
L 560.454545 519.245559 
L 563.727273 535.865426 
L 567 517.308274 
L 570.272727 546.877362 
L 573.545455 585.317176 
L 576.818182 577.364111 
L 580.090909 523.731904 
L 583.363636 544.532227 
L 586.636364 543.512604 
L 589.909091 544.63419 
L 593.181818 553.097067 
L 596.454545 589.80352 
L 599.727273 569.309084 
L 603 531.175157 
L 606.272727 540.045883 
L 609.545455 370.48246 
L 612.818182 552.893142 
L 616.090909 562.579567 
L 619.363636 591.740805 
L 622.636364 233.037184 
L 622.636364 233.037184 
" clip-path="url(#p3a9fea0ff4)" style="fill: none; stroke: #4c72b0; stroke-width: 1.5; stroke-linecap: round"/>
            </g>
            <g id="line2d_14">
                <path d="M 128.454545 615.6
L 315 615.498038 
L 318.272727 615.192151 
L 321.545455 615.498038 
L 324.818182 614.784301 
L 334.636364 615.192151 
L 337.909091 614.682339 
L 341.181818 615.396075 
L 344.454545 615.396075 
L 347.727273 614.478414 
L 351 615.090188 
L 354.272727 614.274489 
L 357.545455 613.764677 
L 360.818182 614.376452 
L 364.090909 613.152903 
L 367.363636 613.764677 
L 370.636364 613.356828 
L 380.454545 611.419543 
L 383.727273 611.521505 
L 387 610.705806 
L 390.272727 611.113656 
L 396.818182 609.788145 
L 400.090909 611.31758 
L 403.363636 609.482258 
L 406.636364 608.870484 
L 409.909091 608.870484 
L 413.181818 610.807769 
L 416.454545 608.156747 
L 419.727273 604.893951 
L 426.272727 605.811612 
L 429.545455 610.195994 
L 432.818182 609.686182 
L 439.363636 605.913575 
L 442.636364 606.831236 
L 445.909091 606.627311 
L 449.181818 605.607688 
L 452.454545 604.995913 
L 455.727273 606.627311 
L 459 606.015537 
L 462.272727 604.690026 
L 465.545455 605.811612 
L 468.818182 606.117499 
L 472.090909 604.078252 
L 475.363636 603.466478 
L 478.636364 606.015537 
L 481.909091 606.321424 
L 485.181818 603.874327 
L 488.454545 601.83508 
L 491.727273 615.6 
L 495 587.356423 
L 498.272727 601.42723 
L 501.545455 599.999757 
L 504.818182 606.219462 
L 508.090909 597.858547 
L 511.363636 599.184058 
L 514.636364 597.858547 
L 517.909091 591.94473 
L 521.181818 597.144811 
L 524.454545 601.529193 
L 527.727273 599.082096 
L 531 597.042848 
L 534.272727 597.450698 
L 537.545455 598.368359 
L 540.818182 600.917419 
L 544.090909 595.513413 
L 547.363636 601.937042 
L 550.636364 604.180214 
L 553.909091 598.164435 
L 557.181818 593.576128 
L 560.454545 597.858547 
L 563.727273 596.940886 
L 567 603.97629 
L 570.272727 603.466478 
L 573.545455 601.019381 
L 576.818182 595.921262 
L 580.090909 595.8193 
L 583.363636 597.042848 
L 586.636364 597.144811 
L 589.909091 599.184058 
L 593.181818 604.486102 
L 596.454545 605.913575 
L 599.727273 599.999757 
L 603 599.897795 
L 606.272727 606.219462 
L 609.545455 597.654623 
L 612.818182 596.431074 
L 616.090909 604.995913 
L 619.363636 606.117499 
L 622.636364 599.897795 
L 622.636364 599.897795 
" clip-path="url(#p3a9fea0ff4)" style="fill: none; stroke: #dd8452; stroke-width: 1.5; stroke-linecap: round"/>
            </g>
            <g id="line2d_15">
                <path d="M 128.454545 615.6
L 256.090909 615.6 
L 259.363636 615.192151 
L 262.636364 615.6 
L 269.181818 615.6 
L 272.454545 614.070564 
L 275.727273 614.172527 
L 279 613.45879 
L 282.272727 615.192151 
L 285.545455 611.113656 
L 288.818182 611.521505 
L 292.090909 612.235242 
L 295.363636 609.890107 
L 298.636364 610.705806 
L 301.909091 610.094032 
L 305.181818 606.729274 
L 308.454545 611.215618 
L 311.727273 585.623063 
L 315 589.089784 
L 318.272727 594.289864 
L 321.545455 597.246773 
L 324.818182 576.752337 
L 328.090909 558.195185 
L 331.363636 557.583411 
L 334.636364 545.857738 
L 337.909091 543.410641 
L 341.181818 552.281368 
L 344.454545 515.676876 
L 347.727273 590.619219 
L 351 615.6 
L 354.272727 519.959296 
L 357.545455 525.771151 
L 360.818182 422.177382 
L 364.090909 540.453733 
L 367.363636 542.49298 
L 370.636364 536.273275 
L 373.909091 538.006636 
L 377.181818 527.810399 
L 380.454545 529.237872 
L 383.727273 525.057415 
L 387 554.830427 
L 390.272727 569.818895 
L 393.545455 531.175157 
L 396.818182 537.802711 
L 400.090909 550.548007 
L 403.363636 537.292899 
L 406.636364 532.704592 
L 413.181818 615.6 
L 416.454545 578.893546 
L 419.727273 555.850051 
L 423 165.028282 
L 426.272727 546.877362 
L 429.545455 540.249808 
L 432.818182 552.281368 
L 436.090909 583.481853 
L 439.363636 586.234837 
L 442.636364 544.940077 
L 445.909091 549.426421 
L 449.181818 560.642282 
L 452.454545 551.771556 
L 455.727273 552.995104 
L 459 594.187902 
L 462.272727 551.669593 
L 465.545455 565.230589 
L 468.818182 571.960105 
L 472.090909 576.44645 
L 475.363636 567.88161 
L 478.636364 615.6 
L 481.909091 598.266397 
L 485.181818 599.286021 
L 488.454545 560.030508 
L 491.727273 615.6 
L 495 508.335586 
L 498.272727 586.846611 
L 501.545455 615.6 
L 504.818182 603.56844 
L 508.090909 589.599595 
L 511.363636 573.591503 
L 514.636364 615.6 
L 517.909091 577.160186 
L 521.181818 560.642282 
L 524.454545 604.078252 
L 527.727273 615.6 
L 531 525.873113 
L 534.272727 578.995509 
L 537.545455 615.6 
L 540.818182 561.254056 
L 544.090909 594.799676 
L 547.363636 615.6 
L 550.636364 602.140967 
L 553.909091 615.6 
L 557.181818 561.457981 
L 560.454545 600.203682 
L 563.727273 615.6 
L 567 576.548412 
L 570.272727 611.929355 
L 573.545455 615.6 
L 576.818182 611.72543 
L 580.090909 573.081691 
L 583.363636 615.6 
L 586.636364 601.83508 
L 589.909091 584.909326 
L 593.181818 611.215618 
L 596.454545 615.6 
L 599.727273 614.070564 
L 603 587.050536 
L 606.272727 599.897795 
L 609.545455 581.64653 
L 612.818182 615.6 
L 616.090909 601.733118 
L 619.363636 615.6 
L 622.636364 597.246773 
L 622.636364 597.246773 
" clip-path="url(#p3a9fea0ff4)" style="fill: none; stroke: #55a868; stroke-width: 1.5; stroke-linecap: round"/>
            </g>
            <g id="line2d_16"/>
            <g id="line2d_17"/>
            <g id="line2d_18"/>
            <g id="patch_3">
                <path d="M 90 640.8
L 90 86.4 
" style="fill: none; stroke: #ffffff; stroke-width: 1.25; stroke-linejoin: miter; stroke-linecap: square"/>
            </g>
            <g id="patch_4">
                <path d="M 648 640.8
L 648 86.4 
" style="fill: none; stroke: #ffffff; stroke-width: 1.25; stroke-linejoin: miter; stroke-linecap: square"/>
            </g>
            <g id="patch_5">
                <path d="M 90 640.8
L 648 640.8 
" style="fill: none; stroke: #ffffff; stroke-width: 1.25; stroke-linejoin: miter; stroke-linecap: square"/>
            </g>
            <g id="patch_6">
                <path d="M 90 86.4
L 648 86.4 
" style="fill: none; stroke: #ffffff; stroke-width: 1.25; stroke-linejoin: miter; stroke-linecap: square"/>
            </g>
            <g id="legend_1">
                <g id="patch_7">
                    <path d="M 572.1 164.358594
L 640.3 164.358594 
Q 642.5 164.358594 642.5 162.158594 
L 642.5 94.1 
Q 642.5 91.9 640.3 91.9 
L 572.1 91.9 
Q 569.9 91.9 569.9 94.1 
L 569.9 162.158594 
Q 569.9 164.358594 572.1 164.358594 
z
" style="fill: #eaeaf2; opacity: 0.8; stroke: #cccccc; stroke-linejoin: miter"/>
                </g>
                <g id="text_15">
                    <!-- 国家 -->
                    <g style="fill: #262626" transform="translate(594.2 105.8925)scale(0.12 -0.12)">
                        <defs>
                            <path id="MicrosoftYaHei-56fd" d="M 469 4997
L 5938 4997 
L 5938 -834 
L 5456 -834 
L 5456 -522 
L 950 -522 
L 950 -841 
L 469 -841 
L 469 4997 
z
M 5456 4553 
L 950 4553 
L 950 -78 
L 5456 -78 
L 5456 4553 
z
M 1238 1009 
L 2963 1009 
L 2963 2247 
L 1456 2247 
L 1456 2672 
L 2963 2672 
L 2963 3509 
L 1338 3509 
L 1338 3934 
L 5063 3934 
L 5063 3509 
L 3425 3509 
L 3425 2672 
L 4938 2672 
L 4938 2247 
L 3425 2247 
L 3425 1009 
L 5163 1009 
L 5163 584 
L 1238 584 
L 1238 1009 
z
M 3750 1847 
L 4100 2109 
Q 4444 1753 4688 1441 
L 4319 1159 
Q 4019 1566 3750 1847 
z
" transform="scale(0.015625)"/>
                            <path id="MicrosoftYaHei-5bb6" d="M 194 -209
Q 2081 331 3200 1556 
Q 3113 1738 2997 1903 
Q 2066 941 425 422 
Q 331 634 200 847 
Q 1809 1291 2703 2256 
Q 2600 2359 2478 2459 
Q 1650 1872 444 1497 
Q 325 1703 163 1941 
Q 1653 2272 2550 3053 
L 975 3053 
L 975 3503 
L 5438 3503 
L 5438 3053 
L 3169 3053 
Q 3009 2884 2825 2728 
Q 3316 2331 3588 1841 
Q 4566 2319 5325 2822 
L 5619 2422 
Q 5109 2116 4534 1816 
Q 5088 616 6331 141 
Q 6125 -97 5944 -347 
Q 4722 278 4131 1609 
Q 3953 1522 3769 1431 
Q 4125 103 3656 -503 
Q 3431 -772 2794 -772 
Q 2544 -772 2006 -753 
Q 1969 -509 1913 -234 
Q 2400 -291 2781 -291 
Q 3456 -328 3438 522 
Q 3428 803 3369 1063 
Q 2263 -28 419 -641 
Q 325 -434 194 -209 
z
M 331 4528 
L 3156 4528 
Q 2972 4806 2725 5122 
L 3163 5403 
Q 3444 5059 3675 4722 
L 3356 4528 
L 6063 4528 
L 6063 3459 
L 5563 3459 
L 5563 4066 
L 831 4066 
L 831 3459 
L 331 3459 
L 331 4528 
z
" transform="scale(0.015625)"/>
                        </defs>
                        <use xlink:href="#MicrosoftYaHei-56fd"/>
                        <use xlink:href="#MicrosoftYaHei-5bb6" x="100"/>
                    </g>
                </g>
                <g id="line2d_19">
                    <path d="M 574.3 119.31875
L 585.3 119.31875 
L 596.3 119.31875 
" style="fill: none; stroke: #4c72b0; stroke-width: 1.5; stroke-linecap: round"/>
                </g>
                <g id="text_16">
                    <!-- 美国 -->
                    <g style="fill: #262626" transform="translate(605.1 123.16875)scale(0.11 -0.11)">
                        <defs>
                            <path id="MicrosoftYaHei-7f8e" d="M 150 2403
L 2956 2403 
L 2956 2991 
L 663 2991 
L 663 3416 
L 2956 3416 
L 2956 3991 
L 288 3991 
L 288 4416 
L 2259 4416 
Q 1938 4694 1425 5084 
L 1713 5397 
Q 2256 5028 2619 4753 
L 2288 4416 
L 3950 4416 
L 3719 4678 
Q 4213 5022 4613 5372 
L 4981 5022 
Q 4581 4722 4116 4416 
L 6150 4416 
L 6150 3991 
L 3469 3991 
L 3469 3416 
L 5813 3416 
L 5813 2991 
L 3469 2991 
L 3469 2403 
L 6263 2403 
L 6263 1978 
L 150 1978 
L 150 2403 
z
M 6313 -303 
Q 6075 -622 5950 -822 
Q 3897 -419 3216 803 
Q 2606 -488 406 -872 
Q 281 -659 100 -397 
Q 2200 -106 2741 916 
L 238 916 
L 238 1341 
L 2913 1341 
Q 2975 1559 3013 1841 
L 3525 1841 
Q 3475 1566 3413 1341 
L 6200 1341 
L 6200 916 
L 3631 916 
Q 4363 -138 6313 -303 
z
" transform="scale(0.015625)"/>
                        </defs>
                        <use xlink:href="#MicrosoftYaHei-7f8e"/>
                        <use xlink:href="#MicrosoftYaHei-56fd" x="100"/>
                    </g>
                </g>
                <g id="line2d_20">
                    <path d="M 574.3 136.346406
L 585.3 136.346406 
L 596.3 136.346406 
" style="fill: none; stroke: #dd8452; stroke-width: 1.5; stroke-linecap: round"/>
                </g>
                <g id="text_17">
                    <!-- 俄罗斯 -->
                    <g style="fill: #262626" transform="translate(605.1 140.196406)scale(0.11 -0.11)">
                        <defs>
                            <path id="MicrosoftYaHei-4fc4" d="M 3281 141
Q 3919 472 4431 909 
Q 4263 1734 4203 2941 
L 3056 2941 
L 3056 1903 
Q 3481 2003 3950 2116 
Q 3969 1853 3994 1653 
Q 3491 1528 3056 1422 
L 3056 84 
Q 3056 -384 2906 -541 
Q 2750 -709 2306 -716 
Q 2019 -722 1700 -703 
Q 1675 -428 1600 -191 
Q 1969 -247 2231 -247 
Q 2444 -247 2519 -178 
Q 2581 -122 2581 109 
L 2581 1303 
Q 2034 1166 1619 1059 
L 1475 1559 
Q 1981 1663 2581 1794 
L 2581 2941 
L 1513 2941 
L 1513 3391 
L 2581 3391 
L 2581 4269 
Q 2194 4209 1825 4166 
Q 1781 4378 1694 4616 
Q 2675 4709 3813 4972 
L 3956 4522 
Q 3494 4425 3056 4347 
L 3056 3391 
L 4184 3391 
Q 4159 4225 4150 5316 
L 4644 5316 
Q 4628 4313 4659 3391 
L 6313 3391 
L 6313 2941 
L 4675 2941 
Q 4725 1953 4831 1284 
Q 5372 1847 5738 2553 
L 6175 2316 
Q 5688 1422 4944 731 
Q 5138 -9 5450 -222 
Q 5681 -366 5756 -41 
Q 5825 334 5863 859 
Q 6113 741 6319 684 
Q 6263 184 6188 -172 
Q 6050 -803 5650 -803 
Q 5175 -803 4844 -247 
Q 4684 13 4563 400 
Q 4116 44 3588 -247 
Q 3463 -59 3281 141 
z
M 56 2391 
Q 956 3803 1300 5322 
L 1769 5228 
Q 1541 4400 1231 3666 
L 1231 -859 
L 800 -859 
L 800 2763 
Q 550 2300 263 1878 
Q 175 2122 56 2391 
z
M 4925 4691 
L 5219 4991 
Q 5663 4622 6119 4197 
L 5775 3847 
Q 5369 4291 4925 4691 
z
" transform="scale(0.015625)"/>
                            <path id="MicrosoftYaHei-7f57" d="M 475 5003
L 5956 5003 
L 5956 2678 
L 5481 2678 
L 5481 2922 
L 950 2922 
L 950 2678 
L 475 2678 
L 475 5003 
z
M 2213 2916 
L 2700 2716 
Q 2500 2459 2288 2216 
L 5619 2216 
L 5619 1772 
Q 4163 -453 431 -947 
Q 319 -728 181 -466 
Q 1831 -272 2794 141 
Q 2288 584 1550 1141 
L 1894 1459 
Q 2725 866 3319 384 
Q 4306 884 5013 1784 
L 1888 1784 
Q 1288 1191 456 584 
Q 281 816 131 991 
Q 1394 1766 2213 2916 
z
M 5481 4584 
L 4275 4584 
L 4275 3341 
L 5481 3341 
L 5481 4584 
z
M 2613 3341 
L 3813 3341 
L 3813 4584 
L 2613 4584 
L 2613 3341 
z
M 950 3341 
L 2150 3341 
L 2150 4584 
L 950 4584 
L 950 3341 
z
" transform="scale(0.015625)"/>
                            <path id="MicrosoftYaHei-65af" d="M 131 1216
L 613 1216 
L 613 4103 
L 175 4103 
L 175 4528 
L 613 4528 
L 613 5272 
L 1075 5272 
L 1075 4528 
L 2375 4528 
L 2375 5272 
L 2838 5272 
L 2838 4528 
L 3300 4528 
L 3300 4103 
L 2838 4103 
L 2838 1216 
L 3306 1216 
L 3306 791 
L 131 791 
L 131 1216 
z
M 3650 4753 
Q 4988 4884 5969 5122 
L 6163 4659 
Q 5175 4472 4113 4366 
L 4113 3016 
L 6275 3016 
L 6275 2578 
L 5563 2578 
L 5563 -816 
L 5100 -816 
L 5100 2578 
L 4113 2578 
Q 4103 428 3356 -778 
Q 3188 -603 2963 -428 
Q 3650 616 3650 2534 
L 3650 4753 
z
M 1075 1216 
L 2375 1216 
L 2375 1916 
L 1075 1916 
L 1075 1216 
z
M 1075 3409 
L 2375 3409 
L 2375 4103 
L 1075 4103 
L 1075 3409 
z
M 1075 2316 
L 2375 2316 
L 2375 3009 
L 1075 3009 
L 1075 2316 
z
M 1100 647 
L 1481 347 
Q 894 -378 419 -809 
Q 288 -659 75 -478 
Q 663 41 1100 647 
z
M 1931 391 
L 2256 678 
Q 2638 328 3006 -59 
L 2650 -384 
Q 2313 9 1931 391 
z
" transform="scale(0.015625)"/>
                        </defs>
                        <use xlink:href="#MicrosoftYaHei-4fc4"/>
                        <use xlink:href="#MicrosoftYaHei-7f57" x="100"/>
                        <use xlink:href="#MicrosoftYaHei-65af" x="200"/>
                    </g>
                </g>
                <g id="line2d_21">
                    <path d="M 574.3 153.374062
L 585.3 153.374062 
L 596.3 153.374062 
" style="fill: none; stroke: #55a868; stroke-width: 1.5; stroke-linecap: round"/>
                </g>
                <g id="text_18">
                    <!-- 英国 -->
                    <g style="fill: #262626" transform="translate(605.1 157.224062)scale(0.11 -0.11)">
                        <defs>
                            <path id="MicrosoftYaHei-82f1" d="M 144 1572
L 931 1572 
L 931 3222 
L 2966 3222 
Q 2966 3513 2963 3834 
L 3463 3834 
Q 3463 3513 3459 3222 
L 5469 3222 
L 5469 1572 
L 6281 1572 
L 6281 1134 
L 3572 1134 
Q 4300 -91 6319 -278 
Q 6106 -553 5956 -784 
Q 3847 -363 3209 963 
Q 2734 -159 444 -878 
Q 300 -672 88 -422 
Q 2288 150 2797 1134 
L 144 1134 
L 144 1572 
z
M 175 4591 
L 1813 4591 
L 1813 5328 
L 2300 5328 
L 2300 4591 
L 4113 4591 
L 4113 5328 
L 4600 5328 
L 4600 4591 
L 6250 4591 
L 6250 4153 
L 4600 4153 
L 4600 3584 
L 4113 3584 
L 4113 4153 
L 2300 4153 
L 2300 3584 
L 1813 3584 
L 1813 4153 
L 175 4153 
L 175 4591 
z
M 2963 2797 
L 1419 2797 
L 1419 1572 
L 2934 1572 
Q 2956 2069 2963 2797 
z
M 3431 1572 
L 4981 1572 
L 4981 2797 
L 3456 2797 
Q 3450 2072 3431 1572 
z
" transform="scale(0.015625)"/>
                        </defs>
                        <use xlink:href="#MicrosoftYaHei-82f1"/>
                        <use xlink:href="#MicrosoftYaHei-56fd" x="100"/>
                    </g>
                </g>
            </g>
        </g>
    </g>
    <defs>
        <clipPath id="p3a9fea0ff4">
            <rect x="90" y="86.4" width="558" height="554.4"/>
        </clipPath>
    </defs>
</svg>
