<?xml version="1.0" encoding="utf-8" standalone="no"?>
<!DOCTYPE svg PUBLIC "-//W3C//DTD SVG 1.1//EN"
  "http://www.w3.org/Graphics/SVG/1.1/DTD/svg11.dtd">
<svg xmlns:xlink="http://www.w3.org/1999/xlink" width="576pt" height="576pt" viewBox="0 0 576 576" xmlns="http://www.w3.org/2000/svg" version="1.1">
 <metadata>
  <rdf:RDF xmlns:dc="http://purl.org/dc/elements/1.1/" xmlns:cc="http://creativecommons.org/ns#" xmlns:rdf="http://www.w3.org/1999/02/22-rdf-syntax-ns#">
   <cc:Work>
    <dc:type rdf:resource="http://purl.org/dc/dcmitype/StillImage"/>
    <dc:date>2021-12-15T09:44:56.439698</dc:date>
    <dc:format>image/svg+xml</dc:format>
    <dc:creator>
     <cc:Agent>
      <dc:title>Matplotlib v3.5.1, https://matplotlib.org/</dc:title>
     </cc:Agent>
    </dc:creator>
   </cc:Work>
  </rdf:RDF>
 </metadata>
 <defs>
  <style type="text/css">*{stroke-linejoin: round; stroke-linecap: butt}</style>
 </defs>
 <g id="figure_1">
  <g id="patch_1">
   <path d="M 0 576 
L 576 576 
L 576 0 
L 0 0 
z
" style="fill: #ffffff"/>
  </g>
  <g id="axes_1">
   <g id="patch_2">
    <path d="M 72 512.64 
L 518.4 512.64 
L 518.4 69.12 
L 72 69.12 
z
" style="fill: #eaeaf2"/>
   </g>
   <g id="matplotlib.axis_1">
    <g id="xtick_1">
     <g id="line2d_1">
      <path d="M 105.381818 512.64 
L 105.381818 69.12 
" clip-path="url(#pcbce294f48)" style="fill: none; stroke: #ffffff; stroke-linecap: round"/>
     </g>
     <g id="text_1">
      <!-- 2020-02 -->
      <g style="fill: #262626" transform="translate(83.650803 530.933125)scale(0.11 -0.11)">
       <defs>
        <path id="MicrosoftYaHei-32" d="M 2666 3572 
Q 2666 3963 2419 4186 
Q 2172 4409 1747 4409 
Q 1447 4409 1140 4256 
Q 834 4103 569 3819 
L 569 4413 
Q 806 4659 1107 4790 
Q 1409 4922 1816 4922 
Q 2472 4922 2872 4570 
Q 3272 4219 3272 3619 
Q 3272 3084 3026 2693 
Q 2781 2303 2188 1894 
Q 1581 1475 1376 1294 
Q 1172 1113 1090 947 
Q 1009 781 1009 544 
L 3416 544 
L 3416 0 
L 372 0 
L 372 241 
Q 372 659 486 951 
Q 600 1244 862 1520 
Q 1125 1797 1681 2184 
Q 2250 2584 2458 2886 
Q 2666 3188 2666 3572 
z
" transform="scale(0.015625)"/>
        <path id="MicrosoftYaHei-30" d="M 284 2325 
Q 284 3606 709 4264 
Q 1134 4922 1941 4922 
Q 3478 4922 3478 2441 
Q 3478 1216 3045 567 
Q 2613 -81 1831 -81 
Q 1094 -81 689 534 
Q 284 1150 284 2325 
z
M 909 2353 
Q 909 425 1888 425 
Q 2850 425 2850 2384 
Q 2850 4413 1906 4413 
Q 909 4413 909 2353 
z
" transform="scale(0.015625)"/>
        <path id="MicrosoftYaHei-2d" d="M 2328 1681 
L 488 1681 
L 488 2153 
L 2328 2153 
L 2328 1681 
z
" transform="scale(0.015625)"/>
       </defs>
       <use xlink:href="#MicrosoftYaHei-32"/>
       <use xlink:href="#MicrosoftYaHei-30" x="58.642578"/>
       <use xlink:href="#MicrosoftYaHei-32" x="117.285156"/>
       <use xlink:href="#MicrosoftYaHei-30" x="175.927734"/>
       <use xlink:href="#MicrosoftYaHei-2d" x="234.570312"/>
       <use xlink:href="#MicrosoftYaHei-30" x="277.832031"/>
       <use xlink:href="#MicrosoftYaHei-32" x="336.474609"/>
      </g>
     </g>
    </g>
    <g id="xtick_2">
     <g id="line2d_2">
      <path d="M 181.309091 512.64 
L 181.309091 69.12 
" clip-path="url(#pcbce294f48)" style="fill: none; stroke: #ffffff; stroke-linecap: round"/>
     </g>
     <g id="text_2">
      <!-- 2020-03 -->
      <g style="fill: #262626" transform="translate(159.578075 530.933125)scale(0.11 -0.11)">
       <defs>
        <path id="MicrosoftYaHei-33" d="M 447 809 
Q 944 425 1569 425 
Q 2069 425 2361 670 
Q 2653 916 2653 1328 
Q 2653 2247 1338 2247 
L 934 2247 
L 934 2753 
L 1319 2753 
Q 2484 2753 2484 3616 
Q 2484 4413 1594 4413 
Q 1084 4413 634 4069 
L 634 4647 
Q 1109 4922 1744 4922 
Q 2363 4922 2738 4598 
Q 3113 4275 3113 3759 
Q 3113 2809 2144 2538 
L 2144 2525 
Q 2669 2469 2973 2155 
Q 3278 1841 3278 1372 
Q 3278 719 2808 319 
Q 2338 -81 1556 -81 
Q 869 -81 447 175 
L 447 809 
z
" transform="scale(0.015625)"/>
       </defs>
       <use xlink:href="#MicrosoftYaHei-32"/>
       <use xlink:href="#MicrosoftYaHei-30" x="58.642578"/>
       <use xlink:href="#MicrosoftYaHei-32" x="117.285156"/>
       <use xlink:href="#MicrosoftYaHei-30" x="175.927734"/>
       <use xlink:href="#MicrosoftYaHei-2d" x="234.570312"/>
       <use xlink:href="#MicrosoftYaHei-30" x="277.832031"/>
       <use xlink:href="#MicrosoftYaHei-33" x="336.474609"/>
      </g>
     </g>
    </g>
    <g id="xtick_3">
     <g id="line2d_3">
      <path d="M 262.472727 512.64 
L 262.472727 69.12 
" clip-path="url(#pcbce294f48)" style="fill: none; stroke: #ffffff; stroke-linecap: round"/>
     </g>
     <g id="text_3">
      <!-- 2020-04 -->
      <g style="fill: #262626" transform="translate(240.741712 530.933125)scale(0.11 -0.11)">
       <defs>
        <path id="MicrosoftYaHei-34" d="M 2906 4841 
L 2906 1644 
L 3631 1644 
L 3631 1138 
L 2906 1138 
L 2906 0 
L 2313 0 
L 2313 1138 
L 53 1138 
L 53 1616 
Q 656 2294 1265 3178 
Q 1875 4063 2272 4841 
L 2906 4841 
z
M 741 1644 
L 2313 1644 
L 2313 3950 
Q 1988 3366 1616 2817 
Q 1244 2269 741 1644 
z
" transform="scale(0.015625)"/>
       </defs>
       <use xlink:href="#MicrosoftYaHei-32"/>
       <use xlink:href="#MicrosoftYaHei-30" x="58.642578"/>
       <use xlink:href="#MicrosoftYaHei-32" x="117.285156"/>
       <use xlink:href="#MicrosoftYaHei-30" x="175.927734"/>
       <use xlink:href="#MicrosoftYaHei-2d" x="234.570312"/>
       <use xlink:href="#MicrosoftYaHei-30" x="277.832031"/>
       <use xlink:href="#MicrosoftYaHei-34" x="336.474609"/>
      </g>
     </g>
    </g>
    <g id="xtick_4">
     <g id="line2d_4">
      <path d="M 341.018182 512.64 
L 341.018182 69.12 
" clip-path="url(#pcbce294f48)" style="fill: none; stroke: #ffffff; stroke-linecap: round"/>
     </g>
     <g id="text_4">
      <!-- 2020-05 -->
      <g style="fill: #262626" transform="translate(319.287166 530.933125)scale(0.11 -0.11)">
       <defs>
        <path id="MicrosoftYaHei-35" d="M 3294 1494 
Q 3294 784 2823 350 
Q 2353 -84 1559 -84 
Q 878 -84 544 119 
L 544 744 
Q 1034 425 1544 425 
Q 2050 425 2361 704 
Q 2672 984 2672 1447 
Q 2672 1909 2348 2167 
Q 2025 2425 1434 2425 
Q 978 2425 613 2384 
L 791 4841 
L 3053 4841 
L 3053 4303 
L 1306 4303 
L 1206 2931 
L 1647 2950 
Q 2416 2950 2855 2567 
Q 3294 2184 3294 1494 
z
" transform="scale(0.015625)"/>
       </defs>
       <use xlink:href="#MicrosoftYaHei-32"/>
       <use xlink:href="#MicrosoftYaHei-30" x="58.642578"/>
       <use xlink:href="#MicrosoftYaHei-32" x="117.285156"/>
       <use xlink:href="#MicrosoftYaHei-30" x="175.927734"/>
       <use xlink:href="#MicrosoftYaHei-2d" x="234.570312"/>
       <use xlink:href="#MicrosoftYaHei-30" x="277.832031"/>
       <use xlink:href="#MicrosoftYaHei-35" x="336.474609"/>
      </g>
     </g>
    </g>
    <g id="xtick_5">
     <g id="line2d_5">
      <path d="M 422.181818 512.64 
L 422.181818 69.12 
" clip-path="url(#pcbce294f48)" style="fill: none; stroke: #ffffff; stroke-linecap: round"/>
     </g>
     <g id="text_5">
      <!-- 2020-06 -->
      <g style="fill: #262626" transform="translate(400.450803 530.933125)scale(0.11 -0.11)">
       <defs>
        <path id="MicrosoftYaHei-36" d="M 3181 4219 
Q 2803 4413 2391 4413 
Q 1763 4413 1381 3866 
Q 1000 3319 994 2372 
L 1009 2372 
Q 1353 3038 2106 3038 
Q 2734 3038 3109 2628 
Q 3484 2219 3484 1541 
Q 3484 831 3051 375 
Q 2619 -81 1947 -81 
Q 1209 -81 789 495 
Q 369 1072 369 2131 
Q 369 3413 920 4167 
Q 1472 4922 2372 4922 
Q 2888 4922 3181 4781 
L 3181 4219 
z
M 1031 1584 
Q 1031 1106 1286 765 
Q 1541 425 1963 425 
Q 2363 425 2613 719 
Q 2863 1013 2863 1475 
Q 2863 1975 2627 2253 
Q 2391 2531 1956 2531 
Q 1544 2531 1287 2250 
Q 1031 1969 1031 1584 
z
" transform="scale(0.015625)"/>
       </defs>
       <use xlink:href="#MicrosoftYaHei-32"/>
       <use xlink:href="#MicrosoftYaHei-30" x="58.642578"/>
       <use xlink:href="#MicrosoftYaHei-32" x="117.285156"/>
       <use xlink:href="#MicrosoftYaHei-30" x="175.927734"/>
       <use xlink:href="#MicrosoftYaHei-2d" x="234.570312"/>
       <use xlink:href="#MicrosoftYaHei-30" x="277.832031"/>
       <use xlink:href="#MicrosoftYaHei-36" x="336.474609"/>
      </g>
     </g>
    </g>
    <g id="xtick_6">
     <g id="line2d_6">
      <path d="M 500.727273 512.64 
L 500.727273 69.12 
" clip-path="url(#pcbce294f48)" style="fill: none; stroke: #ffffff; stroke-linecap: round"/>
     </g>
     <g id="text_6">
      <!-- 2020-07 -->
      <g style="fill: #262626" transform="translate(478.996257 530.933125)scale(0.11 -0.11)">
       <defs>
        <path id="MicrosoftYaHei-37" d="M 3422 4463 
Q 2659 3131 2223 1998 
Q 1788 866 1684 0 
L 1047 0 
Q 1163 853 1594 1947 
Q 2025 3041 2747 4300 
L 347 4300 
L 347 4841 
L 3422 4841 
L 3422 4463 
z
" transform="scale(0.015625)"/>
       </defs>
       <use xlink:href="#MicrosoftYaHei-32"/>
       <use xlink:href="#MicrosoftYaHei-30" x="58.642578"/>
       <use xlink:href="#MicrosoftYaHei-32" x="117.285156"/>
       <use xlink:href="#MicrosoftYaHei-30" x="175.927734"/>
       <use xlink:href="#MicrosoftYaHei-2d" x="234.570312"/>
       <use xlink:href="#MicrosoftYaHei-30" x="277.832031"/>
       <use xlink:href="#MicrosoftYaHei-37" x="336.474609"/>
      </g>
     </g>
    </g>
    <g id="text_7">
     <!-- 日期 -->
     <g style="fill: #262626" transform="translate(283.2 547.260156)scale(0.12 -0.12)">
      <defs>
       <path id="MicrosoftYaHei-65e5" d="M 975 4909 
L 5431 4909 
L 5431 -766 
L 4900 -766 
L 4900 -322 
L 1506 -322 
L 1506 -766 
L 975 -766 
L 975 4909 
z
M 1506 2103 
L 1506 134 
L 4900 134 
L 4900 2103 
L 1506 2103 
z
M 1506 4441 
L 1506 2572 
L 4900 2572 
L 4900 4441 
L 1506 4441 
z
" transform="scale(0.015625)"/>
       <path id="MicrosoftYaHei-671f" d="M 3769 5066 
L 5981 5066 
L 5981 -3 
Q 5981 -741 5281 -741 
Q 4931 -741 4594 -722 
Q 4569 -516 4519 -241 
Q 4975 -284 5175 -284 
Q 5519 -284 5519 59 
L 5519 1372 
L 4181 1372 
Q 4113 3 3350 -903 
Q 3181 -728 2975 -553 
Q 3481 28 3619 653 
Q 3769 1253 3769 2741 
L 3769 5066 
z
M 125 1141 
L 713 1141 
L 713 4028 
L 200 4028 
L 200 4453 
L 713 4453 
L 713 5216 
L 1175 5216 
L 1175 4453 
L 2475 4453 
L 2475 5241 
L 2938 5241 
L 2938 4453 
L 3444 4453 
L 3444 4028 
L 2938 4028 
L 2938 1141 
L 3438 1141 
L 3438 716 
L 125 716 
L 125 1141 
z
M 4209 1784 
L 5519 1784 
L 5519 3009 
L 4231 3009 
Q 4238 2203 4209 1784 
z
M 5519 4641 
L 4231 4641 
L 4231 3422 
L 5519 3422 
L 5519 4641 
z
M 1175 1141 
L 2475 1141 
L 2475 1841 
L 1175 1841 
L 1175 1141 
z
M 1175 2241 
L 2475 2241 
L 2475 2934 
L 1175 2934 
L 1175 2241 
z
M 1175 3334 
L 2475 3334 
L 2475 4028 
L 1175 4028 
L 1175 3334 
z
M 1175 597 
L 1556 297 
Q 925 -384 406 -847 
Q 275 -697 75 -516 
Q 669 -9 1175 597 
z
M 1994 303 
L 2294 609 
Q 2731 284 3119 -47 
L 2788 -403 
Q 2438 -53 1994 303 
z
" transform="scale(0.015625)"/>
      </defs>
      <use xlink:href="#MicrosoftYaHei-65e5"/>
      <use xlink:href="#MicrosoftYaHei-671f" x="100"/>
     </g>
    </g>
   </g>
   <g id="matplotlib.axis_2">
    <g id="ytick_1">
     <g id="line2d_7">
      <path d="M 72 492.48 
L 518.4 492.48 
" clip-path="url(#pcbce294f48)" style="fill: none; stroke: #ffffff; stroke-linecap: round"/>
     </g>
     <g id="text_8">
      <!-- 0 -->
      <g style="fill: #262626" transform="translate(56.049531 496.876562)scale(0.11 -0.11)">
       <use xlink:href="#MicrosoftYaHei-30"/>
      </g>
     </g>
    </g>
    <g id="ytick_2">
     <g id="line2d_8">
      <path d="M 72 434.63623 
L 518.4 434.63623 
" clip-path="url(#pcbce294f48)" style="fill: none; stroke: #ffffff; stroke-linecap: round"/>
     </g>
     <g id="text_9">
      <!-- 2000 -->
      <g style="fill: #262626" transform="translate(36.698125 439.032792)scale(0.11 -0.11)">
       <use xlink:href="#MicrosoftYaHei-32"/>
       <use xlink:href="#MicrosoftYaHei-30" x="58.642578"/>
       <use xlink:href="#MicrosoftYaHei-30" x="117.285156"/>
       <use xlink:href="#MicrosoftYaHei-30" x="175.927734"/>
      </g>
     </g>
    </g>
    <g id="ytick_3">
     <g id="line2d_9">
      <path d="M 72 376.79246 
L 518.4 376.79246 
" clip-path="url(#pcbce294f48)" style="fill: none; stroke: #ffffff; stroke-linecap: round"/>
     </g>
     <g id="text_10">
      <!-- 4000 -->
      <g style="fill: #262626" transform="translate(36.698125 381.189022)scale(0.11 -0.11)">
       <use xlink:href="#MicrosoftYaHei-34"/>
       <use xlink:href="#MicrosoftYaHei-30" x="58.642578"/>
       <use xlink:href="#MicrosoftYaHei-30" x="117.285156"/>
       <use xlink:href="#MicrosoftYaHei-30" x="175.927734"/>
      </g>
     </g>
    </g>
    <g id="ytick_4">
     <g id="line2d_10">
      <path d="M 72 318.948689 
L 518.4 318.948689 
" clip-path="url(#pcbce294f48)" style="fill: none; stroke: #ffffff; stroke-linecap: round"/>
     </g>
     <g id="text_11">
      <!-- 6000 -->
      <g style="fill: #262626" transform="translate(36.698125 323.345252)scale(0.11 -0.11)">
       <use xlink:href="#MicrosoftYaHei-36"/>
       <use xlink:href="#MicrosoftYaHei-30" x="58.642578"/>
       <use xlink:href="#MicrosoftYaHei-30" x="117.285156"/>
       <use xlink:href="#MicrosoftYaHei-30" x="175.927734"/>
      </g>
     </g>
    </g>
    <g id="ytick_5">
     <g id="line2d_11">
      <path d="M 72 261.104919 
L 518.4 261.104919 
" clip-path="url(#pcbce294f48)" style="fill: none; stroke: #ffffff; stroke-linecap: round"/>
     </g>
     <g id="text_12">
      <!-- 8000 -->
      <g style="fill: #262626" transform="translate(36.698125 265.501482)scale(0.11 -0.11)">
       <defs>
        <path id="MicrosoftYaHei-38" d="M 306 1350 
Q 306 1769 556 2122 
Q 806 2475 1200 2625 
Q 884 2803 700 3081 
Q 516 3359 516 3684 
Q 516 4028 692 4312 
Q 869 4597 1183 4759 
Q 1497 4922 1875 4922 
Q 2256 4922 2572 4761 
Q 2888 4600 3063 4315 
Q 3238 4031 3238 3684 
Q 3238 3366 3058 3086 
Q 2878 2806 2559 2625 
Q 2953 2472 3200 2119 
Q 3447 1766 3447 1350 
Q 3447 938 3250 611 
Q 3053 284 2690 103 
Q 2328 -78 1875 -78 
Q 1425 -78 1065 103 
Q 706 284 506 612 
Q 306 941 306 1350 
z
M 906 1378 
Q 906 947 1172 687 
Q 1438 428 1878 428 
Q 2309 428 2582 692 
Q 2856 956 2856 1378 
Q 2856 1778 2579 2051 
Q 2303 2325 1878 2325 
Q 1456 2325 1181 2058 
Q 906 1791 906 1378 
z
M 1081 3634 
Q 1081 3309 1312 3076 
Q 1544 2844 1878 2844 
Q 2206 2844 2445 3078 
Q 2684 3313 2684 3634 
Q 2684 3963 2454 4191 
Q 2225 4419 1878 4419 
Q 1534 4419 1307 4195 
Q 1081 3972 1081 3634 
z
" transform="scale(0.015625)"/>
       </defs>
       <use xlink:href="#MicrosoftYaHei-38"/>
       <use xlink:href="#MicrosoftYaHei-30" x="58.642578"/>
       <use xlink:href="#MicrosoftYaHei-30" x="117.285156"/>
       <use xlink:href="#MicrosoftYaHei-30" x="175.927734"/>
      </g>
     </g>
    </g>
    <g id="ytick_6">
     <g id="line2d_12">
      <path d="M 72 203.261149 
L 518.4 203.261149 
" clip-path="url(#pcbce294f48)" style="fill: none; stroke: #ffffff; stroke-linecap: round"/>
     </g>
     <g id="text_13">
      <!-- 10000 -->
      <g style="fill: #262626" transform="translate(30.247656 207.657712)scale(0.11 -0.11)">
       <defs>
        <path id="MicrosoftYaHei-31" d="M 1781 0 
L 1781 4141 
Q 1638 3997 1295 3819 
Q 953 3641 663 3569 
L 663 4169 
Q 1047 4275 1484 4508 
Q 1922 4741 2156 4947 
L 2388 4947 
L 2388 0 
L 1781 0 
z
" transform="scale(0.015625)"/>
       </defs>
       <use xlink:href="#MicrosoftYaHei-31"/>
       <use xlink:href="#MicrosoftYaHei-30" x="58.642578"/>
       <use xlink:href="#MicrosoftYaHei-30" x="117.285156"/>
       <use xlink:href="#MicrosoftYaHei-30" x="175.927734"/>
       <use xlink:href="#MicrosoftYaHei-30" x="234.570312"/>
      </g>
     </g>
    </g>
    <g id="ytick_7">
     <g id="line2d_13">
      <path d="M 72 145.417379 
L 518.4 145.417379 
" clip-path="url(#pcbce294f48)" style="fill: none; stroke: #ffffff; stroke-linecap: round"/>
     </g>
     <g id="text_14">
      <!-- 12000 -->
      <g style="fill: #262626" transform="translate(30.247656 149.813941)scale(0.11 -0.11)">
       <use xlink:href="#MicrosoftYaHei-31"/>
       <use xlink:href="#MicrosoftYaHei-32" x="58.642578"/>
       <use xlink:href="#MicrosoftYaHei-30" x="117.285156"/>
       <use xlink:href="#MicrosoftYaHei-30" x="175.927734"/>
       <use xlink:href="#MicrosoftYaHei-30" x="234.570312"/>
      </g>
     </g>
    </g>
    <g id="ytick_8">
     <g id="line2d_14">
      <path d="M 72 87.573609 
L 518.4 87.573609 
" clip-path="url(#pcbce294f48)" style="fill: none; stroke: #ffffff; stroke-linecap: round"/>
     </g>
     <g id="text_15">
      <!-- 14000 -->
      <g style="fill: #262626" transform="translate(30.247656 91.970171)scale(0.11 -0.11)">
       <use xlink:href="#MicrosoftYaHei-31"/>
       <use xlink:href="#MicrosoftYaHei-34" x="58.642578"/>
       <use xlink:href="#MicrosoftYaHei-30" x="117.285156"/>
       <use xlink:href="#MicrosoftYaHei-30" x="175.927734"/>
       <use xlink:href="#MicrosoftYaHei-30" x="234.570312"/>
      </g>
     </g>
    </g>
    <g id="text_16">
     <!-- 新增治愈 -->
     <g style="fill: #262626" transform="translate(23.264531 314.88)rotate(-90)scale(0.12 -0.12)">
      <defs>
       <path id="MicrosoftYaHei-65b0" d="M 3594 4797 
Q 4888 4809 5981 5053 
L 6144 4572 
Q 4906 4409 4038 4359 
L 4038 2903 
L 6319 2903 
L 6319 2478 
L 5425 2478 
L 5425 -797 
L 4963 -797 
L 4963 2478 
L 4038 2478 
L 4038 2172 
Q 4038 253 3119 -816 
Q 2969 -622 2788 -416 
Q 3594 466 3594 2191 
L 3594 4797 
z
M 263 1991 
L 1538 1991 
L 1538 2584 
L 1988 2584 
L 1988 1991 
L 3213 1991 
L 3213 1591 
L 1988 1591 
L 1988 -41 
Q 1988 -703 1350 -703 
Q 1081 -703 744 -697 
Q 719 -491 675 -222 
Q 1038 -259 1244 -259 
Q 1538 -259 1538 59 
L 1538 1591 
L 263 1591 
L 263 1991 
z
M 88 3159 
L 1094 3159 
Q 828 3581 594 3884 
L 931 4122 
Q 1138 3872 1463 3416 
L 1109 3159 
L 1934 3159 
Q 2275 3650 2563 4128 
L 3006 3878 
Q 2703 3488 2428 3159 
L 3375 3159 
L 3375 2759 
L 88 2759 
L 88 3159 
z
M 288 4609 
L 1638 4609 
Q 1503 4866 1331 5166 
L 1731 5353 
Q 1925 5034 2094 4709 
L 1884 4609 
L 3213 4609 
L 3213 4209 
L 288 4209 
L 288 4609 
z
M 744 1309 
L 1169 1109 
Q 831 403 500 -166 
Q 319 -53 88 59 
Q 394 534 744 1309 
z
M 2544 1278 
Q 2894 803 3156 403 
L 2756 128 
Q 2481 609 2175 1034 
L 2544 1278 
z
" transform="scale(0.015625)"/>
       <path id="MicrosoftYaHei-589e" d="M 2188 4459 
L 3259 4459 
Q 3041 4781 2775 5116 
L 3131 5366 
Q 3456 4991 3694 4666 
L 3403 4459 
L 4453 4459 
Q 4759 4888 5050 5372 
L 5500 5116 
Q 5234 4772 4978 4459 
L 6038 4459 
L 6038 2122 
L 5600 2122 
L 5600 2309 
L 2625 2309 
L 2625 2122 
L 2188 2122 
L 2188 4459 
z
M 2438 1797 
L 5788 1797 
L 5788 -847 
L 5338 -847 
L 5338 -547 
L 2888 -547 
L 2888 -847 
L 2438 -847 
L 2438 1797 
z
M 81 428 
Q 466 538 894 672 
L 894 3253 
L 144 3253 
L 144 3697 
L 894 3697 
L 894 5259 
L 1356 5259 
L 1356 3697 
L 2000 3697 
L 2000 3253 
L 1356 3253 
L 1356 819 
Q 1709 931 2094 1059 
Q 2106 759 2125 553 
Q 1306 316 250 -53 
L 81 428 
z
M 5600 4084 
L 4325 4084 
L 4325 2684 
L 5600 2684 
L 5600 4084 
z
M 2625 2684 
L 3894 2684 
L 3894 4084 
L 2625 4084 
L 2625 2684 
z
M 5338 1409 
L 2888 1409 
L 2888 809 
L 5338 809 
L 5338 1409 
z
M 2888 -159 
L 5338 -159 
L 5338 434 
L 2888 434 
L 2888 -159 
z
M 5350 3609 
Q 5006 3066 4856 2884 
L 4519 3084 
Q 4744 3391 4981 3828 
L 5350 3609 
z
M 2863 3597 
L 3181 3803 
Q 3463 3441 3669 3122 
L 3319 2897 
Q 3119 3228 2863 3597 
z
" transform="scale(0.015625)"/>
       <path id="MicrosoftYaHei-6cbb" d="M 2231 1934 
L 5719 1934 
L 5719 -822 
L 5244 -822 
L 5244 -403 
L 2706 -403 
L 2706 -822 
L 2231 -822 
L 2231 1934 
z
M 5019 4484 
Q 5731 3522 6325 2534 
L 5875 2259 
Q 5706 2553 5538 2838 
Q 3694 2759 2594 2666 
Q 2344 2641 2081 2566 
L 1831 3053 
Q 2088 3147 2288 3372 
Q 2931 4141 3519 5334 
L 4019 5128 
Q 3388 4059 2713 3153 
Q 3853 3191 5281 3259 
Q 4956 3775 4625 4247 
L 5019 4484 
z
M 5244 1497 
L 2706 1497 
L 2706 34 
L 5244 34 
L 5244 1497 
z
M 1013 1903 
Q 1263 1784 1525 1684 
Q 1069 278 763 -766 
L 231 -566 
Q 656 509 1013 1903 
z
M 663 5209 
Q 1338 4747 1819 4359 
Q 1619 4128 1469 3953 
Q 994 4378 356 4853 
L 663 5209 
z
M 406 3647 
Q 981 3266 1525 2847 
Q 1431 2753 1188 2434 
Q 563 2953 100 3291 
L 406 3647 
z
" transform="scale(0.015625)"/>
       <path id="MicrosoftYaHei-6108" d="M 1231 1059 
L 800 1059 
L 800 3541 
L 3200 3541 
L 3200 1678 
Q 3200 1034 2575 1034 
Q 2369 1034 2006 1047 
Q 1969 1259 1919 1478 
Q 2263 1441 2506 1441 
Q 2769 1441 2769 1722 
L 2769 1803 
L 1231 1803 
L 1231 1059 
z
M 3631 5316 
L 3525 5228 
Q 4563 4397 6313 3991 
Q 6181 3828 6006 3559 
Q 5056 3853 4350 4209 
L 4350 3916 
L 2044 3916 
L 2044 4247 
Q 1319 3884 375 3534 
Q 244 3741 88 3916 
Q 1900 4478 3006 5316 
L 3631 5316 
z
M 1744 803 
L 2206 803 
L 2206 59 
Q 2206 -303 2563 -303 
L 3900 -303 
Q 4350 -303 4425 53 
Q 4475 297 4519 653 
Q 4744 566 4988 491 
Q 4925 122 4850 -153 
Q 4706 -703 3981 -703 
L 2506 -703 
Q 1744 -703 1744 3 
L 1744 803 
z
M 5019 3559 
L 5463 3559 
L 5463 1709 
Q 5463 1022 4819 1022 
Q 4594 1022 4169 1034 
Q 4125 1284 4056 1516 
Q 4438 1472 4731 1472 
Q 5019 1472 5019 1791 
L 5019 3559 
z
M 3213 4959 
Q 2669 4559 2069 4266 
L 4250 4266 
Q 3644 4584 3213 4959 
z
M 3875 3391 
L 4306 3391 
L 4306 1834 
L 3875 1834 
L 3875 3391 
z
M 813 784 
L 1238 628 
Q 956 -22 588 -566 
Q 400 -453 175 -347 
Q 569 178 813 784 
z
M 5113 578 
L 5456 822 
Q 5900 334 6275 -153 
L 5888 -428 
Q 5569 34 5113 578 
z
M 1231 2141 
L 2769 2141 
L 2769 2497 
L 1231 2497 
L 1231 2141 
z
M 2769 3191 
L 1231 3191 
L 1231 2834 
L 2769 2834 
L 2769 3191 
z
M 2800 734 
L 3088 1003 
Q 3531 678 3919 341 
L 3600 22 
Q 3219 384 2800 734 
z
" transform="scale(0.015625)"/>
      </defs>
      <use xlink:href="#MicrosoftYaHei-65b0"/>
      <use xlink:href="#MicrosoftYaHei-589e" x="100"/>
      <use xlink:href="#MicrosoftYaHei-6cbb" x="200"/>
      <use xlink:href="#MicrosoftYaHei-6108" x="300"/>
     </g>
    </g>
   </g>
   <g id="line2d_15">
    <path d="M 92.290909 492.48 
L 223.2 492.48 
L 225.818182 492.306469 
L 228.436364 492.48 
L 238.909091 492.393234 
L 241.527273 492.48 
L 244.145455 489.645655 
L 246.763636 490.426546 
L 249.381818 491.930484 
L 252 488.34417 
L 254.618182 492.48 
L 259.854545 492.48 
L 262.472727 456.414409 
L 265.090909 492.48 
L 267.709091 492.48 
L 270.327273 471.395946 
L 272.945455 479.494074 
L 275.563636 492.48 
L 301.745455 492.48 
L 304.363636 291.212602 
L 306.981818 492.48 
L 309.6 492.48 
L 312.218182 431.339135 
L 314.836364 470.991039 
L 317.454545 475.069025 
L 320.072727 469.400336 
L 322.690909 457.310988 
L 325.309091 482.675481 
L 327.927273 466.913054 
L 330.545455 466.565991 
L 333.163636 465.090975 
L 335.781818 464.628225 
L 338.4 460.781614 
L 341.018182 460.781614 
L 343.636364 437.730872 
L 346.254545 478.452886 
L 348.872727 460.463473 
L 351.490909 460.405629 
L 354.109091 464.25224 
L 356.727273 458.410019 
L 359.345455 461.360052 
L 361.963636 458.959535 
L 364.581818 468.098851 
L 367.2 457.600207 
L 369.818182 469.371414 
L 372.436364 469.689555 
L 375.054545 460.029645 
L 377.672727 465.669413 
L 380.290909 469.226804 
L 382.909091 465.756178 
L 385.527273 471.338102 
L 388.145455 472.870962 
L 390.763636 468.70621 
L 393.381818 492.48 
L 396 444.325061 
L 398.618182 467.057663 
L 401.236364 471.91654 
L 406.472727 473.594009 
L 409.090909 472.205759 
L 411.709091 468.619445 
L 414.327273 472.928806 
L 416.945455 472.870962 
L 419.563636 462.343396 
L 422.181818 473.246946 
L 424.8 477.990136 
L 427.418182 474.230291 
L 430.036364 472.494977 
L 432.654545 472.494977 
L 435.272727 492.48 
L 437.890909 438.251465 
L 440.509091 474.577353 
L 443.127273 475.126869 
L 445.745455 471.135649 
L 448.363636 446.985875 
L 450.981818 492.48 
L 453.6 452.59672 
L 456.218182 468.445913 
L 458.836364 465.929709 
L 461.454545 470.210148 
L 464.072727 480.882324 
L 466.690909 475.878838 
L 469.309091 486.117185 
L 471.927273 470.875352 
L 474.545455 477.90337 
L 477.163636 480.96909 
L 479.781818 479.522995 
L 485.018182 483.8902 
L 487.636364 480.217121 
L 490.254545 492.48 
L 492.872727 476.630807 
L 495.490909 486.175029 
L 498.109091 463.934099 
L 498.109091 463.934099 
" clip-path="url(#pcbce294f48)" style="fill: none; stroke: #4c72b0; stroke-width: 1.5; stroke-linecap: round"/>
   </g>
   <g id="line2d_16">
    <path d="M 100.145455 492.48 
L 223.2 492.48 
L 225.818182 492.161859 
L 228.436364 492.48 
L 231.054545 492.451078 
L 233.672727 492.248625 
L 236.290909 492.48 
L 238.909091 492.48 
L 241.527273 491.988328 
L 244.145455 492.422156 
L 246.763636 492.48 
L 249.381818 491.785875 
L 252 492.075094 
L 254.618182 492.046172 
L 257.236364 492.48 
L 259.854545 492.306469 
L 262.472727 491.5545 
L 265.090909 491.814797 
L 267.709091 492.277547 
L 270.327273 491.901562 
L 272.945455 489.848108 
L 275.563636 491.178515 
L 278.181818 491.496656 
L 280.8 490.802531 
L 283.418182 490.542234 
L 286.036364 491.380968 
L 288.654545 488.517702 
L 291.272727 489.240749 
L 293.890909 486.261795 
L 296.509091 486.406404 
L 299.127273 488.02603 
L 301.745455 487.534358 
L 304.363636 485.191685 
L 306.981818 485.307372 
L 309.6 484.179419 
L 312.218182 476.862182 
L 314.836364 480.390652 
L 317.454545 472.23468 
L 320.072727 481.923512 
L 322.690909 478.337198 
L 325.309091 481.026934 
L 327.927273 472.118993 
L 330.545455 479.522995 
L 333.163636 473.246946 
L 335.781818 470.23907 
L 338.4 475.792072 
L 341.018182 472.466056 
L 343.636364 464.917444 
L 346.254545 474.693041 
L 348.872727 461.417895 
L 351.490909 450.427579 
L 354.109091 462.950755 
L 356.727273 459.248754 
L 359.345455 457.542363 
L 361.963636 454.650174 
L 364.581818 448.779032 
L 367.2 441.23042 
L 369.818182 454.158502 
L 372.436364 436.63184 
L 375.054545 439.003434 
L 377.672727 443.746624 
L 380.290909 427.897431 
L 382.909091 378.065023 
L 385.527273 413.957082 
L 388.145455 424.542492 
L 390.763636 402.099109 
L 393.381818 492.48 
L 396 312.123125 
L 398.618182 398.483873 
L 401.236364 415.634551 
L 403.854545 397.616217 
L 406.472727 412.366378 
L 409.090909 378.672382 
L 411.709091 398.021123 
L 414.327273 393.740684 
L 416.945455 166.703886 
L 419.563636 359.034422 
L 422.181818 352.642686 
L 424.8 385.23765 
L 427.418182 354.349077 
L 430.036364 382.461149 
L 432.654545 337.603305 
L 435.272727 359.121188 
L 437.890909 341.50776 
L 440.509091 343.908276 
L 443.127273 354.08878 
L 445.745455 319.208986 
L 448.363636 324.067863 
L 450.981818 314.176578 
L 453.6 286.093428 
L 456.218182 259.687747 
L 458.836364 277.908535 
L 461.454545 197.042944 
L 464.072727 292.282711 
L 466.690909 278.747269 
L 469.309091 192.126223 
L 471.927273 228.683486 
L 474.545455 89.74275 
L 477.163636 219.486327 
L 479.781818 174.512795 
L 482.4 188.944816 
L 485.018182 116.148431 
L 487.636364 89.28 
L 490.254545 196.204209 
L 492.872727 92.461407 
L 495.490909 145.12816 
L 498.109091 113.632227 
L 498.109091 113.632227 
" clip-path="url(#pcbce294f48)" style="fill: none; stroke: #dd8452; stroke-width: 1.5; stroke-linecap: round"/>
   </g>
   <g id="line2d_17">
    <path d="M 102.763636 492.48 
L 170.836364 492.48 
L 173.454545 491.380968 
L 176.072727 492.335391 
L 178.690909 492.451078 
L 181.309091 492.364312 
L 186.545455 490.571156 
L 189.163636 492.161859 
L 191.781818 489.125061 
L 194.4 488.48878 
L 197.018182 489.327515 
L 199.636364 490.571156 
L 202.254545 491.525578 
L 204.872727 489.529968 
L 207.490909 484.381872 
L 210.109091 491.294203 
L 212.727273 486.319638 
L 215.345455 487.245139 
L 217.963636 477.238167 
L 220.581818 481.807824 
L 223.2 480.50634 
L 225.818182 486.926998 
L 228.436364 461.128677 
L 231.054545 480.477418 
L 233.672727 472.552821 
L 236.290909 465.206662 
L 238.909091 464.946365 
L 241.527273 480.679871 
L 244.145455 466.623835 
L 246.763636 462.516927 
L 249.381818 463.587037 
L 252 475.44501 
L 254.618182 451.006017 
L 257.236364 473.796462 
L 259.854545 446.494203 
L 262.472727 460.405629 
L 265.090909 460.145332 
L 267.709091 451.092782 
L 270.327273 449.67561 
L 272.945455 456.674706 
L 275.563636 468.792976 
L 278.181818 462.921833 
L 283.418182 431.772963 
L 286.036364 435.243589 
L 288.654545 435.070058 
L 291.272727 432.351401 
L 293.890909 443.977999 
L 296.509091 457.079613 
L 299.127273 443.457405 
L 301.745455 464.657147 
L 304.363636 432.553854 
L 306.981818 418.353209 
L 309.6 428.851853 
L 312.218182 430.934229 
L 314.836364 361.030032 
L 317.454545 492.48 
L 322.690909 320.250174 
L 325.309091 492.48 
L 327.927273 416.646817 
L 330.545455 440.189232 
L 333.163636 443.428483 
L 335.781818 425.467992 
L 338.4 425.641524 
L 341.018182 356.749593 
L 343.636364 425.843977 
L 346.254545 444.325061 
L 348.872727 442.15592 
L 351.490909 457.050691 
L 354.109091 424.455726 
L 356.727273 260.700013 
L 359.345455 404.817766 
L 361.963636 413.031582 
L 364.581818 376.561085 
L 367.2 430.153338 
L 369.818182 451.960439 
L 375.054545 391.195558 
L 377.672727 413.031582 
L 380.290909 350.271091 
L 382.909091 417.138489 
L 385.527273 424.05082 
L 388.145455 430.297947 
L 390.763636 432.467088 
L 393.381818 492.48 
L 396 343.271995 
L 398.618182 430.008728 
L 401.236364 431.165604 
L 403.854545 445.07703 
L 406.472727 449.039329 
L 409.090909 415.056114 
L 411.709091 421.823835 
L 414.327273 391.166637 
L 416.945455 427.694977 
L 419.563636 411.816862 
L 422.181818 438.280387 
L 424.8 467.954241 
L 427.418182 442.242686 
L 430.036364 468.012085 
L 432.654545 464.801756 
L 435.272727 437.933325 
L 437.890909 454.968315 
L 440.509091 470.528289 
L 443.127273 470.875352 
L 445.745455 432.843073 
L 448.363636 455.084003 
L 450.981818 452.018283 
L 453.6 441.953467 
L 456.218182 440.999045 
L 458.836364 448.952563 
L 461.454545 473.969994 
L 464.072727 448.634422 
L 466.690909 465.611569 
L 469.309091 460.984067 
L 471.927273 453.059471 
L 474.545455 476.688651 
L 477.163636 479.754371 
L 479.781818 477.064635 
L 482.4 458.959535 
L 485.018182 448.345203 
L 487.636364 474.721963 
L 490.254545 466.739522 
L 492.872727 464.454693 
L 495.490909 483.600981 
L 498.109091 483.658825 
L 498.109091 483.658825 
" clip-path="url(#pcbce294f48)" style="fill: none; stroke: #55a868; stroke-width: 1.5; stroke-linecap: round"/>
   </g>
   <g id="line2d_18">
    <path d="M 155.127273 492.48 
L 170.836364 492.48 
L 173.454545 491.062828 
L 176.072727 492.48 
L 178.690909 490.339781 
L 181.309091 490.976062 
L 183.927273 492.48 
L 186.545455 484.96031 
L 189.163636 489.096139 
L 191.781818 492.48 
L 194.4 482.039199 
L 197.018182 470.615055 
L 199.636364 479.031323 
L 202.254545 490.744687 
L 204.872727 476.948948 
L 207.490909 485.88581 
L 210.109091 483.311762 
L 212.727273 485.162763 
L 215.345455 492.48 
L 217.963636 461.79388 
L 220.581818 480.737715 
L 223.2 481.113699 
L 225.818182 483.196075 
L 228.436364 484.700013 
L 231.054545 470.325836 
L 233.672727 466.739522 
L 236.290909 484.439716 
L 238.909091 492.48 
L 241.527273 463.558115 
L 244.145455 471.887618 
L 246.763636 468.416992 
L 249.381818 472.928806 
L 252 476.688651 
L 254.618182 471.887618 
L 257.236364 492.48 
L 259.854545 426.97193 
L 262.472727 468.85082 
L 265.090909 456.674706 
L 267.709091 457.079613 
L 270.327273 440.391685 
L 272.945455 426.682711 
L 275.563636 428.128806 
L 278.181818 411.411956 
L 280.8 412.279613 
L 283.418182 420.262053 
L 286.036364 401.202531 
L 288.654545 305.008341 
L 291.272727 436.16909 
L 293.890909 432.062182 
L 296.509091 430.413635 
L 299.127273 440.304919 
L 301.745455 426.075352 
L 304.363636 439.408341 
L 306.981818 436.863215 
L 309.6 462.516927 
L 312.218182 427.405759 
L 314.836364 443.54417 
L 317.454545 430.355791 
L 320.072727 442.445139 
L 322.690909 441.69317 
L 325.309091 446.378515 
L 327.927273 450.13836 
L 330.545455 455.575675 
L 333.163636 448.923641 
L 335.781818 453.377611 
L 338.4 454.534487 
L 341.018182 457.33991 
L 343.636364 462.632615 
L 346.254545 461.475739 
L 348.872727 464.281162 
L 351.490909 461.302208 
L 354.109091 460.318864 
L 356.727273 459.017379 
L 359.345455 460.86838 
L 361.963636 428.070962 
L 364.581818 490.195171 
L 367.2 455.488909 
L 369.818182 465.438037 
L 372.436364 461.504661 
L 375.054545 460.347786 
L 377.672727 454.968315 
L 380.290909 454.563409 
L 382.909091 454.389877 
L 385.527273 457.860504 
L 388.145455 448.75011 
L 390.763636 492.48 
L 393.381818 492.48 
L 396 344.89162 
L 398.618182 440.536294 
L 401.236364 442.474061 
L 403.854545 437.181356 
L 406.472727 442.61867 
L 409.090909 442.184842 
L 411.709091 440.073544 
L 414.327273 436.284777 
L 416.945455 437.644106 
L 419.563636 434.02887 
L 422.181818 430.124416 
L 424.8 432.524932 
L 427.418182 430.905307 
L 430.036364 426.567024 
L 432.654545 427.232227 
L 435.272727 426.04643 
L 437.890909 425.641524 
L 440.509091 434.318089 
L 443.127273 431.830807 
L 445.745455 430.789619 
L 448.363636 432.524932 
L 450.981818 435.041136 
L 453.6 431.772963 
L 456.218182 436.776449 
L 458.836364 437.065668 
L 461.454545 432.17787 
L 464.072727 430.673932 
L 466.690909 429.459212 
L 469.309091 492.48 
L 471.927273 365.426159 
L 474.545455 428.6494 
L 477.163636 410.457534 
L 479.781818 413.436488 
L 482.4 407.565345 
L 485.018182 405.511892 
L 487.636364 412.973738 
L 490.254545 411.238425 
L 492.872727 416.126223 
L 495.490909 409.213893 
L 498.109091 417.91938 
L 498.109091 417.91938 
" clip-path="url(#pcbce294f48)" style="fill: none; stroke: #c44e52; stroke-width: 1.5; stroke-linecap: round"/>
   </g>
   <g id="line2d_19">
    <path d="M 194.4 492.48 
L 197.018182 492.48 
L 199.636364 492.48 
L 202.254545 492.48 
L 204.872727 492.48 
L 207.490909 492.48 
L 210.109091 492.48 
L 212.727273 492.48 
L 215.345455 492.48 
L 217.963636 492.48 
L 220.581818 492.48 
L 223.2 492.48 
L 225.818182 492.48 
L 228.436364 492.48 
L 231.054545 492.48 
L 233.672727 492.48 
L 236.290909 492.48 
L 238.909091 492.48 
L 241.527273 492.451078 
L 244.145455 492.48 
L 246.763636 492.48 
L 249.381818 492.104015 
L 252 492.48 
L 254.618182 492.48 
L 257.236364 492.48 
L 259.854545 492.48 
L 262.472727 481.489684 
L 265.090909 492.48 
L 267.709091 488.34417 
L 270.327273 492.48 
L 272.945455 481.576449 
L 275.563636 492.48 
L 278.181818 492.48 
L 280.8 483.311762 
L 283.418182 492.48 
L 286.036364 492.48 
L 288.654545 482.704403 
L 291.272727 492.48 
L 293.890909 485.856888 
L 296.509091 492.48 
L 299.127273 492.48 
L 301.745455 492.48 
L 304.363636 492.48 
L 306.981818 355.303499 
L 309.6 488.34417 
L 312.218182 488.806921 
L 314.836364 487.939264 
L 317.454545 492.075094 
L 320.072727 491.178515 
L 322.690909 481.055855 
L 325.309091 490.339781 
L 327.927273 483.774513 
L 330.545455 484.063731 
L 333.163636 482.733325 
L 335.781818 470.672899 
L 338.4 467.665023 
L 341.018182 481.836746 
L 343.636364 471.540555 
L 346.254545 454.73694 
L 348.872727 460.203176 
L 351.490909 467.115507 
L 354.109091 492.48 
L 356.727273 402.822156 
L 359.345455 467.578257 
L 361.963636 474.432744 
L 364.581818 439.784325 
L 367.2 477.585229 
L 369.818182 461.909567 
L 372.436364 465.929709 
L 375.054545 463.558115 
L 377.672727 468.561601 
L 380.290909 434.751917 
L 382.909091 459.942879 
L 385.527273 482.386262 
L 388.145455 443.746624 
L 390.763636 312.643719 
L 393.381818 492.48 
L 396 288.204726 
L 398.618182 456.009503 
L 401.236364 403.776578 
L 403.854545 438.106856 
L 406.472727 459.104145 
L 409.090909 435.879871 
L 411.709091 398.107889 
L 414.327273 397.81867 
L 416.945455 395.620607 
L 419.563636 386.741588 
L 422.181818 470.470445 
L 424.8 454.910471 
L 427.418182 470.788586 
L 430.036364 403.921188 
L 432.654545 379.424351 
L 435.272727 406.119251 
L 437.890909 390.76173 
L 440.509091 391.600465 
L 443.127273 395.967669 
L 445.745455 394.926482 
L 448.363636 344.920542 
L 450.981818 365.281549 
L 453.6 356.431453 
L 456.218182 359.699626 
L 458.836364 380.986133 
L 461.454545 381.70918 
L 464.072727 324.848754 
L 466.690909 393.653919 
L 469.309091 418.208599 
L 471.927273 367.248238 
L 474.545455 398.686327 
L 477.163636 399.81428 
L 479.781818 395.504919 
L 482.4 402.330484 
L 485.018182 401.318218 
L 487.636364 362.765345 
L 490.254545 384.543525 
L 492.872727 370.487489 
L 495.490909 377.544429 
L 498.109091 401.057921 
" clip-path="url(#pcbce294f48)" style="fill: none; stroke: #8172b3; stroke-width: 1.5; stroke-linecap: round"/>
   </g>
   <g id="line2d_20">
    <path d="M 194.4 492.48 
L 197.018182 492.48 
L 199.636364 492.48 
L 202.254545 492.48 
L 204.872727 492.48 
L 207.490909 492.48 
L 210.109091 492.48 
L 212.727273 492.48 
L 215.345455 492.48 
L 217.963636 492.48 
L 220.581818 492.48 
L 223.2 492.48 
L 225.818182 492.48 
L 228.436364 492.48 
L 231.054545 492.48 
L 233.672727 492.48 
L 236.290909 492.48 
L 238.909091 492.48 
L 241.527273 492.48 
L 244.145455 492.48 
L 246.763636 492.48 
L 249.381818 492.451078 
L 252 492.48 
L 254.618182 492.48 
L 257.236364 492.48 
L 259.854545 492.48 
L 262.472727 492.48 
L 265.090909 492.48 
L 267.709091 491.207437 
L 270.327273 492.48 
L 272.945455 492.48 
L 275.563636 492.48 
L 278.181818 492.48 
L 280.8 492.48 
L 283.418182 492.48 
L 286.036364 492.48 
L 288.654545 492.48 
L 291.272727 492.48 
L 293.890909 492.48 
L 296.509091 492.48 
L 299.127273 492.48 
L 301.745455 492.48 
L 304.363636 467.665023 
L 306.981818 492.48 
L 309.6 492.48 
L 312.218182 492.48 
L 314.836364 488.083873 
L 317.454545 492.48 
L 320.072727 492.48 
L 322.690909 480.390652 
L 325.309091 492.48 
L 327.927273 492.48 
L 330.545455 492.48 
L 333.163636 492.48 
L 335.781818 492.48 
L 338.4 492.48 
L 341.018182 475.126869 
L 343.636364 483.543138 
L 346.254545 487.650045 
L 348.872727 492.48 
L 351.490909 486.782389 
L 354.109091 492.48 
L 356.727273 480.708793 
L 359.345455 492.48 
L 361.963636 492.48 
L 364.581818 492.48 
L 367.2 492.48 
L 369.818182 457.65805 
L 372.436364 492.48 
L 375.054545 481.258309 
L 377.672727 465.553725 
L 380.290909 480.708793 
L 382.909091 481.055855 
L 385.527273 477.209245 
L 388.145455 484.03481 
L 390.763636 473.333712 
L 393.381818 492.48 
L 396 463.847334 
L 398.618182 459.104145 
L 401.236364 492.48 
L 403.854545 463.673802 
L 406.472727 468.85082 
L 409.090909 468.648367 
L 411.709091 471.945462 
L 414.327273 492.48 
L 416.945455 444.990265 
L 419.563636 462.892912 
L 422.181818 458.496785 
L 424.8 492.48 
L 427.418182 462.921833 
L 430.036364 452.885939 
L 432.654545 445.366249 
L 435.272727 441.08581 
L 437.890909 458.641394 
L 440.509091 489.41428 
L 443.127273 442.300529 
L 445.745455 408.40408 
L 448.363636 420.204209 
L 450.981818 441.953467 
L 453.6 441.69317 
L 456.218182 439.205888 
L 458.836364 440.333841 
L 461.454545 457.368832 
L 464.072727 428.96754 
L 466.690909 426.885165 
L 469.309091 475.44501 
L 471.927273 408.461924 
L 474.545455 420.146365 
L 477.163636 455.402143 
L 479.781818 439.379419 
L 482.4 446.176062 
L 485.018182 439.581872 
L 487.636364 402.822156 
L 490.254545 372.830161 
L 492.872727 406.206017 
L 495.490909 439.524028 
L 498.109091 443.630936 
" clip-path="url(#pcbce294f48)" style="fill: none; stroke: #937860; stroke-width: 1.5; stroke-linecap: round"/>
   </g>
   <g id="line2d_21"/>
   <g id="line2d_22"/>
   <g id="line2d_23"/>
   <g id="line2d_24"/>
   <g id="line2d_25"/>
   <g id="line2d_26"/>
   <g id="patch_3">
    <path d="M 72 512.64 
L 72 69.12 
" style="fill: none; stroke: #ffffff; stroke-width: 1.25; stroke-linejoin: miter; stroke-linecap: square"/>
   </g>
   <g id="patch_4">
    <path d="M 518.4 512.64 
L 518.4 69.12 
" style="fill: none; stroke: #ffffff; stroke-width: 1.25; stroke-linejoin: miter; stroke-linecap: square"/>
   </g>
   <g id="patch_5">
    <path d="M 72 512.64 
L 518.4 512.64 
" style="fill: none; stroke: #ffffff; stroke-width: 1.25; stroke-linejoin: miter; stroke-linecap: square"/>
   </g>
   <g id="patch_6">
    <path d="M 72 69.12 
L 518.4 69.12 
" style="fill: none; stroke: #ffffff; stroke-width: 1.25; stroke-linejoin: miter; stroke-linecap: square"/>
   </g>
   <g id="legend_1">
    <g id="patch_7">
     <path d="M 79.7 198.161563 
L 147.9 198.161563 
Q 150.1 198.161563 150.1 195.961563 
L 150.1 76.82 
Q 150.1 74.62 147.9 74.62 
L 79.7 74.62 
Q 77.5 74.62 77.5 76.82 
L 77.5 195.961563 
Q 77.5 198.161563 79.7 198.161563 
z
" style="fill: #eaeaf2; opacity: 0.8; stroke: #cccccc; stroke-linejoin: miter"/>
    </g>
    <g id="text_17">
     <!-- 国家 -->
     <g style="fill: #262626" transform="translate(101.8 88.6125)scale(0.12 -0.12)">
      <defs>
       <path id="MicrosoftYaHei-56fd" d="M 469 4997 
L 5938 4997 
L 5938 -834 
L 5456 -834 
L 5456 -522 
L 950 -522 
L 950 -841 
L 469 -841 
L 469 4997 
z
M 5456 4553 
L 950 4553 
L 950 -78 
L 5456 -78 
L 5456 4553 
z
M 1238 1009 
L 2963 1009 
L 2963 2247 
L 1456 2247 
L 1456 2672 
L 2963 2672 
L 2963 3509 
L 1338 3509 
L 1338 3934 
L 5063 3934 
L 5063 3509 
L 3425 3509 
L 3425 2672 
L 4938 2672 
L 4938 2247 
L 3425 2247 
L 3425 1009 
L 5163 1009 
L 5163 584 
L 1238 584 
L 1238 1009 
z
M 3750 1847 
L 4100 2109 
Q 4444 1753 4688 1441 
L 4319 1159 
Q 4019 1566 3750 1847 
z
" transform="scale(0.015625)"/>
       <path id="MicrosoftYaHei-5bb6" d="M 194 -209 
Q 2081 331 3200 1556 
Q 3113 1738 2997 1903 
Q 2066 941 425 422 
Q 331 634 200 847 
Q 1809 1291 2703 2256 
Q 2600 2359 2478 2459 
Q 1650 1872 444 1497 
Q 325 1703 163 1941 
Q 1653 2272 2550 3053 
L 975 3053 
L 975 3503 
L 5438 3503 
L 5438 3053 
L 3169 3053 
Q 3009 2884 2825 2728 
Q 3316 2331 3588 1841 
Q 4566 2319 5325 2822 
L 5619 2422 
Q 5109 2116 4534 1816 
Q 5088 616 6331 141 
Q 6125 -97 5944 -347 
Q 4722 278 4131 1609 
Q 3953 1522 3769 1431 
Q 4125 103 3656 -503 
Q 3431 -772 2794 -772 
Q 2544 -772 2006 -753 
Q 1969 -509 1913 -234 
Q 2400 -291 2781 -291 
Q 3456 -328 3438 522 
Q 3428 803 3369 1063 
Q 2263 -28 419 -641 
Q 325 -434 194 -209 
z
M 331 4528 
L 3156 4528 
Q 2972 4806 2725 5122 
L 3163 5403 
Q 3444 5059 3675 4722 
L 3356 4528 
L 6063 4528 
L 6063 3459 
L 5563 3459 
L 5563 4066 
L 831 4066 
L 831 3459 
L 331 3459 
L 331 4528 
z
" transform="scale(0.015625)"/>
      </defs>
      <use xlink:href="#MicrosoftYaHei-56fd"/>
      <use xlink:href="#MicrosoftYaHei-5bb6" x="100"/>
     </g>
    </g>
    <g id="line2d_27">
     <path d="M 81.9 102.03875 
L 92.9 102.03875 
L 103.9 102.03875 
" style="fill: none; stroke: #4c72b0; stroke-width: 1.5; stroke-linecap: round"/>
    </g>
    <g id="text_18">
     <!-- 加拿大 -->
     <g style="fill: #262626" transform="translate(112.7 105.88875)scale(0.11 -0.11)">
      <defs>
       <path id="MicrosoftYaHei-52a0" d="M 3663 4484 
L 6038 4484 
L 6038 -666 
L 5544 -666 
L 5544 -34 
L 4156 -34 
L 4156 -666 
L 3663 -666 
L 3663 4484 
z
M 231 4178 
L 1103 4178 
Q 1109 4681 1106 5297 
L 1600 5297 
Q 1600 4675 1594 4178 
L 3050 4178 
Q 3019 1778 2969 409 
Q 2944 -716 2119 -672 
Q 1875 -672 1400 -653 
Q 1356 -391 1300 -109 
Q 1738 -166 2013 -166 
Q 2431 -178 2469 428 
Q 2538 1909 2550 3703 
L 1588 3703 
Q 1581 3225 1569 2891 
Q 1544 447 394 -872 
Q 238 -678 25 -453 
Q 1063 684 1081 2941 
Q 1094 3269 1100 3703 
L 231 3703 
L 231 4178 
z
M 5544 4022 
L 4156 4022 
L 4156 416 
L 5544 416 
L 5544 4022 
z
" transform="scale(0.015625)"/>
       <path id="MicrosoftYaHei-62ff" d="M 144 416 
L 3063 416 
L 3063 791 
L 725 791 
L 725 1128 
L 3063 1128 
L 3063 1522 
Q 1769 1478 681 1459 
Q 631 1722 594 1853 
Q 3613 1878 5500 2009 
L 5575 1616 
Q 4494 1572 3525 1534 
L 3525 1128 
L 5613 1128 
L 5613 791 
L 3525 791 
L 3525 416 
L 6231 416 
L 6231 53 
L 3525 53 
L 3525 -116 
Q 3525 -772 2881 -784 
Q 2544 -791 1925 -791 
Q 1894 -591 1838 -309 
Q 2381 -353 2725 -353 
Q 3063 -353 3063 -28 
L 3063 53 
L 144 53 
L 144 416 
z
M 1200 3428 
L 5200 3428 
L 5200 2184 
L 4763 2184 
L 4763 2272 
L 1638 2272 
L 1638 2141 
L 1200 2141 
L 1200 3428 
z
M 3663 5309 
L 3563 5209 
Q 4575 4253 6313 3859 
Q 6119 3616 6006 3403 
Q 5138 3672 4450 4047 
L 4450 3809 
L 1906 3809 
L 1906 4047 
Q 1206 3659 375 3322 
Q 225 3553 88 3716 
Q 1881 4366 3000 5309 
L 3663 5309 
z
M 4763 3078 
L 1638 3078 
L 1638 2622 
L 4763 2622 
L 4763 3078 
z
M 3244 4922 
Q 2725 4522 2100 4159 
L 4256 4159 
Q 3688 4497 3244 4922 
z
" transform="scale(0.015625)"/>
       <path id="MicrosoftYaHei-5927" d="M 88 -341 
Q 2666 806 2869 3103 
L 200 3103 
L 200 3591 
L 2891 3591 
Q 2906 4431 2906 5284 
L 3450 5284 
Q 3450 4444 3434 3591 
L 6206 3591 
L 6206 3103 
L 3425 3103 
Q 3869 606 6338 -191 
Q 6019 -497 5863 -697 
Q 3828 122 3203 2219 
Q 2716 322 475 -822 
Q 350 -653 88 -341 
z
" transform="scale(0.015625)"/>
      </defs>
      <use xlink:href="#MicrosoftYaHei-52a0"/>
      <use xlink:href="#MicrosoftYaHei-62ff" x="100"/>
      <use xlink:href="#MicrosoftYaHei-5927" x="200"/>
     </g>
    </g>
    <g id="line2d_28">
     <path d="M 81.9 119.066406 
L 92.9 119.066406 
L 103.9 119.066406 
" style="fill: none; stroke: #dd8452; stroke-width: 1.5; stroke-linecap: round"/>
    </g>
    <g id="text_19">
     <!-- 印度 -->
     <g style="fill: #262626" transform="translate(112.7 122.916406)scale(0.11 -0.11)">
      <defs>
       <path id="MicrosoftYaHei-5370" d="M 3281 4828 
L 5950 4828 
L 5950 1053 
Q 5950 228 5156 222 
Q 4756 216 4200 228 
Q 4169 503 4119 803 
Q 4681 753 5000 753 
Q 5438 747 5438 1209 
L 5438 4341 
L 3794 4341 
L 3794 -834 
L 3281 -834 
L 3281 4828 
z
M 3038 4872 
Q 2213 4647 994 4397 
L 994 2959 
L 2888 2959 
L 2888 2491 
L 994 2491 
L 994 553 
Q 1969 866 2925 1209 
Q 2925 941 2975 678 
Q 1925 334 1006 -28 
Q 788 -134 631 -278 
L 294 159 
Q 494 384 481 728 
L 481 4766 
Q 1831 5028 2800 5328 
L 3038 4872 
z
" transform="scale(0.015625)"/>
       <path id="MicrosoftYaHei-5ea6" d="M 1550 1216 
L 1550 1628 
L 5469 1628 
L 5469 1222 
Q 4903 613 4147 163 
Q 5050 -200 6263 -309 
L 6019 -797 
Q 4625 -603 3644 -109 
Q 2600 -619 1250 -866 
Q 1150 -666 994 -416 
Q 2231 -222 3166 166 
Q 2497 600 2066 1216 
L 1550 1216 
z
M 1363 3541 
L 2294 3541 
L 2294 4066 
L 2769 4066 
L 2769 3541 
L 4538 3541 
L 4538 4072 
L 5013 4072 
L 5013 3541 
L 6150 3541 
L 6150 3128 
L 5013 3128 
L 5013 1928 
L 4538 1928 
L 4538 2147 
L 2769 2147 
L 2769 1922 
L 2294 1922 
L 2294 3128 
L 1363 3128 
L 1363 3541 
z
M 3025 5172 
L 3481 5391 
Q 3694 5056 3909 4634 
L 6213 4634 
L 6213 4197 
L 1225 4197 
L 1225 2316 
Q 1225 178 394 -872 
Q 238 -666 38 -447 
Q 725 397 738 2347 
L 738 4634 
L 3331 4634 
Q 3188 4909 3025 5172 
z
M 2769 2547 
L 4538 2547 
L 4538 3128 
L 2769 3128 
L 2769 2547 
z
M 4819 1216 
L 2588 1216 
Q 3031 728 3656 391 
Q 4334 741 4819 1216 
z
" transform="scale(0.015625)"/>
      </defs>
      <use xlink:href="#MicrosoftYaHei-5370"/>
      <use xlink:href="#MicrosoftYaHei-5ea6" x="100"/>
     </g>
    </g>
    <g id="line2d_29">
     <path d="M 81.9 136.094063 
L 92.9 136.094063 
L 103.9 136.094063 
" style="fill: none; stroke: #55a868; stroke-width: 1.5; stroke-linecap: round"/>
    </g>
    <g id="text_20">
     <!-- 意大利 -->
     <g style="fill: #262626" transform="translate(112.7 139.944063)scale(0.11 -0.11)">
      <defs>
       <path id="MicrosoftYaHei-610f" d="M 2706 759 
L 3022 1028 
L 1419 1028 
L 1419 834 
L 956 834 
L 956 2997 
L 5406 2997 
L 5406 834 
L 4944 834 
L 4944 1028 
L 3038 1028 
Q 3447 681 3756 353 
L 3388 47 
Q 3125 353 2706 759 
z
M 150 3722 
L 1906 3722 
Q 1659 3956 1406 4172 
L 1594 4347 
L 538 4347 
L 538 4722 
L 3028 4722 
Q 2900 4984 2763 5216 
L 3188 5397 
Q 3391 5044 3538 4722 
L 5863 4722 
L 5863 4347 
L 4772 4347 
L 4988 4184 
Q 4738 3953 4472 3722 
L 6250 3722 
L 6250 3347 
L 150 3347 
L 150 3722 
z
M 1650 791 
L 2125 791 
L 2125 78 
Q 2125 -284 2538 -284 
L 3819 -284 
Q 4269 -284 4350 59 
Q 4413 297 4463 622 
Q 4681 528 4931 447 
Q 4856 91 4794 -128 
Q 4644 -709 3950 -709 
L 2438 -709 
Q 1650 -709 1650 34 
L 1650 791 
z
M 1419 1391 
L 4944 1391 
L 4944 1841 
L 1419 1841 
L 1419 1391 
z
M 4944 2634 
L 1419 2634 
L 1419 2191 
L 4944 2191 
L 4944 2634 
z
M 3925 3834 
Q 4178 4047 4481 4347 
L 1838 4347 
Q 2116 4141 2381 3909 
L 2191 3722 
L 4038 3722 
L 3925 3834 
z
M 656 759 
L 1094 591 
Q 869 22 569 -559 
Q 381 -472 131 -366 
Q 388 97 656 759 
z
M 5175 503 
L 5531 778 
Q 5975 303 6325 -116 
L 5931 -428 
Q 5550 72 5175 503 
z
" transform="scale(0.015625)"/>
       <path id="MicrosoftYaHei-5229" d="M 75 741 
Q 913 1653 1488 2997 
L 106 2997 
L 106 3453 
L 1606 3453 
L 1606 4391 
Q 963 4328 331 4272 
Q 288 4503 206 4747 
Q 1706 4866 3269 5066 
L 3394 4591 
Q 2731 4509 2081 4441 
L 2081 3453 
L 3500 3453 
L 3500 2997 
L 2081 2997 
L 2081 2159 
L 2356 2422 
Q 2944 1922 3525 1347 
L 3144 959 
Q 2763 1403 2081 2053 
L 2081 -828 
L 1606 -828 
L 1606 2297 
Q 1069 1084 325 178 
Q 156 584 75 741 
z
M 5444 5197 
L 5938 5197 
L 5938 -9 
Q 5938 -803 5138 -797 
Q 4881 -797 4306 -791 
Q 4269 -534 4213 -228 
Q 4719 -284 4981 -284 
Q 5444 -291 5444 184 
L 5444 5197 
z
M 3963 4572 
L 4438 4572 
L 4438 622 
L 3963 622 
L 3963 4572 
z
" transform="scale(0.015625)"/>
      </defs>
      <use xlink:href="#MicrosoftYaHei-610f"/>
      <use xlink:href="#MicrosoftYaHei-5927" x="100"/>
      <use xlink:href="#MicrosoftYaHei-5229" x="200"/>
     </g>
    </g>
    <g id="line2d_30">
     <path d="M 81.9 153.121719 
L 92.9 153.121719 
L 103.9 153.121719 
" style="fill: none; stroke: #c44e52; stroke-width: 1.5; stroke-linecap: round"/>
    </g>
    <g id="text_21">
     <!-- 伊朗 -->
     <g style="fill: #262626" transform="translate(112.7 156.971719)scale(0.11 -0.11)">
      <defs>
       <path id="MicrosoftYaHei-4f0a" d="M 1938 1709 
L 3109 1709 
Q 3169 2194 3175 2853 
L 1750 2853 
L 1750 3303 
L 3178 3303 
Q 3181 3706 3181 4434 
L 2163 4434 
L 2163 4872 
L 5675 4872 
L 5675 3303 
L 6306 3303 
L 6306 2853 
L 5675 2853 
L 5675 1003 
L 5200 1003 
L 5200 1272 
L 3525 1272 
Q 3325 -72 2138 -859 
Q 1994 -672 1794 -459 
Q 2850 228 3041 1272 
L 1938 1272 
L 1938 1709 
z
M 56 2391 
Q 1025 3697 1525 5347 
L 2031 5178 
Q 1722 4309 1356 3578 
L 1356 -816 
L 881 -816 
L 881 2722 
Q 584 2241 256 1834 
Q 169 2103 56 2391 
z
M 3584 1709 
L 5200 1709 
L 5200 2853 
L 3653 2853 
Q 3641 2206 3584 1709 
z
M 5200 4434 
L 3669 4434 
Q 3669 3744 3663 3303 
L 5200 3303 
L 5200 4434 
z
" transform="scale(0.015625)"/>
       <path id="MicrosoftYaHei-6717" d="M 3469 4953 
L 5894 4953 
L 5894 -34 
Q 5894 -697 5244 -697 
L 4425 -697 
Q 4419 -659 4350 -216 
Q 4838 -241 5175 -241 
Q 5419 -241 5419 -9 
L 5419 1366 
L 3891 1366 
Q 3700 -69 2813 -809 
Q 2638 -628 2425 -472 
Q 3469 341 3469 2247 
L 3469 4953 
z
M 1644 1147 
L 1950 1428 
Q 2525 903 2975 403 
L 2669 72 
Q 2525 238 2391 384 
Q 913 -356 656 -609 
L 369 -166 
Q 538 3 538 284 
L 538 4591 
L 1669 4591 
Q 1438 4859 1188 5072 
L 1538 5366 
Q 1825 5109 2063 4853 
L 1769 4591 
L 2844 4591 
L 2844 1503 
L 2381 1503 
L 2381 1759 
L 1000 1759 
L 1000 159 
Q 1572 444 2081 719 
Q 1841 972 1644 1147 
z
M 3931 1791 
L 5419 1791 
L 5419 2947 
L 3944 2947 
Q 3950 2203 3931 1791 
z
M 5419 4528 
L 3944 4528 
L 3944 3372 
L 5419 3372 
L 5419 4528 
z
M 1000 2172 
L 2381 2172 
L 2381 2978 
L 1000 2978 
L 1000 2172 
z
M 2381 4178 
L 1000 4178 
L 1000 3391 
L 2381 3391 
L 2381 4178 
z
" transform="scale(0.015625)"/>
      </defs>
      <use xlink:href="#MicrosoftYaHei-4f0a"/>
      <use xlink:href="#MicrosoftYaHei-6717" x="100"/>
     </g>
    </g>
    <g id="line2d_31">
     <path d="M 81.9 170.149375 
L 92.9 170.149375 
L 103.9 170.149375 
" style="fill: none; stroke: #8172b3; stroke-width: 1.5; stroke-linecap: round"/>
    </g>
    <g id="text_22">
     <!-- 秘鲁 -->
     <g style="fill: #262626" transform="translate(112.7 173.999375)scale(0.11 -0.11)">
      <defs>
       <path id="MicrosoftYaHei-79d8" d="M 2025 -72 
Q 2772 416 3363 1044 
L 3363 4347 
L 3831 4347 
L 3831 1597 
Q 4759 2822 5263 4716 
L 5750 4603 
Q 5097 2219 3831 813 
L 3831 259 
Q 3831 -116 4200 -116 
L 4688 -116 
Q 5138 -116 5181 259 
Q 5244 641 5269 1272 
Q 5519 1159 5769 1084 
Q 5719 453 5669 109 
Q 5575 -591 4756 -591 
L 4063 -591 
Q 3363 -591 3363 197 
L 3363 341 
Q 2894 -91 2350 -447 
Q 2263 -316 2025 -72 
z
M 106 878 
Q 672 1869 1003 3097 
L 225 3097 
L 225 3541 
L 1069 3541 
L 1069 4397 
Q 706 4369 294 4341 
Q 263 4553 200 4797 
Q 1475 4866 2425 5003 
L 2538 4528 
Q 2122 4484 1531 4434 
L 1531 3541 
L 2388 3541 
L 2388 3097 
L 1531 3097 
L 1531 2616 
L 1794 2791 
Q 2056 2403 2369 1816 
L 1981 1566 
Q 1713 2109 1531 2434 
L 1531 -784 
L 1069 -784 
L 1069 2166 
Q 766 1097 325 341 
Q 225 603 106 878 
z
M 2625 3028 
L 3094 2959 
Q 2950 1953 2781 1147 
Q 2469 1234 2319 1241 
Q 2519 2009 2625 3028 
z
M 5438 2922 
L 5906 3053 
Q 6150 2216 6325 1397 
L 5844 1272 
Q 5669 2166 5438 2922 
z
M 3581 5103 
L 4000 5366 
Q 4381 4834 4800 4159 
L 4350 3878 
Q 3975 4566 3581 5103 
z
" transform="scale(0.015625)"/>
       <path id="MicrosoftYaHei-9c81" d="M 119 3997 
Q 1119 4547 1700 5334 
L 2238 5334 
Q 2094 5150 1944 4978 
L 4331 4978 
L 4331 4641 
L 3919 4184 
L 5563 4184 
L 5563 2266 
L 5138 2266 
L 5138 2397 
L 1263 2397 
L 1263 2266 
L 838 2266 
L 838 3941 
Q 619 3775 394 3634 
Q 269 3828 119 3997 
z
M 950 1284 
L 5450 1284 
L 5450 -834 
L 5013 -834 
L 5013 -578 
L 1388 -578 
L 1388 -834 
L 950 -834 
L 950 1284 
z
M 175 2009 
L 6225 2009 
L 6225 1659 
L 175 1659 
L 175 2009 
z
M 5013 941 
L 1388 941 
L 1388 516 
L 5013 516 
L 5013 941 
z
M 1388 -234 
L 5013 -234 
L 5013 191 
L 1388 191 
L 1388 -234 
z
M 1141 4184 
L 3356 4184 
L 3744 4628 
L 1619 4628 
Q 1388 4391 1141 4184 
z
M 5138 3853 
L 3413 3853 
L 3413 3447 
L 5138 3447 
L 5138 3853 
z
M 1263 2728 
L 2988 2728 
L 2988 3134 
L 1263 3134 
L 1263 2728 
z
M 1263 3447 
L 2988 3447 
L 2988 3853 
L 1263 3853 
L 1263 3447 
z
M 3413 2728 
L 5138 2728 
L 5138 3134 
L 3413 3134 
L 3413 2728 
z
" transform="scale(0.015625)"/>
      </defs>
      <use xlink:href="#MicrosoftYaHei-79d8"/>
      <use xlink:href="#MicrosoftYaHei-9c81" x="100"/>
     </g>
    </g>
    <g id="line2d_32">
     <path d="M 81.9 187.177031 
L 92.9 187.177031 
L 103.9 187.177031 
" style="fill: none; stroke: #937860; stroke-width: 1.5; stroke-linecap: round"/>
    </g>
    <g id="text_23">
     <!-- 南非 -->
     <g style="fill: #262626" transform="translate(112.7 191.027031)scale(0.11 -0.11)">
      <defs>
       <path id="MicrosoftYaHei-5357" d="M 163 4553 
L 2969 4553 
L 2969 5259 
L 3481 5259 
L 3481 4553 
L 6219 4553 
L 6219 4109 
L 3481 4109 
L 3481 3472 
L 5875 3472 
L 5875 -72 
Q 5875 -803 5150 -809 
Q 4738 -816 4119 -791 
Q 4081 -559 4025 -278 
Q 4644 -316 4969 -316 
Q 5381 -316 5381 47 
L 5381 3034 
L 1056 3034 
L 1056 -834 
L 563 -834 
L 563 3472 
L 2969 3472 
L 2969 4109 
L 163 4109 
L 163 4553 
z
M 1300 909 
L 2975 909 
L 2975 1591 
L 1500 1591 
L 1500 2003 
L 3463 2003 
Q 3763 2453 4069 2991 
L 4531 2734 
Q 4225 2316 3975 2003 
L 4938 2003 
L 4938 1591 
L 3463 1591 
L 3463 909 
L 5138 909 
L 5138 497 
L 3463 497 
L 3463 -703 
L 2975 -703 
L 2975 497 
L 1300 497 
L 1300 909 
z
M 1913 2741 
L 2281 2991 
Q 2600 2622 2863 2272 
L 2450 2016 
Q 2200 2378 1913 2741 
z
" transform="scale(0.015625)"/>
       <path id="MicrosoftYaHei-975e" d="M 3688 5284 
L 4188 5284 
L 4188 4391 
L 6131 4391 
L 6131 3941 
L 4188 3941 
L 4188 2716 
L 6038 2716 
L 6038 2266 
L 4188 2266 
L 4188 1016 
L 6269 1016 
L 6269 566 
L 4188 566 
L 4188 -797 
L 3688 -797 
L 3688 5284 
z
M 150 1016 
L 2206 1016 
L 2206 2266 
L 375 2266 
L 375 2716 
L 2206 2716 
L 2206 3941 
L 275 3941 
L 275 4391 
L 2206 4391 
L 2206 5284 
L 2706 5284 
L 2706 -797 
L 2206 -797 
L 2206 566 
L 150 566 
L 150 1016 
z
" transform="scale(0.015625)"/>
      </defs>
      <use xlink:href="#MicrosoftYaHei-5357"/>
      <use xlink:href="#MicrosoftYaHei-975e" x="100"/>
     </g>
    </g>
   </g>
  </g>
 </g>
 <defs>
  <clipPath id="pcbce294f48">
   <rect x="72" y="69.12" width="446.4" height="443.52"/>
  </clipPath>
 </defs>
</svg>
