<?xml version="1.0" encoding="utf-8" standalone="no"?>
<!DOCTYPE svg PUBLIC "-//W3C//DTD SVG 1.1//EN"
  "http://www.w3.org/Graphics/SVG/1.1/DTD/svg11.dtd">
<svg xmlns:xlink="http://www.w3.org/1999/xlink" width="1080pt" height="1080pt" viewBox="0 0 1080 1080" xmlns="http://www.w3.org/2000/svg" version="1.1">
 <metadata>
  <rdf:RDF xmlns:dc="http://purl.org/dc/elements/1.1/" xmlns:cc="http://creativecommons.org/ns#" xmlns:rdf="http://www.w3.org/1999/02/22-rdf-syntax-ns#">
   <cc:Work>
    <dc:type rdf:resource="http://purl.org/dc/dcmitype/StillImage"/>
    <dc:date>2021-12-15T09:45:11.459182</dc:date>
    <dc:format>image/svg+xml</dc:format>
    <dc:creator>
     <cc:Agent>
      <dc:title>Matplotlib v3.5.1, https://matplotlib.org/</dc:title>
     </cc:Agent>
    </dc:creator>
   </cc:Work>
  </rdf:RDF>
 </metadata>
 <defs>
  <style type="text/css">*{stroke-linejoin: round; stroke-linecap: butt}</style>
 </defs>
 <g id="figure_1">
  <g id="patch_1">
   <path d="M 0 1080 
L 1080 1080 
L 1080 0 
L 0 0 
z
" style="fill: #ffffff"/>
  </g>
  <g id="axes_1">
   <g id="patch_2">
    <path d="M 135 961.2 
L 972 961.2 
L 972 129.6 
L 135 129.6 
z
" style="fill: #eaeaf2"/>
   </g>
   <g id="matplotlib.axis_1">
    <g id="xtick_1">
     <g id="line2d_1">
      <path d="M 197.590909 961.2 
L 197.590909 129.6 
" clip-path="url(#p049b083f44)" style="fill: none; stroke: #ffffff; stroke-linecap: round"/>
     </g>
     <g id="text_1">
      <!-- 2020-02 -->
      <g style="fill: #262626" transform="translate(175.859893 979.493125)scale(0.11 -0.11)">
       <defs>
        <path id="MicrosoftYaHei-32" d="M 2666 3572 
Q 2666 3963 2419 4186 
Q 2172 4409 1747 4409 
Q 1447 4409 1140 4256 
Q 834 4103 569 3819 
L 569 4413 
Q 806 4659 1107 4790 
Q 1409 4922 1816 4922 
Q 2472 4922 2872 4570 
Q 3272 4219 3272 3619 
Q 3272 3084 3026 2693 
Q 2781 2303 2188 1894 
Q 1581 1475 1376 1294 
Q 1172 1113 1090 947 
Q 1009 781 1009 544 
L 3416 544 
L 3416 0 
L 372 0 
L 372 241 
Q 372 659 486 951 
Q 600 1244 862 1520 
Q 1125 1797 1681 2184 
Q 2250 2584 2458 2886 
Q 2666 3188 2666 3572 
z
" transform="scale(0.015625)"/>
        <path id="MicrosoftYaHei-30" d="M 284 2325 
Q 284 3606 709 4264 
Q 1134 4922 1941 4922 
Q 3478 4922 3478 2441 
Q 3478 1216 3045 567 
Q 2613 -81 1831 -81 
Q 1094 -81 689 534 
Q 284 1150 284 2325 
z
M 909 2353 
Q 909 425 1888 425 
Q 2850 425 2850 2384 
Q 2850 4413 1906 4413 
Q 909 4413 909 2353 
z
" transform="scale(0.015625)"/>
        <path id="MicrosoftYaHei-2d" d="M 2328 1681 
L 488 1681 
L 488 2153 
L 2328 2153 
L 2328 1681 
z
" transform="scale(0.015625)"/>
       </defs>
       <use xlink:href="#MicrosoftYaHei-32"/>
       <use xlink:href="#MicrosoftYaHei-30" x="58.642578"/>
       <use xlink:href="#MicrosoftYaHei-32" x="117.285156"/>
       <use xlink:href="#MicrosoftYaHei-30" x="175.927734"/>
       <use xlink:href="#MicrosoftYaHei-2d" x="234.570312"/>
       <use xlink:href="#MicrosoftYaHei-30" x="277.832031"/>
       <use xlink:href="#MicrosoftYaHei-32" x="336.474609"/>
      </g>
     </g>
    </g>
    <g id="xtick_2">
     <g id="line2d_2">
      <path d="M 339.954545 961.2 
L 339.954545 129.6 
" clip-path="url(#p049b083f44)" style="fill: none; stroke: #ffffff; stroke-linecap: round"/>
     </g>
     <g id="text_2">
      <!-- 2020-03 -->
      <g style="fill: #262626" transform="translate(318.22353 979.493125)scale(0.11 -0.11)">
       <defs>
        <path id="MicrosoftYaHei-33" d="M 447 809 
Q 944 425 1569 425 
Q 2069 425 2361 670 
Q 2653 916 2653 1328 
Q 2653 2247 1338 2247 
L 934 2247 
L 934 2753 
L 1319 2753 
Q 2484 2753 2484 3616 
Q 2484 4413 1594 4413 
Q 1084 4413 634 4069 
L 634 4647 
Q 1109 4922 1744 4922 
Q 2363 4922 2738 4598 
Q 3113 4275 3113 3759 
Q 3113 2809 2144 2538 
L 2144 2525 
Q 2669 2469 2973 2155 
Q 3278 1841 3278 1372 
Q 3278 719 2808 319 
Q 2338 -81 1556 -81 
Q 869 -81 447 175 
L 447 809 
z
" transform="scale(0.015625)"/>
       </defs>
       <use xlink:href="#MicrosoftYaHei-32"/>
       <use xlink:href="#MicrosoftYaHei-30" x="58.642578"/>
       <use xlink:href="#MicrosoftYaHei-32" x="117.285156"/>
       <use xlink:href="#MicrosoftYaHei-30" x="175.927734"/>
       <use xlink:href="#MicrosoftYaHei-2d" x="234.570312"/>
       <use xlink:href="#MicrosoftYaHei-30" x="277.832031"/>
       <use xlink:href="#MicrosoftYaHei-33" x="336.474609"/>
      </g>
     </g>
    </g>
    <g id="xtick_3">
     <g id="line2d_3">
      <path d="M 492.136364 961.2 
L 492.136364 129.6 
" clip-path="url(#p049b083f44)" style="fill: none; stroke: #ffffff; stroke-linecap: round"/>
     </g>
     <g id="text_3">
      <!-- 2020-04 -->
      <g style="fill: #262626" transform="translate(470.405348 979.493125)scale(0.11 -0.11)">
       <defs>
        <path id="MicrosoftYaHei-34" d="M 2906 4841 
L 2906 1644 
L 3631 1644 
L 3631 1138 
L 2906 1138 
L 2906 0 
L 2313 0 
L 2313 1138 
L 53 1138 
L 53 1616 
Q 656 2294 1265 3178 
Q 1875 4063 2272 4841 
L 2906 4841 
z
M 741 1644 
L 2313 1644 
L 2313 3950 
Q 1988 3366 1616 2817 
Q 1244 2269 741 1644 
z
" transform="scale(0.015625)"/>
       </defs>
       <use xlink:href="#MicrosoftYaHei-32"/>
       <use xlink:href="#MicrosoftYaHei-30" x="58.642578"/>
       <use xlink:href="#MicrosoftYaHei-32" x="117.285156"/>
       <use xlink:href="#MicrosoftYaHei-30" x="175.927734"/>
       <use xlink:href="#MicrosoftYaHei-2d" x="234.570312"/>
       <use xlink:href="#MicrosoftYaHei-30" x="277.832031"/>
       <use xlink:href="#MicrosoftYaHei-34" x="336.474609"/>
      </g>
     </g>
    </g>
    <g id="xtick_4">
     <g id="line2d_4">
      <path d="M 639.409091 961.2 
L 639.409091 129.6 
" clip-path="url(#p049b083f44)" style="fill: none; stroke: #ffffff; stroke-linecap: round"/>
     </g>
     <g id="text_4">
      <!-- 2020-05 -->
      <g style="fill: #262626" transform="translate(617.678075 979.493125)scale(0.11 -0.11)">
       <defs>
        <path id="MicrosoftYaHei-35" d="M 3294 1494 
Q 3294 784 2823 350 
Q 2353 -84 1559 -84 
Q 878 -84 544 119 
L 544 744 
Q 1034 425 1544 425 
Q 2050 425 2361 704 
Q 2672 984 2672 1447 
Q 2672 1909 2348 2167 
Q 2025 2425 1434 2425 
Q 978 2425 613 2384 
L 791 4841 
L 3053 4841 
L 3053 4303 
L 1306 4303 
L 1206 2931 
L 1647 2950 
Q 2416 2950 2855 2567 
Q 3294 2184 3294 1494 
z
" transform="scale(0.015625)"/>
       </defs>
       <use xlink:href="#MicrosoftYaHei-32"/>
       <use xlink:href="#MicrosoftYaHei-30" x="58.642578"/>
       <use xlink:href="#MicrosoftYaHei-32" x="117.285156"/>
       <use xlink:href="#MicrosoftYaHei-30" x="175.927734"/>
       <use xlink:href="#MicrosoftYaHei-2d" x="234.570312"/>
       <use xlink:href="#MicrosoftYaHei-30" x="277.832031"/>
       <use xlink:href="#MicrosoftYaHei-35" x="336.474609"/>
      </g>
     </g>
    </g>
    <g id="xtick_5">
     <g id="line2d_5">
      <path d="M 791.590909 961.2 
L 791.590909 129.6 
" clip-path="url(#p049b083f44)" style="fill: none; stroke: #ffffff; stroke-linecap: round"/>
     </g>
     <g id="text_5">
      <!-- 2020-06 -->
      <g style="fill: #262626" transform="translate(769.859893 979.493125)scale(0.11 -0.11)">
       <defs>
        <path id="MicrosoftYaHei-36" d="M 3181 4219 
Q 2803 4413 2391 4413 
Q 1763 4413 1381 3866 
Q 1000 3319 994 2372 
L 1009 2372 
Q 1353 3038 2106 3038 
Q 2734 3038 3109 2628 
Q 3484 2219 3484 1541 
Q 3484 831 3051 375 
Q 2619 -81 1947 -81 
Q 1209 -81 789 495 
Q 369 1072 369 2131 
Q 369 3413 920 4167 
Q 1472 4922 2372 4922 
Q 2888 4922 3181 4781 
L 3181 4219 
z
M 1031 1584 
Q 1031 1106 1286 765 
Q 1541 425 1963 425 
Q 2363 425 2613 719 
Q 2863 1013 2863 1475 
Q 2863 1975 2627 2253 
Q 2391 2531 1956 2531 
Q 1544 2531 1287 2250 
Q 1031 1969 1031 1584 
z
" transform="scale(0.015625)"/>
       </defs>
       <use xlink:href="#MicrosoftYaHei-32"/>
       <use xlink:href="#MicrosoftYaHei-30" x="58.642578"/>
       <use xlink:href="#MicrosoftYaHei-32" x="117.285156"/>
       <use xlink:href="#MicrosoftYaHei-30" x="175.927734"/>
       <use xlink:href="#MicrosoftYaHei-2d" x="234.570312"/>
       <use xlink:href="#MicrosoftYaHei-30" x="277.832031"/>
       <use xlink:href="#MicrosoftYaHei-36" x="336.474609"/>
      </g>
     </g>
    </g>
    <g id="xtick_6">
     <g id="line2d_6">
      <path d="M 938.863636 961.2 
L 938.863636 129.6 
" clip-path="url(#p049b083f44)" style="fill: none; stroke: #ffffff; stroke-linecap: round"/>
     </g>
     <g id="text_6">
      <!-- 2020-07 -->
      <g style="fill: #262626" transform="translate(917.132621 979.493125)scale(0.11 -0.11)">
       <defs>
        <path id="MicrosoftYaHei-37" d="M 3422 4463 
Q 2659 3131 2223 1998 
Q 1788 866 1684 0 
L 1047 0 
Q 1163 853 1594 1947 
Q 2025 3041 2747 4300 
L 347 4300 
L 347 4841 
L 3422 4841 
L 3422 4463 
z
" transform="scale(0.015625)"/>
       </defs>
       <use xlink:href="#MicrosoftYaHei-32"/>
       <use xlink:href="#MicrosoftYaHei-30" x="58.642578"/>
       <use xlink:href="#MicrosoftYaHei-32" x="117.285156"/>
       <use xlink:href="#MicrosoftYaHei-30" x="175.927734"/>
       <use xlink:href="#MicrosoftYaHei-2d" x="234.570312"/>
       <use xlink:href="#MicrosoftYaHei-30" x="277.832031"/>
       <use xlink:href="#MicrosoftYaHei-37" x="336.474609"/>
      </g>
     </g>
    </g>
    <g id="text_7">
     <!-- 日期 -->
     <g style="fill: #262626" transform="translate(541.5 995.820156)scale(0.12 -0.12)">
      <defs>
       <path id="MicrosoftYaHei-65e5" d="M 975 4909 
L 5431 4909 
L 5431 -766 
L 4900 -766 
L 4900 -322 
L 1506 -322 
L 1506 -766 
L 975 -766 
L 975 4909 
z
M 1506 2103 
L 1506 134 
L 4900 134 
L 4900 2103 
L 1506 2103 
z
M 1506 4441 
L 1506 2572 
L 4900 2572 
L 4900 4441 
L 1506 4441 
z
" transform="scale(0.015625)"/>
       <path id="MicrosoftYaHei-671f" d="M 3769 5066 
L 5981 5066 
L 5981 -3 
Q 5981 -741 5281 -741 
Q 4931 -741 4594 -722 
Q 4569 -516 4519 -241 
Q 4975 -284 5175 -284 
Q 5519 -284 5519 59 
L 5519 1372 
L 4181 1372 
Q 4113 3 3350 -903 
Q 3181 -728 2975 -553 
Q 3481 28 3619 653 
Q 3769 1253 3769 2741 
L 3769 5066 
z
M 125 1141 
L 713 1141 
L 713 4028 
L 200 4028 
L 200 4453 
L 713 4453 
L 713 5216 
L 1175 5216 
L 1175 4453 
L 2475 4453 
L 2475 5241 
L 2938 5241 
L 2938 4453 
L 3444 4453 
L 3444 4028 
L 2938 4028 
L 2938 1141 
L 3438 1141 
L 3438 716 
L 125 716 
L 125 1141 
z
M 4209 1784 
L 5519 1784 
L 5519 3009 
L 4231 3009 
Q 4238 2203 4209 1784 
z
M 5519 4641 
L 4231 4641 
L 4231 3422 
L 5519 3422 
L 5519 4641 
z
M 1175 1141 
L 2475 1141 
L 2475 1841 
L 1175 1841 
L 1175 1141 
z
M 1175 2241 
L 2475 2241 
L 2475 2934 
L 1175 2934 
L 1175 2241 
z
M 1175 3334 
L 2475 3334 
L 2475 4028 
L 1175 4028 
L 1175 3334 
z
M 1175 597 
L 1556 297 
Q 925 -384 406 -847 
Q 275 -697 75 -516 
Q 669 -9 1175 597 
z
M 1994 303 
L 2294 609 
Q 2731 284 3119 -47 
L 2788 -403 
Q 2438 -53 1994 303 
z
" transform="scale(0.015625)"/>
      </defs>
      <use xlink:href="#MicrosoftYaHei-65e5"/>
      <use xlink:href="#MicrosoftYaHei-671f" x="100"/>
     </g>
    </g>
   </g>
   <g id="matplotlib.axis_2">
    <g id="ytick_1">
     <g id="line2d_7">
      <path d="M 135 923.4 
L 972 923.4 
" clip-path="url(#p049b083f44)" style="fill: none; stroke: #ffffff; stroke-linecap: round"/>
     </g>
     <g id="text_8">
      <!-- 0 -->
      <g style="fill: #262626" transform="translate(119.049531 927.796562)scale(0.11 -0.11)">
       <use xlink:href="#MicrosoftYaHei-30"/>
      </g>
     </g>
    </g>
    <g id="ytick_2">
     <g id="line2d_8">
      <path d="M 135 810.503855 
L 972 810.503855 
" clip-path="url(#p049b083f44)" style="fill: none; stroke: #ffffff; stroke-linecap: round"/>
     </g>
     <g id="text_9">
      <!-- 50000 -->
      <g style="fill: #262626" transform="translate(93.247656 814.900418)scale(0.11 -0.11)">
       <use xlink:href="#MicrosoftYaHei-35"/>
       <use xlink:href="#MicrosoftYaHei-30" x="58.642578"/>
       <use xlink:href="#MicrosoftYaHei-30" x="117.285156"/>
       <use xlink:href="#MicrosoftYaHei-30" x="175.927734"/>
       <use xlink:href="#MicrosoftYaHei-30" x="234.570312"/>
      </g>
     </g>
    </g>
    <g id="ytick_3">
     <g id="line2d_9">
      <path d="M 135 697.607711 
L 972 697.607711 
" clip-path="url(#p049b083f44)" style="fill: none; stroke: #ffffff; stroke-linecap: round"/>
     </g>
     <g id="text_10">
      <!-- 100000 -->
      <g style="fill: #262626" transform="translate(86.797188 702.004273)scale(0.11 -0.11)">
       <defs>
        <path id="MicrosoftYaHei-31" d="M 1781 0 
L 1781 4141 
Q 1638 3997 1295 3819 
Q 953 3641 663 3569 
L 663 4169 
Q 1047 4275 1484 4508 
Q 1922 4741 2156 4947 
L 2388 4947 
L 2388 0 
L 1781 0 
z
" transform="scale(0.015625)"/>
       </defs>
       <use xlink:href="#MicrosoftYaHei-31"/>
       <use xlink:href="#MicrosoftYaHei-30" x="58.642578"/>
       <use xlink:href="#MicrosoftYaHei-30" x="117.285156"/>
       <use xlink:href="#MicrosoftYaHei-30" x="175.927734"/>
       <use xlink:href="#MicrosoftYaHei-30" x="234.570312"/>
       <use xlink:href="#MicrosoftYaHei-30" x="293.212891"/>
      </g>
     </g>
    </g>
    <g id="ytick_4">
     <g id="line2d_10">
      <path d="M 135 584.711566 
L 972 584.711566 
" clip-path="url(#p049b083f44)" style="fill: none; stroke: #ffffff; stroke-linecap: round"/>
     </g>
     <g id="text_11">
      <!-- 150000 -->
      <g style="fill: #262626" transform="translate(86.797188 589.108129)scale(0.11 -0.11)">
       <use xlink:href="#MicrosoftYaHei-31"/>
       <use xlink:href="#MicrosoftYaHei-35" x="58.642578"/>
       <use xlink:href="#MicrosoftYaHei-30" x="117.285156"/>
       <use xlink:href="#MicrosoftYaHei-30" x="175.927734"/>
       <use xlink:href="#MicrosoftYaHei-30" x="234.570312"/>
       <use xlink:href="#MicrosoftYaHei-30" x="293.212891"/>
      </g>
     </g>
    </g>
    <g id="ytick_5">
     <g id="line2d_11">
      <path d="M 135 471.815422 
L 972 471.815422 
" clip-path="url(#p049b083f44)" style="fill: none; stroke: #ffffff; stroke-linecap: round"/>
     </g>
     <g id="text_12">
      <!-- 200000 -->
      <g style="fill: #262626" transform="translate(86.797188 476.211984)scale(0.11 -0.11)">
       <use xlink:href="#MicrosoftYaHei-32"/>
       <use xlink:href="#MicrosoftYaHei-30" x="58.642578"/>
       <use xlink:href="#MicrosoftYaHei-30" x="117.285156"/>
       <use xlink:href="#MicrosoftYaHei-30" x="175.927734"/>
       <use xlink:href="#MicrosoftYaHei-30" x="234.570312"/>
       <use xlink:href="#MicrosoftYaHei-30" x="293.212891"/>
      </g>
     </g>
    </g>
    <g id="ytick_6">
     <g id="line2d_12">
      <path d="M 135 358.919277 
L 972 358.919277 
" clip-path="url(#p049b083f44)" style="fill: none; stroke: #ffffff; stroke-linecap: round"/>
     </g>
     <g id="text_13">
      <!-- 250000 -->
      <g style="fill: #262626" transform="translate(86.797188 363.31584)scale(0.11 -0.11)">
       <use xlink:href="#MicrosoftYaHei-32"/>
       <use xlink:href="#MicrosoftYaHei-35" x="58.642578"/>
       <use xlink:href="#MicrosoftYaHei-30" x="117.285156"/>
       <use xlink:href="#MicrosoftYaHei-30" x="175.927734"/>
       <use xlink:href="#MicrosoftYaHei-30" x="234.570312"/>
       <use xlink:href="#MicrosoftYaHei-30" x="293.212891"/>
      </g>
     </g>
    </g>
    <g id="ytick_7">
     <g id="line2d_13">
      <path d="M 135 246.023133 
L 972 246.023133 
" clip-path="url(#p049b083f44)" style="fill: none; stroke: #ffffff; stroke-linecap: round"/>
     </g>
     <g id="text_14">
      <!-- 300000 -->
      <g style="fill: #262626" transform="translate(86.797188 250.419695)scale(0.11 -0.11)">
       <use xlink:href="#MicrosoftYaHei-33"/>
       <use xlink:href="#MicrosoftYaHei-30" x="58.642578"/>
       <use xlink:href="#MicrosoftYaHei-30" x="117.285156"/>
       <use xlink:href="#MicrosoftYaHei-30" x="175.927734"/>
       <use xlink:href="#MicrosoftYaHei-30" x="234.570312"/>
       <use xlink:href="#MicrosoftYaHei-30" x="293.212891"/>
      </g>
     </g>
    </g>
    <g id="ytick_8">
     <g id="line2d_14">
      <path d="M 135 133.126988 
L 972 133.126988 
" clip-path="url(#p049b083f44)" style="fill: none; stroke: #ffffff; stroke-linecap: round"/>
     </g>
     <g id="text_15">
      <!-- 350000 -->
      <g style="fill: #262626" transform="translate(86.797188 137.523551)scale(0.11 -0.11)">
       <use xlink:href="#MicrosoftYaHei-33"/>
       <use xlink:href="#MicrosoftYaHei-35" x="58.642578"/>
       <use xlink:href="#MicrosoftYaHei-30" x="117.285156"/>
       <use xlink:href="#MicrosoftYaHei-30" x="175.927734"/>
       <use xlink:href="#MicrosoftYaHei-30" x="234.570312"/>
       <use xlink:href="#MicrosoftYaHei-30" x="293.212891"/>
      </g>
     </g>
    </g>
    <g id="text_16">
     <!-- 累计治愈 -->
     <g style="fill: #262626" transform="translate(79.814063 569.4)rotate(-90)scale(0.12 -0.12)">
      <defs>
       <path id="MicrosoftYaHei-7d2f" d="M 4550 1991 
Q 5425 1278 5944 772 
L 5600 422 
Q 5356 675 5097 922 
Q 4334 891 3556 856 
L 3556 22 
Q 3556 -753 2775 -753 
Q 2375 -753 1881 -747 
Q 1844 -497 1788 -228 
Q 2269 -272 2650 -272 
Q 3069 -272 3069 184 
L 3069 834 
Q 2231 794 1375 753 
Q 1100 741 844 703 
L 675 1178 
Q 1056 1222 1531 1403 
Q 2172 1650 2916 1984 
Q 2138 1959 1531 1922 
Q 1231 1903 1081 1884 
L 919 2297 
Q 1231 2359 1550 2503 
Q 1969 2691 2378 2909 
L 1206 2909 
L 1206 2728 
L 731 2728 
L 731 5103 
L 5675 5103 
L 5675 2728 
L 5200 2728 
L 5200 2909 
L 3125 2909 
Q 2434 2559 1763 2272 
Q 2581 2294 3669 2334 
Q 4100 2538 4563 2772 
L 4888 2434 
Q 3394 1728 1825 1147 
Q 3403 1216 4684 1297 
Q 4456 1500 4219 1697 
L 4550 1991 
z
M 3431 3272 
L 5200 3272 
L 5200 3841 
L 3431 3841 
L 3431 3272 
z
M 1206 3272 
L 2969 3272 
L 2969 3841 
L 1206 3841 
L 1206 3272 
z
M 5200 4741 
L 3431 4741 
L 3431 4178 
L 5200 4178 
L 5200 4741 
z
M 1206 4178 
L 2969 4178 
L 2969 4741 
L 1206 4741 
L 1206 4178 
z
M 1894 572 
L 2175 184 
Q 1263 -272 381 -616 
Q 288 -422 163 -197 
Q 1094 166 1894 572 
z
M 4431 547 
Q 5363 234 6219 -147 
L 6025 -572 
Q 5188 -191 4219 134 
L 4431 547 
z
" transform="scale(0.015625)"/>
       <path id="MicrosoftYaHei-8ba1" d="M 2100 3153 
L 3919 3153 
L 3919 5303 
L 4456 5303 
L 4456 3153 
L 6288 3153 
L 6288 2703 
L 4456 2703 
L 4456 -822 
L 3919 -822 
L 3919 2703 
L 2100 2703 
L 2100 3153 
z
M 2675 903 
Q 2694 578 2719 359 
Q 1719 -266 1069 -728 
L 769 -303 
Q 988 -116 988 266 
L 988 2741 
L 100 2741 
L 100 3191 
L 1488 3191 
L 1488 153 
Q 2031 484 2675 903 
z
M 738 5222 
Q 1419 4522 1725 4184 
L 1288 3816 
Q 894 4334 356 4891 
L 738 5222 
z
" transform="scale(0.015625)"/>
       <path id="MicrosoftYaHei-6cbb" d="M 2231 1934 
L 5719 1934 
L 5719 -822 
L 5244 -822 
L 5244 -403 
L 2706 -403 
L 2706 -822 
L 2231 -822 
L 2231 1934 
z
M 5019 4484 
Q 5731 3522 6325 2534 
L 5875 2259 
Q 5706 2553 5538 2838 
Q 3694 2759 2594 2666 
Q 2344 2641 2081 2566 
L 1831 3053 
Q 2088 3147 2288 3372 
Q 2931 4141 3519 5334 
L 4019 5128 
Q 3388 4059 2713 3153 
Q 3853 3191 5281 3259 
Q 4956 3775 4625 4247 
L 5019 4484 
z
M 5244 1497 
L 2706 1497 
L 2706 34 
L 5244 34 
L 5244 1497 
z
M 1013 1903 
Q 1263 1784 1525 1684 
Q 1069 278 763 -766 
L 231 -566 
Q 656 509 1013 1903 
z
M 663 5209 
Q 1338 4747 1819 4359 
Q 1619 4128 1469 3953 
Q 994 4378 356 4853 
L 663 5209 
z
M 406 3647 
Q 981 3266 1525 2847 
Q 1431 2753 1188 2434 
Q 563 2953 100 3291 
L 406 3647 
z
" transform="scale(0.015625)"/>
       <path id="MicrosoftYaHei-6108" d="M 1231 1059 
L 800 1059 
L 800 3541 
L 3200 3541 
L 3200 1678 
Q 3200 1034 2575 1034 
Q 2369 1034 2006 1047 
Q 1969 1259 1919 1478 
Q 2263 1441 2506 1441 
Q 2769 1441 2769 1722 
L 2769 1803 
L 1231 1803 
L 1231 1059 
z
M 3631 5316 
L 3525 5228 
Q 4563 4397 6313 3991 
Q 6181 3828 6006 3559 
Q 5056 3853 4350 4209 
L 4350 3916 
L 2044 3916 
L 2044 4247 
Q 1319 3884 375 3534 
Q 244 3741 88 3916 
Q 1900 4478 3006 5316 
L 3631 5316 
z
M 1744 803 
L 2206 803 
L 2206 59 
Q 2206 -303 2563 -303 
L 3900 -303 
Q 4350 -303 4425 53 
Q 4475 297 4519 653 
Q 4744 566 4988 491 
Q 4925 122 4850 -153 
Q 4706 -703 3981 -703 
L 2506 -703 
Q 1744 -703 1744 3 
L 1744 803 
z
M 5019 3559 
L 5463 3559 
L 5463 1709 
Q 5463 1022 4819 1022 
Q 4594 1022 4169 1034 
Q 4125 1284 4056 1516 
Q 4438 1472 4731 1472 
Q 5019 1472 5019 1791 
L 5019 3559 
z
M 3213 4959 
Q 2669 4559 2069 4266 
L 4250 4266 
Q 3644 4584 3213 4959 
z
M 3875 3391 
L 4306 3391 
L 4306 1834 
L 3875 1834 
L 3875 3391 
z
M 813 784 
L 1238 628 
Q 956 -22 588 -566 
Q 400 -453 175 -347 
Q 569 178 813 784 
z
M 5113 578 
L 5456 822 
Q 5900 334 6275 -153 
L 5888 -428 
Q 5569 34 5113 578 
z
M 1231 2141 
L 2769 2141 
L 2769 2497 
L 1231 2497 
L 1231 2141 
z
M 2769 3191 
L 1231 3191 
L 1231 2834 
L 2769 2834 
L 2769 3191 
z
M 2800 734 
L 3088 1003 
Q 3531 678 3919 341 
L 3600 22 
Q 3219 384 2800 734 
z
" transform="scale(0.015625)"/>
      </defs>
      <use xlink:href="#MicrosoftYaHei-7d2f"/>
      <use xlink:href="#MicrosoftYaHei-8ba1" x="100"/>
      <use xlink:href="#MicrosoftYaHei-6cbb" x="200"/>
      <use xlink:href="#MicrosoftYaHei-6108" x="300"/>
     </g>
    </g>
   </g>
   <g id="line2d_15">
    <path d="M 173.045455 923.4 
L 452.863636 923.368389 
L 462.681818 922.9868 
L 467.590909 922.9439 
L 472.5 922.621017 
L 487.227273 922.621017 
L 492.136364 919.805387 
L 501.954545 919.805387 
L 506.863636 918.159361 
L 511.772727 917.145554 
L 565.772727 917.145554 
L 570.681818 901.432668 
L 580.5 901.432668 
L 585.409091 896.659419 
L 590.318182 894.981783 
L 595.227273 893.622513 
L 600.136364 891.82069 
L 605.045455 889.075056 
L 609.954545 888.30962 
L 619.772727 884.290518 
L 629.590909 879.977885 
L 639.409091 875.028518 
L 644.318182 870.75427 
L 649.227273 869.659177 
L 659.045455 864.65562 
L 663.954545 862.451887 
L 668.863636 859.792054 
L 673.772727 857.362529 
L 678.681818 854.745597 
L 683.590909 852.842168 
L 688.5 850.119113 
L 698.318182 846.535789 
L 703.227273 844.002399 
L 708.136364 841.909305 
L 713.045455 840.093935 
L 717.954545 838.007614 
L 722.863636 836.357073 
L 727.772727 834.826201 
L 732.681818 832.970188 
L 737.590909 832.970188 
L 742.5 829.210747 
L 747.409091 827.226032 
L 757.227273 824.085262 
L 767.045455 821.028034 
L 771.954545 819.165248 
L 781.772727 816.10802 
L 786.681818 813.755264 
L 791.590909 812.253746 
L 796.5 811.122526 
L 801.409091 809.697777 
L 811.227273 806.577328 
L 816.136364 806.577328 
L 821.045455 802.343722 
L 830.863636 799.591314 
L 835.772727 797.924967 
L 840.681818 794.373254 
L 845.590909 794.373254 
L 850.5 791.259579 
L 855.409091 789.383245 
L 860.318182 787.310472 
L 865.227273 785.571871 
L 870.136364 784.666444 
L 875.045455 783.370396 
L 879.954545 782.873653 
L 884.863636 781.186985 
L 889.772727 780.048992 
L 904.5 777.303357 
L 909.409091 776.632754 
L 914.318182 775.675395 
L 919.227273 775.675395 
L 924.136364 774.438053 
L 929.045455 773.945826 
L 933.954545 771.717256 
L 933.954545 771.717256 
" clip-path="url(#p049b083f44)" style="fill: none; stroke: #4c72b0; stroke-width: 1.5; stroke-linecap: round"/>
   </g>
   <g id="line2d_16">
    <path d="M 187.772727 923.4 
L 462.681818 923.305167 
L 482.318182 923.185497 
L 501.954545 923.031959 
L 506.863636 922.9868 
L 516.681818 922.679723 
L 526.5 922.471994 
L 541.227273 921.925576 
L 546.136364 921.672689 
L 555.954545 920.713072 
L 565.772727 919.979247 
L 580.5 918.202262 
L 585.409091 916.982983 
L 590.318182 916.039171 
L 595.227273 914.458625 
L 600.136364 913.634484 
L 605.045455 912.530359 
L 609.954545 911.636222 
L 614.863636 910.046644 
L 619.772727 909.035095 
L 624.681818 907.533576 
L 629.590909 905.797233 
L 634.5 904.494412 
L 639.409091 902.931929 
L 644.318182 900.780128 
L 649.227273 899.391506 
L 654.136364 896.966497 
L 659.045455 893.683477 
L 663.954545 891.378138 
L 668.863636 888.783784 
L 673.772727 886.056213 
L 678.681818 883.10285 
L 683.590909 879.691129 
L 688.5 875.690089 
L 693.409091 872.698342 
L 698.318182 868.338292 
L 703.227273 864.163393 
L 708.136364 860.358793 
L 713.045455 855.316851 
L 717.954545 846.384508 
L 722.863636 840.254247 
L 727.772727 834.950387 
L 732.681818 827.894378 
L 737.590909 827.894378 
L 742.5 813.81397 
L 747.409091 806.475721 
L 752.318182 800.47642 
L 757.227273 793.070433 
L 762.136364 786.815986 
L 767.045455 777.93106 
L 771.954545 770.556684 
L 776.863636 762.848135 
L 781.772727 737.414892 
L 786.681818 726.996835 
L 791.590909 716.079778 
L 796.5 707.7074 
L 801.409091 696.92356 
L 806.318182 688.334422 
L 811.227273 676.243245 
L 816.136364 665.831962 
L 825.954545 642.446655 
L 830.863636 631.642494 
L 835.772727 618.115278 
L 840.681818 604.967393 
L 845.590909 591.047298 
L 850.5 574.93476 
L 855.409091 556.760739 
L 860.318182 540.009209 
L 865.227273 516.944527 
L 870.136364 501.315185 
L 875.045455 484.629134 
L 879.954545 461.180605 
L 884.863636 440.58609 
L 889.772727 409.144514 
L 894.681818 387.83198 
L 899.590909 363.008376 
L 904.5 339.311475 
L 909.409091 309.931382 
L 914.318182 278.453679 
L 919.227273 255.323517 
L 924.136364 224.094186 
L 929.045455 196.976532 
L 933.954545 167.4 
L 933.954545 167.4 
" clip-path="url(#p049b083f44)" style="fill: none; stroke: #dd8452; stroke-width: 1.5; stroke-linecap: round"/>
   </g>
   <g id="line2d_17">
    <path d="M 192.681818 923.4 
L 335.045455 923.296136 
L 344.863636 923.212592 
L 349.772727 923.063569 
L 354.681818 923.038732 
L 374.318182 922.070083 
L 379.227273 921.995572 
L 384.136364 921.765264 
L 389.045455 921.133045 
L 393.954545 921.040471 
L 403.772727 920.150849 
L 408.681818 918.960924 
L 418.5 917.19297 
L 423.409091 916.759449 
L 428.318182 914.31186 
L 433.227273 913.374822 
L 438.136364 911.819113 
L 447.954545 907.54035 
L 452.863636 906.619117 
L 457.772727 904.600534 
L 467.590909 900.005661 
L 472.5 898.675744 
L 477.409091 895.437883 
L 482.318182 893.979265 
L 487.227273 890.389167 
L 497.045455 885.360773 
L 506.863636 878.78796 
L 511.772727 875.992651 
L 516.681818 874.143412 
L 521.590909 871.835815 
L 526.5 868.324745 
L 531.409091 863.585365 
L 541.227273 854.634958 
L 546.136364 849.940737 
L 551.045455 846.1542 
L 555.954545 843.390502 
L 560.863636 839.563323 
L 565.772727 837.391201 
L 570.681818 832.712785 
L 575.590909 826.925729 
L 580.5 821.958298 
L 585.409091 817.153438 
L 590.318182 806.891179 
L 595.227273 806.891179 
L 600.136364 800.246112 
L 605.045455 786.800181 
L 609.954545 786.800181 
L 614.863636 780.879907 
L 619.772727 776.797583 
L 624.681818 772.968145 
L 634.5 762.518478 
L 639.409091 751.922046 
L 644.318182 746.719792 
L 649.227273 742.96035 
L 654.136364 739.031564 
L 659.045455 736.265609 
L 663.954545 730.954974 
L 668.863636 712.85998 
L 673.772727 706.016216 
L 678.681818 699.813702 
L 683.590909 690.763947 
L 688.5 685.898123 
L 693.409091 682.734773 
L 698.318182 677.198346 
L 703.227273 669.2911 
L 708.136364 663.088586 
L 713.045455 651.986379 
L 717.954545 646.10449 
L 722.863636 640.762244 
L 727.772727 635.90771 
L 732.681818 631.22252 
L 737.590909 631.22252 
L 742.5 619.573896 
L 752.318182 609.909986 
L 757.227273 606.20925 
L 762.136364 602.81785 
L 767.045455 596.773391 
L 771.954545 591.257285 
L 776.863636 583.347781 
L 781.772727 578.290034 
L 786.681818 571.992687 
L 791.590909 567.761339 
L 796.5 565.846621 
L 801.409091 561.924609 
L 806.318182 560.014406 
L 811.227273 557.853574 
L 816.136364 553.595131 
L 821.045455 550.666605 
L 830.863636 547.266173 
L 835.772727 542.610336 
L 840.681818 539.690842 
L 845.590909 536.532008 
L 855.409091 528.568314 
L 860.318182 525.17014 
L 865.227273 523.725069 
L 870.136364 520.302058 
L 875.045455 518.204448 
L 879.954545 515.74557 
L 884.863636 512.668021 
L 889.772727 511.435195 
L 894.681818 510.441709 
L 899.590909 509.238236 
L 904.5 506.621303 
L 909.409091 503.175713 
L 914.318182 501.789348 
L 919.227273 499.779797 
L 924.136364 497.59187 
L 933.954545 496.210021 
L 933.954545 496.210021 
" clip-path="url(#p049b083f44)" style="fill: none; stroke: #55a868; stroke-width: 1.5; stroke-linecap: round"/>
   </g>
   <g id="line2d_18">
    <path d="M 290.863636 923.4 
L 330.136364 923.289362 
L 339.954545 923.004863 
L 344.863636 923.004863 
L 349.772727 922.417804 
L 354.681818 922.153627 
L 359.590909 922.153627 
L 364.5 921.338516 
L 369.409091 919.631527 
L 374.318182 918.581593 
L 379.227273 918.446117 
L 384.136364 917.233613 
L 389.045455 916.718806 
L 393.954545 916.003045 
L 398.863636 915.43179 
L 403.772727 915.43179 
L 408.681818 913.036134 
L 418.5 911.232054 
L 423.409091 910.50726 
L 428.318182 909.899879 
L 433.227273 908.17031 
L 438.136364 906.160759 
L 443.045455 905.533056 
L 447.954545 905.533056 
L 452.863636 903.275133 
L 457.772727 901.667492 
L 462.681818 899.7889 
L 467.590909 898.262544 
L 472.5 897.029719 
L 477.409091 895.422077 
L 482.318182 895.422077 
L 487.227273 890.307882 
L 492.136364 888.463159 
L 501.954545 882.904153 
L 506.863636 878.837634 
L 516.681818 868.676981 
L 526.5 856.086803 
L 531.409091 850.448769 
L 536.318182 843.322765 
L 541.227273 828.686909 
L 546.136364 824.290733 
L 555.954545 814.728429 
L 560.863636 810.655136 
L 565.772727 805.470945 
L 570.681818 801.327657 
L 575.590909 796.985671 
L 580.5 794.646463 
L 585.409091 789.566137 
L 590.318182 785.745731 
L 595.227273 780.895713 
L 605.045455 773.024593 
L 609.954545 769.425464 
L 614.863636 766.119865 
L 619.772727 763.238756 
L 624.681818 759.838324 
L 634.5 753.823217 
L 639.409091 751.079841 
L 659.045455 741.693655 
L 673.772727 734.102519 
L 678.681818 729.074124 
L 683.590909 728.895748 
L 688.5 726.007865 
L 693.409091 723.896707 
L 703.227273 718.969919 
L 717.954545 710.107572 
L 722.863636 707.404838 
L 727.772727 703.990859 
L 737.590909 703.990859 
L 742.5 692.468678 
L 747.409091 688.413449 
L 752.318182 684.5095 
L 757.227273 680.192352 
L 767.045455 672.373165 
L 771.954545 668.281808 
L 786.681818 655.05038 
L 791.590909 650.182299 
L 801.409091 640.694507 
L 821.045455 620.050318 
L 825.954545 615.509635 
L 840.681818 601.277947 
L 845.590909 596.793712 
L 850.5 592.054332 
L 860.318182 583.379392 
L 870.136364 573.846442 
L 875.045455 568.926428 
L 879.954545 568.926428 
L 884.863636 559.007372 
L 889.772727 554.024136 
L 894.681818 547.620667 
L 899.590909 541.449764 
L 909.409091 528.030928 
L 924.136364 509.520476 
L 929.045455 503.019916 
L 933.954545 497.198991 
L 933.954545 497.198991 
" clip-path="url(#p049b083f44)" style="fill: none; stroke: #c44e52; stroke-width: 1.5; stroke-linecap: round"/>
   </g>
   <g id="line2d_19">
    <path d="M 364.5 923.4 
L 369.409091 923.4 
L 374.318182 923.4 
L 379.227273 923.4 
L 384.136364 923.4 
L 389.045455 923.4 
L 393.954545 923.4 
L 398.863636 923.4 
L 403.772727 923.4 
L 408.681818 923.4 
L 413.590909 923.4 
L 418.5 923.4 
L 423.409091 923.4 
L 428.318182 923.4 
L 433.227273 923.4 
L 438.136364 923.4 
L 443.045455 923.4 
L 447.954545 923.4 
L 452.863636 923.397742 
L 457.772727 923.397742 
L 462.681818 923.397742 
L 467.590909 923.368389 
L 472.5 923.368389 
L 477.409091 923.368389 
L 482.318182 923.368389 
L 487.227273 923.368389 
L 492.136364 922.510378 
L 497.045455 922.510378 
L 501.954545 922.187495 
L 506.863636 922.187495 
L 511.772727 921.336258 
L 516.681818 921.336258 
L 521.590909 921.336258 
L 526.5 920.620497 
L 531.409091 920.620497 
L 536.318182 920.620497 
L 541.227273 919.857319 
L 546.136364 919.857319 
L 551.045455 919.340255 
L 555.954545 919.340255 
L 560.863636 919.340255 
L 565.772727 919.340255 
L 570.681818 919.340255 
L 575.590909 908.630926 
L 580.5 908.308043 
L 585.409091 908.021287 
L 590.318182 907.666793 
L 595.227273 907.635182 
L 600.136364 907.533576 
L 605.045455 906.641696 
L 609.954545 906.47461 
L 614.863636 905.794975 
L 619.772727 905.13792 
L 624.681818 904.377 
L 629.590909 902.674526 
L 634.5 900.737228 
L 639.409091 899.906312 
L 644.318182 898.271576 
L 649.227273 895.324987 
L 654.136364 892.805145 
L 659.045455 890.824946 
L 663.954545 890.824946 
L 668.863636 883.825386 
L 673.772727 881.881314 
L 678.681818 880.47237 
L 683.590909 876.358435 
L 688.5 875.195604 
L 693.409091 872.80898 
L 698.318182 870.736207 
L 703.227273 868.478284 
L 708.136364 866.610981 
L 713.045455 862.104167 
L 717.954545 859.564004 
L 722.863636 858.775989 
L 727.772727 854.971389 
L 732.681818 840.931624 
L 737.590909 840.931624 
L 742.5 824.983915 
L 747.409091 822.136674 
L 752.318182 815.211625 
L 757.227273 810.96673 
L 762.136364 808.361087 
L 767.045455 803.942332 
L 771.954545 796.574729 
L 776.863636 789.184548 
L 781.772727 781.622764 
L 786.681818 773.367798 
L 791.590909 771.649518 
L 796.5 768.716477 
L 801.409091 767.023034 
L 806.318182 760.109275 
L 811.227273 751.283054 
L 816.136364 744.540896 
L 821.045455 736.599781 
L 825.954545 728.724146 
L 830.863636 721.189458 
L 835.772727 713.573484 
L 840.681818 702.053561 
L 845.590909 692.123216 
L 850.5 681.501947 
L 855.409091 671.135823 
L 860.318182 662.43153 
L 865.227273 653.783686 
L 870.136364 640.696765 
L 875.045455 632.981442 
L 879.954545 627.183096 
L 884.863636 617.40629 
L 889.772727 610.083846 
L 894.681818 602.849461 
L 899.590909 595.278646 
L 904.5 588.2407 
L 909.409091 581.123727 
L 914.318182 570.996943 
L 919.227273 562.570375 
L 924.136364 553.046456 
L 929.045455 544.07347 
L 933.954545 536.936176 
" clip-path="url(#p049b083f44)" style="fill: none; stroke: #8172b3; stroke-width: 1.5; stroke-linecap: round"/>
   </g>
   <g id="line2d_20">
    <path d="M 364.5 923.4 
L 369.409091 923.4 
L 374.318182 923.4 
L 379.227273 923.4 
L 384.136364 923.4 
L 389.045455 923.4 
L 393.954545 923.4 
L 398.863636 923.4 
L 403.772727 923.4 
L 408.681818 923.4 
L 413.590909 923.4 
L 418.5 923.4 
L 423.409091 923.4 
L 428.318182 923.4 
L 433.227273 923.4 
L 438.136364 923.4 
L 443.045455 923.4 
L 447.954545 923.4 
L 452.863636 923.4 
L 457.772727 923.4 
L 462.681818 923.4 
L 467.590909 923.397742 
L 472.5 923.397742 
L 477.409091 923.397742 
L 482.318182 923.397742 
L 487.227273 923.397742 
L 492.136364 923.397742 
L 497.045455 923.397742 
L 501.954545 923.298393 
L 506.863636 923.298393 
L 511.772727 923.298393 
L 516.681818 923.298393 
L 521.590909 923.298393 
L 526.5 923.298393 
L 531.409091 923.298393 
L 536.318182 923.298393 
L 541.227273 923.298393 
L 546.136364 923.298393 
L 551.045455 923.298393 
L 555.954545 923.298393 
L 560.863636 923.298393 
L 565.772727 923.298393 
L 570.681818 921.361096 
L 575.590909 921.361096 
L 580.5 921.361096 
L 585.409091 921.361096 
L 590.318182 921.017891 
L 595.227273 921.017891 
L 600.136364 921.017891 
L 605.045455 920.07408 
L 609.954545 920.07408 
L 614.863636 920.07408 
L 619.772727 920.07408 
L 624.681818 920.07408 
L 629.590909 920.07408 
L 634.5 920.07408 
L 639.409091 918.719326 
L 644.318182 918.021628 
L 649.227273 917.644555 
L 654.136364 917.644555 
L 659.045455 917.199744 
L 663.954545 917.199744 
L 668.863636 916.280769 
L 673.772727 916.280769 
L 678.681818 916.280769 
L 683.590909 916.280769 
L 688.5 916.280769 
L 693.409091 913.56223 
L 698.318182 913.56223 
L 703.227273 912.686156 
L 708.136364 910.58403 
L 713.045455 909.665055 
L 717.954545 908.773176 
L 722.863636 907.580992 
L 727.772727 906.921679 
L 732.681818 905.426934 
L 737.590909 905.426934 
L 742.5 903.19159 
L 747.409091 900.585947 
L 752.318182 900.585947 
L 757.227273 898.337056 
L 762.136364 896.492333 
L 767.045455 894.631804 
L 771.954545 893.028679 
L 776.863636 893.028679 
L 781.772727 889.32117 
L 786.681818 887.011315 
L 791.590909 884.358255 
L 796.5 884.358255 
L 801.409091 882.050658 
L 806.318182 878.959562 
L 811.227273 875.281405 
L 816.136364 871.269076 
L 821.045455 868.627307 
L 825.954545 868.387967 
L 830.863636 864.47047 
L 835.772727 857.906689 
L 840.681818 852.264139 
L 845.590909 848.319548 
L 850.5 844.354635 
L 855.409091 840.195541 
L 860.318182 836.124507 
L 865.227273 833.383388 
L 870.136364 828.424989 
L 875.045455 823.30402 
L 879.954545 821.974104 
L 884.863636 815.414838 
L 889.772727 809.767773 
L 894.681818 806.873115 
L 899.590909 802.727569 
L 904.5 799.112635 
L 909.409091 794.982894 
L 914.318182 787.983333 
L 919.227273 778.642306 
L 924.136364 771.906922 
L 929.045455 767.772665 
L 933.954545 763.959033 
" clip-path="url(#p049b083f44)" style="fill: none; stroke: #937860; stroke-width: 1.5; stroke-linecap: round"/>
   </g>
   <g id="line2d_21"/>
   <g id="line2d_22"/>
   <g id="line2d_23"/>
   <g id="line2d_24"/>
   <g id="line2d_25"/>
   <g id="line2d_26"/>
   <g id="patch_3">
    <path d="M 135 961.2 
L 135 129.6 
" style="fill: none; stroke: #ffffff; stroke-width: 1.25; stroke-linejoin: miter; stroke-linecap: square"/>
   </g>
   <g id="patch_4">
    <path d="M 972 961.2 
L 972 129.6 
" style="fill: none; stroke: #ffffff; stroke-width: 1.25; stroke-linejoin: miter; stroke-linecap: square"/>
   </g>
   <g id="patch_5">
    <path d="M 135 961.2 
L 972 961.2 
" style="fill: none; stroke: #ffffff; stroke-width: 1.25; stroke-linejoin: miter; stroke-linecap: square"/>
   </g>
   <g id="patch_6">
    <path d="M 135 129.6 
L 972 129.6 
" style="fill: none; stroke: #ffffff; stroke-width: 1.25; stroke-linejoin: miter; stroke-linecap: square"/>
   </g>
   <g id="legend_1">
    <g id="patch_7">
     <path d="M 142.7 258.641563 
L 210.9 258.641563 
Q 213.1 258.641563 213.1 256.441563 
L 213.1 137.3 
Q 213.1 135.1 210.9 135.1 
L 142.7 135.1 
Q 140.5 135.1 140.5 137.3 
L 140.5 256.441563 
Q 140.5 258.641563 142.7 258.641563 
z
" style="fill: #eaeaf2; opacity: 0.8; stroke: #cccccc; stroke-linejoin: miter"/>
    </g>
    <g id="text_17">
     <!-- 国家 -->
     <g style="fill: #262626" transform="translate(164.8 149.0925)scale(0.12 -0.12)">
      <defs>
       <path id="MicrosoftYaHei-56fd" d="M 469 4997 
L 5938 4997 
L 5938 -834 
L 5456 -834 
L 5456 -522 
L 950 -522 
L 950 -841 
L 469 -841 
L 469 4997 
z
M 5456 4553 
L 950 4553 
L 950 -78 
L 5456 -78 
L 5456 4553 
z
M 1238 1009 
L 2963 1009 
L 2963 2247 
L 1456 2247 
L 1456 2672 
L 2963 2672 
L 2963 3509 
L 1338 3509 
L 1338 3934 
L 5063 3934 
L 5063 3509 
L 3425 3509 
L 3425 2672 
L 4938 2672 
L 4938 2247 
L 3425 2247 
L 3425 1009 
L 5163 1009 
L 5163 584 
L 1238 584 
L 1238 1009 
z
M 3750 1847 
L 4100 2109 
Q 4444 1753 4688 1441 
L 4319 1159 
Q 4019 1566 3750 1847 
z
" transform="scale(0.015625)"/>
       <path id="MicrosoftYaHei-5bb6" d="M 194 -209 
Q 2081 331 3200 1556 
Q 3113 1738 2997 1903 
Q 2066 941 425 422 
Q 331 634 200 847 
Q 1809 1291 2703 2256 
Q 2600 2359 2478 2459 
Q 1650 1872 444 1497 
Q 325 1703 163 1941 
Q 1653 2272 2550 3053 
L 975 3053 
L 975 3503 
L 5438 3503 
L 5438 3053 
L 3169 3053 
Q 3009 2884 2825 2728 
Q 3316 2331 3588 1841 
Q 4566 2319 5325 2822 
L 5619 2422 
Q 5109 2116 4534 1816 
Q 5088 616 6331 141 
Q 6125 -97 5944 -347 
Q 4722 278 4131 1609 
Q 3953 1522 3769 1431 
Q 4125 103 3656 -503 
Q 3431 -772 2794 -772 
Q 2544 -772 2006 -753 
Q 1969 -509 1913 -234 
Q 2400 -291 2781 -291 
Q 3456 -328 3438 522 
Q 3428 803 3369 1063 
Q 2263 -28 419 -641 
Q 325 -434 194 -209 
z
M 331 4528 
L 3156 4528 
Q 2972 4806 2725 5122 
L 3163 5403 
Q 3444 5059 3675 4722 
L 3356 4528 
L 6063 4528 
L 6063 3459 
L 5563 3459 
L 5563 4066 
L 831 4066 
L 831 3459 
L 331 3459 
L 331 4528 
z
" transform="scale(0.015625)"/>
      </defs>
      <use xlink:href="#MicrosoftYaHei-56fd"/>
      <use xlink:href="#MicrosoftYaHei-5bb6" x="100"/>
     </g>
    </g>
    <g id="line2d_27">
     <path d="M 144.9 162.51875 
L 155.9 162.51875 
L 166.9 162.51875 
" style="fill: none; stroke: #4c72b0; stroke-width: 1.5; stroke-linecap: round"/>
    </g>
    <g id="text_18">
     <!-- 加拿大 -->
     <g style="fill: #262626" transform="translate(175.7 166.36875)scale(0.11 -0.11)">
      <defs>
       <path id="MicrosoftYaHei-52a0" d="M 3663 4484 
L 6038 4484 
L 6038 -666 
L 5544 -666 
L 5544 -34 
L 4156 -34 
L 4156 -666 
L 3663 -666 
L 3663 4484 
z
M 231 4178 
L 1103 4178 
Q 1109 4681 1106 5297 
L 1600 5297 
Q 1600 4675 1594 4178 
L 3050 4178 
Q 3019 1778 2969 409 
Q 2944 -716 2119 -672 
Q 1875 -672 1400 -653 
Q 1356 -391 1300 -109 
Q 1738 -166 2013 -166 
Q 2431 -178 2469 428 
Q 2538 1909 2550 3703 
L 1588 3703 
Q 1581 3225 1569 2891 
Q 1544 447 394 -872 
Q 238 -678 25 -453 
Q 1063 684 1081 2941 
Q 1094 3269 1100 3703 
L 231 3703 
L 231 4178 
z
M 5544 4022 
L 4156 4022 
L 4156 416 
L 5544 416 
L 5544 4022 
z
" transform="scale(0.015625)"/>
       <path id="MicrosoftYaHei-62ff" d="M 144 416 
L 3063 416 
L 3063 791 
L 725 791 
L 725 1128 
L 3063 1128 
L 3063 1522 
Q 1769 1478 681 1459 
Q 631 1722 594 1853 
Q 3613 1878 5500 2009 
L 5575 1616 
Q 4494 1572 3525 1534 
L 3525 1128 
L 5613 1128 
L 5613 791 
L 3525 791 
L 3525 416 
L 6231 416 
L 6231 53 
L 3525 53 
L 3525 -116 
Q 3525 -772 2881 -784 
Q 2544 -791 1925 -791 
Q 1894 -591 1838 -309 
Q 2381 -353 2725 -353 
Q 3063 -353 3063 -28 
L 3063 53 
L 144 53 
L 144 416 
z
M 1200 3428 
L 5200 3428 
L 5200 2184 
L 4763 2184 
L 4763 2272 
L 1638 2272 
L 1638 2141 
L 1200 2141 
L 1200 3428 
z
M 3663 5309 
L 3563 5209 
Q 4575 4253 6313 3859 
Q 6119 3616 6006 3403 
Q 5138 3672 4450 4047 
L 4450 3809 
L 1906 3809 
L 1906 4047 
Q 1206 3659 375 3322 
Q 225 3553 88 3716 
Q 1881 4366 3000 5309 
L 3663 5309 
z
M 4763 3078 
L 1638 3078 
L 1638 2622 
L 4763 2622 
L 4763 3078 
z
M 3244 4922 
Q 2725 4522 2100 4159 
L 4256 4159 
Q 3688 4497 3244 4922 
z
" transform="scale(0.015625)"/>
       <path id="MicrosoftYaHei-5927" d="M 88 -341 
Q 2666 806 2869 3103 
L 200 3103 
L 200 3591 
L 2891 3591 
Q 2906 4431 2906 5284 
L 3450 5284 
Q 3450 4444 3434 3591 
L 6206 3591 
L 6206 3103 
L 3425 3103 
Q 3869 606 6338 -191 
Q 6019 -497 5863 -697 
Q 3828 122 3203 2219 
Q 2716 322 475 -822 
Q 350 -653 88 -341 
z
" transform="scale(0.015625)"/>
      </defs>
      <use xlink:href="#MicrosoftYaHei-52a0"/>
      <use xlink:href="#MicrosoftYaHei-62ff" x="100"/>
      <use xlink:href="#MicrosoftYaHei-5927" x="200"/>
     </g>
    </g>
    <g id="line2d_28">
     <path d="M 144.9 179.546406 
L 155.9 179.546406 
L 166.9 179.546406 
" style="fill: none; stroke: #dd8452; stroke-width: 1.5; stroke-linecap: round"/>
    </g>
    <g id="text_19">
     <!-- 印度 -->
     <g style="fill: #262626" transform="translate(175.7 183.396406)scale(0.11 -0.11)">
      <defs>
       <path id="MicrosoftYaHei-5370" d="M 3281 4828 
L 5950 4828 
L 5950 1053 
Q 5950 228 5156 222 
Q 4756 216 4200 228 
Q 4169 503 4119 803 
Q 4681 753 5000 753 
Q 5438 747 5438 1209 
L 5438 4341 
L 3794 4341 
L 3794 -834 
L 3281 -834 
L 3281 4828 
z
M 3038 4872 
Q 2213 4647 994 4397 
L 994 2959 
L 2888 2959 
L 2888 2491 
L 994 2491 
L 994 553 
Q 1969 866 2925 1209 
Q 2925 941 2975 678 
Q 1925 334 1006 -28 
Q 788 -134 631 -278 
L 294 159 
Q 494 384 481 728 
L 481 4766 
Q 1831 5028 2800 5328 
L 3038 4872 
z
" transform="scale(0.015625)"/>
       <path id="MicrosoftYaHei-5ea6" d="M 1550 1216 
L 1550 1628 
L 5469 1628 
L 5469 1222 
Q 4903 613 4147 163 
Q 5050 -200 6263 -309 
L 6019 -797 
Q 4625 -603 3644 -109 
Q 2600 -619 1250 -866 
Q 1150 -666 994 -416 
Q 2231 -222 3166 166 
Q 2497 600 2066 1216 
L 1550 1216 
z
M 1363 3541 
L 2294 3541 
L 2294 4066 
L 2769 4066 
L 2769 3541 
L 4538 3541 
L 4538 4072 
L 5013 4072 
L 5013 3541 
L 6150 3541 
L 6150 3128 
L 5013 3128 
L 5013 1928 
L 4538 1928 
L 4538 2147 
L 2769 2147 
L 2769 1922 
L 2294 1922 
L 2294 3128 
L 1363 3128 
L 1363 3541 
z
M 3025 5172 
L 3481 5391 
Q 3694 5056 3909 4634 
L 6213 4634 
L 6213 4197 
L 1225 4197 
L 1225 2316 
Q 1225 178 394 -872 
Q 238 -666 38 -447 
Q 725 397 738 2347 
L 738 4634 
L 3331 4634 
Q 3188 4909 3025 5172 
z
M 2769 2547 
L 4538 2547 
L 4538 3128 
L 2769 3128 
L 2769 2547 
z
M 4819 1216 
L 2588 1216 
Q 3031 728 3656 391 
Q 4334 741 4819 1216 
z
" transform="scale(0.015625)"/>
      </defs>
      <use xlink:href="#MicrosoftYaHei-5370"/>
      <use xlink:href="#MicrosoftYaHei-5ea6" x="100"/>
     </g>
    </g>
    <g id="line2d_29">
     <path d="M 144.9 196.574063 
L 155.9 196.574063 
L 166.9 196.574063 
" style="fill: none; stroke: #55a868; stroke-width: 1.5; stroke-linecap: round"/>
    </g>
    <g id="text_20">
     <!-- 意大利 -->
     <g style="fill: #262626" transform="translate(175.7 200.424063)scale(0.11 -0.11)">
      <defs>
       <path id="MicrosoftYaHei-610f" d="M 2706 759 
L 3022 1028 
L 1419 1028 
L 1419 834 
L 956 834 
L 956 2997 
L 5406 2997 
L 5406 834 
L 4944 834 
L 4944 1028 
L 3038 1028 
Q 3447 681 3756 353 
L 3388 47 
Q 3125 353 2706 759 
z
M 150 3722 
L 1906 3722 
Q 1659 3956 1406 4172 
L 1594 4347 
L 538 4347 
L 538 4722 
L 3028 4722 
Q 2900 4984 2763 5216 
L 3188 5397 
Q 3391 5044 3538 4722 
L 5863 4722 
L 5863 4347 
L 4772 4347 
L 4988 4184 
Q 4738 3953 4472 3722 
L 6250 3722 
L 6250 3347 
L 150 3347 
L 150 3722 
z
M 1650 791 
L 2125 791 
L 2125 78 
Q 2125 -284 2538 -284 
L 3819 -284 
Q 4269 -284 4350 59 
Q 4413 297 4463 622 
Q 4681 528 4931 447 
Q 4856 91 4794 -128 
Q 4644 -709 3950 -709 
L 2438 -709 
Q 1650 -709 1650 34 
L 1650 791 
z
M 1419 1391 
L 4944 1391 
L 4944 1841 
L 1419 1841 
L 1419 1391 
z
M 4944 2634 
L 1419 2634 
L 1419 2191 
L 4944 2191 
L 4944 2634 
z
M 3925 3834 
Q 4178 4047 4481 4347 
L 1838 4347 
Q 2116 4141 2381 3909 
L 2191 3722 
L 4038 3722 
L 3925 3834 
z
M 656 759 
L 1094 591 
Q 869 22 569 -559 
Q 381 -472 131 -366 
Q 388 97 656 759 
z
M 5175 503 
L 5531 778 
Q 5975 303 6325 -116 
L 5931 -428 
Q 5550 72 5175 503 
z
" transform="scale(0.015625)"/>
       <path id="MicrosoftYaHei-5229" d="M 75 741 
Q 913 1653 1488 2997 
L 106 2997 
L 106 3453 
L 1606 3453 
L 1606 4391 
Q 963 4328 331 4272 
Q 288 4503 206 4747 
Q 1706 4866 3269 5066 
L 3394 4591 
Q 2731 4509 2081 4441 
L 2081 3453 
L 3500 3453 
L 3500 2997 
L 2081 2997 
L 2081 2159 
L 2356 2422 
Q 2944 1922 3525 1347 
L 3144 959 
Q 2763 1403 2081 2053 
L 2081 -828 
L 1606 -828 
L 1606 2297 
Q 1069 1084 325 178 
Q 156 584 75 741 
z
M 5444 5197 
L 5938 5197 
L 5938 -9 
Q 5938 -803 5138 -797 
Q 4881 -797 4306 -791 
Q 4269 -534 4213 -228 
Q 4719 -284 4981 -284 
Q 5444 -291 5444 184 
L 5444 5197 
z
M 3963 4572 
L 4438 4572 
L 4438 622 
L 3963 622 
L 3963 4572 
z
" transform="scale(0.015625)"/>
      </defs>
      <use xlink:href="#MicrosoftYaHei-610f"/>
      <use xlink:href="#MicrosoftYaHei-5927" x="100"/>
      <use xlink:href="#MicrosoftYaHei-5229" x="200"/>
     </g>
    </g>
    <g id="line2d_30">
     <path d="M 144.9 213.601719 
L 155.9 213.601719 
L 166.9 213.601719 
" style="fill: none; stroke: #c44e52; stroke-width: 1.5; stroke-linecap: round"/>
    </g>
    <g id="text_21">
     <!-- 伊朗 -->
     <g style="fill: #262626" transform="translate(175.7 217.451719)scale(0.11 -0.11)">
      <defs>
       <path id="MicrosoftYaHei-4f0a" d="M 1938 1709 
L 3109 1709 
Q 3169 2194 3175 2853 
L 1750 2853 
L 1750 3303 
L 3178 3303 
Q 3181 3706 3181 4434 
L 2163 4434 
L 2163 4872 
L 5675 4872 
L 5675 3303 
L 6306 3303 
L 6306 2853 
L 5675 2853 
L 5675 1003 
L 5200 1003 
L 5200 1272 
L 3525 1272 
Q 3325 -72 2138 -859 
Q 1994 -672 1794 -459 
Q 2850 228 3041 1272 
L 1938 1272 
L 1938 1709 
z
M 56 2391 
Q 1025 3697 1525 5347 
L 2031 5178 
Q 1722 4309 1356 3578 
L 1356 -816 
L 881 -816 
L 881 2722 
Q 584 2241 256 1834 
Q 169 2103 56 2391 
z
M 3584 1709 
L 5200 1709 
L 5200 2853 
L 3653 2853 
Q 3641 2206 3584 1709 
z
M 5200 4434 
L 3669 4434 
Q 3669 3744 3663 3303 
L 5200 3303 
L 5200 4434 
z
" transform="scale(0.015625)"/>
       <path id="MicrosoftYaHei-6717" d="M 3469 4953 
L 5894 4953 
L 5894 -34 
Q 5894 -697 5244 -697 
L 4425 -697 
Q 4419 -659 4350 -216 
Q 4838 -241 5175 -241 
Q 5419 -241 5419 -9 
L 5419 1366 
L 3891 1366 
Q 3700 -69 2813 -809 
Q 2638 -628 2425 -472 
Q 3469 341 3469 2247 
L 3469 4953 
z
M 1644 1147 
L 1950 1428 
Q 2525 903 2975 403 
L 2669 72 
Q 2525 238 2391 384 
Q 913 -356 656 -609 
L 369 -166 
Q 538 3 538 284 
L 538 4591 
L 1669 4591 
Q 1438 4859 1188 5072 
L 1538 5366 
Q 1825 5109 2063 4853 
L 1769 4591 
L 2844 4591 
L 2844 1503 
L 2381 1503 
L 2381 1759 
L 1000 1759 
L 1000 159 
Q 1572 444 2081 719 
Q 1841 972 1644 1147 
z
M 3931 1791 
L 5419 1791 
L 5419 2947 
L 3944 2947 
Q 3950 2203 3931 1791 
z
M 5419 4528 
L 3944 4528 
L 3944 3372 
L 5419 3372 
L 5419 4528 
z
M 1000 2172 
L 2381 2172 
L 2381 2978 
L 1000 2978 
L 1000 2172 
z
M 2381 4178 
L 1000 4178 
L 1000 3391 
L 2381 3391 
L 2381 4178 
z
" transform="scale(0.015625)"/>
      </defs>
      <use xlink:href="#MicrosoftYaHei-4f0a"/>
      <use xlink:href="#MicrosoftYaHei-6717" x="100"/>
     </g>
    </g>
    <g id="line2d_31">
     <path d="M 144.9 230.629375 
L 155.9 230.629375 
L 166.9 230.629375 
" style="fill: none; stroke: #8172b3; stroke-width: 1.5; stroke-linecap: round"/>
    </g>
    <g id="text_22">
     <!-- 秘鲁 -->
     <g style="fill: #262626" transform="translate(175.7 234.479375)scale(0.11 -0.11)">
      <defs>
       <path id="MicrosoftYaHei-79d8" d="M 2025 -72 
Q 2772 416 3363 1044 
L 3363 4347 
L 3831 4347 
L 3831 1597 
Q 4759 2822 5263 4716 
L 5750 4603 
Q 5097 2219 3831 813 
L 3831 259 
Q 3831 -116 4200 -116 
L 4688 -116 
Q 5138 -116 5181 259 
Q 5244 641 5269 1272 
Q 5519 1159 5769 1084 
Q 5719 453 5669 109 
Q 5575 -591 4756 -591 
L 4063 -591 
Q 3363 -591 3363 197 
L 3363 341 
Q 2894 -91 2350 -447 
Q 2263 -316 2025 -72 
z
M 106 878 
Q 672 1869 1003 3097 
L 225 3097 
L 225 3541 
L 1069 3541 
L 1069 4397 
Q 706 4369 294 4341 
Q 263 4553 200 4797 
Q 1475 4866 2425 5003 
L 2538 4528 
Q 2122 4484 1531 4434 
L 1531 3541 
L 2388 3541 
L 2388 3097 
L 1531 3097 
L 1531 2616 
L 1794 2791 
Q 2056 2403 2369 1816 
L 1981 1566 
Q 1713 2109 1531 2434 
L 1531 -784 
L 1069 -784 
L 1069 2166 
Q 766 1097 325 341 
Q 225 603 106 878 
z
M 2625 3028 
L 3094 2959 
Q 2950 1953 2781 1147 
Q 2469 1234 2319 1241 
Q 2519 2009 2625 3028 
z
M 5438 2922 
L 5906 3053 
Q 6150 2216 6325 1397 
L 5844 1272 
Q 5669 2166 5438 2922 
z
M 3581 5103 
L 4000 5366 
Q 4381 4834 4800 4159 
L 4350 3878 
Q 3975 4566 3581 5103 
z
" transform="scale(0.015625)"/>
       <path id="MicrosoftYaHei-9c81" d="M 119 3997 
Q 1119 4547 1700 5334 
L 2238 5334 
Q 2094 5150 1944 4978 
L 4331 4978 
L 4331 4641 
L 3919 4184 
L 5563 4184 
L 5563 2266 
L 5138 2266 
L 5138 2397 
L 1263 2397 
L 1263 2266 
L 838 2266 
L 838 3941 
Q 619 3775 394 3634 
Q 269 3828 119 3997 
z
M 950 1284 
L 5450 1284 
L 5450 -834 
L 5013 -834 
L 5013 -578 
L 1388 -578 
L 1388 -834 
L 950 -834 
L 950 1284 
z
M 175 2009 
L 6225 2009 
L 6225 1659 
L 175 1659 
L 175 2009 
z
M 5013 941 
L 1388 941 
L 1388 516 
L 5013 516 
L 5013 941 
z
M 1388 -234 
L 5013 -234 
L 5013 191 
L 1388 191 
L 1388 -234 
z
M 1141 4184 
L 3356 4184 
L 3744 4628 
L 1619 4628 
Q 1388 4391 1141 4184 
z
M 5138 3853 
L 3413 3853 
L 3413 3447 
L 5138 3447 
L 5138 3853 
z
M 1263 2728 
L 2988 2728 
L 2988 3134 
L 1263 3134 
L 1263 2728 
z
M 1263 3447 
L 2988 3447 
L 2988 3853 
L 1263 3853 
L 1263 3447 
z
M 3413 2728 
L 5138 2728 
L 5138 3134 
L 3413 3134 
L 3413 2728 
z
" transform="scale(0.015625)"/>
      </defs>
      <use xlink:href="#MicrosoftYaHei-79d8"/>
      <use xlink:href="#MicrosoftYaHei-9c81" x="100"/>
     </g>
    </g>
    <g id="line2d_32">
     <path d="M 144.9 247.657031 
L 155.9 247.657031 
L 166.9 247.657031 
" style="fill: none; stroke: #937860; stroke-width: 1.5; stroke-linecap: round"/>
    </g>
    <g id="text_23">
     <!-- 南非 -->
     <g style="fill: #262626" transform="translate(175.7 251.507031)scale(0.11 -0.11)">
      <defs>
       <path id="MicrosoftYaHei-5357" d="M 163 4553 
L 2969 4553 
L 2969 5259 
L 3481 5259 
L 3481 4553 
L 6219 4553 
L 6219 4109 
L 3481 4109 
L 3481 3472 
L 5875 3472 
L 5875 -72 
Q 5875 -803 5150 -809 
Q 4738 -816 4119 -791 
Q 4081 -559 4025 -278 
Q 4644 -316 4969 -316 
Q 5381 -316 5381 47 
L 5381 3034 
L 1056 3034 
L 1056 -834 
L 563 -834 
L 563 3472 
L 2969 3472 
L 2969 4109 
L 163 4109 
L 163 4553 
z
M 1300 909 
L 2975 909 
L 2975 1591 
L 1500 1591 
L 1500 2003 
L 3463 2003 
Q 3763 2453 4069 2991 
L 4531 2734 
Q 4225 2316 3975 2003 
L 4938 2003 
L 4938 1591 
L 3463 1591 
L 3463 909 
L 5138 909 
L 5138 497 
L 3463 497 
L 3463 -703 
L 2975 -703 
L 2975 497 
L 1300 497 
L 1300 909 
z
M 1913 2741 
L 2281 2991 
Q 2600 2622 2863 2272 
L 2450 2016 
Q 2200 2378 1913 2741 
z
" transform="scale(0.015625)"/>
       <path id="MicrosoftYaHei-975e" d="M 3688 5284 
L 4188 5284 
L 4188 4391 
L 6131 4391 
L 6131 3941 
L 4188 3941 
L 4188 2716 
L 6038 2716 
L 6038 2266 
L 4188 2266 
L 4188 1016 
L 6269 1016 
L 6269 566 
L 4188 566 
L 4188 -797 
L 3688 -797 
L 3688 5284 
z
M 150 1016 
L 2206 1016 
L 2206 2266 
L 375 2266 
L 375 2716 
L 2206 2716 
L 2206 3941 
L 275 3941 
L 275 4391 
L 2206 4391 
L 2206 5284 
L 2706 5284 
L 2706 -797 
L 2206 -797 
L 2206 566 
L 150 566 
L 150 1016 
z
" transform="scale(0.015625)"/>
      </defs>
      <use xlink:href="#MicrosoftYaHei-5357"/>
      <use xlink:href="#MicrosoftYaHei-975e" x="100"/>
     </g>
    </g>
   </g>
  </g>
 </g>
 <defs>
  <clipPath id="p049b083f44">
   <rect x="135" y="129.6" width="837" height="831.6"/>
  </clipPath>
 </defs>
</svg>
